/* XPM */
static char *xpm_[] = {
/* columns rows colors chars-per-pixel */
"64 64 21 1 ",
"  c #0A0B0A",
". c #0C0C0C",
"X c #111211",
"o c #2D2420",
"O c #302723",
"+ c #342A25",
"@ c #3C312C",
"# c #512D23",
"$ c #5B3C2C",
"% c #453A35",
"& c #4A413C",
"* c #5A5237",
"= c #645C3F",
"- c #695D58",
"; c #5E724A",
": c #677755",
"> c #667556",
", c #70805F",
"< c #748363",
"1 c #778667",
"2 c None",
/* pixels */
"2222222222222222222222222222222222222222222222222222222222222222",
"2222222222222222222222222222222222222222222222222222222222222222",
"2222222222222222222222222222222222222222222222222222222222222222",
"2222222222222222222222222222222222222222222222222222222222222222",
"2222222222222222222222222222222222222222222222222222222222222222",
"2222222222222222222222222222222222222222222222222222222222222222",
"2222222222222222222222222222222222222222222222222222222222222222",
"2222222222222222222222222222222222222222222222222222222222222222",
"2222222222222222222222222222XXXXXXXXXX22222222222222222222222222",
"2222222222222222222222222222XXXXXXXXXX22222222222222222222222222",
"22222222222222222222222222XX$$########XX222222222222222222222222",
"22222222222222222222222222XX$$########XX222222222222222222222222",
"222222222222222222222222XX;;;;$$##$$;;;;X22222222222222222222222",
"222222222222222222222222XX;;;;$$##$$;;;;X22222222222222222222222",
"2222222222222222222222XX;;;;;;$$$$;;;;;;;XX222222222222222222222",
"2222222222222222222222XX;;;;;;$$$$;;;;;;;XX222222222222222222222",
"2222222222222222222222XX;;;;;;$$::::;;;;;XX222222222222222222222",
"2222222222222222222222XX;;;;;;$$::::;;;;;XX222222222222222222222",
"2222222222222222222222XX;;;;::$$,,,,::;;;XX222222222222222222222",
"2222222222222222222222XX;;;;::$$,,,,::;;;XX222222222222222222222",
"2222222222222222222222XX;;::,,$$,,,,,,::;XX222222222222222222222",
"2222222222222222222222XX;;::,,$$,,,,,,::;XX222222222222222222222",
"2222222222222222222222XX::,,$$,,,,,,,,,,:XX222222222222222222222",
"2222222222222222222222XX::,,$$,,,,,,,,,,:XX222222222222222222222",
"2222222222222222222222XX::$$,,111111,,,,:XX222222222222222222222",
"2222222222222222222222XX::$$,,111111,,,,:XX222222222222222222222",
"2222222222222222222222XX::$$,,111111,,,,:XX222222222222222222222",
"2222222222222222222222XX;;$$,,++++++,,::;XX222222222222222222222",
"2222222222222222222222XX;;$$,,++++++,,::;XX222222222222222222222",
"2222222222222222222222XX+++++++++++++++++XX222222222222222222222",
"2222222222222222222222XX+++++++++++++++++XX222222222222222222222",
"2222222222222222222222XX+++++++++++++++++XX222222222222222222222",
"2222222222222222222222XX+++++++++++++++++XX222222222222222222222",
"2222222222222222222222XX+++++++++++++++++XX222222222222222222222",
"2222222222222222222222XX+++++++++++++++++XX222222222222222222222",
"2222222222222222222222XXOO++++++++++++++OXX222222222222222222222",
"2222222222222222222222XXOO++++++++++++++OXX222222222222222222222",
"2222222222222222222222XXOOoo++++++++++ooOXX222222222222222222222",
"2222222222222222222222XXOOoo++++++++++ooOXX222222222222222222222",
"2222222222222222222222XXOOOO@@@@@@,,@@XXOOOXX2222222222222222222",
"2222222222222222222222XXOOOO@@@@@@,,@@XXOOOXX2222222222222222222",
"2222222222222222222222XXOOOO@@@@,,@@@@XXOOOXX2222222222222222222",
"2222222222222222222222XXOOOO@@@%,,@@@@XXOOOXX2222222222222222222",
"2222222222222222222222XXOOOo%%,,<<<<%%XXOOOXX2222222222222222222",
"2222222222222222222222XXoOOo%%<<<<<<%%XXOOoXX2222222222222222222",
"2222222222222222222222XX>:-=============:::XX2222222222222222222",
"2222222222222222222222XX::==============>>>XX2222222222222222222",
"222222222222222222222222XX======**======XXX222222222222222222222",
"222222222222222222222222XX======**======XXX222222222222222222222",
"222222222222222222222222XX==****XX****==X22222222222222222222222",
"222222222222222222222222XX==****XX****==X22222222222222222222222",
"222222222222222222222222XX1111XX22X.====X22222222222222222222222",
"222222222222222222222222XX1111XX22XX-===X22222222222222222222222",
"222222222222222222222222XX1111XX22XX&&&&X22222222222222222222222",
"222222222222222222222222XX1111XX22XX&&&&X22222222222222222222222",
"22222222222222222222222222XXXX2222XX----X22222222222222222222222",
"22222222222222222222222222XXXX2222XX----X22222222222222222222222",
"2222222222222222222222  ........  .......    2222222222222222222",
"222222222222222222222222                  .222222222222222222222",
"222222222222222222222222                  .222222222222222222222",
"2222222222222222222222222222222222222222222222222222222222222222",
"2222222222222222222222222222222222222222222222222222222222222222",
"2222222222222222222222222222222222222222222222222222222222222222",
"2222222222222222222222222222222222222222222222222222222222222222"
};
