/* XPM */
static char *xpm_[] = {
/* columns rows colors chars-per-pixel */
"64 64 21 1 ",
"  c #0A0B0A",
". c #0C0C0C",
"X c #111211",
"o c #2D2420",
"O c #302723",
"+ c #342A25",
"@ c #3C312C",
"# c #7A2D18",
"$ c #512D23",
"% c #5B3C2C",
"& c #453A35",
"* c #5A5237",
"= c #645C3F",
"- c #695D58",
"; c #5E724A",
": c #677755",
"> c #667556",
", c #6A7A5A",
"< c #70805F",
"1 c #778667",
"2 c None",
/* pixels */
"2222222222222222222222222222222222222222222222222222222222222222",
"2222222222222222222222222222222222222222222222222222222222222222",
"2222222222222222222222222222222222222222222222222222222222222222",
"2222222222222222222222222222222222222222222222222222222222222222",
"2222222222222222222222222222222222222222222222222222222222222222",
"2222222222222222222222222222222222222222222222222222222222222222",
"2222222222222222222222222222222222222222222222222222222222222222",
"2222222222222222222222222222222222222222222222222222222222222222",
"22222222222222222222222222222XXXXXXXXXX2222222222222222222222222",
"22222222222222222222222222222XXXXXXXXXX2222222222222222222222222",
"222222222222222222222222222XX%%$$$$$$$$XX22222222222222222222222",
"222222222222222222222222222XX%%$$$$$$$$XX22222222222222222222222",
"2222222222222222222222222XX;;;;%%$$%%;;;;XX222222222222222222222",
"2222222222222222222222222XX;;;;%%$$%%;;;;XX222222222222222222222",
"22222222222222222222222XX;;;;;;%%%%;;;;;;;;XX2222222222222222222",
"22222222222222222222222XX;;;;;;%%%%;;;;;;;;XX2222222222222222222",
"22222222222222222222222XX;;;;;;%%::::;;;;;;XX2222222222222222222",
"22222222222222222222222XX;;;;;;%%::::;;;;;;XX2222222222222222222",
"22222222222222222222222XX;;;;::%%<<<<::;;;;XX2222222222222222222",
"22222222222222222222222XX;;;;::%%<<<<::;;;;XX2222222222222222222",
"22222222222222222222222XX;;::<<%%<<<<<<::;;XX2222222222222222222",
"22222222222222222222222XX;;::<<%%<<<<<<::;;XX2222222222222222222",
"22222222222222222222222XX::<<%%<<<<<<<<<<::XX2222222222222222222",
"22222222222222222222222XX::<<%%<<<<<<<<<<::XX2222222222222222222",
"22222222222222222222222XX::%%<<111111<<<<::XX2222222222222222222",
"22222222222222222222222XX::%%<<111111<<<<::XX2222222222222222222",
"22222222222222222222222XX::%%<<111111<<<<::XX2222222222222222222",
"22222222222222222222222XX;;%%<<++++++<<::;;XX2222222222222222222",
"22222222222222222222222XX;;%%<<++++++<<::;;XX2222222222222222222",
"22222222222222222222222XX++++++++++++++++++XX2222222222222222222",
"22222222222222222222222XX++++++++++++++++++XX2222222222222222222",
"22222222222222222222222XX++++++++++++++++++XX2222222222222222222",
"22222222222222222222222XX++++++++++++++++++XX2222222222222222222",
"222222222222222222222XXOO++++++++++++++++++XX2222222222222222222",
"222222222222222222222XXOO++++++++++++++++++XX2222222222222222222",
"222222222222222222222XXOOOO++++++++++++++OOXX2222222222222222222",
"222222222222222222222XX+OOO++++++++++++++OOXX2222222222222222222",
"222222222222222222222XX+OOOoo++++++++++ooOOXX2222222222222222222",
"222222222222222222222XXOOOOoo++++++++++ooOOXX2222222222222222222",
"222222222222222222222XXOOXXXX@@@@@@<<@@OOXX222222222222222222222",
"222222222222222222222XXoOXXXX@@@@@@<<@@OOXX222222222222222222222",
"2222222222222222222XX+OOOXXXX@@@@<<@@@@OOXX222222222222222222222",
"2222222222222222222XXOOOOXXXX@@@@<<@@@@OOXX222222222222222222222",
"2222222222222222222XXOOOoXXXX&&111111&&OOXX222222222222222222222",
"2222222222222222222XXoOOoXX.X&&111111&&OOXX222222222222222222222",
"2222222222222222222XX:>>:XX-=============XX222222222222222222222",
"2222222222222222222XX>>>:XX==============XX222222222222222222222",
"222222222222222222222XXXXXX======**======XX222222222222222222222",
"222222222222222222222XXXXXX======**======XX222222222222222222222",
"2222222222222222222222222XX==****XX**----XX222222222222222222222",
"2222222222222222222222222XX==****XX**----XX222222222222222222222",
"2222222222222222222222222XX====XX22XX----XX222222222222222222222",
"2222222222222222222222222XX====XX22XX----XX222222222222222222222",
"2222222222222222222222222XX,,,,XX2222XXXX22222222222222222222222",
"2222222222222222222222222XX,,,,XX2222XXXX22222222222222222222222",
"2222222222222222222222222XX1111XX2222##2222222222222222222222222",
"2222222222222222222222222XX1111XX2222##2222222222222222222222222",
"2222222222222222222      ........  ........  2222222222222222222",
"222222222222222222222                      222222222222222222222",
"222222222222222222222                      222222222222222222222",
"2222222222222222222222222222222222222222222222222222222222222222",
"2222222222222222222222222222222222222222222222222222222222222222",
"2222222222222222222222222222222222222222222222222222222222222222",
"2222222222222222222222222222222222222222222222222222222222222222"
};
