/* XPM */
static char *xpm_[] = {
/* columns rows colors chars-per-pixel */
"64 64 20 1 ",
"  c #0A0B0A",
". c #0C0C0C",
"X c #111211",
"o c #2D2420",
"O c #342A25",
"+ c #3C312C",
"@ c #7A2D18",
"# c #512D23",
"$ c #5B3C2C",
"% c #453A35",
"& c #5A5237",
"* c #645C3F",
"= c #695D58",
"- c #5E724A",
"; c #677755",
": c #667556",
"> c #6A7A5A",
", c #70805F",
"< c #778667",
"1 c None",
/* pixels */
"1111111111111111111111111111111111111111111111111111111111111111",
"1111111111111111111111111111111111111111111111111111111111111111",
"1111111111111111111111111111111111111111111111111111111111111111",
"1111111111111111111111111111111111111111111111111111111111111111",
"1111111111111111111111111111111111111111111111111111111111111111",
"1111111111111111111111111111111111111111111111111111111111111111",
"1111111111111111111111111111111111111111111111111111111111111111",
"1111111111111111111111111111111111111111111111111111111111111111",
"1111111111111111111111111111111111111111111111111111111111111111",
"1111111111111111111111111111111111111111111111111111111111111111",
"1111111111111111111111111111111111111111111111111111111111111111",
"1111111111111111111111111111111111111111111111111111111111111111",
"1111111111111111111111111111XXXXXXXXXX11111111111111111111111111",
"1111111111111111111111111111XXXXXXXXXX11111111111111111111111111",
"11111111111111111111111111XX$$########XX111111111111111111111111",
"11111111111111111111111111XX$$########XX111111111111111111111111",
"111111111111111111111111XX----$$##$$----XX1111111111111111111111",
"111111111111111111111111XX----$$##$$----XX1111111111111111111111",
"1111111111111111111111XX------$$$$--------XX11111111111111111111",
"1111111111111111111111XX------$$$$--------XX11111111111111111111",
"1111111111111111111111XX------$$;;;;------XX11111111111111111111",
"1111111111111111111111XX------$$;;;;------XX11111111111111111111",
"1111111111111111111111XX----;;$$,,,,;;----XX11111111111111111111",
"1111111111111111111111XX----;;$$,,,,;;----XX11111111111111111111",
"1111111111111111111111XX--;;,,$$,,,,,,;;--XX11111111111111111111",
"1111111111111111111111XX--;;,,$$,,,,,,;;--XX11111111111111111111",
"1111111111111111111111XX;;,,$$<<<<<<,,,,;;XX11111111111111111111",
"1111111111111111111111XX;;$$,,<<<<<<,,,,;;XX11111111111111111111",
"1111111111111111111111XX;;$$,,<<<<<<,,,,;;XX11111111111111111111",
"1111111111111111111111XX;;$$,,OOOOOO,,,,;;XX11111111111111111111",
"1111111111111111111111XX;;$$,,OOOOOO,,,,;;XX11111111111111111111",
"1111111111111111111111XXOOOOOOOOOOOOOOOOOOXX11111111111111111111",
"1111111111111111111111XXOOOOOOOOOOOOOOOOOOXX11111111111111111111",
"1111111111111111111111XXOOOOOOOOOOOOOOOOOOXX11111111111111111111",
"1111111111111111111111XXOOOOOOOOOOOOOOOOOOXX11111111111111111111",
"1111111111111111111111XXOOOOOOOOOOOOOOOOOOXX11111111111111111111",
"1111111111111111111111XXOOOOOOOOOOOOOOOOOOXX11111111111111111111",
"1111111111111111111111XXooOOOOOOOOOOOOOOooXX11111111111111111111",
"1111111111111111111111XXooOOOOOOOOOOOOOOooXX11111111111111111111",
"1111111111111111111111XXooooOOOOOO>>OOooooXX11111111111111111111",
"1111111111111111111111XXooooOOOOOO>>OOooooXX11111111111111111111",
"11111111111111111111XXooooXX++++,,++++ooooXX11111111111111111111",
"11111111111111111111XXooooXX++++,,++++ooooXX11111111111111111111",
"11111111111111111111XXooooXX%%<<<<<<%%ooooXX11111111111111111111",
"11111111111111111111XXooooXX%%<<<<<<%%ooooXX11111111111111111111",
"11111111111111111111XXoooo**************ooXX11111111111111111111",
"11111111111111111111XXoooo**************ooXX11111111111111111111",
"11111111111111111111XX;;;;******&&******;;XX11111111111111111111",
"11111111111111111111XX;;;:=*****&&*****=:;XX11111111111111111111",
"1111111111111111111111XXXX**&&&&XX&&====XX1111111111111111111111",
"1111111111111111111111XXXX**&&&&XX&&====XX1111111111111111111111",
"111111111111111111111111X.****XX11X.====XX1111111111111111111111",
"111111111111111111111111XX****XX11XX====XX1111111111111111111111",
"111111111111111111111111XX>>>>XX11@@XX@@111111111111111111111111",
"111111111111111111111111XX;>>>XX11@@XX@@111111111111111111111111",
"111111111111111111111111XX<<<<XX11111111111111111111111111111111",
"111111111111111111111111XX<<<<XX11111111111111111111111111111111",
"11111111111111111111    ........  ........  11111111111111111111",
"1111111111111111111111                    1111111111111111111111",
"1111111111111111111111                    1111111111111111111111",
"1111111111111111111111111111111111111111111111111111111111111111",
"1111111111111111111111111111111111111111111111111111111111111111",
"1111111111111111111111111111111111111111111111111111111111111111",
"1111111111111111111111111111111111111111111111111111111111111111"
};
