/* XPM */
static char *a1c739a99a594e0bfb5cfbbdd8adfef9OmkI2ui2dfojAEQn[] = {
/* columns rows colors chars-per-pixel */
"64 64 7 1 ",
"  c None",
". c #161C2E",
"X c #BFBA5B",
"o c #9BB94E",
"O c #79A863",
"+ c #679175",
"@ c white",
/* pixels */
"...               ....         .......                          ",
".....   ......   ......       .........           ....          ",
"XXX... ........ ...oo.. ..... ...XXXX..         ........        ",
"XXXX......XXXX....oooo..........XXXXXX..       ....ooo...       ",
"XXXX.....XXXXXX...ooooo...OO....XXXXXX.......  ...ooooo...      ",
"oooXX....XXXXXXX..ooooo..OOOO...XXXXX......... ..Ooooooo..      ",
"ooooooX..XXXXXXXX..ooooo.OOOXX..XXXXX..XXXXX.....ooooooo..      ",
"oooooooo...XooooXo.oooooOOOXXXX.XXXX..XXXXXXX..OOooooooo..      ",
"XXoooooooXXXoooooooooooooOOXXXX.XXXX.XXXXXXXX..OOooooooo..      ",
"XXXoooooooooooooooooooooooXXooXXXXXXXXXXXXXXX..OOooooo.....     ",
"XXXoooXXooooooooooooooooooXooooXXXXXXXXoooX...OOOOoo........    ",
"XXXooXXXXXoooooooooooooooooooooooooXXXoooo....OOOOOo..oooo...   ",
"XXXXXXXXXXXXXXXXXXXoooooooooooooooooXXoooo.oooOOOOOoooooooo..   ",
"XXXXXXXXXooooooooooooooooooooooooooooooooooooooOOOOoooooooo..   ",
"ooooooooooooOOOOOOoooooooooooooooooooooooooOOOOOOoooooooooo..   ",
"ooooooooooOOOOOOOOOoOOOOooooooXXXooooooooooOOOOOOooo..oooo...   ",
"ooooooooOOOOOOOOOOOOOOOOOoooXXXXXXooooooooooOOOOoooooo......    ",
"oooooooOOOOOOOOOOOOOOOOOOXXXXXXXXXXXXXOOOooOOOOOooooooO.....    ",
"oooooOOOOOOoooooOOOOOOOOOOOOXXXXXXXXXOOOOOOOooOOOooooooo..      ",
"oooOOOOOOOoooooooOOOoooOOOOOOOXXXOOOOOooOOOooooOOooooooo..      ",
"OooooooooooooooooOOooooooooooooooooooooooooooooOOOooooo....     ",
"OOOOooooooooooooooooooooooooooooooooooOOoooooOOOOOOOoooO...     ",
"ooooooooooooooooooooooo++++++ooo+++oOOOOOoOOOOOOOOOOOOOOO..     ",
"oooooooo+++++oo+++oooXXXX+++++o+++++OOOOOOOOOOOOOOOOOOOOO...    ",
"ooooooo++++++++++++oXXXXXXX++++++XX++OOOOOOOOOOOOOOOOOOO......  ",
"ooooo+++XXXX+++XX++XXXXXXXXX++++XXXX++XXOOOooOOoooOOOOoooXXX... ",
"oo++++XXXXXXXXXXXXXXXXXXXXXXX++XXXXXXXXXXOOooooooooOOOOoXXXXX.. ",
"X++XXXXXXXXXXXXXXXXXXXXOOOXXXX+XXooXXXXXXXXooooooooOOOOOXXXXX.. ",
"XXXXXXXXXXOOOXXXXXXXXXOOOOOXXXXXooooXXXXXXXXXooooooOOOOXXXXXX.. ",
"ooooooXXOOOOOOOXXOOOOOOOOOOOOOoooooooooooXXXooooooOOXXXXXXXX... ",
"ooooooooooooOOOOOOOOOOOOOOOOOOOOOooooooooooooooooooooOOO......  ",
"ooooooooooooooooOOOOOOOOOOOOOOOOOOOOoooOOOOOOoooooooOOOOO....   ",
"XXXoooooooooooooooooOOOOOOOOOOOOOOOOOOOOOOOOOoooooooooooOO...   ",
"XXXXooooooooooooOOOOOOOoooOOOOOOOOOOOOOOOXXXOoooooooooooooo...  ",
"XXXXXXXooooOOOOOOOOOOOoooooOOOOOOOooooooXXXXXooooooooooooooo..  ",
"oooXXXXXoooooooooooooooooooOOOOoooooXXooXXXXXXooooooooooooooo.. ",
"ooooXXXXXoooooooooooooooooooooooooXXXXXXXXXXXXooooooooooooooo.. ",
"oooooooooooooooooooooooooooooooooXXXXXXXXOOOXXXXXXooooooooooo.. ",
"ooooooooooooooooooooooooooooooooOOOOOOOOOOOOOXXXXXXXXXXOooooo.. ",
"oooooooooooooooooooooooooooooooOOOOOooOOOOOOOOOOOOOOOOOOOooo... ",
"OOOOOOOOooooooooooooooooooooOOOOOOoooooOOOOOOOOOOOOOOOOOOOO.... ",
"OOOOooooooooooooooooooooooooooooooooooooooOOOOOOOOOOOOO.......  ",
"oooooooooooooooooooooooooooooooooooooooooooOOOooooOOOOOO.....   ",
"oooooooooooooooooo+++++oooo+++++ooooooXXXooOOooooooOoooOO...    ",
"oooooooooooooooo++++++++oo+++++++ooooXXXXXoOOooooooooooooo..    ",
"ooooooooooooooo+++XXX+++++++XXXX++ooXXXXXXXXOOoooooooooooo..    ",
"ooooo+++++oo+++++XXXXXX++++XXXXXXX+oXXXXXXXXXoooooooooXXXX..... ",
"oooo+++++++++++++XXXXXXXX+XXXXXXXXXXXXXXXXXXXooooooXXXXXX...X...",
"++o+++XX+++++XX+++XXXXXXXXXXXXXXXXXXXXXXXXXXXXXoooooooXXX..XXX..",
"+++++XXXX+++XXXXX+XXXXXXXXXXXXXXXXXXXXXXXXXXXXXoooooooooo.XXXX..",
"+XX++XXXXXXXXXXXXXXXXXXXXXXXXXooooXXXXXOOXXXXXXXXXoooooooXXXX...",
"XXXXXXXXXXXXXXXXXXXXXOOOOXXXXooooooXXXOOOOXXXXXXXXXoooooooXX... ",
"XXXXXoooXXXXXooooXXXOOOOOOooXoooooooOOOOOOXXXXXXoooooooooXX.... ",
"XXXXoooooXXXoooOOOOOOOOOOOoooooooOOOOOOOOOooooooooooXXXXXX......",
"XXoooooooXXXooOOOOOOOOOOOoooooooOOOOOOOOOOOooooooooooXXXXX.oo...",
"oooooooooooXooOOOOOOOOOOOOOOOooOOOOOOooOOOOOoooooooooooXXooooo..",
"ooooooooooooOOOOOOOOOOOOOOOOOOOOOOOOoooooOOOOOooooooooOOOooooo..",
"ooooooOOOOOOOOOOoooOOOOOOOOOOOOOOOOOooooooooooooooooo...OOoooo..",
"oooooooooOOOOOOoooooOOoooOOOOOOOooOOoooooooooooooooooo...Ooooo..",
"ooooooooooooOOOoooooOooooooOOOOooooOOooooooooooooooooOO...ooo...",
"ooooooXXooooooooooooooooooooooooooooooooooooooOOOoooOOO........ ",
"oooooXXXXooooXXXXooooooooooooooooooooooooooooOOOOOOOOOO.......  ",
"oooXXXXXXXXXXXXXXXXooooooooOOOOoooooooooooooOOOOOOOOOOO..OOO... ",
"OOXXXXXXXXXXXXXXOOOOooOOOOOOOOOOOooOOOOooooOOOOOOOOOOO..OOOooo.."
};
