/* XPM */
static char *a36e404cd31141c9df41a2ff0155b119JHZIur3FbmKoyIIV[] = {
/* columns rows colors chars-per-pixel */
"64 64 8 1 ",
"  c None",
". c #161C2E",
"X c #F8F273",
"o c #F1DA84",
"O c #FEFA9D",
"+ c #B29678",
"@ c #DEC87E",
"# c white",
/* pixels */
"                              ......        .......       ......",
"     ......    .....         XXXX.......   .........    ....XXXX",
"   ......XXXXXXX.......     XXXXXXXX.........XXXXX...  ..ooXXXXX",
"  ...XXXXXXXXXXXXXXX.....  .XXXXXXXXXXX.....oXXXXXX......ooOXXXX",
" ...XXXXXXXXXXXXXXXooo......XXOOXXXXXXXX....oXXXXXXXX...oooOOOOO",
" ...XXXXXXXXXXXXXXXoooXX.....OOOOOOXXXXXX...ooXXOOXXXX..oooooooO",
" ...oooOOOOXXOOOOOOOooXXX....oooOOOOOXXXoo...oooOOOOXX..+ooooooo",
" ...ooooOOOOOOOooooooooXXXX++++oooooooooooooooooooOOXoo.++oooooo",
" ...ooooooooooooooooooooXXXoo+++++ooooooooooo@@@oooooooo+++ooooo",
"  ....ooooooooo@@@@@oooooooooooo+++++++++++++@@oooooooooo+++oooo",
"   .........@@@@@@@@@ooooooooooooo+++++++oooooooooooooooooo++ooo",
"   .......@@@@@@@@@@@@@oooooooooooooooooooooooooo@@@@@ooooooo+@@",
"   ......@@XXXXXoo@@@@@@ooooooooooooooooooooooo@@@@@@@@@ooooo@XX",
" ....XX@@@@@XXXXooooo@@@@@@@oooooooooooooooo@@@@@XXXXXXXXXXXXXXX",
" ...XXXXX@@@@@XXXXo@@@@@@@@@@@@@ooooooooooo@@@@XXXXXXXXXXXXXXXXX",
"...XXXXXXXX@@@@@@@@@@@@@@@@@@@@@@@@ooo@@@@@@@@XXXXXXXXOOOOOXXXXX",
"...XXXXXXXXXXXX@@@@@XXXXXXXX@@@@@@@@o@@@@@@@XXXXXOOOOOOOOOOOXXXX",
"..XXXXXXXXXXXXXXXXXXXXXXXXXXXXoooooooooooooXXXXXOOOOOooooooooXXo",
"..OOOXXXXXXXXXXXXXXXXXXXXXXXXXXXooooooooooooXXooooooooooooXXXXXX",
"..OOOOOOXXXXXOOOOOOOOOOOXXXXXXXXooooooooooooooooooooooooooooXXXX",
"...ooOOOOOXXOOOOoooooooooooXXXXooooooooooooooooooooooooooooooooo",
"...ooooooooooooooooooooooooooooooooooooo@@@@@@oooooooooooooooooo",
" ...ooooooooooooooooooooooooooooo@@@@@@@@@@@@@@ooooo@@@@@@@@@ooo",
" ........ooooooooooooooooooooooooo@@@@@@@@@@@oooo@@@@@@@@@@@@@@@",
"  ..........+++++ooooooo@+++++++oooo@@ooo@@ooo@@@@@@@@@XXXXXXXXX",
"    ...XXXXXX+++++++XX@@@+++++++o++oo@@oo@@++@@@@XXXXXXXXXXXXXXX",
"   ...XXXXXXXXXXXXXXXXXXXX@@@@@@@+++@@@@+++++@XXXXXXXXXXXXXXXXXX",
"   .ooXXXXXXXXXXXXXXXXXXXXXXXX@@@@++@++++++++@XXXXXXXXXXXXXXXXXX",
"   .oXXXXXXXoXXXXXXXXOOOOOXXXXXXXX@@@+++++@XXXXXXXXXXXXOOOOOOOXX",
"   ooXXXXooooXXXXXOOOOOOOOOXXXXXXXXXXXXXXXXXXXXXXXXXXOOOOOOOOOOO",
"   ooXXX@@@@ooXXXoooooooooOXXXXXXXXXXXXXXXXXXXXXXXXXOOOOoooooooo",
"   oooXX@@@@@ooooooooooooooooXXXXXXXXXXXXXXXXXXXXXXXoooooooooooo",
"   ooooo@@@@@oooooooooooooooooooXXXXXXXXXXXXXXXXXXoooooooooooooo",
"    ooo@@@@ooooooooooooooooooooooXXXXXXXXXXXXXXooooooooooooooooo",
"    .oo@@@@@ooooooooooooooooooooooXXXoooXXXXXooXXXoooooooooooooo",
"    ....@@@@@@oooooooooooooooooXXXXXooooooooooXXXooooooooooooooo",
"  XXX...+++++@ooooooooooooooooooXXXXXXoooooooooooooooooooooooooo",
" XXXXX...+++++++ooooooooooooooooooooooooooooooooooo@@@@@@@ooooo@",
" XXXXXXo+++++++++++ooooo+++++++ooooooooooooooooo@@@@@@@@@XXXXXXX",
" ooXXXXXX@@@++++++++++++++++++++@@ooooooooooo@@@@@@@@XXXXXXXXXXX",
" .oooXXXXXXXXXX++++++++++@+++@@@@@@@@@ooo@@@@@@@@@XXXXXXXXXXXXXX",
" ..oooXXXXXXXXXXX@@@@@@@XXXXXXX@@@@@@@@@@@@@@XXXXXXXXXXXXXXXXXXX",
"  ..oooXXXXXXXXXXXXXXXXXXXXXXXXXXXXX@@@ooooooXXXXXXXXXXXXXXXXOOO",
" ....ooooXXXXXXXXXXXXXXXXXXXXXXXXXXXXooooooooooXXXXXXXXXXXOOOOOO",
"........oooXXXXXXXXXXXXXXOOOOOXXXXXXoooooooooooooXXooooooooOOOoo",
"..........ooooooXXXXXXXOOOOOOOOOXXoooooooooooooooooooooooooooooo",
"...ooo...oooooooooXXXOOOOOoooooooooooooooo@@@@@@oooooooooooooooo",
"..oooooooooooooooo+++++++++oooooooooo@@@@@@@@@@@@ooooooooooooooo",
"..oooooooo+++++++++++++ooooooooooo@@@@@@@@@@@@@ooooooooooooooooo",
"...oooo.++++++XXooooooooooooooooooo@@@@@@ooo@@ooooo@@ooooooooooo",
" .......+++oooXXXoooooooooooooooooooooo@oooo@@ooo@@++@o@@@oooooo",
" ......++ooXXXXXXoooooooooooooooooooooo@ooo@@@@@@@+++XXX@@@@@ooo",
" ......+XXXXooooooooooooooooo@@@oooooo@@@@@@@@+++@++XXXXX@@@@@@o",
" ....XXXXooooooooooooooooo@@@@@@@ooo@@@@@@@@+++++XXXXXXXXXXX@@@@",
"...XXXXXooooooooooooooooo@@@@@@@@@@++++++++++++XXXXXXXXXXXXXXXX@",
"..XXXXXXooooooooooooooo@@@@@XXXXX@@+++++++++++XXXXXXXXXXXXXXXXXX",
"..XXXXXXXXoooXXXXXXXXXXXXXXXXXXXXXXXX++++XXXXXXXOOOOOOOOOXXXXXXX",
"..XXXXXXXXXXXXXXXXXXXXXXXXXXXXXXXXXXXXXXXXXXOOOOOOOOOOOooooooXXX",
"..@@@XXXXXXXXXXXXOXXXXXXXXXXXXOOOOOOOOOOOOOOOOOOoooooooooooooooo",
"..@@@@@@@@@XXOOOOOOOXXXXXXXOOOOOooooooOOOOOOoooooooooooooooooooo",
" ...@@@@@@@ooooooooOOXXXXXOOOooooooooooooooooooooooooooooooooooo",
" ........oooooooooooOOXXXXooooooooooooooooooooooooo@@@@ooooooooo",
"......ooooooooooooooooooooooooooooooooooooooooo@@@@@@@@@@@@ooooo",
".....ooooooooooooooooooooooooooooooooooooooo@@@@@@@@XXXXXXXXX@@@"
};
