/* XPM */
static char *out[] = {
/* columns rows colors chars-per-pixel */
"64 64 33 1 ",
"  c black",
". c #120317",
"X c #230726",
"o c #310D35",
"O c #222028",
"+ c #343336",
"@ c #43153B",
"# c #511C3A",
"$ c #1C1859",
"% c #571748",
"& c #6E2749",
"* c #7B3155",
"= c #2A6957",
"- c #746842",
"; c #7E7245",
": c gray45",
"> c #817E3C",
", c #913C51",
"< c #8C3C62",
"1 c #8C4B63",
"2 c #C16A7D",
"3 c #3B804D",
"4 c #848252",
"5 c #DEC87E",
"6 c #F8F273",
"7 c #5078A1",
"8 c gray56",
"9 c #9C8C9C",
"0 c #AEAEAE",
"q c #E5959F",
"w c #F1DA84",
"e c #FEFA9D",
"r c #F2E9F2",
/* pixels */
"555wwwwwwwwwwww555wwwwwwwwwwwwwwwwwwwwwww55555556666666666666665",
"555555www55556665555w5555wwwwww555555555555555666666666666666665",
"6655555555566666666wwww55555555555555555555666666666666666666666",
"6666555556666666666wwwwww5555555www66666666666666666666666666666",
"e66666666666666wwwwwwwwwwwwwwwwww666666666666666666666666666eeee",
"eeee6666666666wwwwww5555wwwwwww66666666666666666666666666eeeeeee",
"wweee66666666666wwwww5555wwwww6666666666666666666wwwwwwwwwwwwwww",
"wwweeeeeee666666wwwwwwwwwwwww6666666666666666www66666wwwwwwwwwww",
"wwwwwwwwweeeewwwwwwwwwwwwwwww66666666666666www6666666wwwwwwwwwww",
"wwwwwwwwwwwwwwwwwwwwww5555wwwww66666666666wwww66666wwwwwwwwwwwww",
"wwwwwwwwwwwwwwww55555555555wwwwwwwww666wwwwwww6666wwwwwwwwwwwwww",
"5555wwwwwwwwwwww555555555www5wwwwwwwwwwwwwwwwwwww55555wwwww55555",
"65555wwwwwwwwwwwww55555555ww55wwwwwwwwwwwwwwwww555555555ww555566",
"66666665555wwwwwwwwww555       wwwwwwwwwwwww55555666666666666666",
"666666666555555wwww55555       5wwwwwwwwwww555566666666666666666",
"66666666666555555555555 &&,,,,&  55www5555555566666666eeeee66666",
"66666666666666655555666 &&&&&&.         555566666666eeeeeeee6666",
"w6666666666666666666666 &&&&&&.         www66666wwwwwwwwwwwww66w",
"wwww666666666eeeeeeee  ,&&33..o%%%%%%%%%  ww66wwwwwwwwwwww666666",
"6wwwwww66666eeeeeeeee  &==..oo%&&%%%%&%%%%  wwwwwwwwwwwwwwww6666",
"wwwwwww666666wwwwwwww  o==..%%&&&oooo%&&oo  wwwwwwwwwwwwwwwwwwww",
"wwwwwwww6wwwwwwwwwwww  o==..%%&&&oooo%&&oo  55wwwwwwwwwwwwwwwwww",
"wwwwwwwwwwwwwwwwwwwww  o..%%%%&oo%%&&&,,,,%% 55wwwww555555555www",
"wwwwwwwwwwwwwwwwwwwwwww   %%&&%%%%%,,&%%&&&& wwww555555555555555",
"wwwwwwwwwwwwwwwwwwwwwww   %%&&%%%%%,,&%%&&&& w555555555666666666",
"66555wwwww55555666666655  %%ooo&&%%&&1%%oo  55555666666666666666",
"555555555555566666666666  oooo,,,oo%%222$$  55666666666666666666",
"66655555www6666666666666  oooo,,,oo%%222$$  55666666666666666666",
"66666wwwwwwww66666666eee  ooqqqoo99$$2qq77  66666666666eeeeeee66",
"6666wwwwwwwww66666eeeeeeee  222%%rr77qqq22  666666666eeeeeeeeeee",
"6wwwwwww5555ww666wwwwwwwww  222%%rr77qqq22  66666666eeeewwwwwwww",
"wwwwww5555555wwwwwwwwwww  <<   &&qqqqq22  6666666666wwwwwwwwwwww",
"w55wwwww55555wwwwwwwwww <<<<** ==XX===XX  66666666wwwwwwwwwwwwww",
"w555ww55555wwwwwwwwwwww <<##  =8800==3@@  66666wwwwwwwwwwwwwwwww",
"wwww555555wwwwwwwwwwwww <<##  =8800==3@@  666ww666wwwwwwwwwwwwww",
"www5555555ww555wwwwwwww <<##  =8888003@@  wwww666wwwwwwwwwwwwwww",
"5555555555ww5555wwwwwww <<##  XXX8822q==  wwwwwwwwwwwwwwwwwwwwww",
"55566555555ww555wwwwwww <<##  XXX8822q==  wwwwwwwww5555555wwwww5",
"666666665555wwwwwwwwwwww  ##  =====22q33  wwwwww5555555556666666",
"66666666655555wwwwww5555  &&&& OOOO+++OO  www5555555566666666666",
"666666666666666655555555  &&&& OOOO+++OO  5555555566666666666666",
"66666666666666666555555566     OOOO22+OO  5556666666666666666666",
"ee66666666666666666666666666  :::++qqO22  www6666666666666666eee",
"eeeee6666666666666666666666>  :00  OOO++  ;;;ww66666666666eeeeee",
"wwwee66666666666666666666444  :00  OOO++  ;;;;;ww66wwwwwwwweeeww",
"wwwwwwww66666666666666644444  0    :::  ;;;;;;;;wwwwwwwwwwwwwwww",
"wwwwwwwwwww6666666666ee444;;   ;;  ::000  ------wwwwwwwwwwwwwwww",
"wwwwwwww6666wwww6666eee4;;;;   ;;  ::000  ------5wwwwwwwwwwwwwww",
"wwwwwww6666ww6666wwwwwwww;;;;;;;;;-------------wwwwwwwwwwwwwwwww",
"wwwwwwwwwwwwww66wwwwwwwww;;;;;;;;;;------;;;--;wwww55wwwwwwwwwww",
"wwwwwwwwwwwwwwwwwwwwwwwwwww;;;;;;;;;;;;-;;;;-5www55555w555wwwwww",
"wwwwwwwwwwwwwwwwwwwwwwwwwwwwww;;;;;;;;;-;;w555555555666655555www",
"w5556655555555wwwwwwwwwwwwwww555wwwwww5555555555555666666555555w",
"5556666555555555wwwwwwwwww5555555www5555555555555666666666665555",
"55666666666655555wwwwwwww555555555555555555555566666666666666665",
"6666666666666655555wwww55555666665555555555666666666666666666666",
"666666666666666655555566666666666666666666666666eeeeeeeee6666666",
"66666666666666666666666666666666666666666666eeeeeeeeeeewwwwww666",
"666666666666666eee666666666666eeeeeeeeeeeeeeeeeewwwwwwwwwwwwwwww",
"wwwwwww666666eeeeeee6666666eeeeewwwwwweeeeeewwwwwwwwwwwwwwwwwwww",
"wwwww6666wwwwwwwwwwee66666eeewwwwwwwwwwwwwwwwwwwwwwwwwwwwwwwwwww",
"wwwww66666wwwwwwwwwwee6666wwwwwwwwwwwwwwwwwwwwwwwww5555wwwwwwwww",
"wwwwww666wwwwwwwwwwwwwwwwwwwwwwwwwwwwwwwwwwwwww555555555555wwwww",
"wwwwwwwwwwwwwwwwwwwwwwwwwwwwwwwwwwwwwwwwwwww55555555666666666555"
};
