/* XPM */
static char *result[] = {
/* columns rows colors chars-per-pixel */
"64 64 27 1 ",
"  c #120317",
". c #18131A",
"X c #1C1F1C",
"o c #230726",
"O c #310D35",
"+ c #222028",
"@ c #343336",
"# c #43153B",
"$ c #511C3A",
"% c #1C1859",
"& c #571748",
"* c #6E2749",
"= c #7B3155",
"- c #2A6957",
"; c gray45",
": c #913C51",
"> c #8C3C62",
", c #8C4B63",
"< c #C16A7D",
"1 c #3B804D",
"2 c #5078A1",
"3 c gray56",
"4 c #9C8C9C",
"5 c #AEAEAE",
"6 c #E5959F",
"7 c #F2E9F2",
"8 c None",
/* pixels */
"8888888888888888888888888888888888888888888888888888888888888888",
"888888888888888888XXXXXXXXXX888888888888888888888888888888888888",
"888888888888888888XXXXXXXXXX888888888888888888888888888888888888",
"888888888888888888XXXXXXXXXX888888888888888888888888888888888888",
"8888888888888888XX***::::***XX8888888888888888888888888888888888",
"8888888888888888XX***::::***XX8888888888888888888888888888888888",
"8888888888888888XX*******  .XXXXXXXXXXXX888888888888888888888888",
"8888888888888888XX*******  .XXXXXXXXXXXX888888888888888888888888",
"88888888888888XX::***11  OOO&&&&&&&&&&&&XX8888888888888888888888",
"88888888888888XX::***11  OOO&&&&&&&&&&&&XX8888888888888888888888",
"88888888888888XX::***11  OOO&&&&&&&&&&&&XX8888888888888888888888",
"88888888888888XX**---  OO&&&**&&&&&**&&&&&XXX8888888888888888888",
"88888888888888XX**---  OO&&&**&&&&&**&&&&&XXX8888888888888888888",
"88888888888888XXOO---  &&*****OOOOO&&***OOXXX8888888888888888888",
"88888888888888XXOO---  &&*****OOOOO&&***OOXXX8888888888888888888",
"88888888888888XXOO---  &&*****OOOOO&&***OOXXX8888888888888888888",
"88888888888888XXOO   &&&&***OO&&&****:::::&&&XX88888888888888888",
"88888888888888XXOO   &&&&***OO&&&****:::::&&&XX88888888888888888",
"88888888888888XX&&   &&**&&&&&&&&::**&&&*****XX88888888888888888",
"88888888888888XX&&   &&**&&&&&&&&::**&&&*****XX88888888888888888",
"88888888888888XXOO   &&OOOOO**&&&**,,&&&OO&&&XX88888888888888888",
"88888888888888XXOO   &&OOOOO**&&&**,,&&&OO&&&XX88888888888888888",
"88888888888888XXOO...&&OOOOO**&&&**,,&&&OO&&&XX88888888888888888",
"88888888888888XXXXXXXOOOOOOO::OOO&&<<<<<%%XXX8888888888888888888",
"88888888888888XXXXXXXOOOOOOO::OOO&&<<<<<%%XXX8888888888888888888",
"888888888888888888XXXOO66:::OO444%%<<66622XXX8888888888888888888",
"888888888888888888XXXOO66:::OO444%%<<66622XXX8888888888888888888",
"888888888888888888888XX<<<<<&&7772266666<<XXX8888888888888888888",
"888888888888888888888XX<<<<<&&7772266666<<XXX8888888888888888888",
"888888888888888888888XX<<<<<&&7772266666<<XXX8888888888888888888",
"888888888888888888XXX>>XXXXX**6666666<<<XX8888888888888888888888",
"888888888888888888XXX>>XXXXX**6666666<<<XX8888888888888888888888",
"8888888888888888XX>>>>>==XXX--ooo----oooXX8888888888888888888888",
"8888888888888888XX>>>>>==XXX--ooo----oooXX8888888888888888888888",
"8888888888888888XX>>>>>==XXX--ooo----oooXX8888888888888888888888",
"8888888888888888XX>>>$$XX---33555--11###XX8888888888888888888888",
"8888888888888888XX>>>$$XX---33555--11###XX8888888888888888888888",
"8888888888888888XX>>>$$XX---33555--11###XX8888888888888888888888",
"8888888888888888XX>>>$$XX---33555--11###XX8888888888888888888888",
"8888888888888888XX>>>$$XXooo33555--11---XX8888888888888888888888",
"8888888888888888XX>>>$$XXooo33555--11---XX8888888888888888888888",
"8888888888888888XX>>>$$XXooo33555--11---XX8888888888888888888888",
"888888888888888888XXX$$XX---33<<<6611111XX8888888888888888888888",
"888888888888888888XXX$$XX---33<<<6611111XX8888888888888888888888",
"888888888888888888XXX**XX+++++<<<66@@@@@XX8888888888888888888888",
"888888888888888888XXX**XX+++++<<<66@@@@@XX8888888888888888888888",
"888888888888888888XXX**XX+++++<<<66@@@@@XX8888888888888888888888",
"888888888888888888888XXXXXXX+++++++++<<<66XXX8888888888888888888",
"888888888888888888888XXXXXXX+++++++++<<<66XXX8888888888888888888",
"888888888888888888888XX++@@@XXXXXXXXX+++@@XXX8888888888888888888",
"888888888888888888888XX++@@@XXXXXXXXX+++@@XXX8888888888888888888",
"888888888888888888888XX;;555XX888XX;;;;;@@XXX8888888888888888888",
"888888888888888888888XX;;555XX888XX;;;;;@@XXX8888888888888888888",
"888888888888888888888XX;;555XX888XX;;;;;@@XXX8888888888888888888",
"888888888888888888888XX;;555XX888XX;;555XX8888888888888888888888",
"888888888888888888888XX;;555XX888XX;;555XX8888888888888888888888",
"8888888888888888888888888;;;55XXXXX55XXX888888888888888888888888",
"8888888888888888888888888;;;55XXXXX55XXX888888888888888888888888",
"8888888888888888888888888;;;55XXXXX55XXX888888888888888888888888",
"8888888888888888888888888888888888888888888888888888888888888888",
"8888888888888888888888888888888888888888888888888888888888888888",
"8888888888888888888888888888888888888888888888888888888888888888",
"8888888888888888888888888888888888888888888888888888888888888888",
"8888888888888888888888888888888888888888888888888888888888888888"
};
