/* XPM */
static char *result[] = {
/* columns rows colors chars-per-pixel */
"64 64 25 1 ",
"  c #120317",
". c #1A1A1B",
"X c #1C1F1C",
"o c #230726",
"O c #310D35",
"+ c #222028",
"@ c #343336",
"# c #43153B",
"$ c #1C1859",
"% c #571748",
"& c #6E2749",
"* c #2A6957",
"= c gray45",
"- c #913C51",
"; c #8C3C62",
": c #8C4B63",
"> c #C16A7D",
", c #3B804D",
"< c #5078A1",
"1 c gray56",
"2 c #9C8C9C",
"3 c #AEAEAE",
"4 c #E5959F",
"5 c #F2E9F2",
"6 c None",
/* pixels */
"6666666666666666666666666666666666666666666666666666666666666666",
"6666666666666666666666666666666666666666666666666666666666666666",
"666666666666666666XXXXXXXXXX666666666666666666666666666666666666",
"666666666666666666XXXXXXXXXX666666666666666666666666666666666666",
"6666666666666666XX&&&----&&&XX6666666666666666666666666666666666",
"6666666666666666XX&&&----&&&XX6666666666666666666666666666666666",
"6666666666666666XX&&&&&&&  .XXXXXXXXXXXX666666666666666666666666",
"6666666666666666XX&&&&&&&  .XXXXXXXXXXXX666666666666666666666666",
"6666666666666666XX&&&&&&&  .XXXXXXXXXXXX666666666666666666666666",
"66666666666666XX--&&&,,  OOO%%%%%%%%%%%%XX6666666666666666666666",
"66666666666666XX--&&&,,  OOO%%%%%%%%%%%%XX6666666666666666666666",
"66666666666666XX&&***  OO%%%&&%%%%%&&%%%%%XXX6666666666666666666",
"66666666666666XX&&***  OO%%%&&%%%%%&&%%%%%XXX6666666666666666666",
"66666666666666XX&&***  OO%%%&&%%%%%&&%%%%%XXX6666666666666666666",
"66666666666666XXOO***  %%&&&&&OOOOO%%&&&OOXXX6666666666666666666",
"66666666666666XXOO***  %%&&&&&OOOOO%%&&&OOXXX6666666666666666666",
"66666666666666XXOO   %%%%&&&OO%%%&&&&-----%%%XX66666666666666666",
"66666666666666XXOO...%%%%&&&OO%%%&&&&-----%%%XX66666666666666666",
"66666666666666XXXXXXX%%&&%%%%%%%%--&&%%%&&&&&XX66666666666666666",
"66666666666666XXXXXXX%%&&%%%%%%%%--&&%%%&&&&&XX66666666666666666",
"66666666666666XXXXXXX%%&&%%%%%%%%--&&%%%&&&&&XX66666666666666666",
"666666666666666666XXX%%OOOOO&&%%%&&::%%%OOXXX6666666666666666666",
"666666666666666666XXX%%OOOOO&&%%%&&::%%%OOXXX6666666666666666666",
"666666666666666666XXXOOOO-----OOO%%>>>>>$$XXX6666666666666666666",
"666666666666666666XXXOOOO-----OOO%%>>>>>$$XXX6666666666666666666",
"666666666666666666XXXOO44444OO222$$>>444<<XXX6666666666666666666",
"666666666666666666XXXOO44444OO222$$>>444<<XXX6666666666666666666",
"666666666666666666XXXOO44444OO222$$>>444<<XXX6666666666666666666",
"666666666666666666666XX>>>>>%%555<<44444>>XXX6666666666666666666",
"666666666666666666666XX>>>>>%%555<<44444>>XXX6666666666666666666",
"666666666666666666XXX;;XXXXX&&4444444>>>XX6666666666666666666666",
"666666666666666666XXX;;XXXXX&&4444444>>>XX6666666666666666666666",
"666666666666666666XXX;;XXXXX&&4444444>>>XX6666666666666666666666",
"666666666666666666XXX;;XX111**ooo****ooo33XXXXX66666666666666666",
"666666666666666666XXX;;XX111**ooo****ooo33XXXXX66666666666666666",
"666666666666666666XXXXX11333**###,,,,###1144444XX666666666666666",
"666666666666666666XXXXX11333**###,,,,###1144444XX666666666666666",
"666666666666666666XXXXX11333**ooo,,,,###XX>>>>>XX666666666666666",
"666666666666666666XXXXX11333**ooo,,,,###XX>>>>>XX666666666666666",
"666666666666666666XXXXX11333**ooo,,,,###XX>>>>>XX666666666666666",
"666666666666666666XXX1133ooooo***,,,,***XXXXXXX66666666666666666",
"666666666666666666XXX1133ooooo***,,,,***XXXXXXX66666666666666666",
"666666666666666666XXX>>44*****,,,,,,,,,,XX6666666666666666666666",
"666666666666666666XXX>>44*****,,,,,,,,,,XX6666666666666666666666",
"666666666666666666XXX>>44*****,,,,,,,,,,XX6666666666666666666666",
"666666666666666666666XXXXXXX+++++@@@@@@@XX6666666666666666666666",
"666666666666666666666XXXXXXX+++++@@@@@@@XX6666666666666666666666",
"66666666666666666666666XX=====+++@@@@XXX666666666666666666666666",
"66666666666666666666666XX=====+++@@@@XXX666666666666666666666666",
"66666666666666666666666XX333==+++++@@XXX666666666666666666666666",
"66666666666666666666666XX333==+++++@@XXX666666666666666666666666",
"66666666666666666666666XX333==+++++@@XXX666666666666666666666666",
"66666666666666666666666XX333XXXXX>>44XXX666666666666666666666666",
"66666666666666666666666XX333XXXXX>>44XXX666666666666666666666666",
"66666666666666666666666XXXXXXX+++@@@@XXX666666666666666666666666",
"66666666666666666666666XXXXXXX+++@@@@XXX666666666666666666666666",
"66666666666666666666666XXXXXXX+++@@@@XXX666666666666666666666666",
"6666666666666666666666666666XX=====XX666666666666666666666666666",
"6666666666666666666666666666XX=====XX666666666666666666666666666",
"6666666666666666666666666666XX===3333XXX666666666666666666666666",
"6666666666666666666666666666XX===3333XXX666666666666666666666666",
"6666666666666666666666666666666666666666666666666666666666666666",
"6666666666666666666666666666666666666666666666666666666666666666",
"6666666666666666666666666666666666666666666666666666666666666666"
};
