/* XPM */
static char *out[] = {
/* columns rows colors chars-per-pixel */
"64 64 30 1 ",
"  c black",
". c #120317",
"X c #230726",
"o c #310D35",
"O c #222028",
"+ c #343336",
"@ c #43153B",
"# c #1C1859",
"$ c #571748",
"% c #6E2749",
"& c #2A6957",
"* c #746842",
"= c #7E7245",
"- c gray45",
"; c #913C51",
": c #8C3C62",
"> c #8C4B63",
", c #C16A7D",
"< c #3B804D",
"1 c #848252",
"2 c #DEC87E",
"3 c #F8F273",
"4 c #5078A1",
"5 c gray56",
"6 c #9C8C9C",
"7 c #AEAEAE",
"8 c #E5959F",
"9 c #F1DA84",
"0 c #FEFA9D",
"q c #F2E9F2",
/* pixels */
"2229999999999992229999999999999999999999922222223333333333333332",
"2222229992222333222292222999999222222222222222333333333333333332",
"3322222222233333333999922222222222222222222333333333333333333333",
"3333222223333333333999999222222299933333333333333333333333333333",
"0333333333333339999999999999999993333333333333333333333333330000",
"0000333333333399999922229999999333333333333333333333333330000000",
"9900033333333333999992222999993333333333333333333999999999999999",
"9990000000333333999999999999933333333333333339993333399999999999",
"9999999990000999999999999999933333333333333999333333399999999999",
"9999999999999999999999222299999333333333339999333339999999999999",
"9999999999999999222222222229999999993339999999333399999999999999",
"2222999999999999222222222999299999999999999999999222229999922222",
"3222299999999999992222222299229999999999999999922222222299222233",
"33333332222999999999922       9999999999999922222333333333333333",
"33333333322222299992222       2299999999999222233333333333333333",
"3333333333322222222222 %%;;;;%  22299922222222333333330000033333",
"3333333333333332222233 %%%%%%.         2222233333333000000003333",
"93333333333333333333  ;%%<<..o$$$$$$$$$  99333339999999999999339",
"99993333333330000000  ;%%<<..o$$$$$$$$$  99933999999999999333333",
"39999993333300000000  %&&..oo$%%$$$$%$$$$  999999999999999993333",
"99999993333339999999  o&&..$$%%%oooo$%%oo  999999999999999999999",
"99999999399999999999  o&&..$$%%%oooo$%%oo  222999999999999999999",
"99999999999999999999  o..$$$$%oo$$%%%;;;;$$ 22299999222222222999",
"99999999999999999999     $$%%$$$$$;;%$$%%%% 29999222222222222222",
"99999999999999999999     $$%%$$$$$;;%$$%%%% 99222222222333333333",
"33222999992222233333332  $$ooo%%$$%%>$$oo  222222333333333333333",
"22222222222223333333333  oooo;;;oo$$,,,##  222333333333333333333",
"33322222999333333333333  oo888oo66##,8844  222333333333333333333",
"33333999999993333333300  oo888oo66##,8844  333333333333000000033",
"3333999999999333330000000  ,,,$$qq44888,,  333333333300000000000",
"39999999222299333999999  ::   %%88888,,  33333333333000099999999",
"99999922222229999999999  ::   %%88888,,  33333333333999999999999",
"92299999222229999999999  ::  5&&XX&&&XX77   33333399999999999999",
"92229922222999999999999    557&&@@<<<@@55888  399999999999999999",
"99992222229999999999999    557&&@@<<<@@55888  933399999999999999",
"99922222229922299999999    557&&XX<<<@@  ,,,  333999999999999999",
"22222222229922229999999  5577XXX&&<<<&&     99999999999999999999",
"22233222222992229999999  5577XXX&&<<<&&     99999992222222999992",
"33333333222299999999999  ,,88&&&<<<<<<<  99999992222222223333333",
"3333333332222299999922222     OOOO+++++  99992222222233333333333",
"333333333333333322222222222  ---OO+++  9922222222233333333333333",
"333333333333333332222222333  ---OO+++  2222223333333333333333333",
"003333333333333333333333333  7--OOOO+  ===9993333333333333333000",
"000003333333333333333333333  7    ,,8  ======9933333333333000000",
"999003333333333333333333311  7    ,,8  ========99339999999900099",
"999999993333333333333331111     OO+++  =========9999999999999999",
"99999999999333333333300111====  ---- =====******9999999999999999",
"999999993333999933330001======  ---- ***********2999999999999999",
"9999999333399333399999999=====  --777  ********99999999999999999",
"9999999999999933999999999==========******===**=99992299999999999",
"999999999999999999999999999============*====*2999222229222999999",
"999999999999999999999999999999=========*==9222222222333322222999",
"9222332222222299999999999999922299999922222222222223333332222229",
"2223333222222222999999999922222229992222222222222333333333332222",
"2233333333332222299999999222222222222222222222233333333333333332",
"3333333333333322222999922222333332222222222333333333333333333333",
"3333333333333333222222333333333333333333333333330000000003333333",
"3333333333333333333333333333333333333333333300000000000999999333",
"3333333333333330003333333333330000000000000000009999999999999999",
"9999999333333000000033333330000099999900000099999999999999999999",
"9999933339999999999003333300099999999999999999999999999999999999",
"9999933333999999999900333399999999999999999999999992222999999999",
"9999993339999999999999999999999999999999999999922222222222299999",
"9999999999999999999999999999999999999999999922222222333333333222"
};
