/* XPM */
static char *out[] = {
/* columns rows colors chars-per-pixel */
"64 64 31 1 ",
"  c black",
". c #120317",
"X c #230726",
"o c #310D35",
"O c #222028",
"+ c #343336",
"@ c #43153B",
"# c #1C1859",
"$ c #571748",
"% c #6E2749",
"& c #2A6957",
"* c #746842",
"= c #7E7245",
"- c gray45",
"; c #817E3C",
": c #913C51",
"> c #8C3C62",
", c #8C4B63",
"< c #C16A7D",
"1 c #3B804D",
"2 c #848252",
"3 c #DEC87E",
"4 c #F8F273",
"5 c #5078A1",
"6 c gray56",
"7 c #9C8C9C",
"8 c #AEAEAE",
"9 c #E5959F",
"0 c #F1DA84",
"q c #FEFA9D",
"w c #F2E9F2",
/* pixels */
"3330000000000003330000000000000000000000033333334444444444444443",
"3333330003333444333303333000000333333333333333444444444444444443",
"4433333333344444444000033333333333333333333444444444444444444444",
"4444333334444444444000000333333300044444444444444444444444444444",
"q44444444444444000000000000000000444444444444444444444444444qqqq",
"qqqq44444444440000003333000000044444444444444444444444444qqqqqqq",
"00qqq44444444444000003333000004444444444444444444000000000000000",
"000qqqqqqq444444000000000000044444444444444440004444400000000000",
"000000000qqqq000000000000000044444444444444000444444400000000000",
"0000000000000000000000333300000444444444440000444440000000000000",
"0000000000000000333333333330000000004440000000444400000000000000",
"3333000000000000333333333000300000000000000000000333330000033333",
"4333300000000000003333333300330000000000000000033333333300333344",
"444444433330000000000333       000000000000033333444444444444444",
"444444444333333000033333       300000000000333344444444444444444",
"44444444444333333333333 %%::::%  330003333333344444444qqqqq44444",
"44444444444444433333444 %%%%%%.         333344444444qqqqqqqq4444",
"04444444444444444444444 %%%%%%.         000444440000000000000440",
"0000444444444qqqqqqqq  :%%11..o$$$$$$$$$  0044000000000000444444",
"400000044444qqqqqqqqq  %&&..oo$%%$$$$%$$$$  00000000000000004444",
"000000044444400000000  o&&..$$%%%oooo$%%oo  00000000000000000000",
"000000004000000000000  o&&..$$%%%oooo$%%oo  33000000000000000000",
"000000000000000000000  $..$$$$%oo$$%%%::::$$ 3300000333333333000",
"000000000000000000000  o..$$%%$$$$$::%$$%%%% 0000333333333333333",
"000000000000000000000  o..$$%%$$$$$::%$$%%%% 0333333333444444444",
"443330000033333444444     $$ooo%%$$%%,$$oo$$ 3333444444444444444",
"333333333333344444444444  ooooo::oo$$<<<##  33444444444444444444",
"444333330004444444444444  ooooo::oo$$<<<##  33444444444444444444",
"444440000000044444444qqq  oo99:oo77##<9955  44444444444qqqqqqq44",
"444400000000044444qqqqqqqq  <<<$$ww55999<<  444444444qqqqqqqqqqq",
"40000000333300444000000000  <<<$$ww55999<<  44444444qqqq00000000",
"00000033333330000000000000     %%99999<<  4444444444000000000000",
"033000003333300000000000  >>>> &&XX&&&XX  4444444400000000000000",
"033300333330000000000000  >>  &6688&&1@@  4444400000000000000000",
"000033333300000000000000  >>  &6688&&1@@  4440044400000000000000",
"000333333300333000000000  >>  &6688&&1@@  0000444000000000000000",
"333333333300333300000000  >>  X6688&&1&&  0000000000000000000000",
"333443333330033300000000  >>  X6688&&1&&  0000000003333333000003",
"44444444333300000000000000    &66<<99111++  00003333333334444444",
"44444444433333000000333333  %% OO<<99OOO++99 3333333344444444444",
"44444444444444443333333333  %% OO<<99OOO++99 3333344444444444444",
"4444444444444444433333334444   OO++OOO  OO++ 4444444444444444444",
"qq4444444444444444444444444444 OO++   ----++ 4444444444444444qqq",
"qqqqq4444444444444444444444;;; <<99   88--  =0044444444444qqqqqq",
"000qq4444444444444444444422222 <<99   88--  ===004400000000qqq00",
"0000000044444444444444422222  O++  == 88  ======0000000000000000",
"000000000004444444444qq222==  -88  ==   ==******0000000000000000",
"00000000444400004444qqq2====  -88  ==   ********3000000000000000",
"0000000444400444400000000===  -88  ************00000000000000000",
"0000000000000044000000000======--88  ****===**=00003300000000000",
"000000000000000000000000000====--88  ==*====*3000333330333000000",
"000000000000000000000000000000=========*==0333333333444433333000",
"0333443333333300000000000000033300000033333333333334444443333330",
"3334444333333333000000000033333330003333333333333444444444443333",
"3344444444443333300000000333333333333333333333344444444444444443",
"4444444444444433333000033333444443333333333444444444444444444444",
"444444444444444433333344444444444444444444444444qqqqqqqqq4444444",
"44444444444444444444444444444444444444444444qqqqqqqqqqq000000444",
"444444444444444qqq444444444444qqqqqqqqqqqqqqqqqq0000000000000000",
"0000000444444qqqqqqq4444444qqqqq000000qqqqqq00000000000000000000",
"0000044440000000000qq44444qqq00000000000000000000000000000000000",
"00000444440000000000qq444400000000000000000000000003333000000000",
"0000004440000000000000000000000000000000000000033333333333300000",
"0000000000000000000000000000000000000000000033333333444444444333"
};
