/* XPM */
static char *result[] = {
/* columns rows colors chars-per-pixel */
"64 64 24 1 ",
"  c #120317",
". c #1C1F1C",
"X c #230726",
"o c #310D35",
"O c #222028",
"+ c #343336",
"@ c #43153B",
"# c #1C1859",
"$ c #571748",
"% c #6E2749",
"& c #2A6957",
"* c gray45",
"= c #913C51",
"- c #8C3C62",
"; c #8C4B63",
": c #C16A7D",
"> c #3B804D",
", c #5078A1",
"< c gray56",
"1 c #9C8C9C",
"2 c #AEAEAE",
"3 c #E5959F",
"4 c #F2E9F2",
"5 c None",
/* pixels */
"5555555555555555555555555555555555555555555555555555555555555555",
"555555555555555555..........555555555555555555555555555555555555",
"555555555555555555..........555555555555555555555555555555555555",
"555555555555555555..........555555555555555555555555555555555555",
"5555555555555555..%%%====%%%..5555555555555555555555555555555555",
"5555555555555555..%%%====%%%..5555555555555555555555555555555555",
"5555555555555555..%%%%%%%   ............555555555555555555555555",
"5555555555555555..%%%%%%%   ............555555555555555555555555",
"55555555555555..==%%%>>  ooo$$$$$$$$$$$$..5555555555555555555555",
"55555555555555..==%%%>>  ooo$$$$$$$$$$$$..5555555555555555555555",
"55555555555555..==%%%>>  ooo$$$$$$$$$$$$..5555555555555555555555",
"55555555555555..%%&&&  oo$$$%%$$$$$%%$$$$$...5555555555555555555",
"55555555555555..%%&&&  oo$$$%%$$$$$%%$$$$$...5555555555555555555",
"55555555555555..oo&&&  $$%%%%%ooooo$$%%%oo...5555555555555555555",
"55555555555555..oo&&&  $$%%%%%ooooo$$%%%oo...5555555555555555555",
"55555555555555..oo&&&  $$%%%%%ooooo$$%%%oo...5555555555555555555",
"55555555555555..$$   $$$$%%%oo$$$%%%%=====$$$..55555555555555555",
"55555555555555..$$   $$$$%%%oo$$$%%%%=====$$$..55555555555555555",
"55555555555555..oo   $$%%$$$$$$$$==%%$$$%%%%%..55555555555555555",
"55555555555555..oo   $$%%$$$$$$$$==%%$$$%%%%%..55555555555555555",
"55555555555555.......$$ooooo%%$$$%%;;$$$oo$$$..55555555555555555",
"55555555555555.......$$ooooo%%$$$%%;;$$$oo$$$..55555555555555555",
"55555555555555.......$$ooooo%%$$$%%;;$$$oo$$$..55555555555555555",
"555555555555555555...ooooooo==ooo$$:::::##...5555555555555555555",
"555555555555555555...ooooooo==ooo$$:::::##...5555555555555555555",
"555555555555555555...oo33===oo111##::333,,...5555555555555555555",
"555555555555555555...oo33===oo111##::333,,...5555555555555555555",
"555555555555555555555..:::::$$444,,33333::...5555555555555555555",
"555555555555555555555..:::::$$444,,33333::...5555555555555555555",
"555555555555555555555..:::::$$444,,33333::...5555555555555555555",
"555555555555555555555.......%%3333333:::..5555555555555555555555",
"555555555555555555555.......%%3333333:::..5555555555555555555555",
"555555555555555555...----...&&XXX&&&&XXX..5555555555555555555555",
"555555555555555555...----...&&XXX&&&&XXX..5555555555555555555555",
"555555555555555555...----...&&XXX&&&&XXX..5555555555555555555555",
"555555555555555555...--..&&&<<222&&>>@@@..5555555555555555555555",
"555555555555555555...--..&&&<<222&&>>@@@..5555555555555555555555",
"555555555555555555...--..&&&<<222&&>>@@@..5555555555555555555555",
"555555555555555555...--..&&&<<222&&>>@@@..5555555555555555555555",
"555555555555555555...--..XXX<<222&&>>&&&..5555555555555555555555",
"555555555555555555...--..XXX<<222&&>>&&&..5555555555555555555555",
"555555555555555555...--..XXX<<222&&>>&&&..5555555555555555555555",
"555555555555555555555....&&&<<:::33>>>>>++...5555555555555555555",
"555555555555555555555....&&&<<:::33>>>>>++...5555555555555555555",
"555555555555555555555..%%...OO:::33OOOOO++333..55555555555555555",
"555555555555555555555..%%...OO:::33OOOOO++333..55555555555555555",
"555555555555555555555..%%...OO:::33OOOOO++333..55555555555555555",
"55555555555555555555555.....OO+++OOOO...OO+++..55555555555555555",
"55555555555555555555555.....OO+++OOOO...OO+++..55555555555555555",
"5555555555555555555555555...OO+++....*****+++..55555555555555555",
"5555555555555555555555555...OO+++....*****+++..55555555555555555",
"5555555555555555555555555...::333....222**...5555555555555555555",
"5555555555555555555555555...::333....222**...5555555555555555555",
"5555555555555555555555555...::333....222**...5555555555555555555",
"55555555555555555555555..OOO++...55..222..5555555555555555555555",
"55555555555555555555555..OOO++...55..222..5555555555555555555555",
"55555555555555555555555..***22...55.....555555555555555555555555",
"55555555555555555555555..***22...55.....555555555555555555555555",
"55555555555555555555555..***22...55.....555555555555555555555555",
"55555555555555555555555..***22...5555555555555555555555555555555",
"55555555555555555555555..***22...5555555555555555555555555555555",
"5555555555555555555555555555**222..55555555555555555555555555555",
"5555555555555555555555555555**222..55555555555555555555555555555",
"5555555555555555555555555555555555555555555555555555555555555555"
};
