/* XPM */
static char *out[] = {
/* columns rows colors chars-per-pixel */
"64 64 33 1 ",
"  c black",
". c #120317",
"X c #230726",
"o c #310D35",
"O c #222028",
"+ c #343336",
"@ c #43153B",
"# c #511C3A",
"$ c #1C1859",
"% c #571748",
"& c #6E2749",
"* c #7B3155",
"= c #2A6957",
"- c #746842",
"; c #7E7245",
": c gray45",
"> c #913C51",
", c #8C3C62",
"< c #8C4B63",
"1 c #C16A7D",
"2 c #3B804D",
"3 c #848252",
"4 c #DEC87E",
"5 c #F8F273",
"6 c #5078A1",
"7 c gray56",
"8 c #9C8C9C",
"9 c #959595",
"0 c #AEAEAE",
"q c #E5959F",
"w c #F1DA84",
"e c #FEFA9D",
"r c #F2E9F2",
/* pixels */
"444wwwwwwwwwwww444wwwwwwwwwwwwwwwwwwwwwww44444445555555555555554",
"444444www44445554444w4444wwwwww444444444444444555555555555555554",
"5544444444455555555wwww44444444444444444444555555555555555555555",
"5555444445555555555wwwwww4444444www55555555555555555555555555555",
"e55555555555555wwwwwwwwwwwwwwwwww555555555555555555555555555eeee",
"eeee5555555555wwwwww4444wwwwwww55555555555555555555555555eeeeeee",
"wweee55555555555wwwww4444wwwww5555555555555555555wwwwwwwwwwwwwww",
"wwweeeeeee555555wwwwwwwwwwwww5555555555555555www55555wwwwwwwwwww",
"wwwwwwwwweeeewwwwwwwwwwwwwwww55555555555555www5555555wwwwwwwwwww",
"wwwwwwwwwwwwwwwwwwwwww4444wwwww55555555555wwww55555wwwwwwwwwwwww",
"wwwwwwwwwwwwwwww44444444444wwwwwwwww555wwwwwww5555wwwwwwwwwwwwww",
"4444wwwwwwwwwwww444444444www4wwwwwwwwwwwwwwwwwwww44444wwwww44444",
"54444wwwwwwwwwwwww44444444ww44wwwwwwwwwwwwwwwww444444444ww444455",
"55555554444wwwwwwwwww4444444wwwwwwwwwww      4444555555555555555",
"555555555444444wwww4444444444444wwwww  &>>>&& 455555555555555555",
"55555555555444444444444444444444444ww  &>>>&& 55555555eeeee55555",
"5555555555555554444455555555444        .&&&&&&  5555eeeeeeee5555",
"w55555555555555555555555555555w        .&&&&&&  wwwwwwwwwwwww55w",
"wwww555555555eeeeeeeee5555555  %%%%%%%%o..2&&>   wwwwwwwww555555",
"5wwwwww55555eeeeeeeeeeee5555 %%%&&%%%&&%oo.==&&& wwwwwwwwwww5555",
"wwwwwww555555wwwwwwwwwwwwww5 %%%&&%%%&&%oo.==&&& wwwwwwwwwwwwwww",
"wwwwwwww5wwwwwwwwwwwwwwwwwww oo&%%ooo&&&%%.==o  wwwwwwwwwwwwwwww",
"wwwwwwwwwwwwwwwwwwwwwwwwww  %>>>&&&&%oo&%%%..%  wwww444444444www",
"wwwwwwwwwwwwwwwwwwwwwwwwww  %>>>&&&&%oo&%%%..%  w444444444444444",
"wwwwwwwwwwwwwwwwwwwwwwww44  &&&%&&>>%%%%&&%..o  4444444555555555",
"55444wwwww4444455555554444  %oo%<<&&%&&%%%%     4555555555555555",
"44444444444445555555555555  %oo%<<&&%&&%%%%     5555555555555555",
"55544444www55555555555555555 $$111%%o&&%ooo  4555555555555555555",
"55555wwwwwwww55555555eeeee55 $$111%%o&&%ooo  5555555555eeeeeee55",
"5555wwwwwwwww55555eeeeeeeee5 66q11$$8>>%qqo  55555555eeeeeeeeeee",
"5wwwwwww4444ww555wwwwwwwwwe5 11qqq66roo111 555555555eeeewwwwwwww",
"wwwwww4444444wwwwwwwwwwwwwwww  1qqqqq&&   ,  5555555wwwwwwwwwwww",
"w44wwwww44444wwwwwwwwwwwwwwww  1qqqqq&&   ,  55555wwwwwwwwwwwwww",
"w444ww44444wwwwwwwwwwwwwwwwww  X====X22 **,,, 5wwwwwwwwwwwwwwwww",
"wwww444444wwwwwwwwwwwwwwwwwww  @====0772  #,, w555wwwwwwwwwwwwww",
"www4444444ww444wwwwwwwwwwwwww  @====0772  #,, 555wwwwwwwwwwwwwww",
"4444444444ww4444wwwwwwwwwwwww  @====0772  #,, wwwwwwwwwwwwwwwwww",
"44455444444ww444wwwwwwwwwwwww  @====0772  #,, wwwww4444444wwwww4",
"555555554444wwwwwwwwwwwwwww44  2==007XXX  #,, ww4444444445555555",
"55555555544444wwwwww444444444  2qq117222  #  4444444455555555555",
"5555555555555555444444444444 qqOqq11+++O  &  4444455555555555555",
"5555555555555555544444445555 qqOqq11+++O  &  5555555555555555555",
"ee555555555555555555555555  +11OOOOOO+++OO ww5555555555555555eee",
"eeeee555555555555555555555  +OO      ++qOO wwww55555555555eeeeee",
"wwwee55555555555555555555e  +OO      ++qOO ;;wwww55wwwwwwwweeeww",
"wwwwwwww555555555555555ee3  +OO      ++qOO ;;;;wwwwwwwwwwwwwwwww",
"wwwwwwwwwww5555555555ee33 999:: ;;;;;  +++O  ---wwwwwwwwwwwwwwww",
"wwwwwwww5555wwww5555eee3;;  ::: ;;;;;-- 00:  ---4wwwwwwwwwwwwwww",
"wwwwwww5555ww5555wwwwww;;;;;   ;;;----- 00:  --;wwwwwwwwwwwwwwww",
"wwwwwwwwwwwwww55wwwwwwwww;;;   ;;;;---- 00:  -;wwww44wwwwwwwwwww",
"wwwwwwwwwwwwwwwwwwwwwwwww;;;;;;;;;;;;  0::;;--;ww44444w444wwwwww",
"wwwwwwwwwwwwwwwwwwwwwwwwwww;;;;;;;;;;;;-;;;--4444444555544444www",
"w4445544444444wwwwwwwwwwwwwww4--;;;;;;----444444444555555444444w",
"4445555444444444wwwwwwwwww4444444www4444444444444555555555554444",
"44555555555544444wwwwwwww444444444444444444444455555555555555554",
"5555555555555544444wwww44444555554444444444555555555555555555555",
"555555555555555544444455555555555555555555555555eeeeeeeee5555555",
"55555555555555555555555555555555555555555555eeeeeeeeeeewwwwww555",
"555555555555555eee555555555555eeeeeeeeeeeeeeeeeewwwwwwwwwwwwwwww",
"wwwwwww555555eeeeeee5555555eeeeewwwwwweeeeeewwwwwwwwwwwwwwwwwwww",
"wwwww5555wwwwwwwwwwee55555eeewwwwwwwwwwwwwwwwwwwwwwwwwwwwwwwwwww",
"wwwww55555wwwwwwwwwwee5555wwwwwwwwwwwwwwwwwwwwwwwww4444wwwwwwwww",
"wwwwww555wwwwwwwwwwwwwwwwwwwwwwwwwwwwwwwwwwwwww444444444444wwwww",
"wwwwwwwwwwwwwwwwwwwwwwwwwwwwwwwwwwwwwwwwwwww44444444555555555444"
};
