/* XPM */
static char *result[] = {
/* columns rows colors chars-per-pixel */
"64 64 27 1 ",
"  c black",
". c #120317",
"X c #230726",
"o c #310D35",
"O c #222028",
"+ c #343336",
"@ c #43153B",
"# c #511C3A",
"$ c #1C1859",
"% c #571748",
"& c #6E2749",
"* c #7B3155",
"= c #2A6957",
"- c gray45",
"; c #913C51",
": c #8C3C62",
"> c #8C4B63",
", c #C16A7D",
"< c #3B804D",
"1 c #5078A1",
"2 c gray56",
"3 c #9C8C9C",
"4 c #959595",
"5 c #AEAEAE",
"6 c #E5959F",
"7 c #F2E9F2",
"8 c None",
/* pixels */
"8888888888888888888888888888888888888888888888888888888888888888",
"888888888888888888888888888888888888           88888888888888888",
"888888888888888888888888888888888888           88888888888888888",
"888888888888888888888888888888888888           88888888888888888",
"8888888888888888888888888888888888  &&&;;;;&&&&  888888888888888",
"8888888888888888888888888888888888  &&&;;;;&&&&  888888888888888",
"8888888888888888888888888888888888  &&&;;;;&&&&  888888888888888",
"888888888888888888888888            ...&&&&&&&&&&  8888888888888",
"888888888888888888888888            ...&&&&&&&&&&  8888888888888",
"8888888888888888888888  %%%%%%%%%%%%ooo..<<&&&&;;    88888888888",
"8888888888888888888888  %%%%%%%%%%%%ooo..<<&&&&;;    88888888888",
"88888888888888888888  %%%%%&&&%%%%&&%%%oo..====&&&&  88888888888",
"88888888888888888888  %%%%%&&&%%%%&&%%%oo..====&&&&  88888888888",
"88888888888888888888  %%%%%&&&%%%%&&%%%oo..====&&&&  88888888888",
"88888888888888888888  oo&&&%%%oooo&&&&&%%..====oo  8888888888888",
"88888888888888888888  oo&&&%%%oooo&&&&&%%..====oo  8888888888888",
"88888888888888888   %%;;;;;&&&&&%%oo&&&%%%%....%%  8888888888888",
"88888888888888888   %%;;;;;&&&&&%%oo&&&%%%%....%%  8888888888888",
"88888888888888888   &&&&%%%&&&;;%%%%%%%&&%%....oo  8888888888888",
"88888888888888888   &&&&%%%&&&;;%%%%%%%&&%%....oo  8888888888888",
"88888888888888888   &&&&%%%&&&;;%%%%%%%&&%%....oo  8888888888888",
"88888888888888888   %%oo%%%>>>&&%%&&%%%%%%%        8888888888888",
"88888888888888888   %%oo%%%>>>&&%%&&%%%%%%%        8888888888888",
"88888888888888888   %%oo%%%>>>&&%%&&%%%%%%%        8888888888888",
"88888888888888888888  $$,,,,,,%%oo&&%%%oooo    88888888888888888",
"88888888888888888888  $$,,,,,,%%oo&&%%%oooo    88888888888888888",
"88888888888888888888  11666,,,$$33;;%%%66oo    88888888888888888",
"88888888888888888888  11666,,,$$33;;%%%66oo    88888888888888888",
"88888888888888888888  ,,6666661177oo,,,,,  888888888888888888888",
"88888888888888888888  ,,6666661177oo,,,,,  888888888888888888888",
"88888888888888888888  ,,6666661177oo,,,,,  888888888888888888888",
"8888888888888888888888  ,,,6666666&&     ::    88888888888888888",
"8888888888888888888888  ,,,6666666&&     ::    88888888888888888",
"8888888888888888888888  XXX=====XX<<   **::::::  888888888888888",
"8888888888888888888888  XXX=====XX<<   **::::::  888888888888888",
"8888888888888888888888  @@@=====5522<<<  ##::::  888888888888888",
"8888888888888888888888  @@@=====5522<<<  ##::::  888888888888888",
"8888888888888888888888  @@@=====5522<<<  ##::::  888888888888888",
"8888888888888888888888  @@@=====5522<<<  ##::::  888888888888888",
"8888888888888888888888  @@@=====5522<<<  ##::::  888888888888888",
"8888888888888888888888  @@@=====5522<<<  ##::::  888888888888888",
"8888888888888888888888  <<<===5522XXXXX  ##::::  888888888888888",
"8888888888888888888888  <<<===5522XXXXX  ##::::  888888888888888",
"8888888888888888888888  <<<666,,22<<<<<  ##    88888888888888888",
"8888888888888888888888  <<<666,,22<<<<<  ##    88888888888888888",
"88888888888888888888  66OOO666,,++++OOO  &&    88888888888888888",
"88888888888888888888  66OOO666,,++++OOO  &&    88888888888888888",
"88888888888888888888  66OOO666,,++++OOO  &&    88888888888888888",
"88888888888888888   ++,,OOOOOOOOOO+++++OO  888888888888888888888",
"88888888888888888   ++,,OOOOOOOOOO+++++OO  888888888888888888888",
"88888888888888888   ++OO          ++666OO  888888888888888888888",
"88888888888888888   ++OO          ++666OO  888888888888888888888",
"888888888888888  44444--   8888888  +++++OO    88888888888888888",
"888888888888888  44444--   8888888  +++++OO    88888888888888888",
"88888888888888888   ----   888888888   55--    88888888888888888",
"88888888888888888   ----   888888888   55--    88888888888888888",
"88888888888888888   ----   888888888   55--    88888888888888888",
"88888888888888888   ----   888888888   55--    88888888888888888",
"88888888888888888888    888888888888   55--    88888888888888888",
"88888888888888888888    888888888888   55--    88888888888888888",
"8888888888888888888888888888888888  555--88888888888888888888888",
"8888888888888888888888888888888888  555--88888888888888888888888",
"8888888888888888888888888888888888888888888888888888888888888888",
"8888888888888888888888888888888888888888888888888888888888888888"
};
