/* XPM */
static char *out[] = {
/* columns rows colors chars-per-pixel */
"64 64 32 1 ",
"  c black",
". c #120317",
"X c #230726",
"o c #310D35",
"O c #222028",
"+ c #343336",
"@ c #43153B",
"# c #511C3A",
"$ c #1C1859",
"% c #571748",
"& c #6E2749",
"* c #7B3155",
"= c #2A6957",
"- c #746842",
"; c #7E7245",
": c gray45",
"> c #913C51",
", c #8C3C62",
"< c #8C4B63",
"1 c #C16A7D",
"2 c #3B804D",
"3 c #848252",
"4 c #DEC87E",
"5 c #F8F273",
"6 c #5078A1",
"7 c gray56",
"8 c #9C8C9C",
"9 c #AEAEAE",
"0 c #E5959F",
"q c #F1DA84",
"w c #FEFA9D",
"e c #F2E9F2",
/* pixels */
"444qqqqqqqqqqqq444qqqqqqqqqqqqqqqqqqqqqqq44444445555555555555554",
"444444qqq44445554444q4444qqqqqq444444444444444555555555555555554",
"5544444444455555555qqqq44444444444444444444555555555555555555555",
"5555444445555555555qqqqqq4444444qqq55555555555555555555555555555",
"w55555555555555qqqqqqqqqqqqqqqqqq555555555555555555555555555wwww",
"wwww5555555555qqqqqq4444qqqqqqq55555555555555555555555555wwwwwww",
"qqwww55555555555qqqqq4444qqqqq5555555555555555555qqqqqqqqqqqqqqq",
"qqqwwwwwww555555qqqqqqqqqqqqq5555555555555555qqq55555qqqqqqqqqqq",
"qqqqqqqqqwwwwqqqqqqqqqqqqqqqq55555555555555qqq5555555qqqqqqqqqqq",
"qqqqqqqqqqqqqqqqqqqqqq4444qqqqq55555555555qqqq55555qqqqqqqqqqqqq",
"qqqqqqqqqqqqqqqq44444444444qqqqqqqqq555qqqqqqq5555qqqqqqqqqqqqqq",
"4444qqqqqqqqqqqq444444444qqq4qqqqqqqqq       qqqq44444qqqqq44444",
"54444qqqqqqqqqqqqq44444444qq44qqqqqqqq       qq444444444qq444455",
"55555554444qqqqqqqqqq4444444qqqqqqqqq &&>>>&&  44555555555555555",
"555555555444444qqqq4444444444444qqqqq &&>>>&&  55555555555555555",
"555555555554444444444444444444        ..&&&&&&& 555555wwwww55555",
"5555555555555554444455555555  %%%%%%%%oo..2&&>> 5555wwwwwwww5555",
"q555555555555555555555555555  %%%%%%%%oo..2&&>> qqqqqqqqqqqqq55q",
"qqqq555555555wwwwwwwww55555 %%%%&%%%%&%%oo.==&& qqqqqqqqqq555555",
"5qqqqqq55555wwwwwwwwwwww555 oo&&%oooo&&&%%.==oo&  qqqqqqqqqq5555",
"qqqqqqq555555qqqqqqqqqqqqqq oo&&%oooo&&&%%.==oo&  qqqqqqqqqqqqqq",
"qqqqqqqq5qqqqqqqqqqqqqqqq  %>>>>&&&%%o&&%%%..%%   qqqqqqqqqqqqqq",
"qqqqqqqqqqqqqqqqqqqqqqqqq  %>>>>&&&%%o&&%%%..%%   qq444444444qqq",
"qqqqqqqqqqqqqqqqqqqqqqqqq  &&&%%&>>%%%%%&&%..oo q444444444444444",
"qqqqqqqqqqqqqqqqqqqqqqqq4  %oo%%<&&%%&%%%%%    44444444555555555",
"55444qqqqq444445555555444  %oo%%<&&%%&%%%%%    44555555555555555",
"444444444444455555555555554 $$111%%oo&%%ooo  4555555555555555555",
"55544444qqq5555555555555555 $$111%%oo&%%ooo  4555555555555555555",
"55555qqqqqqqq55555555wwwww5 66001$$88>%%00o  5555555555wwwwwww55",
"5555qqqqqqqqq55555wwwwwwwww 1100066eeo1111 5555555555wwwwwwwwwww",
"5qqqqqqq4444qq555qqqqqqqqqw 1100066eeo1111 555555555wwwwqqqqqqqq",
"qqqqqq4444444qqqqqqqqqqqqqqq  1100000&    ,  5555555qqqqqqqqqqqq",
"q44qqqqq44444qqqqqqqqqqqqqqq  1100000&    ,  55555qqqqqqqqqqqqqq",
"q444qq44444qqqqqqqqqqqqqqqqq  XX===XX2  **,,,  qqqqqqqqqqqqqqqqq",
"qqqq444444qqqqqqqqqqqqqqqqqq  @@===99722  #,,  555qqqqqqqqqqqqqq",
"qqq4444444qq444qqqqqqqqqqqqq  @@===99722  #,,  55qqqqqqqqqqqqqqq",
"4444444444qq4444qqqqqqqqqqqq  @@=9977722  #,,  qqqqqqqqqqqqqqqqq",
"44455444444qq444qqqqqqqqqqqq  @@=9977722  #,,  qqqq4444444qqqqq4",
"555555554444qqqqqqqqqqqqqqq4  2201177XXX  #,,  q4444444445555555",
"55555555544444qqqqqq44444444  ++011==222  #  4444444455555555555",
"5555555555555555444444444444  ++011==222  #  4444455555555555555",
"5555555555555555544444445555  11OOOOOO  &&&  5555555555555555555",
"ww55555555555555555555555555  11OOOOOO  &&&  5555555555555555www",
"wwwww55555555555555555555555  +++::::      qqqq55555555555wwwwww",
"qqqww55555555555555555555ww333   99999  ;;;;;qqqq55qqqqqqqqwwwqq",
"qqqqqqqq555555555555555ww33333   99999  ;;;;;;;qqqqqqqqqqqqqqqqq",
"qqqqqqqqqqq5555555555ww333;;;;;;;       ;;------qqqqqqqqqqqqqqqq",
"qqqqqqqq5555qqqq5555www3;;;;;;;;;       --------4qqqqqqqqqqqqqqq",
"qqqqqqq5555qq5555qqqqqq;;;;;;;;; 9999:  -------;qqqqqqqqqqqqqqqq",
"qqqqqqqqqqqqqq55qqqqqqqqq;;;;;;;;;;------;;;--;qqqq44qqqqqqqqqqq",
"qqqqqqqqqqqqqqqqqqqqqqqqq;;;;;;;;;;;;;;-;;;;--;qq44444q444qqqqqq",
"qqqqqqqqqqqqqqqqqqqqqqqqqqq;;;;;;;;;;;;-;;;--4444444555544444qqq",
"q4445544444444qqqqqqqqqqqqqqq4--;;;;;;----444444444555555444444q",
"4445555444444444qqqqqqqqqq4444444qqq4444444444444555555555554444",
"44555555555544444qqqqqqqq444444444444444444444455555555555555554",
"5555555555555544444qqqq44444555554444444444555555555555555555555",
"555555555555555544444455555555555555555555555555wwwwwwwww5555555",
"55555555555555555555555555555555555555555555wwwwwwwwwwwqqqqqq555",
"555555555555555www555555555555wwwwwwwwwwwwwwwwwwqqqqqqqqqqqqqqqq",
"qqqqqqq555555wwwwwww5555555wwwwwqqqqqqwwwwwwqqqqqqqqqqqqqqqqqqqq",
"qqqqq5555qqqqqqqqqqww55555wwwqqqqqqqqqqqqqqqqqqqqqqqqqqqqqqqqqqq",
"qqqqq55555qqqqqqqqqqww5555qqqqqqqqqqqqqqqqqqqqqqqqq4444qqqqqqqqq",
"qqqqqq555qqqqqqqqqqqqqqqqqqqqqqqqqqqqqqqqqqqqqq444444444444qqqqq",
"qqqqqqqqqqqqqqqqqqqqqqqqqqqqqqqqqqqqqqqqqqqq44444444555555555444"
};
