/* XPM */
static char *result[] = {
/* columns rows colors chars-per-pixel */
"64 64 26 1 ",
"  c black",
". c #120317",
"X c #230726",
"o c #310D35",
"O c #222028",
"+ c #343336",
"@ c #43153B",
"# c #511C3A",
"$ c #1C1859",
"% c #571748",
"& c #6E2749",
"* c #7B3155",
"= c #2A6957",
"- c gray45",
"; c #913C51",
": c #8C3C62",
"> c #8C4B63",
", c #C16A7D",
"< c #3B804D",
"1 c #5078A1",
"2 c gray56",
"3 c #9C8C9C",
"4 c #AEAEAE",
"5 c #E5959F",
"6 c #F2E9F2",
"7 c None",
/* pixels */
"7777777777777777777777777777777777777777777777777777777777777777",
"7777777777777777777777777777777777777777777777777777777777777777",
"777777777777777777777777777777777777           77777777777777777",
"777777777777777777777777777777777777           77777777777777777",
"777777777777777777777777777777777777           77777777777777777",
"7777777777777777777777777777777777  &&&;;;;&&&&  777777777777777",
"7777777777777777777777777777777777  &&&;;;;&&&&  777777777777777",
"777777777777777777777777            ...&&&&&&&&&&  7777777777777",
"777777777777777777777777            ...&&&&&&&&&&  7777777777777",
"7777777777777777777777  %%%%%%%%%%%%ooo..<<&&&&;;  7777777777777",
"7777777777777777777777  %%%%%%%%%%%%ooo..<<&&&&;;  7777777777777",
"7777777777777777777777  %%%%%%%%%%%%ooo..<<&&&&;;  7777777777777",
"77777777777777777777  %%%%%&&&%%%%&&%%%oo..====&&  7777777777777",
"77777777777777777777  %%%%%&&&%%%%&&%%%oo..====&&  7777777777777",
"77777777777777777777  oo&&&%%%oooo&&&&&%%..====oo&&  77777777777",
"77777777777777777777  oo&&&%%%oooo&&&&&%%..====oo&&  77777777777",
"77777777777777777   %%;;;;;&&&&&%%oo&&&%%%%....%%    77777777777",
"77777777777777777   %%;;;;;&&&&&%%oo&&&%%%%....%%    77777777777",
"77777777777777777   %%;;;;;&&&&&%%oo&&&%%%%....%%    77777777777",
"77777777777777777   &&&&%%%&&&;;%%%%%%%&&%%....oo  7777777777777",
"77777777777777777   &&&&%%%&&&;;%%%%%%%&&%%....oo  7777777777777",
"77777777777777777   &&&&%%%&&&;;%%%%%%%&&%%....oo  7777777777777",
"77777777777777777   %%oo%%%>>>&&%%&&%%%%%%%      777777777777777",
"77777777777777777   %%oo%%%>>>&&%%&&%%%%%%%      777777777777777",
"77777777777777777777  $$,,,,,,%%oo&&%%%oooo    77777777777777777",
"77777777777777777777  $$,,,,,,%%oo&&%%%oooo    77777777777777777",
"77777777777777777777  11555,,,$$33;;%%%55oo    77777777777777777",
"77777777777777777777  11555,,,$$33;;%%%55oo    77777777777777777",
"77777777777777777777  11555,,,$$33;;%%%55oo    77777777777777777",
"77777777777777777777  ,,5555551166oo,,,,,  777777777777777777777",
"77777777777777777777  ,,5555551166oo,,,,,  777777777777777777777",
"7777777777777777777777  ,,,5555555&&     ::    77777777777777777",
"7777777777777777777777  ,,,5555555&&     ::    77777777777777777",
"7777777777777777777777  XXX=====XX<<   **::::::  777777777777777",
"7777777777777777777777  XXX=====XX<<   **::::::  777777777777777",
"7777777777777777777777  @@@=====4422<<<  ##::::  777777777777777",
"7777777777777777777777  @@@=====4422<<<  ##::::  777777777777777",
"7777777777777777777777  @@@=====4422<<<  ##::::  777777777777777",
"7777777777777777777777  @@@=====4422<<<  ##::::  777777777777777",
"7777777777777777777777  @@@===442222<<<  ##::::  777777777777777",
"7777777777777777777777  @@@===442222<<<  ##::::  777777777777777",
"7777777777777777777777  <<<555,,22XXXXX  ##::::  777777777777777",
"7777777777777777777777  <<<555,,22XXXXX  ##::::  777777777777777",
"7777777777777777777777  +++555,,==<<<<<  ##    77777777777777777",
"7777777777777777777777  +++555,,==<<<<<  ##    77777777777777777",
"7777777777777777777777  +++555,,==<<<<<  ##    77777777777777777",
"7777777777777777777777  ,,,OOOOOOOOO   &&&&    77777777777777777",
"7777777777777777777777  ,,,OOOOOOOOO   &&&&    77777777777777777",
"7777777777777777777777  ++++++----         777777777777777777777",
"7777777777777777777777  ++++++----         777777777777777777777",
"777777777777777777777777      444444   7777777777777777777777777",
"777777777777777777777777      444444   7777777777777777777777777",
"777777777777777777777777777777         7777777777777777777777777",
"777777777777777777777777777777         7777777777777777777777777",
"777777777777777777777777777777         7777777777777777777777777",
"777777777777777777777777777777         7777777777777777777777777",
"777777777777777777777777777   4444--   7777777777777777777777777",
"777777777777777777777777777   4444--   7777777777777777777777777",
"7777777777777777777777777777777777777777777777777777777777777777",
"7777777777777777777777777777777777777777777777777777777777777777",
"7777777777777777777777777777777777777777777777777777777777777777",
"7777777777777777777777777777777777777777777777777777777777777777",
"7777777777777777777777777777777777777777777777777777777777777777",
"7777777777777777777777777777777777777777777777777777777777777777"
};
