/* XPM */
static char *result[] = {
/* columns rows colors chars-per-pixel */
"64 64 28 1 ",
"  c #120317",
". c #19161A",
"X c #1A1A1B",
"o c #1C1F1C",
"O c #230726",
"+ c #310D35",
"@ c #222028",
"# c #343336",
"$ c #43153B",
"% c #511C3A",
"& c #1C1859",
"* c #571748",
"= c #6E2749",
"- c #7B3155",
"; c #2A6957",
": c gray45",
"> c #913C51",
", c #8C3C62",
"< c #8C4B63",
"1 c #C16A7D",
"2 c #3B804D",
"3 c #5078A1",
"4 c gray56",
"5 c #9C8C9C",
"6 c #AEAEAE",
"7 c #E5959F",
"8 c #F2E9F2",
"9 c None",
/* pixels */
"9999999999999999999999999999999999999999999999999999999999999999",
"9999999999999999999999999999999999999999999999999999999999999999",
"999999999999999999999999999999999999ooooooooooo99999999999999999",
"999999999999999999999999999999999999ooooooooooo99999999999999999",
"999999999999999999999999999999999999ooooooooooo99999999999999999",
"9999999999999999999999999999999999oo===>>>>====oo999999999999999",
"9999999999999999999999999999999999oo===>>>>====oo999999999999999",
"999999999999999999999999oooooooooooo.  ==========oo9999999999999",
"999999999999999999999999oooooooooooo.  ==========oo9999999999999",
"9999999999999999999999oo************+++  22====>>oo9999999999999",
"9999999999999999999999oo************+++  22====>>oo9999999999999",
"9999999999999999999999oo************+++  22====>>oo9999999999999",
"99999999999999999999oo*****===****==***++  ;;;;==oo9999999999999",
"99999999999999999999oo*****===****==***++  ;;;;==oo9999999999999",
"99999999999999999999oo++===***++++=====**  ;;;;++==oo99999999999",
"99999999999999999999oo++===***++++=====**  ;;;;++==oo99999999999",
"99999999999999999ooo**>>>>>=====**++===****    **oooo99999999999",
"99999999999999999ooo**>>>>>=====**++===****    **oooo99999999999",
"99999999999999999ooo**>>>>>=====**++===****    **oooo99999999999",
"99999999999999999ooo====***===>>*******==**    ++oo9999999999999",
"99999999999999999ooo====***===>>*******==**    ++oo9999999999999",
"99999999999999999ooo====***===>>*******==**XXXX++oo9999999999999",
"99999999999999999ooo**++***<<<==**==*******oooooo999999999999999",
"99999999999999999ooo**++***<<<==**==*******oooooo999999999999999",
"99999999999999999999oo&&111111**++==***++++oooo99999999999999999",
"99999999999999999999oo&&111111**++==***++++oooo99999999999999999",
"99999999999999999999oo33777111&&55>>***77++oooo99999999999999999",
"99999999999999999999oo33777111&&55>>***77++oooo99999999999999999",
"99999999999999999999oo33777111&&55>>***77++oooo99999999999999999",
"99999999999999999999oo117777773388++11111oo999999999999999999999",
"99999999999999999999oo117777773388++11111oo999999999999999999999",
"9999999999999999999999oo1117777777==ooooo,,oooo99999999999999999",
"9999999999999999999999oo1117777777==ooooo,,oooo99999999999999999",
"9999999999999999999999ooOOO;;;;;OO22ooo--,,,,,,oo999999999999999",
"9999999999999999999999ooOOO;;;;;OO22ooo--,,,,,,oo999999999999999",
"9999999999999999999999oo$$$;;;;;6644222oo%%,,,,oo999999999999999",
"9999999999999999999999oo$$$;;;;;6644222oo%%,,,,oo999999999999999",
"9999999999999999999999oo$$$;;;;;6644222oo%%,,,,oo999999999999999",
"9999999999999999999999oo$$$;;;;;6644222oo%%,,,,oo999999999999999",
"9999999999999999999999oo$$$;;;664444222oo%%,,,,oo999999999999999",
"9999999999999999999999oo$$$;;;664444222oo%%,,,,oo999999999999999",
"9999999999999999999999oo2227771144OOOOOoo%%,,,,oo999999999999999",
"9999999999999999999999oo2227771144OOOOOoo%%,,,,oo999999999999999",
"9999999999999999999999oo###77711;;22222oo%%oooo99999999999999999",
"9999999999999999999999oo###77711;;22222oo%%oooo99999999999999999",
"9999999999999999999999oo###77711;;22222oo%%oooo99999999999999999",
"9999999999999999999999oo111@@@@@@@@@ooo====oooo99999999999999999",
"9999999999999999999999oo111@@@@@@@@@ooo====oooo99999999999999999",
"9999999999999999999999oo######::::ooooooooo999999999999999999999",
"9999999999999999999999oo######::::ooooooooo999999999999999999999",
"999999999999999999999999oooooo666666ooo9999999999999999999999999",
"999999999999999999999999oooooo666666ooo9999999999999999999999999",
"999999999999999999999999999999ooooooooo9999999999999999999999999",
"999999999999999999999999999999ooooooooo9999999999999999999999999",
"999999999999999999999999999999ooooooooo9999999999999999999999999",
"999999999999999999999999999999ooooooooo9999999999999999999999999",
"999999999999999999999999999ooo6666::ooo9999999999999999999999999",
"999999999999999999999999999ooo6666::ooo9999999999999999999999999",
"9999999999999999999999999999999999999999999999999999999999999999",
"9999999999999999999999999999999999999999999999999999999999999999",
"9999999999999999999999999999999999999999999999999999999999999999",
"9999999999999999999999999999999999999999999999999999999999999999",
"9999999999999999999999999999999999999999999999999999999999999999",
"9999999999999999999999999999999999999999999999999999999999999999"
};
