/* XPM */
static char *result[] = {
/* columns rows colors chars-per-pixel */
"64 64 26 1 ",
"  c #120317",
". c #18131A",
"X c #181B18",
"o c #1C1F1C",
"O c #230726",
"+ c #310D35",
"@ c #222028",
"# c #343336",
"$ c #43153B",
"% c #1C1859",
"& c #571748",
"* c #6E2749",
"= c #2A6957",
"- c gray45",
"; c #913C51",
": c #8C3C62",
"> c #8C4B63",
", c #C16A7D",
"< c #3B804D",
"1 c #5078A1",
"2 c gray56",
"3 c #9C8C9C",
"4 c #AEAEAE",
"5 c #E5959F",
"6 c #F2E9F2",
"7 c None",
/* pixels */
"7777777777777777777777777777777777777777777777777777777777777777",
"777777777777777777777777777777777777Xoooooooooo77777777777777777",
"777777777777777777777777777777777777ooooooooooo77777777777777777",
"777777777777777777777777777777777777ooooooooooo77777777777777777",
"7777777777777777777777777777777777oo***;;;;****oo777777777777777",
"7777777777777777777777777777777777oo***;;;;****oo777777777777777",
"7777777777777777777777777777777777oo***;;;;****oo777777777777777",
"777777777777777777777777oooooooooooo.  **********oo7777777777777",
"777777777777777777777777oooooooooooo.  **********oo7777777777777",
"7777777777777777777777oo&&&&&&&&&&&&+++  <<****;;oo7777777777777",
"7777777777777777777777oo&&&&&&&&&&&&+++  <<****;;oo7777777777777",
"77777777777777777777oo&&&&&***&&&&**&&&++  ====****oo77777777777",
"77777777777777777777oo&&&&&***&&&&**&&&++  ====****oo77777777777",
"77777777777777777777oo&&&&&***&&&&**&&&++  ====****oo77777777777",
"77777777777777777777oo++***&&&++++*****&&  ====++oooo77777777777",
"77777777777777777777oo++***&&&++++*****&&  ====++oooo77777777777",
"77777777777777777ooo&&;;;;;*****&&++***&&&&    &&oo7777777777777",
"77777777777777777ooo&&;;;;;*****&&++***&&&&    &&oo7777777777777",
"77777777777777777ooo****&&&***;;&&&&&&&**&&    ++oo7777777777777",
"77777777777777777ooo****&&&***;;&&&&&&&**&&    ++oo7777777777777",
"77777777777777777ooo****&&&***;;&&&&&&&**&&....++oo7777777777777",
"77777777777777777ooo&&++&&&>>>**&&**&&&&&&&oooooooo7777777777777",
"77777777777777777ooo&&++&&&>>>**&&**&&&&&&&oooooooo7777777777777",
"77777777777777777ooo&&++&&&>>>**&&**&&&&&&&oooooooo7777777777777",
"77777777777777777777oo%%,,,,,,&&++**&&&++++oooo77777777777777777",
"77777777777777777777oo%%,,,,,,&&++**&&&++++oooo77777777777777777",
"77777777777777777777oo11555,,,%%33;;&&&55++oooo77777777777777777",
"77777777777777777777oo11555,,,%%33;;&&&55++oooo77777777777777777",
"77777777777777777777oo,,5555551166++,,,,,oo777777777777777777777",
"77777777777777777777oo,,5555551166++,,,,,oo777777777777777777777",
"77777777777777777777oo,,5555551166++,,,,,oo777777777777777777777",
"7777777777777777777777oo,,,5555555**ooooooo777777777777777777777",
"7777777777777777777777oo,,,5555555**ooooooo777777777777777777777",
"7777777777777777777777ooOOO=====OO<<222oo::oooo77777777777777777",
"7777777777777777777777ooOOO=====OO<<222oo::oooo77777777777777777",
"77777777777777777777oo44$$$=====$$==44422oooooo77777777777777777",
"77777777777777777777oo44$$$=====$$==44422oooooo77777777777777777",
"77777777777777777ooo5522$$$=====OO==44422oooooo77777777777777777",
"77777777777777777ooo5522$$$=====OO==44422oooooo77777777777777777",
"77777777777777777ooo5522$$$=====OO==44422oooooo77777777777777777",
"77777777777777777ooo5522$$$=====OO==44422oooooo77777777777777777",
"77777777777777777ooo55,,<<<=======55,,,22oooooo77777777777777777",
"77777777777777777ooo55,,<<<=======55,,,22oooooo77777777777777777",
"77777777777777777777oooo<<<=====<<55,,,oooo777777777777777777777",
"77777777777777777777oooo<<<=====<<55,,,oooo777777777777777777777",
"7777777777777777777777oo@@@#####@@@@ooo@@oo777777777777777777777",
"7777777777777777777777oo@@@#####@@@@ooo@@oo777777777777777777777",
"7777777777777777777777oo@@@#####@@@@ooo@@oo777777777777777777777",
"7777777777777777777777oo######@@@@oo@@@@@@@oooo77777777777777777",
"7777777777777777777777oo######@@@@oo@@@@@@@oooo77777777777777777",
"77777777777777777777oo##555@@@oooo77ooo----oooo77777777777777777",
"77777777777777777777oo##555@@@oooo77ooo----oooo77777777777777777",
"77777777777777777777oo##@@@ooo777777ooo44--oooo77777777777777777",
"77777777777777777777oo##@@@ooo777777ooo44--oooo77777777777777777",
"77777777777777777ooo4444---ooo7777oo444--77777777777777777777777",
"77777777777777777ooo4444---ooo7777oo444--77777777777777777777777",
"77777777777777777ooo4444---ooo7777oo444--77777777777777777777777",
"77777777777777777ooo4444---ooo7777oo444--77777777777777777777777",
"77777777777777777777oo-----ooo7777777777777777777777777777777777",
"77777777777777777777oo-----ooo7777777777777777777777777777777777",
"7777777777777777777777ooooo7777777777777777777777777777777777777",
"7777777777777777777777ooooo7777777777777777777777777777777777777",
"7777777777777777777777777777777777777777777777777777777777777777",
"7777777777777777777777777777777777777777777777777777777777777777"
};
