/* XPM */
static char *out[] = {
/* columns rows colors chars-per-pixel */
"64 64 31 1 ",
"  c black",
". c #120317",
"X c #230726",
"o c #310D35",
"O c #222028",
"+ c #343336",
"@ c #43153B",
"# c #1C1859",
"$ c #571748",
"% c #6E2749",
"& c #2A6957",
"* c #746842",
"= c #7E7245",
"- c gray45",
"; c #817E3C",
": c #913C51",
"> c #8C3C62",
", c #8C4B63",
"< c #C16A7D",
"1 c #3B804D",
"2 c #848252",
"3 c #DEC87E",
"4 c #F8F273",
"5 c #5078A1",
"6 c gray56",
"7 c #9C8C9C",
"8 c #AEAEAE",
"9 c #E5959F",
"0 c #F1DA84",
"q c #FEFA9D",
"w c #F2E9F2",
/* pixels */
"3330000000000003330000000000000000000000033333334444444444444443",
"3333330003333444333303333000000333333333333333444444444444444443",
"4433333333344444444000033333333333333333333444444444444444444444",
"4444333334444444444000000333333300044444444444444444444444444444",
"q44444444444444000000000000000000444444444444444444444444444qqqq",
"qqqq44444444440000003333000000044444444444444444444444444qqqqqqq",
"00qqq44444444444000003333000004444444444444444444000000000000000",
"000qqqqqqq444444000000000000044444444444444440004444400000000000",
"000000000qqqq000000000000000044444444444444000444444400000000000",
"0000000000000000000000333300000444444444440000444440000000000000",
"00000000000000003333333333300000000044       0444400000000000000",
"3333000000000000333333333000300000000 %%:::%%  00333330000033333",
"4333300000000000003333333300330000000 %%:::%%  33333333300333344",
"444444433330000000000333333300        ..%%%%%%% 3444444444444444",
"444444444333333000033333333333        ..%%%%%%% 4444444444444444",
"4444444444433333333333333333  $$$$$$$$oo..1%%:: 444444qqqqq44444",
"444444444444444333334444444 $$$$%$$$$%$$oo.&&%%%  44qqqqqqqq4444",
"044444444444444444444444444 $$$$%$$$$%$$oo.&&%%%  00000000000440",
"0000444444444qqqqqqqqq44444 oo%%$oooo%%%$$.&&oo   00000000444444",
"400000044444qqqqqqqqqqqq4  $::::%%%$$o%%$$$..$$ 0000000000004444",
"0000000444444000000000000  $::::%%%$$o%%$$$..$$ 0000000000000000",
"0000000040000000000000000  %%%$$%::$$$$$%%$..oo 0000000000000000",
"0000000000000000000000000  %%%$$%::$$$$$%%$..oo 0000333333333000",
"0000000000000000000000000  $oo$$,%%$$%$$$$$     0333333333333333",
"000000000000000000000000333 ##<<<$$oo%$$ooo  0333333333444444444",
"443330000033333444444433333 ##<<<$$oo%$$ooo  3333444444444444444",
"333333333333344444444444443 5599<##77:$$99o  3444444444444444444",
"444333330004444444444444444 5599<##77:$$99o  3444444444444444444",
"444440000000044444444qqqqq4 <<99955wwo<<<< 444444444444qqqqqqq44",
"444400000000044444qqqqqqqqq4  <<99999%     4444444444qqqqqqqqqqq",
"40000000333300444000000000q4  <<99999%     444444444qqqq00000000",
"0000003333333000000000000000  XX&&&XX166  >  4444444000000000000",
"0330000033333000000000000000  XX&&&XX166  >  4444400000000000000",
"033300333330000000000000000 88@@&&&@@&8866   4400000000000000000",
"0000333333000000000000000  966@@&&&XX&8866   0044400000000000000",
"0003333333003330000000000  966@@&&&XX&8866   0444000000000000000",
"3333333333003333000000000  9<<11&&&&&9<<66   0000000000000000000",
"3334433333300333000000000  9<<11&&&&&9<<66   0000003333333000003",
"444444443333000000000000000   11&&&119<<   000003333333334444444",
"4444444443333300000033333333  OO+++OOO  OO 003333333344444444444",
"4444444444444444333333333333  OO+++OOO  OO 333333344444444444444",
"4444444444444444433333334444  +++OOOO OOOOO  4444444444444444444",
"qq44444444444444444444444444  +++OOOO OOOOO  4444444444444444qqq",
"qqqqq4444444444444444444444 ++99O    =  ---  0044444444444qqqqqq",
"000qq44444444444444444444qq ++OO ;;;==  88-  00004400000000qqq00",
"00000000444444444444444qq22 ++OO ;====  88-  ==00000000000000000",
"000000000004444444444qq22  888-- ==== 88--******0000000000000000",
"00000000444400004444qqq2=  888-- ==== 88--******3000000000000000",
"00000004444004444000000==== ---- =*************=0000000000000000",
"0000000000000044000000000===    ===******===**=00003300000000000",
"0000000000000000000000000===    =======*====**=00333330333000000",
"000000000000000000000000000============*===**3333333444433333000",
"033344333333330000000000000003**======****3333333334444443333330",
"3334444333333333000000000033333330003333333333333444444444443333",
"3344444444443333300000000333333333333333333333344444444444444443",
"4444444444444433333000033333444443333333333444444444444444444444",
"444444444444444433333344444444444444444444444444qqqqqqqqq4444444",
"44444444444444444444444444444444444444444444qqqqqqqqqqq000000444",
"444444444444444qqq444444444444qqqqqqqqqqqqqqqqqq0000000000000000",
"0000000444444qqqqqqq4444444qqqqq000000qqqqqq00000000000000000000",
"0000044440000000000qq44444qqq00000000000000000000000000000000000",
"00000444440000000000qq444400000000000000000000000003333000000000",
"0000004440000000000000000000000000000000000000033333333333300000",
"0000000000000000000000000000000000000000000033333333444444444333"
};
