/* XPM */
static char *result[] = {
/* columns rows colors chars-per-pixel */
"64 64 24 1 ",
"  c black",
". c #120317",
"X c #230726",
"o c #310D35",
"O c #222028",
"+ c #343336",
"@ c #43153B",
"# c #1C1859",
"$ c #571748",
"% c #6E2749",
"& c #2A6957",
"* c gray45",
"= c #913C51",
"- c #8C3C62",
"; c #8C4B63",
": c #C16A7D",
"> c #3B804D",
", c #5078A1",
"< c gray56",
"1 c #9C8C9C",
"2 c #AEAEAE",
"3 c #E5959F",
"4 c #F2E9F2",
"5 c None",
/* pixels */
"5555555555555555555555555555555555555555555555555555555555555555",
"5555555555555555555555555555555555555555555555555555555555555555",
"555555555555555555555555555555555555           55555555555555555",
"555555555555555555555555555555555555           55555555555555555",
"555555555555555555555555555555555555           55555555555555555",
"5555555555555555555555555555555555  %%%====%%%%  555555555555555",
"5555555555555555555555555555555555  %%%====%%%%  555555555555555",
"555555555555555555555555            ...%%%%%%%%%%  5555555555555",
"555555555555555555555555            ...%%%%%%%%%%  5555555555555",
"5555555555555555555555  $$$$$$$$$$$$ooo..>>%%%%==    55555555555",
"5555555555555555555555  $$$$$$$$$$$$ooo..>>%%%%==    55555555555",
"5555555555555555555555  $$$$$$$$$$$$ooo..>>%%%%==    55555555555",
"55555555555555555555  $$$$$%%%$$$$%%$$$oo..&&&&%%%%  55555555555",
"55555555555555555555  $$$$$%%%$$$$%%$$$oo..&&&&%%%%  55555555555",
"55555555555555555555  oo%%%$$$oooo%%%%%$$..&&&&oo  5555555555555",
"55555555555555555555  oo%%%$$$oooo%%%%%$$..&&&&oo  5555555555555",
"55555555555555555   $$=====%%%%%$$oo%%%$$$$....$$  5555555555555",
"55555555555555555   $$=====%%%%%$$oo%%%$$$$....$$  5555555555555",
"55555555555555555   $$=====%%%%%$$oo%%%$$$$....$$  5555555555555",
"55555555555555555   %%%%$$$%%%==$$$$$$$%%$$....oo  5555555555555",
"55555555555555555   %%%%$$$%%%==$$$$$$$%%$$....oo  5555555555555",
"55555555555555555   %%%%$$$%%%==$$$$$$$%%$$....oo  5555555555555",
"55555555555555555   $$oo$$$;;;%%$$%%$$$$$$$        5555555555555",
"55555555555555555   $$oo$$$;;;%%$$%%$$$$$$$        5555555555555",
"55555555555555555555  ##::::::$$oo%%$$$oooo    55555555555555555",
"55555555555555555555  ##::::::$$oo%%$$$oooo    55555555555555555",
"55555555555555555555  ,,333:::##11==$$$33oo    55555555555555555",
"55555555555555555555  ,,333:::##11==$$$33oo    55555555555555555",
"55555555555555555555  ,,333:::##11==$$$33oo    55555555555555555",
"55555555555555555555  ::333333,,44oo:::::  555555555555555555555",
"55555555555555555555  ::333333,,44oo:::::  555555555555555555555",
"5555555555555555555555  :::3333333%%       555555555555555555555",
"5555555555555555555555  :::3333333%%       555555555555555555555",
"55555555555555555555    XXX&&&&&XX>>   ----    55555555555555555",
"55555555555555555555    XXX&&&&&XX>>   ----    55555555555555555",
"55555555555555555555  22@@@&&&&&@@<<<<<  --    55555555555555555",
"55555555555555555555  22@@@&&&&&@@<<<<<  --    55555555555555555",
"55555555555555555555  22@@@&&&&&@@<<<<<  --    55555555555555555",
"55555555555555555555  22@@@&&&&&@@<<<<<  --    55555555555555555",
"55555555555555555   33<<@@@&&&&&XX22<<<  --    55555555555555555",
"55555555555555555   33<<@@@&&&&&XX22<<<  --    55555555555555555",
"55555555555555555   33::>>>&&&&&&&XX222<<      55555555555555555",
"55555555555555555   33::>>>&&&&&&&XX222<<      55555555555555555",
"55555555555555555555    >>>&&&&&&&>>333::  555555555555555555555",
"55555555555555555555    >>>&&&&&&&>>333::  555555555555555555555",
"55555555555555555555    >>>&&&&&&&>>333::  555555555555555555555",
"55555555555555555555  33++++++OOOO  333::  555555555555555555555",
"55555555555555555555  33++++++OOOO  333::  555555555555555555555",
"55555555555555555555  ::OOOOOO++OO       55555555555555555555555",
"55555555555555555555  ::OOOOOO++OO       55555555555555555555555",
"5555555555555555555555     ***++OO  5555555555555555555555555555",
"5555555555555555555555     ***++OO  5555555555555555555555555555",
"555555555555555555555555555   33OO  5555555555555555555555555555",
"555555555555555555555555555   33OO  5555555555555555555555555555",
"555555555555555555555555555   33OO  5555555555555555555555555555",
"555555555555555555555555555   33OO  5555555555555555555555555555",
"555555555555555555555555555555  ++OO   5555555555555555555555555",
"555555555555555555555555555555  ++OO   5555555555555555555555555",
"555555555555555555555555555555  ****   5555555555555555555555555",
"555555555555555555555555555555  ****   5555555555555555555555555",
"555555555555555555555555555   2222**   5555555555555555555555555",
"555555555555555555555555555   2222**   5555555555555555555555555",
"555555555555555555555555555   2222**   5555555555555555555555555",
"5555555555555555555555555555555555555555555555555555555555555555"
};
