/* XPM */
static char *out[] = {
/* columns rows colors chars-per-pixel */
"64 64 30 1 ",
"  c black",
". c #120317",
"X c #230726",
"o c #310D35",
"O c #222028",
"+ c #343336",
"@ c #43153B",
"# c #1C1859",
"$ c #571748",
"% c #6E2749",
"& c #2A6957",
"* c #746842",
"= c #7E7245",
"- c gray45",
"; c #913C51",
": c #8C3C62",
"> c #8C4B63",
", c #C16A7D",
"< c #3B804D",
"1 c #848252",
"2 c #DEC87E",
"3 c #F8F273",
"4 c #5078A1",
"5 c gray56",
"6 c #9C8C9C",
"7 c #AEAEAE",
"8 c #E5959F",
"9 c #F1DA84",
"0 c #FEFA9D",
"q c #F2E9F2",
/* pixels */
"2229999999999992229999999999999999999999922222223333333333333332",
"2222229992222333222292222999999222222222222222333333333333333332",
"3322222222233333333999922222222222222222222333333333333333333333",
"3333222223333333333999999222222299933333333333333333333333333333",
"0333333333333339999999999999999993333333333333333333333333330000",
"0000333333333399999922229999999333333333333333333333333330000000",
"9900033333333333999992222999993333333333333333333999999999999999",
"9990000000333333999999999999933333333333333339993333399999999999",
"9999999990000999999999999999933333333333333999333333399999999999",
"9999999999999999999999222299999333333333339999333339999999999999",
"9999999999999999222222222229999999993339999999333399999999999999",
"22229999999999992222222229992999999999       9999222229999922222",
"32222999999999999922222222992299999999       9922222222299222233",
"3333333222299999999992222222999999999 %%;;;%%  22333333333333333",
"3333333332222229999222222222222299999 %%;;;%%  33333333333333333",
"333333333332222222222222222222        ..%%%%%%% 3333330000033333",
"3333333333333332222233333333  $$$$$$$$oo..<%%;;   33000000003333",
"9333333333333333333333333333  $$$$$$$$oo..<%%;;   99999999999339",
"999933333333300000000033333 $$$$%$$$$%$$oo.&&%%%  99999999333333",
"399999933333000000000000333 oo%%$oooo%%%$$.&&oo 9999999999993333",
"999999933333399999999999999 oo%%$oooo%%%$$.&&oo 9999999999999999",
"9999999939999999999999999  $;;;;%%%$$o%%$$$..$$ 9999999999999999",
"9999999999999999999999999  $;;;;%%%$$o%%$$$..$$ 9999222222222999",
"9999999999999999999999999  %%%$$%;;$$$$$%%$..oo 9222222222222222",
"9999999999999999999999992  $oo$$>%%$$%$$$$$     2222222333333333",
"3322299999222223333333222  $oo$$>%%$$%$$$$$     2333333333333333",
"222222222222233333333333332 ##,,,$$oo%$$ooo  2333333333333333333",
"333222229993333333333333333 ##,,,$$oo%$$ooo  2333333333333333333",
"333339999999933333333000003 4488,##66;$$88o  3333333333000000033",
"333399999999933333000000000 ,,88844qqo,,,, 333333333300000000000",
"399999992222993339999999990 ,,88844qqo,,,, 333333333000099999999",
"9999992222222999999999999999  ,,88888%     333333333999999999999",
"9229999922222999999999999999  ,,88888%     333333399999999999999",
"922299222229999999999999999   XX&&&XX<  :::  3399999999999999999",
"999922222299999999999999999 77@@&&&@@555  :  9933399999999999999",
"999222222299222999999999999 77@@&&&@@555  :  9333999999999999999",
"2222222222992222999999999  855@@&&&XX755  :  9999999999999999999",
"2223322222299222999999999  855@@&&&XX755  :  9999992222222999992",
"3333333322229999999999999  8,,<<&&&&&X7755   9992222222223333333",
"333333333222229999992222222   <<&&&&&<88,, 992222222233333333333",
"333333333333333322222222222   <<&&&&&<88,, 222222233333333333333",
"333333333333333332222222333 88+++OOOO 88,, 223333333333333333333",
"003333333333333333333333333 88+++OOOO 88,, 993333333333333333000",
"000003333333333333333333333 ,,OOO++OO     9999933333333333000000",
"9990033333333333333333333001    -++OO =======9999339999999900099",
"9999999933333333333333300111    -++OO =========99999999999999999",
"99999999999333333333300111====== 88OO ====******9999999999999999",
"999999993333999933330001======== 88OO **********2999999999999999",
"99999993333993333999999==========  ++O  *******=9999999999999999",
"9999999999999933999999999========  ---  *===**=99992299999999999",
"9999999999999999999999999========  ---  ====**=99222229222999999",
"999999999999999999999999999===== 7777-  ===**2222222333322222999",
"922233222222229999999999999992**======****2222222223333332222229",
"2223333222222222999999999922222229992222222222222333333333332222",
"2233333333332222299999999222222222222222222222233333333333333332",
"3333333333333322222999922222333332222222222333333333333333333333",
"3333333333333333222222333333333333333333333333330000000003333333",
"3333333333333333333333333333333333333333333300000000000999999333",
"3333333333333330003333333333330000000000000000009999999999999999",
"9999999333333000000033333330000099999900000099999999999999999999",
"9999933339999999999003333300099999999999999999999999999999999999",
"9999933333999999999900333399999999999999999999999992222999999999",
"9999993339999999999999999999999999999999999999922222222222299999",
"9999999999999999999999999999999999999999999922222222333333333222"
};
