/* XPM */
static char *result[] = {
/* columns rows colors chars-per-pixel */
"64 64 26 1 ",
"  c black",
". c #120317",
"X c #18131A",
"o c #1C1F1C",
"O c #230726",
"+ c #310D35",
"@ c #222028",
"# c #343336",
"$ c #43153B",
"% c #1C1859",
"& c #571748",
"* c #6E2749",
"= c #2A6957",
"- c gray45",
"; c #913C51",
": c #8C3C62",
"> c #8C4B63",
", c #C16A7D",
"< c #3B804D",
"1 c #5078A1",
"2 c gray56",
"3 c #9C8C9C",
"4 c #AEAEAE",
"5 c #E5959F",
"6 c #F2E9F2",
"7 c None",
/* pixels */
"7777777777777777777777777777777777777777777777777777777777777777",
"7777777777777777777777777777777777777777777777777777777777777777",
"777777777777777777777777777777777777ooooooooooo77777777777777777",
"777777777777777777777777777777777777ooooooooooo77777777777777777",
"777777777777777777777777777777777777ooooooooooo77777777777777777",
"7777777777777777777777777777777777oo***;;;;****oo777777777777777",
"7777777777777777777777777777777777oo***;;;;****oo777777777777777",
"777777777777777777777777ooooooooooooX..**********oo7777777777777",
"777777777777777777777777ooooooooooooX..**********oo7777777777777",
"7777777777777777777777oo&&&&&&&&&&&&+++..<<****;;oooo77777777777",
"7777777777777777777777oo&&&&&&&&&&&&+++..<<****;;oooo77777777777",
"7777777777777777777777oo&&&&&&&&&&&&+++..<<****;;oooo77777777777",
"77777777777777777777oo&&&&&***&&&&**&&&++..====****oo77777777777",
"77777777777777777777oo&&&&&***&&&&**&&&++..====****oo77777777777",
"77777777777777777777oo++***&&&++++*****&&..====++oo7777777777777",
"77777777777777777777oo++***&&&++++*****&&..====++oo7777777777777",
"77777777777777777ooo&&;;;;;*****&&++***&&&&....&&oo7777777777777",
"77777777777777777ooo&&;;;;;*****&&++***&&&&....&&oo7777777777777",
"77777777777777777ooo&&;;;;;*****&&++***&&&&....&&oo7777777777777",
"77777777777777777ooo****&&&***;;&&&&&&&**&&....++oo7777777777777",
"77777777777777777ooo****&&&***;;&&&&&&&**&&....++oo7777777777777",
"77777777777777777ooo****&&&***;;&&&&&&&**&&XXXX++oo7777777777777",
"77777777777777777ooo&&++&&&>>>**&&**&&&&&&&oooooooo7777777777777",
"77777777777777777ooo&&++&&&>>>**&&**&&&&&&&oooooooo7777777777777",
"77777777777777777777oo%%,,,,,,&&++**&&&++++oooo77777777777777777",
"77777777777777777777oo%%,,,,,,&&++**&&&++++oooo77777777777777777",
"77777777777777777777oo11555,,,%%33;;&&&55++oooo77777777777777777",
"77777777777777777777oo11555,,,%%33;;&&&55++oooo77777777777777777",
"77777777777777777777oo11555,,,%%33;;&&&55++oooo77777777777777777",
"77777777777777777777oo,,5555551166++,,,,,  777777777777777777777",
"77777777777777777777oo,,5555551166++,,,,,  777777777777777777777",
"7777777777777777777777oo,,,5555555**       777777777777777777777",
"7777777777777777777777oo,,,5555555**       777777777777777777777",
"77777777777777777777ooooOOO=====OO<<   ::::oooo77777777777777777",
"77777777777777777777ooooOOO=====OO<<   ::::oooo77777777777777777",
"77777777777777777777oo44$$$=====$$22222  ::oooo77777777777777777",
"77777777777777777777oo44$$$=====$$22222  ::oooo77777777777777777",
"77777777777777777777oo44$$$=====$$22222  ::oooo77777777777777777",
"77777777777777777777oo44$$$=====$$22222  ::oooo77777777777777777",
"77777777777777777ooo5522$$$=====OO44222  ::oooo77777777777777777",
"77777777777777777ooo5522$$$=====OO44222  ::oooo77777777777777777",
"77777777777777777ooo55,,<<<=======OO44422oooooo77777777777777777",
"77777777777777777ooo55,,<<<=======OO44422oooooo77777777777777777",
"77777777777777777777oooo<<<=======<<555,,oo777777777777777777777",
"77777777777777777777oooo<<<=======<<555,,oo777777777777777777777",
"77777777777777777777oooo<<<=======<<555,,oo777777777777777777777",
"77777777777777777777oo55######@@@@oo555,,oo777777777777777777777",
"77777777777777777777oo55######@@@@oo555,,oo777777777777777777777",
"77777777777777777777oo,,@@@@@@##@@ooooooo77777777777777777777777",
"77777777777777777777oo,,@@@@@@##@@ooooooo77777777777777777777777",
"7777777777777777777777ooooo---##@@oo7777777777777777777777777777",
"7777777777777777777777ooooo---##@@oo7777777777777777777777777777",
"777777777777777777777777777ooo55@@oo7777777777777777777777777777",
"777777777777777777777777777ooo55@@oo7777777777777777777777777777",
"777777777777777777777777777ooo55@@oo7777777777777777777777777777",
"777777777777777777777777777ooo55@@oo7777777777777777777777777777",
"777777777777777777777777777777oo##@@ooo7777777777777777777777777",
"777777777777777777777777777777oo##@@ooo7777777777777777777777777",
"777777777777777777777777777777oo----ooo7777777777777777777777777",
"777777777777777777777777777777oo----ooo7777777777777777777777777",
"777777777777777777777777777ooo4444--ooo7777777777777777777777777",
"777777777777777777777777777ooo4444--ooo7777777777777777777777777",
"777777777777777777777777777ooo4444--ooo7777777777777777777777777",
"7777777777777777777777777777777777777777777777777777777777777777"
};
