/* XPM */
static char *out[] = {
/* columns rows colors chars-per-pixel */
"64 64 32 1 ",
"  c black",
". c #120317",
"X c #230726",
"o c #310D35",
"O c #222028",
"+ c #343336",
"@ c #43153B",
"# c #1C1859",
"$ c #571748",
"% c #6E2749",
"& c #2A6957",
"* c #515151",
"= c #746842",
"- c #7E7245",
"; c #676767",
": c gray45",
"> c #817E3C",
", c #913C51",
"< c #8C4B63",
"1 c #C16A7D",
"2 c #3B804D",
"3 c #848252",
"4 c #DEC87E",
"5 c #F8F273",
"6 c #5078A1",
"7 c gray56",
"8 c #9C8C9C",
"9 c #AEAEAE",
"0 c #E5959F",
"q c #F1DA84",
"w c #FEFA9D",
"e c #F2E9F2",
/* pixels */
"444qqqqqqqqqqqq444qqqqqqqqqqqqqqqqqqqqqqq44444445555555555555554",
"444444qqq44445554444q4444qqqqqq444444444444444555555555555555554",
"5544444444455555555qqqq44444444444444444444555555555555555555555",
"5555444445555555555qqqqqq4444444qqq55555555555555555555555555555",
"w55555555555555qqqqqqqqqqqqqqqqqq555555555555555555555555555wwww",
"wwww5555555555qqqqqq4444qqqqqqq55555555555555555555555555wwwwwww",
"qqwww55555555555qqqqq4444qqqqq5555555555555555555qqqqqqqqqqqqqqq",
"qqqwwwwwww555555qqqqqqqqqqqqq5555555555555555qqq55555qqqqqqqqqqq",
"qqqqqqqqqwwwwqqqqqqqqqqqqqqqq55555555555555qqq5555555qqqqqqqqqqq",
"qqqqqqqqqqqqqqqqqqqqqq4444qqqqq55555555555qqqq55555qqqqqqqqqqqqq",
"qqqqqqqqqqqqqqqq44444444444qqqqqqqqq555qqqqqqq5555qqqqqqqqqqqqqq",
"4444qqqqqqqqqqqq444444444qqq4qqqqqqqqqqqqqqqqqqqq44444qqqqq44444",
"54444qqqqqqqqqqqqq44444444qq44qqqqqqqqqqqqqqqqq444444444qq444455",
"55555554444qqqqqqqqqq4444444qqqqqqqqqqqqqqqq44444555555555555555",
"555555555444444qqqq4444444444444qqqqqqqqqqq444455555555555555555",
"555555555554444444444444444444      qq4444444455555555wwwww55555",
"5555555555555554444455555555  %,,,%% 444444455555555wwwwwwww5555",
"q555555555555555555555555555  %,,,%% qqqqqq55555qqqqqqqqqqqqq55q",
"qqqq555555555wwwwwwwww555555  ...... qqqqqqq55qqqqqqqqqqqq555555",
"5qqqqqq55555wwwwwwwwwwww555 oo%oo%oo%  qqqqqqqqqqqqqqqqqqqqq5555",
"qqqqqqq555555qqqqqqqqqqqqqq oo%oo%oo%  qqqqqqqqqqqqqqqqqqqqqqqqq",
"qqqqqqqq5qqqqqqqqqqqqqqqq  o%%$oo%$$%,, 444444qqqqqqqqqqqqqqqqqq",
"qqqqqqqqqqqqqqqqqqqqqqqqq  $oo$$$ooo$%% 4444444qqqqq444444444qqq",
"qqqqqqqqqqqqqqqqqqqqqqqqq  o$$,,,$,,o$$ 44444qqqq444444444444444",
"qqqqqqqqqqqqqqqqqqqqqqqq4  o$$,,,$,,o$$ q44qqq444444444555555555",
"55444qqqqq44444555555544   $$$$$$$%%$,, q44444444555555555555555",
"444444444444455555555555 %%%$$ooo<%%o%%   4444555555555555555555",
"55544444qqq5555555555555 %%%$$ooo<%%o%%   4444555555555555555555",
"55555qqqqqqqq55555555wwww  ooo#111##8$$%  4555555555555wwwwwww55",
"5555qqqqqqqqq55555wwwwwww  %ee600066eoo 5555555555555wwwwwwwwwww",
"5qqqqqqq4444qq555qqqqqqqq  %ee600066eoo 555555555555wwwwqqqqqqqq",
"qqqqqq4444444qqqqqqqqqqqq  %110000001%% 555555555555qqqqqqqqqqqq",
"q44qqqqq44444qqqqqqqqqqqqqq   X&&&XX   55555555555qqqqqqqqqqqqqq",
"q444qq44444qqqqqqqqqqqqqq  ;&&@222@@&77 5555555qqqqqqqqqqqqqqqqq",
"qqqq444444qqqqqqqqqqqqqqq  ;&&@222@@&77 55555qq555qqqqqqqqqqqqqq",
"qqq4444444qq444qqqqqqqqq ;;7&&@222@@&;;7  qqqq555qqqqqqqqqqqqqqq",
"4444444444qq4444qqqqqqqq 110@@&222&&@;;7  qqqqqqqqqqqqqqqqqqqqqq",
"44455444444qq444qqqqqqqq 110@@&222&&@;;7  qqqqqqqqq4444444qqqqq4",
"555555554444qqqqqqqqqqqq 110&&222222&110  qqqqqq4444444445555555",
"55555555544444qqqqqq44444   OO+++++++   qqqqq4444444455555555555",
"555555555555555544444444444 110   OO0  qq44444444455555555555555",
"555555555555555554444444555 110   OO0  4444445555555555555555555",
"ww5555555555555555555555555>  :** OO+  -qqqqq5555555555555555www",
"wwwww555555555555555555555>>  999 999  --qqqqqq55555555555wwwwww",
"qqqww55555555555555555555w33  999 999  --qqqqqqqq55qqqqqqqqwwwqq",
"qqqqqqqq555555555555555www333333> :::  --qqqqqqqqqqqqqqqqqqqqqqq",
"qqqqqqqqqqq5555555555wwwwwq-------   ---qq444444qqqqqqqqqqqqqqqq",
"qqqqqqqq5555qqqq5555wwwwqqqq------   ==4444444444qqqqqqqqqqqqqqq",
"qqqqqqq5555qq5555qqqqqqqqqqqqq----===4444444444qqqqqqqqqqqqqqqqq",
"qqqqqqqqqqqqqq55qqqqqqqqqqqqqqqqqqq444444qqq44qqqqq44qqqqqqqqqqq",
"qqqqqqqqqqqqqqqqqqqqqqqqqqqqqqqqqqqqqqq4qqqq44qqq44444q444qqqqqq",
"qqqqqqqqqqqqqqqqqqqqqqqqqqqqqqqqqqqqqqq4qqq444444444555544444qqq",
"q4445544444444qqqqqqqqqqqqqqq444qqqqqq4444444444444555555444444q",
"4445555444444444qqqqqqqqqq4444444qqq4444444444444555555555554444",
"44555555555544444qqqqqqqq444444444444444444444455555555555555554",
"5555555555555544444qqqq44444555554444444444555555555555555555555",
"555555555555555544444455555555555555555555555555wwwwwwwww5555555",
"55555555555555555555555555555555555555555555wwwwwwwwwwwqqqqqq555",
"555555555555555www555555555555wwwwwwwwwwwwwwwwwwqqqqqqqqqqqqqqqq",
"qqqqqqq555555wwwwwww5555555wwwwwqqqqqqwwwwwwqqqqqqqqqqqqqqqqqqqq",
"qqqqq5555qqqqqqqqqqww55555wwwqqqqqqqqqqqqqqqqqqqqqqqqqqqqqqqqqqq",
"qqqqq55555qqqqqqqqqqww5555qqqqqqqqqqqqqqqqqqqqqqqqq4444qqqqqqqqq",
"qqqqqq555qqqqqqqqqqqqqqqqqqqqqqqqqqqqqqqqqqqqqq444444444444qqqqq",
"qqqqqqqqqqqqqqqqqqqqqqqqqqqqqqqqqqqqqqqqqqqq44444444555555555444"
};
