/* XPM */
static char *a91c8e85723a406f8f3825ef29d55c77E0ESfzNHnm8gMjS0[] = {
/* columns rows colors chars-per-pixel */
"64 64 24 1 ",
"  c None",
". c #1C1F1C",
"X c #6E2749",
"o c #913C51",
"O c #310D35",
"+ c #300E34",
"@ c #571748",
"# c #8C4B63",
"$ c #1C1859",
"% c #C16A7D",
"& c #9C8C9C",
"* c #F2E9F2",
"= c #5078A1",
"- c #E5959F",
"; c #230726",
": c #2A6957",
"> c gray56",
", c #43153B",
"< c #3B804D",
"1 c #676767",
"2 c #222028",
"3 c #343336",
"4 c #AEAEAE",
"5 c gray45",
/* pixels */
"                                                                ",
"                             ..........                         ",
"                             ..........                         ",
"                          ...XooooooXXX...                      ",
"                          ...XooooooXXX...                      ",
"                          ...XooooooXXX...                      ",
"                          ................                      ",
"                          ................                      ",
"                          ................                      ",
"                       ...OOOX+++XXX+++XXX..                    ",
"                       ...OOOXOOOXXXOOOXXX..                    ",
"                    ...OOOXXX@OOOXXX@@@XXXoo...                 ",
"                    ...OOOXXX@OOOXXX@@@XXXoo...                 ",
"                    ...OOOXXX@OOOXXX@@@XXXoo...                 ",
"                    ...@@@OOO@@@@OOOOOO@@@XX...                 ",
"                    ...@@@OOO@@@@OOOOOO@@@XX...                 ",
"                    ...@@@OOO@@@@OOOOOO@@@XX...                 ",
"                    ...OOO@@@oooo@@@oooOOO@@...                 ",
"                    ...OOO@@@oooo@@@oooOOO@@...                 ",
"                    ...OOO@@@oooo@@@oooOOO@@...                 ",
"                  .....@@@@@@@@@@@@@XXX@@@oo...                 ",
"                  .....@@@@@@@@@@@@@XXX@@@oo...                 ",
"                  .....@@@@@@@@@@@@@XXX@@@oo...                 ",
"                  ..XXXXXX@@@OOOO###XXXOOOXX......              ",
"                  ..XXXXXX@@@OOOO###XXXOOOXX......              ",
"                  ..XXXXXX@@@OOOO###XXXOOOXX......              ",
"                    ...OOOOOO$%%%%%%$$$&&&@@XXX...              ",
"                    ...OOOOOO$%%%%%%$$$&&&@@XXX...              ",
"                    ...XXX***=------===***OO...                 ",
"                    ...XXX***=------===***OO...                 ",
"                    ...XXX***=------===***OO...                 ",
"                    ...XXX%%%----------%%%XX...                 ",
"                    ...XXX%%%----------%%%XX...                 ",
"                    ...XXX%%%----------%%%XX...                 ",
"                    .........;::::::;;;.....>>>...              ",
"                    .........;::::::;;;.....>>>...              ",
"                    .........;::::::;;;.....>>>...              ",
"                  ..>>>>>>:::,<<<<<<,,,:::11111...              ",
"                  ..>>>>>>:::,<<<<<<,,,:::11111...              ",
"                  ..>>>>>>:::,<<<<<<,,,:::11111...              ",
"                  ..111%%%---,<<<<<<,,,:::XX...                 ",
"                    ...%%%---:<<<<<<:::,,,XX...                 ",
"                    ...%%%---:<<<<<<:::,,,XX...                 ",
"                    ...%%%---:<<<<<<:::,,,XX...                 ",
"                       ...:::<<<<<<<<<<:::..                    ",
"                       ...:::<<<<<<<<<<:::..                    ",
"                       ...:::<<<<<<<<<<:::..                    ",
"                       ...2222333333333333..                    ",
"                       ...2222333333333333..                    ",
"                       ...2222333333333333..                    ",
"                       ...%%%-......222---..                    ",
"                       ...%%%-......222---..                    ",
"                          ....   ...222333..                    ",
"                          ....   ...222333..                    ",
"                          ....   ...222333..                    ",
"                                 ...444444..                    ",
"                                 ...444444..                    ",
"                                 ...444444..                    ",
"                                 ...555555..                    ",
"                                 ...555555..                    ",
"                                 ...555555..                    ",
"                                                                ",
"                                                                ",
"                                                                "
};
