/* XPM */
static char *_6a952e044ef4390c0f6b427e0637b20p9s6xm0Ny4iS0J3d[] = {
/* columns rows colors chars-per-pixel */
"64 64 24 1 ",
"  c None",
". c black",
"X c #6E2749",
"o c #913C51",
"O c #120317",
"+ c #310D35",
"@ c #571748",
"# c #8C4B63",
"$ c #1C1859",
"% c #C16A7D",
"& c #9C8C9C",
"* c #F2E9F2",
"= c #5078A1",
"- c #E5959F",
"; c #230726",
": c #2A6957",
"> c gray56",
", c #43153B",
"< c #3B804D",
"1 c #676767",
"2 c #222028",
"3 c #343336",
"4 c #AEAEAE",
"5 c gray45",
/* pixels */
"                                                                ",
"                                                                ",
"                                                                ",
"                                                                ",
"                                                                ",
"                                                                ",
"                                                                ",
"                                                                ",
"                                                                ",
"                                                                ",
"                                                                ",
"                                                                ",
"                                                                ",
"                              .......                           ",
"                            ..XooooXX..                         ",
"                            ..XooooXX..                         ",
"                            ..OOOOOOO..                         ",
"                            ..OOOOOOO..                         ",
"                          ..++X++XX++XX..                       ",
"                          ..++X++XX++XX..                       ",
"                        ..++XX@++XX@@XXoo..                     ",
"                        ..++XX@++XX@@XXoo..                     ",
"                        ..@@++@@@++++@@XX..                     ",
"                        ..@@++@@@++++@@XX..                     ",
"                        ..++@@ooo@@oo++@@..                     ",
"                        ..++@@ooo@@oo++@@..                     ",
"                      ....@@@@@@@@@XX@@oo..                     ",
"                      ....@@@@@@@@@XX@@oo..                     ",
"                      ..XXXX@@+++##XX++XX....                   ",
"                      ..XXXX@@+++##XX++XX....                   ",
"                        ..++++$%%%%$$&&@@XX..                   ",
"                        ..++++$%%%%$$&&@@XX..                   ",
"                        ..XX**=----==**++..                     ",
"                        ..XX**=----==**++..                     ",
"                        ..XX%%-------%%XX..                     ",
"                        ..XX%%-------%%XX..                     ",
"                        ......;::::;;....>>..                   ",
"                        ......;::::;;....>>..                   ",
"                      ..>>>>::,<<<<,,::1111..                   ",
"                      ..>>>>::,<<<<,,::1111..                   ",
"                      ..11%%--,<<<<,,::XX..                     ",
"                        ..%%--:<<<<::,,XX..                     ",
"                        ..%%--:<<<<::,,XX..                     ",
"                          ..::<<<<<<<::..                       ",
"                          ..::<<<<<<<::..                       ",
"                          ..22233333333..                       ",
"                          ..22233333333..                       ",
"                          ..%%-....22--..                       ",
"                          ..%%-....22--..                       ",
"                            ...  ..2233..                       ",
"                            ...  ..2233..                       ",
"                                 ..4444..                       ",
"                                 ..4444..                       ",
"                                 ..5555..                       ",
"                                 ..5555..                       ",
"                                                                ",
"                                                                ",
"                                                                ",
"                                                                ",
"                                                                ",
"                                                                ",
"                                                                ",
"                                                                ",
"                                                                "
};
