/* XPM */
static char *_d87c89e3f964153c174a9a88c74a6faRujeL1jrdK1bl85G[] = {
/* columns rows colors chars-per-pixel */
"64 64 26 1 ",
"  c None",
". c #1C1F1C",
"X c #6E2749",
"o c #913C51",
"O c black",
"+ c #101110",
"@ c #310D35",
"# c #300E34",
"$ c #571748",
"% c #8C4B63",
"& c #1C1859",
"* c #C16A7D",
"= c #9C8C9C",
"- c #F2E9F2",
"; c #5078A1",
": c #E5959F",
"> c #230726",
", c #2A6957",
"< c #676767",
"1 c #43153B",
"2 c #3B804D",
"3 c gray56",
"4 c #222028",
"5 c #343336",
"6 c gray45",
"7 c #515151",
/* pixels */
"                                                                ",
"                             ............                       ",
"                             ............                       ",
"                             ............                       ",
"                          ...XXXooooXXXXXO                      ",
"                          ...XXXooooXXXXXO                      ",
"                          ...............+                      ",
"                          ...............+                      ",
"                          ...............+                      ",
"                       ...@@@XXX#XXX#####X...                   ",
"                       ...@@@XXX@XXX@@@@@X...                   ",
"                       ...@@@XXX@XXX@@@@@X...                   ",
"                     ..@@@XXX$$$@XXX$$$$$Xooo...                ",
"                     ..@@@XXX$$$@XXX$$$$$Xooo...                ",
"                     ..@@@XXX$$$@XXX$$$$$Xooo...                ",
"                     ..$$$@@@$$$$@@@@@@@@$XXX...                ",
"                     ..@@@$$$oooo$$$ooooo@$$$...                ",
"                     ..@@@$$$oooo$$$ooooo@$$$...                ",
"                     ..@@@$$$oooo$$$ooooo@$$$...                ",
"                     ..$$$$$$$$$$$$$XXXXX$ooo...                ",
"                     ..$$$$$$$$$$$$$XXXXX$ooo...                ",
"                     ..$$$$$$$$$$$$$XXXXX$ooo...                ",
"                     ..$$$$$$$$$$$$$XXXXX$ooo...                ",
"                     ..$$$$$$$$$$$$$XXXXX$ooo...                ",
"                  .....XXX$$$@@@@%%%XXXXX@XXX...                ",
"                  ...XX@@@@@@&&&****&&&&&=$$$......             ",
"                  ...XX@@@@@@&&&****&&&&&=$$$......             ",
"                  ...XX@@@@@@&&&****&&&&&=$$$......             ",
"                     ..XXX---;;;::::;;;;;-@@@XXX...             ",
"                     ..XXX---;;;::::;;;;;-@@@XXX...             ",
"                     ..XXX---;;;::::;;;;;-@@@XXX...             ",
"                     ..XXX***::::::::::::*XXX...                ",
"                     ..XXX***::::::::::::*XXX...                ",
"                     ..XXX***::::::::::::*XXX...                ",
"                       ......>>>,,,,>>>>>....                   ",
"                       ......>>>,,,,>>>>>....                   ",
"                     ..<<<,,,111222211111,333...                ",
"                     ..<<<,,,111222211111,333...                ",
"                     ..<<<,,,111222211111,333...                ",
"                  ...<<<<<,,,111222211111,<<<333...             ",
"                  ...<<<<<,,,111222211111,<<<333...             ",
"                  ...<<<<<,,,111222211111,<<<333...             ",
"                  ...*****111,,,2222,,,,,1<<<333...             ",
"                     .....,,,222222222222,***:::...             ",
"                     .....,,,222222222222,***:::...             ",
"                     .....,,,222222222222,***:::...             ",
"                       ...4445555555555555......                ",
"                       ...4445555555555555......                ",
"                       ...4445555555555555......                ",
"                       ...******....44444:...                   ",
"                       ...******....44444:...                   ",
"                       ...******....44444:...                   ",
"                       ...444444....444445...                   ",
"                       ...444444....444445...                   ",
"                          ...6666...666666...                   ",
"                          ...6666...666666...                   ",
"                          ...6666...666666...                   ",
"                          ...7777.........                      ",
"                          ...    .........                      ",
"                          ...    .........                      ",
"                                                                ",
"                                                                ",
"                                                                ",
"                                                                "
};
