/* XPM */
static char *out[] = {
/* columns rows colors chars-per-pixel */
"64 64 31 1 ",
"  c black",
". c #120317",
"X c #230726",
"o c #310D35",
"O c #222028",
"+ c #343336",
"@ c #43153B",
"# c #1C1859",
"$ c #571748",
"% c #6E2749",
"& c #2A6957",
"* c #746842",
"= c #7E7245",
"- c #676767",
"; c gray45",
": c #817E3C",
"> c #913C51",
", c #8C4B63",
"< c #C16A7D",
"1 c #3B804D",
"2 c #848252",
"3 c #DEC87E",
"4 c #F8F273",
"5 c #5078A1",
"6 c gray56",
"7 c #9C8C9C",
"8 c #AEAEAE",
"9 c #E5959F",
"0 c #F1DA84",
"q c #FEFA9D",
"w c #F2E9F2",
/* pixels */
"3330000000000003330000000000000000000000033333334444444444444443",
"3333330003333444333303333000000333333333333333444444444444444443",
"4433333333344444444000033333333333333333333444444444444444444444",
"4444333334444444444000000333333300044444444444444444444444444444",
"q44444444444444000000000000000000444444444444444444444444444qqqq",
"qqqq44444444440000003333000000044444444444444444444444444qqqqqqq",
"00qqq44444444444000003333000004444444444444444444000000000000000",
"000qqqqqqq444444000000000000044444444444444440004444400000000000",
"000000000qqqq000000000000000044444444444444000444444400000000000",
"0000000000000000000000333300000444444444440000444440000000000000",
"0000000000000000333333333330000000004440000000444400000000000000",
"3333000000000000333333333000300000000000000000000333330000033333",
"4333300000000000003333333300330000000000000000033333333300333344",
"4444444333300000000003333333000000000000000033333444444444444444",
"4444444443333330000333333333333300000000000333344444444444444444",
"444444444443333333333333333333333330003333333344444444qqqqq44444",
"444444444444444333334444444433      0333333344444444qqqqqqqq4444",
"044444444444444444444444444444      0000000444440000000000000440",
"0000444444444qqqqqqqqq444444  %>>>%% 000000044000000000000444444",
"400000044444qqqqqqqqqqqq4444  ...... 000000000000000000000004444",
"0000000444444000000000000004  ...... 000000000000000000000000000",
"000000004000000000000000000 oo%oo%oo%  0333333000000000000000000",
"0000000000000000000000000  o%%$oo%$$%>> 333333300000333333333000",
"0000000000000000000000000  $oo$$$ooo$%% 333330000333333333333333",
"0000000000000000000000003  $oo$$$ooo$%% 033000333333333444444444",
"4433300000333334444444333  o$$>>>$>>o$$ 033333333444444444444444",
"333333333333344444444444   $$$$$$$%%$>> 333333444444444444444444",
"444333330004444444444444   $$$$$$$%%$>> 333333444444444444444444",
"444440000000044444444qqq %%%$$ooo,%%o%%   3444444444444qqqqqqq44",
"444400000000044444qqqqqqq  ooo#<<<##7$$%  44444444444qqqqqqqqqqq",
"4000000033330044400000000  ooo#<<<##7$$%  4444444444qqqq00000000",
"0000003333333000000000000  %ww599955woo 444444444444000000000000",
"0330000033333000000000000  %<<999999<%% 444444444400000000000000",
"0333003333300000000000000     X&&&XX   6  4444400000000000000000",
"0000333333000000000000000     X&&&XX   6  4440044400000000000000",
"000333333300333000000000 666&&@111@@&---  0000444000000000000000",
"333333333300333300000000 --<99@111@@&%% 000000000000000000000000",
"333443333330033300000000 --<99@111@@&%% 000000000003333333000003",
"4444444433330000000000000  <99&111&&@%% 000000003333333334444444",
"444444444333330000003333333 &&111111&  0000003333333344444444444",
"444444444444444433333333333 OOO++++++  0033333333344444444444444",
"444444444444444443333333444 OOO++++++  3333334444444444444444444",
"qq4444444444444444444444444 <<9   OO9  =000004444444444444444qqq",
"qqqqq444444444444444444444::   :: OO+  ==00000044444444444qqqqqq",
"000qq44444444444444444444q22   :: OO+  ==000000004400000000qqq00",
"00000000444444444444444qqq222222: 888  ==00000000000000000000000",
"000000000004444444444qqqqq0====== ;;;  =003333330000000000000000",
"00000000444400004444qqqq0000===== ;;;  3333333333000000000000000",
"000000044440044440000000000000====***333333333300000000000000000",
"0000000000000044000000000000000000033333300033000003300000000000",
"0000000000000000000000000000000000000003000033000333330333000000",
"0000000000000000000000000000000000000003000333333333444433333000",
"0333443333333300000000000000033300000033333333333334444443333330",
"3334444333333333000000000033333330003333333333333444444444443333",
"3344444444443333300000000333333333333333333333344444444444444443",
"4444444444444433333000033333444443333333333444444444444444444444",
"444444444444444433333344444444444444444444444444qqqqqqqqq4444444",
"44444444444444444444444444444444444444444444qqqqqqqqqqq000000444",
"444444444444444qqq444444444444qqqqqqqqqqqqqqqqqq0000000000000000",
"0000000444444qqqqqqq4444444qqqqq000000qqqqqq00000000000000000000",
"0000044440000000000qq44444qqq00000000000000000000000000000000000",
"00000444440000000000qq444400000000000000000000000003333000000000",
"0000004440000000000000000000000000000000000000033333333333300000",
"0000000000000000000000000000000000000000000033333333444444444333"
};
