/* XPM */
static char *_1176e3e881a4459ea156bfbdf3b1279sjPv3lAnfH9CuA63[] = {
/* columns rows colors chars-per-pixel */
"64 64 24 1 ",
"  c None",
". c black",
"X c #6E2749",
"o c #913C51",
"O c #120317",
"+ c #310D35",
"@ c #571748",
"# c #8C4B63",
"$ c #1C1859",
"% c #C16A7D",
"& c #9C8C9C",
"* c #F2E9F2",
"= c #5078A1",
"- c #E5959F",
"; c #230726",
": c #2A6957",
"> c #676767",
", c #43153B",
"< c #3B804D",
"1 c gray56",
"2 c #222028",
"3 c #343336",
"4 c gray45",
"5 c #515151",
/* pixels */
"                                                                ",
"                                                                ",
"                                                                ",
"                                                                ",
"                                                                ",
"                                                                ",
"                                                                ",
"                                                                ",
"                                                                ",
"                                                                ",
"                                                                ",
"                                                                ",
"                                                                ",
"                                                                ",
"                              ........                          ",
"                              ........                          ",
"                            ..XXoooXXX.                         ",
"                            ..OOOOOOOO.                         ",
"                            ..OOOOOOOO.                         ",
"                          ..++XX+XX+++X..                       ",
"                          ..++XX+XX+++X..                       ",
"                         .++XX@@+XX@@@Xoo..                     ",
"                         .++XX@@+XX@@@Xoo..                     ",
"                         .@@++@@@+++++@XX..                     ",
"                         .++@@ooo@@ooo+@@..                     ",
"                         .++@@ooo@@ooo+@@..                     ",
"                         .@@@@@@@@@XXX@oo..                     ",
"                         .@@@@@@@@@XXX@oo..                     ",
"                         .@@@@@@@@@XXX@oo..                     ",
"                       ...XX@@+++##XXX+XX..                     ",
"                       ..X++++$$%%%$$$&@@....                   ",
"                       ..X++++$$%%%$$$&@@....                   ",
"                         .XX**==---===*++XX..                   ",
"                         .XX**==---===*++XX..                   ",
"                         .XX%%--------%XX..                     ",
"                         .XX%%--------%XX..                     ",
"                          ....;;:::;;;...                       ",
"                         .>>::,,<<<,,,:11..                     ",
"                         .>>::,,<<<,,,:11..                     ",
"                       ..>>>::,,<<<,,,:>>11..                   ",
"                       ..>>>::,,<<<,,,:>>11..                   ",
"                       ..%%%,,::<<<:::,>>11..                   ",
"                         ...::<<<<<<<<:%%--..                   ",
"                         ...::<<<<<<<<:%%--..                   ",
"                          ..22333333333....                     ",
"                          ..22333333333....                     ",
"                          ..%%%%...222-..                       ",
"                          ..%%%%...222-..                       ",
"                          ..2222...2223..                       ",
"                            ..444..4444..                       ",
"                            ..444..4444..                       ",
"                            ..555......                         ",
"                            ..555......                         ",
"                                                                ",
"                                                                ",
"                                                                ",
"                                                                ",
"                                                                ",
"                                                                ",
"                                                                ",
"                                                                ",
"                                                                ",
"                                                                ",
"                                                                "
};
