/* XPM */
static char *f668458d812e4514c7d69712ef977f0fDJMSliJ03YsdQ9qd[] = {
/* columns rows colors chars-per-pixel */
"64 64 26 1 ",
"  c None",
". c #1C1F1C",
"X c #6E2749",
"o c #913C51",
"O c #310D35",
"+ c #300E34",
"@ c #571748",
"# c #8C4B63",
"$ c #1C1859",
"% c #C16A7D",
"& c #9C8C9C",
"* c #F2E9F2",
"= c #5078A1",
"- c #E5959F",
"; c black",
": c #230726",
"> c #2A6957",
", c #676767",
"< c #43153B",
"1 c #3B804D",
"2 c gray56",
"3 c #222028",
"4 c #343336",
"5 c gray45",
"6 c #515151",
"7 c #AEAEAE",
/* pixels */
"                                                                ",
"                                                                ",
"                             ...........                        ",
"                             ...........                        ",
"                             ...........                        ",
"                           ..XXXoooooXXX...                     ",
"                           ..XXXoooooXXX...                     ",
"                           ..XXXoooooXXX...                     ",
"                           ................                     ",
"                           ................                     ",
"                        ...OOXXX++XXX+++XXX...                  ",
"                        ...OOXXXOOXXXOOOXXX...                  ",
"                      ..OOOXX@@@OOXXX@@@XXXooo.                 ",
"                      ..OOOXX@@@OOXXX@@@XXXooo.                 ",
"                      ..OOOXX@@@OOXXX@@@XXXooo.                 ",
"                      ..@@@OO@@@@@OOOOOO@@@XXX.                 ",
"                      ..@@@OO@@@@@OOOOOO@@@XXX.                 ",
"                      ..OOO@@ooooo@@@oooOOO@@@.                 ",
"                      ..OOO@@ooooo@@@oooOOO@@@.                 ",
"                      ..OOO@@ooooo@@@oooOOO@@@.                 ",
"                   .....@@@@@@@@@@@@@XXX@@@ooo.                 ",
"                   .....@@@@@@@@@@@@@XXX@@@ooo.                 ",
"                   .....@@@@@@@@@@@@@XXX@@@ooo.                 ",
"                   ...XXXXX@@OOOOO###XXXOOOXXX....              ",
"                   ...XXXXX@@OOOOO###XXXOOOXXX....              ",
"                   ...XXXXX@@OOOOO###XXXOOOXXX....              ",
"                      ..OOOOO$$$%%%%%$$$&&&@@@X...              ",
"                      ..OOOOO$$$%%%%%$$$&&&@@@X...              ",
"                      ..OOOOO$$$%%%%%$$$&&&@@@X...              ",
"                      ..XXX**===-----===***OOO;                 ",
"                      ..XXX%%-----------%%%XXX;                 ",
"                      ..XXX%%-----------%%%XXX;                 ",
"                      ..XXX%%-----------%%%XXX;                 ",
"                        .....:::>>>>>:::......                  ",
"                        .....:::>>>>>:::......                  ",
"                        .....:::>>>>>:::......                  ",
"                      ..,,,>><<<11111<<<>>>222.                 ",
"                      ..,,,>><<<11111<<<>>>222.                 ",
"                      ..,,,>><<<11111<<<>>>222.                 ",
"                   ...,,222>><<<11111<<<>>>,,,2...              ",
"                   ...,,222>><<<11111<<<>>>,,,2...              ",
"                   ...%%---<<>>>11111>>><<<,,,2...              ",
"                   ...%%---<<>>>11111>>><<<,,,2...              ",
"                   ...%%---<<>>>11111>>><<<,,,2...              ",
"                   ...%%--->>11111111111>>>%%%-...              ",
"                   ...%%--->>11111111111>>>%%%-...              ",
"                   ...%%--->>11111111111>>>%%%-...              ",
"                      .....3344444444444444....                 ",
"                      .....3344444444444444....                 ",
"                      .....3344444444444444....                 ",
"                        ...%%---.....333---...                  ",
"                           ..55566...333444...                  ",
"                           ..55566...333444...                  ",
"                           ..55566...333444...                  ",
"                           ..77777...777777...                  ",
"                           ..77777...777777...                  ",
"                           ..77777...777777...                  ",
"                                  ...555555...                  ",
"                                  ...555555...                  ",
"                                  ...555555...                  ",
"                                     ......                     ",
"                                     ......                     ",
"                                     ......                     ",
"                                                                "
};
