/* XPM */
static char *f8388cd929d64939e8808345edea658aeAkEwj5RWPEbZjHj[] = {
/* columns rows colors chars-per-pixel */
"64 64 25 1 ",
"  c None",
". c black",
"X c #6E2749",
"o c #913C51",
"O c #120317",
"+ c #310D35",
"@ c #571748",
"# c #8C4B63",
"$ c #1C1859",
"% c #C16A7D",
"& c #9C8C9C",
"* c #F2E9F2",
"= c #5078A1",
"- c #E5959F",
"; c #230726",
": c #2A6957",
"> c #676767",
", c #43153B",
"< c #3B804D",
"1 c gray56",
"2 c #222028",
"3 c #343336",
"4 c gray45",
"5 c #515151",
"6 c #AEAEAE",
/* pixels */
"                                                                ",
"                                                                ",
"                                                                ",
"                                                                ",
"                                                                ",
"                                                                ",
"                                                                ",
"                                                                ",
"                                                                ",
"                                                                ",
"                                                                ",
"                                                                ",
"                             ........                           ",
"                             ........                           ",
"                            .XXooooXX..                         ",
"                            .XXooooXX..                         ",
"                            .OOOOOOOO..                         ",
"                            .OOOOOOOO..                         ",
"                          ..+XX++XX++XX..                       ",
"                        ..++X@@++XX@@XXoo.                      ",
"                        ..++X@@++XX@@XXoo.                      ",
"                        ..@@+@@@@++++@@XX.                      ",
"                        ..@@+@@@@++++@@XX.                      ",
"                        ..++@oooo@@oo++@@.                      ",
"                        ..++@oooo@@oo++@@.                      ",
"                      ....@@@@@@@@@XX@@oo.                      ",
"                      ....@@@@@@@@@XX@@oo.                      ",
"                      ..XXXX@++++##XX++XX...                    ",
"                      ..XXXX@++++##XX++XX...                    ",
"                        ..+++$$%%%%$$&&@@X..                    ",
"                        ..+++$$%%%%$$&&@@X..                    ",
"                        ..XX*==----==**++.                      ",
"                        ..XX%--------%%XX.                      ",
"                        ..XX%--------%%XX.                      ",
"                          ...;;::::;;....                       ",
"                          ...;;::::;;....                       ",
"                        ..>>:,,<<<<,,::11.                      ",
"                        ..>>:,,<<<<,,::11.                      ",
"                      ..>>11:,,<<<<,,::>>1..                    ",
"                      ..>>11:,,<<<<,,::>>1..                    ",
"                      ..%%--,::<<<<::,,>>1..                    ",
"                      ..%%--,::<<<<::,,>>1..                    ",
"                      ..%%--:<<<<<<<<::%%-..                    ",
"                      ..%%--:<<<<<<<<::%%-..                    ",
"                        ....23333333333...                      ",
"                        ....23333333333...                      ",
"                          ..%--....22--..                       ",
"                            .4455..2233..                       ",
"                            .4455..2233..                       ",
"                            .6666..6666..                       ",
"                            .6666..6666..                       ",
"                                 ..4444..                       ",
"                                 ..4444..                       ",
"                                   ....                         ",
"                                   ....                         ",
"                                                                ",
"                                                                ",
"                                                                ",
"                                                                ",
"                                                                ",
"                                                                ",
"                                                                ",
"                                                                ",
"                                                                "
};
