/* XPM */
static char *out[] = {
/* columns rows colors chars-per-pixel */
"64 64 161 2 ",
"   c None",
".  c #456F07",
"X  c #467409",
"o  c #4B760C",
"O  c #5E7D3B",
"+  c #6A7C3C",
"@  c #747B3C",
"#  c #647D40",
"$  c #83763C",
"%  c #8F733D",
"&  c #8A7A3C",
"*  c #97723A",
"=  c #9D723B",
"-  c #A66E3E",
";  c #AB6E3A",
":  c #B46C36",
">  c #B46B38",
",  c #AF7036",
"<  c #A3703A",
"1  c #AF7E39",
"2  c #B07437",
"3  c #B27539",
"4  c #B17A39",
"5  c #0C8D3D",
"6  c #168F34",
"7  c #1F8F37",
"8  c #128F3B",
"9  c #1C8D3B",
"0  c #0D913D",
"q  c #1C9035",
"w  c #14913D",
"e  c #1C933C",
"r  c #2E8F2E",
"t  c #3C8F25",
"y  c #348F2A",
"u  c #2B912D",
"i  c #359126",
"p  c #3C9126",
"a  c #35902B",
"s  c #3D952D",
"d  c #228E33",
"f  c #298F30",
"g  c #32843F",
"h  c #3D843E",
"j  c #239233",
"k  c #299031",
"l  c #20963F",
"z  c #28973A",
"x  c #2B9B3F",
"c  c #349B36",
"v  c #3F9E39",
"b  c #3FA03A",
"n  c #54800E",
"m  c #598411",
"M  c #5D8D15",
"N  c #538F1B",
"B  c #598F19",
"V  c #44911F",
"C  c #4E901D",
"Z  c #5C9116",
"A  c #52911A",
"S  c #5A9119",
"D  c #63900F",
"F  c #638F13",
"G  c #668F19",
"H  c #639013",
"J  c #699316",
"K  c #64961B",
"L  c #6B9519",
"P  c #6E991D",
"I  c #729B1E",
"U  c #488F20",
"Y  c #449022",
"T  c #499120",
"R  c #5C9D27",
"E  c #44823F",
"W  c #4F813E",
"Q  c #41883F",
"!  c #53813E",
"~  c #5A803F",
"^  c #759D21",
"/  c #7A9F22",
"(  c #48A03A",
")  c #76A023",
"_  c #7BA225",
"`  c #7EA429",
"'  c #0C8744",
"]  c #058D44",
"[  c #0D8C44",
"{  c #0D8D48",
"}  c #108443",
"|  c #138C44",
" . c #1B8A45",
".. c #138D4B",
"X. c #1A8E4B",
"o. c #039243",
"O. c #0B9243",
"+. c #0E914B",
"@. c #149244",
"#. c #1C9341",
"$. c #12914A",
"%. c #18914A",
"&. c #1E8D50",
"*. c #199251",
"=. c #248A44",
"-. c #2C8A41",
";. c #358541",
":. c #3D8441",
">. c #209540",
",. c #229844",
"<. c #2A9B43",
"1. c #269848",
"2. c #309D40",
"3. c #3A9F43",
"4. c #229154",
"5. c #249759",
"6. c #3DA243",
"7. c #41A242",
"8. c #4AA643",
"9. c #51A841",
"0. c #5CAC43",
"q. c #61AD43",
"w. c #69AF42",
"e. c #6FB346",
"r. c #73B445",
"t. c #7BB544",
"y. c #7EB648",
"u. c #AC833A",
"i. c #AB8C3B",
"p. c #AA943C",
"a. c #AA9C3F",
"s. c #80A62A",
"d. c #83AA2C",
"f. c #8BAC2E",
"g. c #87AA30",
"h. c #8AAE31",
"j. c #9AA73F",
"k. c #8DB134",
"l. c #91B437",
"z. c #93B63A",
"x. c #98B73B",
"c. c #96B93C",
"v. c #9BBD3E",
"b. c #A6A53F",
"n. c #A8A23F",
"m. c #A8A83E",
"M. c #A0BF3F",
"N. c #9EC03F",
"B. c #A0C03F",
"V. c #94A240",
"C. c #81B745",
"Z. c #87BB44",
"A. c #89BA43",
"S. c #94B040",
"D. c #95BE43",
"F. c #9FBF41",
"G. c #A5AF41",
"H. c #A3B542",
"J. c #A0BE42",
"K. c #9EC041",
"L. c #A0C043",
/* pixels */
"                                                                                                                                ",
"                                                                                                                                ",
"                                                                                                                                ",
"                                                                                                                                ",
"                                                                                                                                ",
"                                                                                                                                ",
"                                    X.=. . ...                                                                                  ",
"                                  { E # $ @ O  ...    ....$.                                                                    ",
"                                 .+ > > > > > = Q { @.b ( ( c x z l q w 8 5 5 $.X.                                              ",
"                                E > > > > > > > ; Q r.K.F.L.J.F.J.K.K.z.L F Z T e X.                                            ",
"                              &.+ > > > > > > > 2 j.K.N.F.F.F.F.F.M.K.K.l.L F F Y w                                             ",
"                              ..# > > > > > > 3 H.v.K.v.K.v.F.F.M.B.L.v.M.k.F F H Y [                                           ",
"                                E ; > > > > 1 H.J.J.M.F.F.F.F.J.F.v.M.v.L.J.` J H F a {                                         ",
"                                ..O > > > i.H.K.J.M.v.J.J.K.F.K.L.L.N.L.B.K.v.d.H F H k |                                       ",
"                            | =.=.-.$ 3 i.H.K.F.J.F.J.J.K.J.L.J.L.L.J.F.F.N.K.v.^ H H A k |                                     ",
"                        ..h $ * = = & V.J.K.F.J.K.F.F.F.J.L.D.J.v.L.K.J.J.K.v.L.z.P H F A d {                                   ",
"                      ..;.< > > > > p.J.L.F.F.F.F.F.F.F.J.K.J.L.F.F.F.F.F.J.F.F.F.z.L F D V w                                   ",
"                      =.< > > > 3 a.J.J.K.L.F.F.F.F.J.K.F.J.F.L.F.F.F.F.F.F.F.F.F.F.l.F H H C |                                 ",
"                      E > > > > 1 H.J.K.J.K.J.K.K.J.F.J.F.J.F.J.F.J.F.J.F.F.F.F.D.D.F.d.J F F p {                               ",
"                      ! : : > > i.J.J.J.F.F.F.J.F.F.F.K.F.K.F.F.F.F.F.F.F.F.J.F.s.L h.v.d.J H H u @.                            ",
"                      h : > > > i.J.F.J.F.F.F.K.F.F.F.J.F.J.F.F.F.J.F.F.F.F.F.F.^ F P F.v.I H D S k ..                          ",
"                      =.* > > : a.J.F.K.F.F.F.J.F.J.J.K.F.K.F.F.F.K.F.F.F.F.J.D.P F L F.N.c.L m F S q $.                        ",
"                      { g ; > > G.H.F.F.F.J.F.J.F.K.F.J.F.J.K.J.F.F.F.L.F.F.F.F.I F ` F.K.` M . m H A q                         ",
"                  | =.;.O * > > G.F.F.F.F.K.J.K.F.F.F.K.J.K.L.v.F.F.F.F.F.F.F.J.g./ D.J.F.I H o n H M u                         ",
"                 .@ = : > > > 2 G.F.F.F.K.J.F.F.F.F.F.k.k.c.v.N.F.F.F.F.F.v.L.M.F.K.F.F.F.P F X n F S q                         ",
"              $.~ : : : > > > 2 G.F.F.F.F.F.F.F.J.L.D./ J ^ k.N.J.F.F.F.M.F.F.M.F.F.F.F.F.d.J X F F N 6                         ",
"               .< > : > > > > 4 H.F.F.F.F.F.K.J.K.F.D.^ H F Z j 8.Z.K.F.J.B.v.L.D.I G I z.F.K.G F F C w                         ",
"            X.:.> > : > > > > 4 H.J.J.F.J.K.J.F.J.F.S.L F H S 0 +.5 6.Z.K.J.M.B._ F F F ` F.D.F H F Y [                         ",
"              :.> > > > > > > u.J.J.F.F.J.K.F.F.F.F.l.H F F C O.{   $.0.K.J.M.x.L F F F I F.z.H H H t [                         ",
"               .; > > > > > > i.J.L.J.K.K.J.F.J.F.F.h.F F Z C o.]   ..9.B.M.B.z.J J F F I v.k.F D F y ]                         ",
"              ' # > > > > > > p.L.K.J.F.J.F.F.K.F.J.g.F F H p o.]   5.8.N.J.B.z.L F F F ) L.d.H H F r +.                        ",
"                 .% : > > > > a.K.F.F.F.F.F.F.F.F.K.` G H H a o.{   4.7.K.J.B.F._ H Z J k.F.` F F H d ..                        ",
"                  | # ; > > > G.J.F.F.F.F.F.F.F.F.F._ H H H j o.+.    6.K.F.F.F.F.g._ l.F.D.^ F F Z 9                           ",
"                    | g O @ @ z.J.J.J.F.F.F.F.F.J.v.I H H H q o.+.    <.F.F.F.F.F.J.F.J.J.z.I F F B #.                          ",
"                        { ..,.Z.F.F.F.F.F.J.F.J.J.D.L H J Z w o.]     <.K.J.v.L.F.F.F.F.J.z.L F H A @.                          ",
"                            <.A.F.F.F.F.F.F.F.F.J.x.J H H A 0 o.]     <.D.J.v.B.F.F.F.F.J.z.F F H C O.                          ",
"                            6.A.F.F.F.L.F.F.F.F.J.z.F F F A 0 o.o.    1.D.F.v.K.F.F.F.F.F.h.F D F U {                           ",
"                          *.8.K.F.F.F.F.J.F.F.F.F.D.^ F D M q 0 o.  $.6.K.F.K.k.^ g.D.F.F.s.F M F p X.                          ",
"                          ..0.F.J.K.F.F.F.F.F.F.F.F.c.s.H F S r +.,.0.D.F.K.F._ F H _ v.v._ F F F y {                           ",
"                          [ e.F.F.J.F.F.F.F.F.F.J.F.J.F._ J F S s r.F.K.K.K.c.P F F F h.F./ F F H r                             ",
"                          $.r.B.F.F.M.F.F.K.F.J.F.F.F.F.K.k.P ` F.v.J.M.F.F.k.L F F H J l.I F F K d                             ",
"                          @.Z.K.N.F.M.B.F.J.J.K.J.K.F.F.L.D.D.F.F.F.L.v.F.F.c.I F F H F f.P F F B e                             ",
"                          { K.F.J.B.M.L.F.F.F.F.F.F.J.K.J.J.F.J.F.F.L.F.F.F.F.l.^ L K ` z.L F D C 9                             ",
"                          w K.K.v.L.F.v.F.J.K.F.F.J.K.J.J.K.F.K.F.F.F.F./ ^ D.K.D.x.c.J.z.F F F Y 0                             ",
"                          [ t.F.N.L.J.N.F.B.B.J.J.F.F.F.K.F.F.F.F.F.F.c.J H h.F.J.J.F.F.l.F F F p @.                            ",
"                            w 0.K.B.v.J.v.L.L.v.K.F.F.F.J.F.F.F.F.F.F.c.J F h.K.J.J.F.F.h.H H H u @.                            ",
"                            { #.t.F.K.M.M.B.B.M.F.F.K.J.F.F.K.J.F.F.K.F.k.g.F.F.k.z.J.F.d.F H D k {                             ",
"                                e 0.K.N.M.L.v.F.F.J.F.K.J.F.J.K.F.F.J.F.F.F.F.` J J F.F._ F Z F q *.                            ",
"                                  @.y.K.N.L.v.L.B.M.F.F.J.K.J.J.J.F.J.K.J.F.J.s.J F F.K.^ F H H w 5.                            ",
"                                    w t.K.B.B.L.B.F.L.v.K.J.F.F.K.F.F.F.K.F.F.v.h.c.F.v.P F F M 5                               ",
"                                      e e.K.K.v.B.L.B.M.L.B.K.F.J.K.F.F.J.F.F.F.F.F.K.c.P F F B {                               ",
"                                      { #.t.K.F.M.v.F.M.v.F.J.F.F.J.F.F.J.K.M.B.F.F.K.k.J F H N @.                              ",
"                                          e r.L.F.v.B.J.N.M.B.J.F.F.F.K.v.K.F.L.F.F.F.g.J F F V {                               ",
"                                          [ w C.L.J.L.v.v.F.L.v.F.F.J.F.K.N.N.v.F.F.h.I H A V d [                               ",
"                                              w r.K.v.M.L.v.B.M.B.B.F.K.K.K.z.d.P J A i q 5 ..                                  ",
"                                              ' l t.L.B.L.M.L.M.L.v.v.c.k._ L S Y f 8 | |                                       ",
"                                                  l t.K.N.N.K.v.l.d.P K T i q 8 |                                               ",
"                                                  { x C.K.v.h._ J Z Y u 8 [ |                                                   ",
"                                                    { w R H N t q 5 |                                                           ",
"                                                        5 6 0 ] }                                                               ",
"                                                                                                                                ",
"                                                                                                                                ",
"                                                                                                                                ",
"                                                                                                                                "
};
