/* XPM */
static char *out[] = {
/* columns rows colors chars-per-pixel */
"64 64 191 2 ",
"   c None",
".  c #5E7D3D",
"X  c #567F3C",
"o  c #637E3E",
"O  c #6A7C3C",
"+  c #607C37",
"@  c #767A3C",
"#  c #7B793E",
"$  c #7B7841",
"%  c #8C7D25",
"&  c #9C772D",
"*  c #937B29",
"=  c #957B27",
"-  c #83773B",
";  c #8B763B",
":  c #94733A",
">  c #9B713A",
",  c #A1752F",
"<  c #AB6E3A",
"1  c #A76F3B",
"2  c #B36C37",
"3  c #B46C38",
"4  c #A37331",
"5  c #A97134",
"6  c #AB703A",
"7  c #A3703A",
"8  c #B07037",
"9  c #0B8D3E",
"0  c #198F34",
"q  c #128E3C",
"w  c #198E3D",
"e  c #0E933E",
"r  c #1C9136",
"t  c #1A943C",
"y  c #298F2E",
"u  c #3D8F26",
"i  c #2C902F",
"p  c #3D9125",
"a  c #33912B",
"s  c #399128",
"d  c #298B38",
"f  c #35853E",
"g  c #249133",
"h  c #2A9334",
"j  c #23993E",
"k  c #2B9B3F",
"l  c #389A38",
"z  c #4E8F1D",
"x  c #5C8F17",
"c  c #568F19",
"v  c #4C911C",
"b  c #44911F",
"n  c #5E9016",
"m  c #56901A",
"M  c #5A9118",
"N  c #61920E",
"B  c #648F13",
"V  c #6A8D14",
"C  c #69881E",
"Z  c #7B851F",
"A  c #74891A",
"S  c #758817",
"D  c #649013",
"F  c #6A9215",
"G  c #6C9519",
"H  c #6F991C",
"J  c #769216",
"K  c #7C9417",
"L  c #7E941A",
"P  c #729A1E",
"I  c #449023",
"U  c #489224",
"Y  c #41843F",
"T  c #52813C",
"R  c #409E3A",
"E  c #628824",
"W  c #7B8324",
"Q  c #759D21",
"!  c #789E22",
"~  c #4AA23A",
"^  c #77A024",
"/  c #7BA225",
"(  c #72A52D",
")  c #7CA428",
"_  c #67A93B",
"`  c #73AF3B",
"'  c #79B13C",
"]  c #0D8D43",
"[  c #0F8E4B",
"{  c #128D44",
"}  c #1A8A43",
"|  c #138D4B",
" . c #1A8B4B",
".. c #158546",
"X. c #0D9143",
"o. c #0D934B",
"O. c #149144",
"+. c #1A9442",
"@. c #14924A",
"#. c #1A934E",
"$. c #1F9941",
"%. c #1C9451",
"&. c #169352",
"*. c #2D8740",
"=. c #218B42",
"-. c #378641",
";. c #239742",
":. c #249A43",
">. c #2B9C42",
",. c #3B9F42",
"<. c #309F44",
"1. c #249957",
"2. c #35A142",
"3. c #3DA243",
"4. c #428241",
"5. c #5C8040",
"6. c #42A443",
"7. c #4CA742",
"8. c #52A943",
"9. c #5CAC43",
"0. c #62AD42",
"q. c #68AF44",
"w. c #6BB143",
"e. c #76B544",
"r. c #79B644",
"t. c #78B844",
"y. c #81831E",
"u. c #83961A",
"i. c #8A971A",
"p. c #8D9A1E",
"a. c #93991E",
"s. c #8A8024",
"d. c #848221",
"f. c #929C25",
"g. c #9C9B22",
"h. c #989E2C",
"j. c #A39E24",
"k. c #AD9E27",
"l. c #AE9D29",
"z. c #B49F28",
"x. c #81A62A",
"c. c #84AA2C",
"v. c #8AAE2F",
"b. c #9DA62B",
"n. c #8BAF32",
"m. c #87AD31",
"M. c #8DB235",
"N. c #83B33D",
"B. c #8CB83C",
"V. c #91B436",
"C. c #93B639",
"Z. c #96B93C",
"A. c #9BBC3E",
"S. c #AAA229",
"D. c #B4A32C",
"F. c #BEA42E",
"G. c #A0BF3F",
"H. c #BEB43D",
"J. c #C7A62E",
"K. c #C4AA34",
"L. c #CDAB31",
"P. c #DDAA34",
"I. c #DDAE3E",
"U. c #D2A936",
"Y. c #DBB03D",
"T. c #E4AD36",
"R. c #E1AF3E",
"E. c #EDAE3A",
"W. c #F1AE39",
"Q. c #EFB13B",
"!. c #F6B13B",
"~. c #FBB03A",
"^. c #9EC03F",
"/. c #82B744",
"(. c #80B946",
"). c #8DBB43",
"_. c #93BD44",
"`. c #9FBF41",
"'. c #A0BF42",
"]. c #DEAE40",
"[. c #E3AF40",
"{. c #E0BE44",
"}. c #FAB843",
"|. c #9EC041",
" X c #91C048",
".X c #A0C043",
"XX c #F8C24A",
"oX c #F5C349",
"OX c #EBC850",
"+X c #F9D55B",
"@X c #F6D55A",
/* pixels */
"                                                                                                                                ",
"                                                                                                                                ",
"                                                                                                                                ",
"                                                                                                                                ",
"                                                                                                                                ",
"                                                                                                                                ",
"                                                                                                                                ",
"                                                        | #.| {                                                                 ",
"                                                    { ;.~ R l h g 0 9 e ] ] X.X.X.o.o.o.| ]                                     ",
"                                                | O.9._.`.|..X'.|.`._.Z.B.B.N.' ` _ _ p u h @.@.                                ",
"                                            #.O.8.).`.'.`.`.`.A.`.'.) Q C.'.`.`.|.`.M.n x W ; . } ..                            ",
"                                           .:.0.|.A.`.`.`.'.G.`.`.Z.F B Q _.`.`.`.`.M.D N % 2 3 @ }                             ",
"                                      | $.9._..X|.A.|..X`.`.'.`.`.x.B B D Q `.`.`.A.m.D D * 3 3 3 - }                           ",
"                                   .] 6.r.`.^..X`.`.^.G.`.`.`.`.`.H D B B B V.`.G..X) D B & 3 3 3 1 -.                          ",
"                                @.$.w.|.'.'.'.A..XG.G.`.`.`.`.`.`.! B B B B m.`.|.A.) B V , 2 3 2 3 -.                          ",
"                            | +.0._.`.'.|.'.^.G.G..XA.`.'.`.M.n.`.Z.P B D D Z.`..XA.Q D V 5 2 2 3 1 -.                          ",
"                          O.,.w._.^.G..XG.`.G.`..X'.`.'.'._.H Q C.`._.n.c.B.|..X'.Z.H D A 5 3 3 2 $ {                           ",
"                      O.>.w.`.`.'.'..XA.^.G..XA.'.'.`.`.`.x.B F n.`.'.'.'.`..X'.`.C.F D A 8 < > $ ]                             ",
"                  | e 8._.'.G.`.A..XG.`.G..XG..X'.'.'.'.`._.Q ) _.'.'.`.'.`. X'.`.C.B D C . f =.]                               ",
"                  +.r.^.`.A.`.G..XG.^.G.G.A.`..X'.'. X'.'.'.'.`.'.n.M.`.`.'.'.'.`.n.B D y.5 - 4.{                               ",
"                  ] 8.`.G.G.`.`.G.G.'.'..X`.`.`.`.|.'.'.`.'.`.`.n.V F C.`.`.`.'.`.c.B B s.2 2 2 . ]                             ",
"                    +.r.`.|.`.`..X.XA.|..X`.`.'.`.'.'.'.`.`.`.'.M.C F C.`.`.`.`.`.) B B = 3 3 2 7 *.                            ",
"                      >.).`.|.`.^.G.`.`.`.`.|.'.`.`.`.'.`.`.`.`.`.B.Z.`.`.`.`.`.`.! C D 4 2 3 3 3 # {                           ",
"                      ] 3.|.|.'.A.`.`.'.`.`.'.`.`.`.'.|.`.'.'.|.`.`.`.`.`.`.`.`.`.Q B B 5 3 3 3 3 > }                           ",
"                        ] 9.|.`..X.XA..X.XG..X.XG..XA..X'.A..XG.`.`.`.`.`.`.`.`.A.H D V 8 3 3 3 3 ; }                           ",
"                          O./.`.G.G.G.G.A.`.G.A.G.G.^.^.^.`.G..X`.`.'.'.`.'.`.`.A.G D A 3 3 3 < 2 T |                           ",
"                          ] ,.).'.G.G..X`.G.`.`.^.|.).A.^.G.G..X'.`.`.'.`.`.`.`.C.F B Z 3 3 3 6 ; }                             ",
"                            ] 3.`.'.G.^.`.`.`.`._.q.:.t.|.G..XA.`.`.).x.).`.`.`.V.F N s.3 8 : $ }                               ",
"                              O.e.`.'.'.'.'.G._.6.O.X.e.^.^.^.G.'.`.H B Q `.`.`.V.B N y.3 - *.O.                                ",
"                                :.(.'.'.'._.0.+.9   9 e.G.G.G.G.`.n.B B C C.`.`.v.B B = 2 2 @ =.                                ",
"                                [ ;._._.r.;.]       9 r..XG.Z.G.`.n.B B Q _.`.`.c.B D & 2 2 3 : }                               ",
"                                  ] 8.8.;.]         X.r..XV.P c.'._.Q H n.`.`.`.) D D 4 3 2 3 < -...                            ",
"                                    { O.            @.t.^.^ B H C.'.`.`.`.'.`.`.! B V 5 3 3 3 3 . ]                             ",
"                                                    +.t.|.F B F C.'.'.'.`.`.`.`.P B V < 3 3 3 2 $ o.                            ",
"                                                    @.t..XG B ) '.`.`.'.'.'.`._.P B V < 3 3 3 3 -. .                            ",
"                                                    @.t.^.M.c.`.`.'.C._.'.'.'.M.G B S 3 3 2 2 - {                               ",
"                                                    @.t..XG.^.^.|.c.G G M.`.`.n.D F W 3 < 1 $ *.                                ",
"                                                    O.t..XG.^.|.n.C B B ! `.`.m.B B E O X -.{                                   ",
"                                                    X.t..XA.G.Z.Q n B B Q _.`.) B B a X.9 ..                                    ",
"                                                    X.e..X.X^.V.D B B B Q `.`.! B x y                                           ",
"                                                    X.e..X^.^.V.D B B B ) |.`.Q B c r                                           ",
"                                                    X.e.|.G.G.A.c.D B G C.|.|.H x c r                                           ",
"                                                    X.t.|.G.A..X`.M.m.V.`.|.`.F B v q                 1.%.O.@.O.@.              ",
"                     .@.#.%.&.@.| #.%.%.            O.t..X^..XG.`.|.|.`.`.`.`.B B I ]     %.| @.#.{ O.>.l l s p }               ",
"                    O.w./.r.e.w.9.9.8.7.6.3.2.>.:.;.t r.'.^..XG.`._.|.'.`.`.Z.V B I t 2.6.8.w.' ).|.|.|.A./ D D r               ",
"                    O.B.^.|.A.'..XG.G.G..X^.^.|.G.|.|..X`.G.G..X'..X'.|.'.'._.).A.|.^.G.|..X.XG.A.|.|.|.G.c.B B g |             ",
"                    +.).G.A.G.|.^..X.XG.`..X|.|..X.X.XG.'.G.`.A.'.`.'.`.`.`..X`.|..XG..X.X|.G.G..X|.`.`.G.M.B D y [             ",
"                    j `.'..XG.G..XA..XA.'.^..X^.A..X^..XA.`.G.|.`.`.`.`.`.`.'.`..XA.G.G.^..XA..X^.A.`.`.G.V.B D s 9             ",
"                  %.>.`.`.`.`.`.`.A..XG.G.^.`.`.A.A..XG.G.'.G.G..X|.`.'.'.`.`.G..XG..XA..XA.|.G.G.'.A..XG.A.B N b ]             ",
"                  &.,.`.`.`.`.`.`.|.|..XA.c.) ! ) M.|.|.'.Z.c.H G F Q m.`.`.`.`.A.c.^ G F H c.Z.`.`..X.XG.|.F D m q             ",
"                  ] 7.`..XA.A.`.`.|.A.c.F D D D B B n.|.C.F B J p.f.J V c.`..XC.P D D D D B D G A.'.'.`.|.|.Q B m r             ",
"                  ] 9.`..X`.`.|.|.^.) D J b.H.S.L B P A.H J a.{.@XoXT.j.G m.Z.F N F u.f.u.F D B ^ `.'.|.|.|.) B M g             ",
"                  | e.`.G.`.A..X^.) D i.L.@X+X!.T.g.F Q B z.W.}.}.~.~.!.p.G ! D J K.OX+XW.F.A D D M.`.`.'.^.M.B n a &.          ",
"                  @.r.|.^.G.G..XV.D D U.~.!.~.~.!.J.F B J E.}.~.!.~.~.}.J.V F B k.!.XXXX}.W.g.V D ^ '.'.`.`.Z.D B s |           ",
"                  ]  X`.'.^.|.^.! D j.~.~.~.~.~.~.E.K D z.~.~.~.~.~.~.~.T.u.B g.E.~.~.~.~.~.T.u.B G Z.G.|.'.Z.D B b @.          ",
"                  O.|.G.^.G.^.Z.F V P.~.~.~.~.~.~.!.i.N T.~.~.~.~.~.~.~.W.g.B U.~.~.~.~.~.~.W.l.D F Z.G.G.`.`.G B c ]           ",
"                  +.|.|.|.'.^.V.B u.!.~.~.~.~.~.~.~.p.K !.~.~.~.~.~.~.~.~.k.N W.~.~.~.~.~.~.~.J.D D C.|..XA.`.Q B n 9           ",
"                  ;.|.^.`.`.G.c.B S.~.~.~.~.~.~.~.W.i.g.~.~.~.~.~.~.~.~.!.k.K ~.~.~.~.~.~.~.~.P.B D C.|.G.`.`.^ B n q           ",
"                  >._._._.)._.( c S.].Y.I.I.I.I.Y.U.G h.I.R.[.I.R.I.I.R.].f.P T.R.R.R.R.T.R.[.K.M M N._._.)._.( c M r           ",
"                  | @.@.@.O.@.X.@.O.{ { { ] { { { O.X.{ e ] ] O.{ { 9 { ] ] X.{ O.O.} @.{ { O.@.@.@.@.@.@.@.@.@.@.@.{           ",
"                                                                                                                                ",
"                                                                                                                                ",
"                                                                                                                                ",
"                                                                                                                                "
};
