/* XPM */
static char *out[] = {
/* columns rows colors chars-per-pixel */
"64 64 157 2 ",
"   c None",
".  c #657D3B",
"X  c #6C7D3B",
"o  c #79793D",
"O  c #857E2B",
"+  c #8C7C29",
"@  c #9C772E",
"#  c #877D31",
"$  c #83773C",
"%  c #8B763C",
"&  c #80793E",
"*  c #91743C",
"=  c #9B703C",
"-  c #A6732E",
";  c #AF6E37",
":  c #A56E3A",
">  c #AE6E3A",
",  c #B46C37",
"<  c #B46B38",
"1  c #AA7135",
"2  c #A2713B",
"3  c #A97039",
"4  c #0E8C3D",
"5  c #178F37",
"6  c #1F8F36",
"7  c #138E3D",
"8  c #198F3A",
"9  c #0F913F",
"0  c #129036",
"q  c #1A9136",
"w  c #13913D",
"e  c #19913F",
"r  c #3E8F28",
"t  c #2D9027",
"y  c #27912E",
"u  c #2C912C",
"i  c #3D9125",
"p  c #34912B",
"a  c #238F33",
"s  c #298F31",
"d  c #2B853F",
"f  c #23883E",
"g  c #3D833F",
"h  c #239032",
"j  c #2A9B3F",
"k  c #379733",
"l  c #329D3F",
"z  c #3F9F3F",
"x  c #3EA23F",
"c  c #5D8F17",
"v  c #548F1B",
"b  c #4B901D",
"n  c #5A9016",
"m  c #54901A",
"M  c #638F14",
"N  c #6C8C15",
"B  c #73871A",
"V  c #79861D",
"C  c #718A18",
"Z  c #639013",
"A  c #699416",
"S  c #64941A",
"D  c #6C961A",
"F  c #67991C",
"G  c #6E991B",
"H  c #729B1E",
"J  c #448F23",
"K  c #439123",
"L  c #4A9020",
"P  c #44843F",
"I  c #4E823D",
"U  c #53813C",
"Y  c #59803F",
"T  c #738429",
"R  c #759D21",
"E  c #789E22",
"W  c #4CA63F",
"Q  c #4EA83F",
"!  c #55AB3F",
"~  c #77A122",
"^  c #7AA125",
"/  c #7DA429",
"(  c #7DA828",
")  c #60A93E",
"_  c #70A630",
"`  c #72B23F",
"'  c #0C8C43",
"]  c #0D8C49",
"[  c #108743",
"{  c #128C44",
"}  c #1B8A43",
"|  c #148D4B",
" . c #1B8B4A",
".. c #0B9143",
"X. c #0D914A",
"o. c #149144",
"O. c #1B9543",
"+. c #1E9844",
"@. c #14924C",
"#. c #1A934C",
"$. c #19984F",
"%. c #1E9452",
"&. c #238944",
"*. c #2B8946",
"=. c #348740",
"-. c #3C8341",
";. c #239741",
":. c #299741",
">. c #249842",
",. c #2B9B42",
"<. c #339E43",
"1. c #31A143",
"2. c #3DA243",
"3. c #548041",
"4. c #46A543",
"5. c #4CA642",
"6. c #4EA941",
"7. c #54A942",
"8. c #5CAC43",
"9. c #64AE43",
"0. c #69AF43",
"q. c #66B144",
"w. c #6CB044",
"e. c #73B243",
"r. c #7AB443",
"t. c #7EBA43",
"y. c #81831F",
"u. c #868022",
"i. c #8A8325",
"p. c #9E9436",
"a. c #A79E3E",
"s. c #A89F3D",
"d. c #80A427",
"f. c #82A72A",
"g. c #84AA2C",
"h. c #89AE2F",
"j. c #86AC30",
"k. c #8AAE32",
"l. c #97A33D",
"z. c #8EB235",
"x. c #86B63F",
"c. c #91B536",
"v. c #92B63A",
"b. c #96B93B",
"n. c #9BBC3E",
"m. c #A0BF3F",
"M. c #9EC03F",
"N. c #A0C03F",
"B. c #80B742",
"V. c #84B943",
"C. c #8CBB44",
"Z. c #93BD44",
"A. c #9FBF41",
"S. c #91BC48",
"D. c #A0BF42",
"F. c #9EC041",
"G. c #A0C043",
/* pixels */
"                                                                                                                                ",
"                                                                                                                                ",
"                                                                {  .&. . .                                                      ",
"                                                              } 3.* = % -.{                                                     ",
"                                                           .f % , < , , : I |                                                   ",
"                                                          } $ , < < < < < = ]                                                   ",
"                                                        [ Y > < < < , < < > }                                                   ",
"                                                { #.$.| X.$ , , < , , , , , } #.*.-.-.*.{                                       ",
"                                              ' 4.q.q.0.q.l.a.s.s.s.p.i.O O 8 o : < > : X }                                     ",
"                                          { O.0.F.D.F.D.A.D.F.A.D.m.D.z.D M T < < < < < , X [                                   ",
"                                       .O.7.Z.A.F.F.m.m.A.A.A.A.m.m.D.D.n.f.M V @ , < < , 2 d                                   ",
"                                    | >.8.Z.A.D.A.D.G.n.A.A.A.A.A.N.G.n.A.A.E M C @ , < , , g ]                                 ",
"                                | O.4.C.A.D.m.N.n.m.D.M.G.G.G.D.A.A.A.A.D.Z.A M Z N y.1 < < 3.X.{ }  .[                         ",
"                              | ;.r.A.A.A.A.m.G.G.N.n.D.S.G.D.D.D.A.A.A.A./ S M D E M B - , g =.& * % 3.}                       ",
"                            { 2.C.G.G.n.n.G.D.n.G.n.G.G.D.D.D.A.A.F.D.A.v.D M M Z / k.A N + * , < < , > % 7                     ",
"                        { j V.M.A.N.N.D.m.N.m.N.N.A.D.m.D.D.D.A.A.F.F.D.v.M M M Z D c.b.R Z y.- < < < , < . ]                   ",
"                      #.W B.M.N.n.G.G.N.m.m.A.A.A.A.A.A.D.F.D.G.A.A.A.D.Z.R M M Z D c.M.b.D Z + < < < < < % '                   ",
"                    e w.A.A.G.G.N.N.n.D.m.A.A.A.A.D.A.A.A.D.A.A.A.A.j.k.A.A.E R H h.n.G.N.H Z N , < < < , > {                   ",
"                    o.e.F.F.F.n.m.G.N.M.A.A.A.F.A.A.F.D.A.A.D.A.A.v.M S v.D.A.A.A.D.G.D.N.f.Z Z ; < < < < 2 '                   ",
"                      ,.C.F.m.D.A.n.m.D.A.A.D.D.A.A.D.A.A.A.A.A.A.g.M N v.D.A.D.A.D.N.n.M.c.Z Z @ < < < < $ '                   ",
"                      { 2.F.n.G.G.n.m.N.A.A.A.A.A.A.A.A.D.A.A.A.A.Z.E j.D.D.D.D.A.A.A.A.A.v.A M y.< < < , g {                   ",
"                        { w.G.N.N.D.m.G.A.D.F.A.D.G.A.A.A.A.A.A.A.A.A.D.Z.j.E A.D.A.A.A.A.A.G M V < < > % }                     ",
"                          O.C.F.G.m.D.n.n.A.D.A.G.N.M.F.A.A.m.D.A.A.A.A.k.M M v.A.A.A.D.A.A.^ Z N , > o &.                      ",
"                          ' 2.Z.A.A.N.N.G.A.A.D.n.A.F.F.F.A.N.N.A.A.A.A.v.R A Z.A.A.A.A.A.A.h.Z M O U }                         ",
"                            ' ! A.D.A.A.A.M.F.M.M.n.d.g.G.F.G.G.A.A.D.D.D.D.A.D.D.D.D.D.S.G.v.S M J |                           ",
"                              o.r.D.m.A.M.F.M.F.h.A Z b ) F.m.n.A.A.n.D.D.D.A.A.D.D.D.D.G.G.b.E M b #.                          ",
"                              ] 2.Z.A.n.A.n.b.f.A n i 0 o.8.Z.m.A.A.A.D.A.A.A.A.A.A.A.A.D.D.F./ M n e                           ",
"                                o.7.G.F.F.h.G Z b y {     ' <.V.A.A.A.n.A.A.A.A.A.A.A.D.D.D.F.z.Z n a                           ",
"                                  w t.A.j.S M b 8 '         ' Q F.A.A.A.A.A.A.A.A.A.A.A.A.D.D.Z.Z M p @.                        ",
"                                  [ >.S M v y '               j C.A.A.A.A.D.A.A.A.D.A.A.A.D.D.D.A M K '                         ",
"                                    { t i 7 '                 { 7.D.A.D.A.A.A.A.A.A.A.D.A.A.A.A.^ Z v 7                         ",
"                                      4 4                     ] <.F.D.A.A.A.A.D.A.A.A.A.A.A.A.A.g.Z c 0                         ",
"                                                              o.4.A.G.m.D.A.F.D.A.A.A.A.A.A.N.N.c.M M a ]                       ",
"                                                            o.4.C.A.G.n.A.A.A.D.A.A.D.A.A.A.G.n.A.M M i ]                       ",
"                                                        | O.9.A.A.A.A.A.A.D.A.A.D.G.D.D.A.F.m.N.F.H M L '                       ",
"                                                      { l S.A.A.A.A.A.A.A.A.A.A.N.G.n.m.A.D.D.n.d.M b q '                       ",
"                                                    #.2.C.A.A.A.A.A.A.A.A.D.D.A.m.D.n.N.F.A.c.^ Z i 8 {                         ",
"                                                [ O.8.A.N.F.A.A.D.A.A.D.A.F.A.A.m.G.G.N.Z.g.Z b h '                             ",
"                                              } #.8.A.n.N.D.m.D.A.A.D.A.A.A.A.A.A.n.D.n.E Z K 5 '                               ",
"                                            ] j C.F.D.F.N.G.n.N.F.A.F.A.A.D.A.A.D.n.g.Z m h '                                   ",
"                                          o.W Z.M.M.D.N.m.m.G.N.m.D.A.A.D.D.D.F.Z.G M i 4 ]                                     ",
"                                       .#.! Z.n.G.n.n.G.n.A.n.A.A.A.A.A.D.D.A./ S L h {                                         ",
"                                    o.,.e.b.E f.F.F.M.F.G.m.D.A.A.A.A.A.A.k.H v p ....$.' o.+.;.>.>.:.a h w                     ",
"                                  | ;.C.F.k.M M n.M.A.F.N.G.A.A.A.A.D.A.j.R F l j 1.2.4.7.8.w.e.V.V.V.S Z t |                   ",
"                                o.5.Z.F.A.^ M Z v.F.F.F.A.A.A.A.A.A.D.G.G.G.F.G.M.G.N.D.m.m.G.N.A.A.n.D M L ]                   ",
"                            | o.0.D.D.F.A.^ M S b.A.b.g./ A.A.A.D.A.A.A.D.A.G.G.N.M.N.G.n.A.n.m.A.A.A.E M m ..                  ",
"                          | ,.0.A.A.A.A.D.j.D k.A.A.j.M S k.A.A.A.A.A.A.D.D.D.G.M.M.D.n.G.m.n.m.G.n.A.g.M c q                   ",
"                        o.2.S.A.D.n.m.A.A.A.n.A.A.A.R M M f.A.A.A.A.A.D.D.D.G.S.G.M.A.A.N.G.G.G.N.A.M.z.Z Z p |                 ",
"                        w C.G.F.D.n.G.N.m.m.F.F.A.A.H c Z g.A.A.D.D.A.A.A.D.A.A.D.A.A.D.D.A.D.F.D.D.A.b.D M b {                 ",
"                        ] 8.F.G.N.N.N.G.D.Z./ R z.A.v.^ / A.F.A.D.F.D.A.A.F.D.A.D.A.A.F.A.A.A.A.D.F.m.n.d.M c e                 ",
"                          +.F.A.n.G.m.G.D.E Z Z Z v.A.A.F.F.F.A.D.D.A.A.A.A.A.A.D.D.D.A.A.A.A.D.D.N.D.A.k.M M q                 ",
"                          ' w.A.A.A.m.F.c.A Z M Z g.A.A.G.A.A.A.G.D.A.A.D.A.A.D.D.G.A.A.A.A.A.A.D.G.G.n.n.Z M t |               ",
"                            >.V.A.A.A.N.g.M M M Z f.A.A.A.A.A.D.D.G.G.G.A.A.A.A.D.G.G.G.A.D.A.A.A.A.D.n.G.D N K @.              ",
"                            ] 7.A.A.A.n.f.M M M Z j.m.G.A.A.D.G.D.S.D.D.A.G.A.A.D.S.D.D.A.A.A.A.A.A.D.m.N.H M b {               ",
"                              O.C.A.m.N.c.Z M M H b.A.N.D.A.A.N.A.G.D.A.A.A.A.A.A.A.D.D.A.A.A.A.A.M.A.N.G.f.M c e               ",
"                              ' 8.M.A.m.m.h.D G b.F.n.G.A.A.n.G.A.A.A.A.A.A.A.D.A.A.D.F.A.m.M.A.A.D.n.G.m.c.M M a #.            ",
"                                ;.Z.G.A.n.G.Z.Z.m.F.F.M.A.m.G.n.A.A.A.n.G.m.A.m.m.n.G.D.M.D.A.m.m.N.n.M.n.n.Z Z p ]             ",
"                                { 8.A.A.m.G.F.F.D.F.n.F.n.M.N.M.A.A.A.F.N.m.M.A.M.N.N.m.G.n.m.D.m.G.N.G.G.M.H Z K '             ",
"                                  w 4.5.5.5.5.7.7.7.8.8.8.8.8.9.9.9.q.0.w.w.w.` e.e.e.r.r.r.` B.B.B.B.V.V.C._ m b 0             ",
"                                      %.#.| @.@.#.$.%.%.%.#.#.| | @.@.X.@.@.@.X.X.] ..' 4 ..' ' ..' ..' ' o.@.@.@.]             ",
"                                                                                                                                ",
"                                                                                                                                ",
"                                                                                                                                ",
"                                                                                                                                "
};
