/* XPM */
static char *out[] = {
/* columns rows colors chars-per-pixel */
"64 64 170 2 ",
"   c None",
".  c #547F3F",
"X  c #647D3C",
"o  c #6B7D3C",
"O  c #777A3C",
"+  c #5B7D40",
"@  c #937A28",
"#  c #9A782C",
"$  c #89763C",
"%  c #83763C",
"&  c #92753B",
"*  c #9E7339",
"=  c #AE6E36",
"-  c #A56F3B",
";  c #AF6E39",
":  c #B36C36",
">  c #B46C38",
",  c #A97132",
"<  c #A5703A",
"1  c #A67331",
"2  c #0D8F3E",
"3  c #1F8F34",
"4  c #148E3B",
"5  c #1B8C3D",
"6  c #0D913E",
"7  c #1B9134",
"8  c #13913D",
"9  c #18923B",
"0  c #2B8F2E",
"q  c #23902F",
"w  c #2C912E",
"e  c #33902B",
"r  c #399028",
"t  c #268F34",
"y  c #2F853F",
"u  c #2F8B32",
"i  c #34853D",
"p  c #38883B",
"a  c #22973E",
"s  c #269A3F",
"d  c #2A993C",
"f  c #329D3D",
"g  c #399F3F",
"h  c #30A03F",
"j  c #4B8F1F",
"k  c #558F17",
"l  c #5E8F17",
"z  c #568F1B",
"x  c #5D8E19",
"c  c #4E911C",
"v  c #579512",
"b  c #5A9513",
"n  c #5E9916",
"m  c #54911B",
"M  c #5A9018",
"N  c #638F13",
"B  c #6C8C17",
"V  c #6F8A19",
"C  c #77871B",
"Z  c #7A861D",
"A  c #748919",
"S  c #629013",
"D  c #6A9317",
"F  c #639C17",
"G  c #6C9519",
"H  c #649B1A",
"J  c #6B9B1C",
"K  c #729B1F",
"L  c #69A01D",
"P  c #448F21",
"I  c #429121",
"U  c #4B9022",
"Y  c #529C2E",
"T  c #41843C",
"R  c #4D823E",
"E  c #52813F",
"W  c #5D803B",
"Q  c #439E3A",
"!  c #648921",
"~  c #7D8421",
"^  c #79802F",
"/  c #749D22",
"(  c #789F23",
")  c #46A33E",
"_  c #52A53C",
"`  c #58A93E",
"'  c #6CA120",
"]  c #73A424",
"[  c #79A225",
"{  c #7DA428",
"}  c #7DAB2B",
"|  c #65AC3D",
" . c #72AC37",
".. c #76B13F",
"X. c #7EB53F",
"o. c #0D8745",
"O. c #0D8C44",
"+. c #0E8649",
"@. c #0D8D49",
"#. c #128545",
"$. c #128C44",
"%. c #1B8C43",
"&. c #138C4A",
"*. c #1A8C4C",
"=. c #0D9144",
"-. c #0D944D",
";. c #159244",
":. c #1B9343",
">. c #14924B",
",. c #1A944C",
"<. c #178E50",
"1. c #1B9252",
"2. c #149450",
"3. c #2A8841",
"4. c #3B8440",
"5. c #328643",
"6. c #239742",
"7. c #249942",
"8. c #2B9B42",
"9. c #23904F",
"0. c #339D42",
"q. c #3B9F43",
"w. c #229453",
"e. c #289759",
"r. c #28985A",
"t. c #37A041",
"y. c #3CA142",
"u. c #5A8040",
"i. c #44A442",
"p. c #48A543",
"a. c #4EA845",
"s. c #50A745",
"d. c #53A942",
"f. c #5DAC44",
"g. c #64AD44",
"h. c #6CAF43",
"j. c #67B044",
"k. c #6BB144",
"l. c #72B345",
"z. c #7CB644",
"x. c #74B148",
"c. c #7FB948",
"v. c #7DB945",
"b. c #82821F",
"n. c #848222",
"m. c #80A527",
"M. c #81A62B",
"N. c #82AB2D",
"B. c #88AC2C",
"V. c #86AD30",
"C. c #8CAD33",
"Z. c #86B133",
"A. c #8BB334",
"S. c #8DB73A",
"D. c #91B637",
"F. c #93B63A",
"G. c #95BA3C",
"H. c #9BBD3E",
"J. c #A1BE3E",
"K. c #9FC03F",
"L. c #A0C03F",
"P. c #82B643",
"I. c #84BA44",
"U. c #8CBA44",
"Y. c #93BD43",
"T. c #9FBF41",
"R. c #A0BF42",
"E. c #94C145",
"W. c #9EC042",
"Q. c #A0C044",
/* pixels */
"                                                                                                                                ",
"                                                                                                                                ",
"                                                                                                                                ",
"                                                                                                                                ",
"                                                                                                                                ",
"                                                                                                                                ",
"                                                                                                                                ",
"                                                  &.&.                                                                          ",
"                                                >.d d 9 6 O.@.$.&.w.                                                            ",
"                                              %.f.Y.H.W.G.X.k.` ) f :.4 >.,.>.,.r.                                              ",
"                                          *.s I.W.R.K.Q.W.W.L.R.W.W.W.Y.U. .j r w 8                                             ",
"                                        >.i.v.T.W.Q.Q.H.W.W.Q.H.R.W.A.] Z.H.G S M e *.                                          ",
"                                    &.6.f.Y.W.T.R.T.H.Q.H.Q.L.W.W.H.L v b } A.D N l 9                                           ",
"                                  %.7.U.T.T.T.R.R.T.L.L.R.T.L.J.K.Z.n v v b D.m.N N I O.                                        ",
"                                ;.0.Y.T.H.Q.J.W.H.T.J.W.T.T.T.L.Q.} v v v v ] D.D N l 4 $.                                      ",
"                            *.:.k.Y.T.W.J.L.L.L.Q.T.R.T.T.W.T.Q.W.A.n v v v L G.N.N N U 4                                       ",
"                          &.8.k.W.W.Q.L.J.Q.L.J.R.T.R.T.W.W.Y.D.Y.T.N.H b M } T.F./ N x w $.                                    ",
"                        #.7.G.W.T.T.H.T.W.H.T.L.W.T.T.T.T.W.Z.b ( T.T.Y.F.F.R.T.J.F.S N m 5                                     ",
"                          $.U.H.T.T.T.K.H.K.H.Q.R.T.T.R.T.W.' m M Q.R.T.T.T.T.T.T.T.( N S e @.                                  ",
"                          #.i.Y.T.T.T.T.Q.J.Q.Q.T.T.T.W.T.R.} n ] R.T.T.T.T.T.T.R.T.F.N N m 3                                   ",
"                            $.d.W.R.J.L.L.T.H.Q.W.H.Q.J.J.L.W.H.Q.H.N.N.T.T.T.T.H.Q.R.[ N N m O.                                ",
"                              6.U.T.K.Q.J.K.L.L.J.W.L.L.W.Q.H.T.Q.} b F T.T.T.T.Q.J.Q.F.G N N 7 &.                              ",
"                              $.p.Y.Q.H.R.K.R.H.L.J.W.R.R.T.Y.P.K.N.n L T.T.T.T.Q.L.W.Q.V.N N j O.                              ",
"                                ;.g.W.R.K.J.L.Q.Q.H.R.R.W.x.8.8 k.Y.G.H.T.W.R.T.R.Q.H.R.N.N N b 7 O.                            ",
"                                &.:.Y.R.H.Q.K.J.R.T.Y.k.8.O.&.w.;.I.W.W.T.T.R.T.T.T.T.A.G S S P O.                              ",
"                                  &.p.T.T.T.W.K.U.s.:.@.      O.t.G.W.L.T.T.T.T.T.T.H.D N N k 2                                 ",
"                                    :.U.Q.T.U.d.8.&.      1.:.a.U.W.W.L.T.T.T.R.R.R.M.N N m 0 O.                                ",
"                                    &.q.k.y.:.&.        ;.q.P.W.W.W.Q.W.R.T.R.W.R.F.S N N e ;.                                  ",
"                                      @.$.;.        *.>.a.E.R.W.W.T.T.Q.T.R.T.R.G.K S S j 6 -.&.&.                              ",
"                                                  $.y.P.H.K.J.L.T.T.R.W.T.W.T.T.[ N S M 7 u.X O o T $.+.                        ",
"                                                *.p.W.W.Q.W.J.Q.T.T.T.W.R.R.T.T.F.( S M ^ ; > > > > & T +.                      ",
"                                                *.d.W.W.L.L.W.H.T.T.T.W.R.R.W.T.T.H.[ S B # : > > : : & %.                      ",
"                                                O.f.K.T.L.Q.J.W.R.W.R.W.R.T.T.W.T.R.T.C.G V ~ , > > > > + O.                    ",
"                                                O.j.J.J.J.H.W.J.T.R.R.Q.T.R.T.R.T.T.T.R.S.G N ~ , > : : o O.                    ",
"                                                O.l.R.W.W.J.Q.L.T.T.W.Q.W.R.R.T.T.R.R.T.T.F.G N S @ > > + +.                    ",
"                                                O.z.R.W.W.W.H.T.T.R.R.H.R.T.T.T.T.T.T.T.T.Y./ N S @ : - 5                       ",
"                                                O.f.U.T.W.K.W.K.H.W.J.R.T.J.W.T.T.T.T.T.R.G./ S S C & R O.                      ",
"                                                  ;.6.0.j.P.E.L.Q.J.W.L.T.T.T.T.T.R.R.T.R.Y./ N N N p 2                         ",
"                                          *.*.        &.$.s d.c.W.W.L.L.L.Q.R.W.T.T.T.T.R.Y./ N N O & W $.                      ",
"                                        ;.d.0.@.            &.O.;.p.k.Y.J.H.W.J.T.T.R.T.R.T./ N N Z = : % %.                    ",
"                                      ;.g.J.Y.s #.                @.;.P.W.K.K.T.T.W.R.T.T.T./ N S C : > > o &.                  ",
"                                    :.l.Y.Q.L.U.0.>.                :.P.W.K.R.T.T.R.T.T.T.T.( N S C > > > - 3.                  ",
"                                $.,.x.W.R.W.Q.H.E.p.:.              :.U.K.} G.K.R.R.R.T.W.Y.[ N S C : > > : 4.                  ",
"                                :.f.J.W.H.J.L.Q.W.U.0.+.        2.>.s U.N.b ] K.T.W.T.T.W.T.[ N S C : > > = i                   ",
"                            #.:.z.W.W.K.Q.J.W.J.K.R.Y.d.=.;.;.t.` P.E.H.H v b D.T.R.W.R.T.T.{ N S A ; > : & %.                  ",
"                          :.:.x.T.R.W.J.L.L.H.W.J.W.T.T.g.l.E.R.W.W.K.G.F v F G.W.W.F.G.T.T.M.N N A = > < i &.                  ",
"                          :.c.Y.T.R.Q.L.J.W.Q.L.W.J.H.R.K.H.Q.H.W.K.L.H.L n Z.W.T.A.b H S.T.M.N S A * $ 4.+.                    ",
"                          :.P.T.T.T.H.T.W.J.W.J.J.L.Q.K.Q.K.L.Q.W.Q.K.T.H.A.W.W.Y.' v M } T.M.N S N p $.<.                      ",
"                          O.0.P.R.R.R.R.T.H.W.H.Q.W.J.W.T.T.T.H.T.T.R.R.T.R.T.R.S.H v M } T.N.N S V X %.                        ",
"                            +.:.P.R.W.R.L.Q.J.W.L.J.W.R.R.W.R.T.T.R.T.R.T.Z.V.G.W.V.b ] Y.T.{ N N V , $ O.                      ",
"                              &.8.c.T.R.J.R.H.J.Q.H.R.T.T.R.R.T.T.R.T.Y.] v v ' W.T.W.T.R.V.B S N n.: = 3.                      ",
"                                $.6.I.T.W.W.Q.L.L.W.J.T.T.T.T.T.R.W.T.Z.b v M n Y.T.R.R.C.B N N n., > : u.O.                    ",
"                                    7.I.W.W.H.K.J.W.Q.L.J.W.R.Q.T.T.R.' v v v v S.T.T.V.D N N n.: > > > R O.                    ",
"                                    O.q.I.K.K.W.W.J.H.K.H.R.L.Q.T.R.T.L v v v n F.T.Y.S S N A , : > : > y                       ",
"                                      O.7.U.W.W.J.H.Q.J.Q.J.W.H.T.T.T.] v v v H Y.H.A S N Z 1 : > > ; O O.                      ",
"                                        +.0.U.K.W.T.L.Q.L.L.R.T.T.T.T.F.H v n A.F.K S S V , > : > < W %.                        ",
"                                          O.s P.Y.T.T.T.R.L.W.W.T.T.T.W.H.A.G.G./ N N c u R X X E 5.&.                          ",
"                                            O.:.d d Q _ | l.S.Y.Y.T.W.T.T.T.Y.[ S N M 4 1.e.*.*.*.                              ",
"                                                1.&.>.>.>.=.;.2 9 a 8.g ) _ Y j c m t &.                                        ",
"                                                                        1.w.>.;.O.O.$.                                          ",
"                                                                                                                                ",
"                                                                                                                                ",
"                                                                                                                                ",
"                                                                                                                                "
};
