/* XPM */
static char *out[] = {
/* columns rows colors chars-per-pixel */
"64 64 168 2 ",
"   c None",
".  c #657D3D",
"X  c #6B7D3C",
"o  c #717B3C",
"O  c #7A793C",
"+  c #6E7E40",
"@  c #86763B",
"#  c #8C753B",
"$  c #81783D",
"%  c #95743C",
"&  c #9C723C",
"*  c #A76F37",
"=  c #AC6E3C",
"-  c #B36D37",
";  c #B46B39",
":  c #AB7436",
">  c #AE763A",
",  c #AF7D38",
"<  c #B17438",
"1  c #B17A38",
"2  c #08863E",
"3  c #0B8D3F",
"4  c #1C8F35",
"5  c #128E3C",
"6  c #1B8D3C",
"7  c #0E903B",
"8  c #03923D",
"9  c #169033",
"0  c #1D9036",
"q  c #13913C",
"w  c #1D903B",
"e  c #25902E",
"r  c #2B912E",
"t  c #369127",
"y  c #3B9026",
"u  c #349029",
"i  c #3C932C",
"p  c #248F34",
"a  c #2E893F",
"s  c #31863D",
"d  c #3F853F",
"f  c #239133",
"g  c #2F9130",
"h  c #22973F",
"j  c #2D963A",
"k  c #24993E",
"l  c #29993C",
"z  c #3C9A35",
"x  c #339739",
"c  c #339D3E",
"v  c #3FA03F",
"b  c #5C8F16",
"n  c #528F1C",
"m  c #4C911E",
"M  c #5C9115",
"N  c #51901C",
"B  c #638F13",
"V  c #649013",
"C  c #6A9317",
"Z  c #6D961A",
"A  c #6D991D",
"S  c #70971B",
"D  c #729A1E",
"F  c #439123",
"G  c #4D9021",
"H  c #49972D",
"J  c #41843F",
"K  c #4C823E",
"L  c #58803E",
"P  c #439C36",
"I  c #4C9F36",
"U  c #539D32",
"Y  c #759D21",
"T  c #789E21",
"R  c #6C9A32",
"E  c #42A23E",
"W  c #4CA43C",
"Q  c #57A035",
"!  c #5AA132",
"~  c #50A63B",
"^  c #5DAA3E",
"/  c #7CA325",
"(  c #7DA329",
")  c #62A431",
"_  c #6CA731",
"`  c #67A73A",
"'  c #62A93C",
"]  c #77A934",
"[  c #7EAC37",
"{  c #74AE3D",
"}  c #7DB03E",
"|  c #058E42",
" . c #0C8D43",
".. c #0D8D49",
"X. c #128B44",
"o. c #198B42",
"O. c #1B864E",
"+. c #138E4A",
"@. c #1A8C4D",
"#. c #039041",
"$. c #0B9144",
"%. c #0D914A",
"&. c #159145",
"*. c #1A9345",
"=. c #15914C",
"-. c #1A924D",
";. c #1C9451",
":. c #1B9952",
">. c #228742",
",. c #218A43",
"<. c #288842",
"1. c #348642",
"2. c #3F8342",
"3. c #2D9C42",
"4. c #248D54",
"5. c #2B975B",
"6. c #299C5C",
"7. c #229353",
"8. c #3AA242",
"9. c #45A743",
"0. c #49A643",
"q. c #4DA843",
"w. c #53A943",
"e. c #5CAC42",
"r. c #64AF44",
"t. c #6BAF42",
"y. c #64B046",
"u. c #6CB144",
"i. c #66B048",
"p. c #6BB148",
"a. c #74B546",
"s. c #7BB643",
"d. c #70B448",
"f. c #AD873B",
"g. c #AB8C3B",
"h. c #AA973E",
"j. c #AA9B3E",
"k. c #82A62B",
"l. c #84AA2D",
"z. c #8AAF2F",
"x. c #87AD31",
"c. c #8AAE32",
"v. c #87B037",
"b. c #8DB134",
"n. c #8DB43B",
"m. c #86B83E",
"M. c #92B537",
"N. c #94B63A",
"B. c #95B93C",
"V. c #9BBC3D",
"C. c #A8A03F",
"Z. c #A0BF3F",
"A. c #9EC03F",
"S. c #8C9B40",
"D. c #AC9D41",
"F. c #A29A42",
"G. c #83B746",
"H. c #88B740",
"J. c #82B945",
"K. c #8CBB43",
"L. c #93BD44",
"P. c #9FBF41",
"I. c #A6A540",
"U. c #A6AC42",
"Y. c #A3B642",
"T. c #A0BF42",
"R. c #9EC041",
"E. c #A0C043",
/* pixels */
"                                                                                                                                ",
"                                                                                                                                ",
"                                                                                                                                ",
"                                                                                                                                ",
"                                                                                                                                ",
"                                                                                                                                ",
"                                        4.X.X.X.X.O.                                                                            ",
"                                      o.2.O # # o K o.$.7.-.@.=.                                                                ",
"                                    =.X = - ; ; ; : R U H i g f f 9 5 7 | 7 $.$.%.+.....o.                                      ",
"                                  4.<.; ; ; ; ; - h.E.V.P.E.T.L.B.n.n.v.[ ] _ ) Q I i u r 3                                     ",
"                                  ... ; ; ; ; - h.Z.Z.T.P.P.P.R.R.P.P.R.P.P.P.P.R.R.l.V V p                                     ",
"                                   .o ; ; ; ; - I.Z.E.V.P.P.P.P.P.P.P.P.P.P.V.M.V.A.z.V V r                                     ",
"                                   .. ; ; ; ; F.T.T.P.P.P.P.P.P.P.P.P.P.P.R./ V / V.b.V B t =.                                  ",
"                                  6.1.; ; ; ; Y.T.T.P.P.E.T.P.P.P.P.P.P.T.V.V V V ( P.B V F  .                                  ",
"                              X.X.>.6 # ; ; D.P.T.P.P.P.P.P.E.E.P.P.P.P.P.c.V B B V l.B V m 3                                   ",
"                          @.s O = ; = * ; f.P.T.P.P.P.P.P.T.E.L.P.P.P.T.T.c.V V V V A A M n 5                                   ",
"                          ,.% ; ; ; ; ; - C.R.E.T.T.E.E.L.E.T.T.P.P.P.P.E.B.C V B B Y Y V b q                                   ",
"                        ..X ; ; ; ; - ; g.T.Z.R.E.T.T.T.T.E.E.T.P.P.N.( B.R.M.( Y / n./ B M 0                                   ",
"                        | % ; ; ; ; ; < U.P.P.R.P.P.P.P.T.P.T.T.P.P.Y B / P.T.P.T.T.R.l.B B p %.                                ",
"                        3 & ; ; ; ; ; j.T.P.P.T.P.P.P.P.R.T.E.P.P.P.C B Y P.T.T.P.P.A.c.B B r +.                                ",
"                         .$ ; ; ; ; > T.T.P.P.T.P.T.P.P.P.P.P.P.P.R.n.x.N.R.L.R.R.R.R.M.B B u 3                                 ",
"                        @.K ; ; ; ; I.P.T.P.P.P.P.R.P.P.P.P.P.P.P.P.R.L.P.B.Y l.L.E.A.V.B B y 3                                 ",
"                      X. .X.# ; ; D.T.P.P.P.P.P.P.T.P.P.P.P.P.P.P.P.E.E.P.k.V S B.P.A.E.V B m 3                                 ",
"                  ..s X O o K # ; I.T.P.P.P.P.P.P.P.P.T.R.P.R.R.P.P.P.T.P.B.Z l.V.T.P.P.D B N w                                 ",
"                +.L = ; ; ; - # S.T.T.T.P.P.P.P.P.P.P.P.A.E.A.H.G.T.Z.T.P.P.P.R.P.P.P.P.( B b 6                                 ",
"                >.= ; ; ; ; ; 1 Y.T.T.T.P.P.P.T.P.P.P.P.E.A.L.3.r.E.Z.T.P.P.P.T.P.P.P.P.c.V B f 4.                              ",
"              O.J ; ; ; ; ; - j.P.P.R.T.P.P.P.P.P.T.P.P.R.L.w.$.e.P.P.A.T.R.P.P.P.P.P.P.N.B B u ..                              ",
"              O.J ; ; ; - ; g.T.P.R.R.R.P.P.P.P.P.P.P.P.R.w.-.&.q.T.V.E.P.P.P.T.P.P.P.P.N.C B F  .                              ",
"                <.; ; ; ; ; C.R.P.n.P.P.P.P.P.P.P.P.P.V.G.*.  @.9.T.P.P.P.P.P.P.P.P.P.P.B.Z V G ..                              ",
"                X.@ ; ; ; g.T.A.c.B Z T.P.P.P.P.P.P.P.L.3.    7.8.R.R.P.P.P.P.P.P.P.P.P.V.S B b ..                              ",
"                  o.$ ; > Y.A.R.( B B B.P.T.T.P.P.P.K.l | %. .$.3.R.P.P.P.R.P.P.P.P.P.A.A.Y B M 5 =.=.;.:.6.6.6.-...            ",
"                  X.,.+ F.R.A.A.T B V V.P.L.N.N.P.P.L.u.r.r.r.r.a.E.P.T.P.T.P.P.P.P.P.R.A.z./ / Q W P P z z x j f 0 w $.        ",
"                      *.G.E.Z.A.k.B l.P.P.b.B C M.E.R.P.T.T.T.P.P.V.P.V.E.T.E.T.T.T.T.R.R.R.E.R.T.P.T.P.V.P.P.B.A b m #.        ",
"                      &.J.V.T.P.L.k.P.P.P.T B B l.E.P.T.R.R.P.P.A.E.Z.T.A.T.P.P.P.E.E.P.R.P.E.L.E.P.R.P.R.T.V.V.Z B m $.        ",
"                      X.s.A.T.Z.T.T.T.T.P.D B B l.P.P.P.T.P.P.P.Z.V.E.Z.P.T.P.T.P.P.P.P.P.P.P.P.E.V.P.P.Z.Z.V.V.Z B N #.        ",
"                      5 s.A.Z.T.P.c.k.L.P.x.C Y P.P.P.P.P.P.P.T.T.T.E.A.P.P.P.R.P.P.P.P.P.P.P.P.A.P.R.P.Z.Z.A.V.Z B m #.        ",
"                      q s.E.A.A.l.C C T L.Y.N.L.P.P.P.P.P.P.P.R.P.P.P.P.P.P.P.P.T.R.P.P.P.P.P.P.T.T.T.P.P.P.E.V.Z V N #.        ",
"                       .a.T.Z.M.C B B B v.P.T.T.P.P.P.P.P.P.P.P.P.P.P.P.P.P.P.P.P.P.T.P.T.P.P.P.P.E.P.P.R.P.V.V.Z V m #.        ",
"                       .a.E.Z.l.V B B B k.T.P.P.P.P.P.P.P.P.E.T.P.P.P.T.P.P.P.R.P.P.P.P.P.P.T.T.P.P.P.P.T.P.P.V.S B G #.        ",
"                      $.a.V.P.k.V B B B v.P.P.P.P.P.P.P.T.P.P.T.E.T.R.P.T.P.P.T.P.P.P.P.P.P.T.T.P.P.P.P.P.P.P.V.Z V N #.        ",
"                      +.p.E.A.z.V B B C N.T.T.Z.V.E.A.Z.T.Z.A.Z.P.P.P.P.P.P.P.T.R.T.P.P.P.P.P.V.A.E.Z.Z.A.E.A.V.Z V n |         ",
"                      =.u.R.V.V.T V C x.V.T.V.P.P.T.T.A.P.Z.E.V.P.P.P.P.P.P.P.P.P.P.P.P.P.P.P.P.E.V.P.E.T.V.P.V.Z V n 8         ",
"                      =.p.R.E.Z.P.M.N.P.Z.T.E.E.R.P.P.P.P.A.T.R.R.T.P.P.P.P.P.T.P.P.P.P.T.T.P.P.Z.T.V.E.T.A.V.V.S V m |         ",
"                      =.i.E.E.E.P.T.T.T.E.T.A.E.T.T.P.P.T.T.T.T.E.R.R.P.P.P.P.P.P.P.P.P.T.T.V.T.Z.Z.T.T.T.E.R.V.A M m 8         ",
"                      +.8.e.e.e.e.e.e.e.e.e.e.e.e.e.e.e.e.e.e.e.e.K.P.P.P.P.P.P.R.T.P.P.P.P.L.c.l.` ~ 9.8.c 3.h 5 5 3 ..        ",
"                        +...%.%... ..... ...+. .............+.+.%.t.P.P.P.R.P.P.P.P.P.P.T.R.k.B V r | 2  .                      ",
"                                                                ;.y.P.P.P.R.T.P.P.P.R.P.R.P.n.B B y +.                          ",
"                                                                =.r.P.P.P.A.P.P.T.P.T.P.T.P.N.C B F *.                          ",
"                                                                =.y.T.T.P.E.P.P.P.P.T.P.T.Z.N.S B n *.                          ",
"                                                                -.^ R.R.V.R.P.P.P.P.P.P.T.A.V.D B M w                           ",
"                                                                -.^ E.T.E.A.T.P.P.P.P.P.E.V.A.k.B M w                           ",
"                                                                ..e.T.Z.A.E.R.T.R.P.E.T.E.E.A.l.B V p                           ",
"                                                                | e.T.V.A.A.T.T.T.P.P.P.E.E.A.b.B V t @.                        ",
"                                                                  w.T.T.E.V.T.E.P.P.P.P.V.Z.A.B.B V y +.                        ",
"                                                                  w.E.T.Z.T.T.A.P.P.T.R.Z.T.A.L.V V F =.                        ",
"                                                                  q.R.T.T.Z.A.E.V.T.P.P.Z.A.E.R.C B n 5                         ",
"                                                                  q.E.Z.V.Z.T.Z.E.P.R.R.T.T.R.R.A b n 5                         ",
"                                                                  0.E.L.E.A.V.T.R.R.L.H.{ ' W z f 4 q  .                        ",
"                                                                  9.} { ^ ~ E c k q 7 3 +.;.=.=.-.6.                            ",
"                                                                   ... .=.;.@.                                                  ",
"                                                                                                                                ",
"                                                                                                                                ",
"                                                                                                                                ",
"                                                                                                                                "
};
