/* XPM */
static char *out[] = {
/* columns rows colors chars-per-pixel */
"64 64 175 2 ",
"   c None",
".  c #657D3E",
"X  c #6B7C3F",
"o  c #717A3F",
"O  c #7D783D",
"+  c #687D40",
"@  c #757C40",
"#  c #85763D",
"$  c #8C753E",
"%  c #80783B",
"&  c #95743B",
"*  c #9B733C",
"=  c #AC6E37",
"-  c #AB6E3A",
";  c #B46C37",
":  c #B46B38",
">  c #AA7335",
",  c #AA7B37",
"<  c #A2713C",
"1  c #088438",
"2  c #0B8E3E",
"3  c #178F36",
"4  c #1F8F32",
"5  c #138D3D",
"6  c #198E3B",
"7  c #0E903F",
"8  c #169037",
"9  c #1C9035",
"0  c #14923E",
"q  c #1B943D",
"w  c #1B983F",
"e  c #2E8F2E",
"r  c #27912F",
"t  c #2B902C",
"y  c #339127",
"u  c #3A9027",
"i  c #32902B",
"p  c #399029",
"a  c #248F31",
"s  c #29893E",
"d  c #23883C",
"f  c #37863F",
"g  c #259133",
"h  c #2D9332",
"j  c #20963D",
"k  c #289739",
"l  c #22993F",
"z  c #2A9D3F",
"x  c #329935",
"c  c #3C9A35",
"v  c #349E3F",
"b  c #3DA33F",
"n  c #5A870F",
"m  c #5D8C13",
"M  c #598F1A",
"N  c #4D911D",
"B  c #579116",
"V  c #5D9014",
"C  c #52901C",
"Z  c #5D9118",
"A  c #648F0F",
"S  c #62900F",
"D  c #638F13",
"F  c #649013",
"G  c #699316",
"H  c #6B9619",
"J  c #6F991C",
"K  c #72991E",
"L  c #458F24",
"P  c #439023",
"I  c #4C9221",
"U  c #4B823E",
"Y  c #4D9F36",
"T  c #479B34",
"R  c #509C3F",
"E  c #549F35",
"W  c #769E22",
"Q  c #42A23B",
"!  c #4DA43C",
"~  c #57A539",
"^  c #74A126",
"/  c #7BA225",
"(  c #7DA328",
")  c #60A639",
"_  c #6AA738",
"`  c #6CAD3C",
"'  c #6FAB36",
"]  c #79AE3B",
"[  c #75B13F",
"{  c #088746",
"}  c #068C42",
"|  c #0C8C44",
" . c #0F8749",
".. c #068E49",
"X. c #0C8C49",
"o. c #128545",
"O. c #128C45",
"+. c #1A8A45",
"@. c #16864A",
"#. c #138C4A",
"$. c #198B4B",
"%. c #079046",
"&. c #0C9145",
"*. c #0A9149",
"=. c #139143",
"-. c #1B9443",
";. c #1E9842",
":. c #13914B",
">. c #1C924F",
",. c #188C51",
"<. c #159352",
"1. c #1B9352",
"2. c #278740",
"3. c #258942",
"4. c #2D8841",
"5. c #208B4E",
"6. c #318740",
"7. c #3B8540",
"8. c #209742",
"9. c #259A42",
"0. c #2B9A43",
"q. c #329F46",
"w. c #389D40",
"e. c #36A045",
"r. c #3BA143",
"t. c #2D9B60",
"y. c #428140",
"u. c #44A542",
"i. c #4BA743",
"p. c #4DA943",
"a. c #53AA43",
"s. c #5BAC43",
"d. c #5EA559",
"f. c #65AF43",
"g. c #6DAF42",
"h. c #76A640",
"j. c #66B046",
"k. c #6CB243",
"l. c #73B444",
"z. c #7BB543",
"x. c #62A65B",
"c. c #66A85D",
"v. c #6CAA5C",
"b. c #73AA5A",
"n. c #828039",
"m. c #A98237",
"M. c #AB8238",
"N. c #A68C3A",
"B. c #AA893B",
"V. c #A59339",
"C. c #A49B3A",
"Z. c #81A72B",
"A. c #85AA2D",
"S. c #80A426",
"D. c #87AC30",
"F. c #8AAF32",
"G. c #92A43C",
"H. c #8DB234",
"J. c #82B53E",
"K. c #8BB63C",
"L. c #91B537",
"P. c #92B539",
"I. c #95B93C",
"U. c #9CBD3E",
"Y. c #9CB63E",
"T. c #9FC03F",
"R. c #83B643",
"E. c #84B944",
"W. c #8CBB43",
"Q. c #94BD44",
"!. c #9FBF41",
"~. c #A0BE41",
"^. c #97C047",
"/. c #9EC041",
"(. c #A0C042",
/* pixels */
"                                                                                                                                ",
"                                                                                                                                ",
"                                                                              O.$.$.$.                                          ",
"                                                        @.| 4.f 4.}       $.s @ $ # . | o.                                      ",
"                                        o.O.| o.      @.s $ - : = % +.$.>.s < ; : : : # 6                                       ",
"                                    5.4.U < - # 4.:.1.4.< : : : ; ; & 6.6.* : : : : : : $ +.                                    ",
"                                    +.< : : : ; < 7.5 # : : : : : : : O o : : : : : : : : .                                     ",
"                                  :.U : : : : ; : # 6.- : : : : : : : = - : : : : : : = < . #.                                  ",
"                                  *.# ; ; ; ; ; : - + - : : : : : ; : : : : : : : : : : : % X.%...%.%.7 O.                      ",
"                        O.:.:.:.:.7 & ; ; > = > , - n., - M.M.M.M.B.B.B.B.V.V.V.V.C.C.C.C.G.` k.I N N i &.                      ",
"                        0 z.J.R.K.K.Y.~.~.~.~.~.~.!.(./.(.(.~.^.!././.~.~.(.~.~.(.(.^.(.!.!.!.U.S F F r |                       ",
"                        0 /.~.~.~.~.~.(.U.~.~.U.!.!.(.~.~.(.!.!.!.!.!.~.~.~.(.^.~.~.~.~.!.!.!.P.F D m a X.                      ",
"                        0 /.(.(.!.!.!.U.~./.~.(.!.!.!.!.~.!.!.!.!.~.!.~.^.~.!.~.~.(.~.~.(.~.!.A.D D B 5                         ",
"                        } ^././.!.!.!.!.!.~.~.~.!.!.!.!.(.~.!.!.!.!.!.!.(.~.!.!.!.!.^.!.~.~.!.^ D D N O.                        ",
"                        2 Q.(.!.(.~.(.~.!.!.~.^.!.!.!.!.(.~.~.!.!.~.!.!.~.~.!.!.~.!.!.!.(.!.I.K F F N X.                        ",
"                        2 Q.~.~.~.~.~.^.~.!.~.!.!.!.!.~.~.~.^.!.!./.!.!.~.(.!.!.!.!.!.!.~.!.H.G D F r O.                        ",
"                        2 W.~.~.U.(.!.~.!.!.!.!.!.!.!.!.!.!.!.!.!.~.!.(.!.!.~./.!.!./.~.!.!.D.D D V a                           ",
"                        &.E.(.T.~.T.!.!.!.!.!.!.!.!.!.!.^.~.!.!.!.!.!.~.~.!.!.~./.!.~.~.!.~.W D D B 6                           ",
"                        %.R./.T.T.T.~.!./.~.!.!.!.~.!.!.~.~.~.!.!.!.(.T./.!.T.~.~.!.(.T.~.!.J D D N =.                          ",
"                        } R./.T.~.T.(.!.!.!./.~./.!.!.!.~.(.(.~.!.!.U.!.!.~.(.U.!.!.U.T.~.I.G D D L =.                          ",
"                        ..z.~.~.!.!.!.!.~.!.!.!.!.!.!.!.~.~.U.~.(./.(./.~.!./.!.!.~./.T.~.L.D D F r :.                          ",
"                        ..z.T.T.!.!.!.!.!.!.!.!.!.!.!.!.!.(.~.!./.~./.~.~.~.~.!.!.!.T.(.~.D.D D D 3                             ",
"                        %.k.~.~.!.!.!.!.~.~.~.^./.U.D.Z.A.h.x.d.x.x.x.c.x.c.c.v.v.v.v.b.v.i.y y i }                             ",
"                        *.k.~.(.~.!.~.~.Q.W !.^.^.!.K F D L 5 { o.O.#.#.X.@.@.| | X.X.1.$.| #.o.o.$.                            ",
"                        &.j./.U.!.!.!.~.S.D W ~././.W D D C 5 }                                                                 ",
"                        | s./.(.!.!.!.!.K D D ~.~.!.F.( / ^ ~ E Y T c c x h g g 9 0 &.                                          ",
"                        X.s.!.!.~.!.!.Q.K D W !.(.Y.A.H.!.U.U.U.I.U.P.I.K.K.^ Z B N t O.#.                                      ",
"                        | s.!.!.Y.!.~.~.( W Q.~.U./ F F P.!.!.!.U.(.!.U./.T./.L./ G S N t 0 =.                                  ",
"                        X.! !.!.~.~.U.(.U.U.!.!.L.J F F F.!.!.!.(.T.!./.~.T.T./.U.D.K S V P 8 O.                                ",
"                        | p./.!.T.U.~./.!.!.~.~.L.H F A L.!.!.!.~.U.~.~.U.(.(.U.~.~.T.F.J F Z P 8 #.                            ",
"                          9.^.!.~.(.U.(.P.W W P./.H.^ H./.!.!.!.(.!.!.!.~./.T.~.T.T.T.~.U.L.J D F P 9 |                         ",
"                          =.z./.~.T.(.I.W F G / /.!.U.U.!.!.!.!.!.!.!.!.!.~.~.T.U.T.~.~.~.U.P.A.H D N h 0 O.                    ",
"                            0.z.!./.!./ G D A G /.!.!./.!.!.!.~.!.!.!.!.!.~./.!.!.!.~.!.!./.~.~.Q.Z.H D C y 5                   ",
"                            | a.!.T./.H D D G D !.!.~.~.!.~././.!.~.!.!.!.!./.~./.~.!.!.!.~.~.(.~.~.F.D D D a {                 ",
"                              -.E.~.!.D D D D H /.!.!.!.!.!.~.~.!./.~.!.!.!.!.~.!.!.!.!.!.~.U.A.H.!.L.D D A g |                 ",
"                                r.!.~.W D D F Z.!.!.~./.(./.T.(./.~.!.!.!.!.!.!.!.!.!.!././.D.D F ( L.D D A r X.                ",
"                                -.z./.I./ H K I.!.!.!.!.!.U.(.T.U.~.(.U.!.!.~./.!.~.!.!.!.!.W D D G W D D D g |                 ",
"                                  9.!.U.T.I.T.T.!.!.!.!.!.!.U.(.T.T.~.!.!.!.~.!.!././.~.!.Q.H G F D D m F D h X.                ",
"                                  | f./.!.!.~.~.T.~.~.~.!././.~.(.~./.T.~.~.!.!.!.~.!.!.!.I.H D F D n n F F g |                 ",
"                                    -.s.s.s.a.a.p.i.i.u.u.b b r.r.e.p.W./.!.T.!.!.!.!.!.^.!.Z.D D D m M F F g O.                ",
"                                    @...} | { { X.<.$.#.X.#.o.#.    | w.Q.~./.~.!.!./.W W !.!.!./ / ( D D S g #.                ",
"                                                                      | r.E./.!.!.!.I.F D F.!.Q.~.~.L.D D F g #.                ",
"                                    ;.0.-.O.                            &.b /.~.!.!.P.G G H.~.~.~./.H.D D D g X.                ",
"                                  | s.W.k.e.=.|                         ;.z./.~.!.!.!.H.F.!.~.Q.~.~.H.D D D g :.                ",
"                                  9.!.!./.T.!.l.r.-.:.1.O.          $.-.z.(.(.T.U.!.!.!.!.Q.K D H.!.H.D D D g $.                ",
"                                =.k.U./.U.(.!.!.!.^.f.v z 9.9.l ;.w q j.(.(.(.U.!.!.!.~.~.I.G D A./.H.D D D g *.                ",
"                                w.!.(.~.~.(.!.!.T.T./././.Q.Q.Q.Q.W.W.U./.!.!.~./.!.!.!.~.!.Z.( U./.H.D D D g :.                ",
"                              =.l.!.(.U.T.U./.U.!.!.!.(./.(.T.~.T./.~.~.!.!.!.T.!.!.!.!.~.!.!.!.U.!.H.D D D 9 #.                ",
"                            #.0.Q.T.~.~.~.T.~.~.T.T.T.T.U.(.T.~.~.T.(.U.~.(.~./.!.!.!.!.!.!.!.!.!.~.D.F D m 8                   ",
"                            =.k.~.~.~.T.T.U.(.T.~.U.~.~.!.!.~.T.~.~.T.!.~.T.U.!.!.!.!.!.!.!.!.!.U.U.K F A y }                   ",
"                          #.u.!.T.~.(.U.T.T.~.U.!.!.T.~.!.~./.~.T.!.!.!.T.~.!.!.!.!.!.!.!.!.!.!.T./ D S M 5                     ",
"                          =.E.!.~.~.T.!.~.~.T.~.!.!.(.~./.~.!.!.!.~.!.!.~./.!.!.!.!.!.!.!.!.!.!.L.F F V e |                     ",
"                        #.r./././.!.U.!.~.T.U.!.!.!.(.!.!.!.~.!.!.!.!.!.(.~.~.~.!.!.~.!.T.~.~.!.K F F p #.                      ",
"                        1 9.z.Q./.T.(.(.U.~.(.!.U.~.~.~.!.!.(.(.!.!.!.!.T.T.~././.!.!.!.~.~.!.H.F F Z 3 #.                      ",
"                            | ;.s.^.~.~.T.T.!.!.(.T.~.(.U.~.~.U.~.T.!.~.~.U.!.!.!.!.!.!.~.U.L.H F D y }                         ",
"                                X.O.s.Q./.~.!.!.T.~.U.T.(.T.T.~.~.(.U./.(.(.U.~.!.!.!./.~.U.W D D N O.                          ",
"                                    O.9.i.R.!.!.~.T.(.(.T.~.U.T.T.~.U.!.~.U.(.U.!.Q.K.K.J.' I P u a O.                          ",
"                                        | 0 u.W.T.(.U.(.~.T.(././.^.Q.K.] _ ~ T x k j 0 2 | O.:.$.#.                            ",
"                                            O.=.! l.] ' ) ! Q x k 8 0 2 | :.>.#.:.1.t.                                          ",
"                                                ,.| } | :.>.>.                                                                  ",
"                                                                                                                                ",
"                                                                                                                                ",
"                                                                                                                                ",
"                                                                                                                                "
};
