/* XPM */
static char *out[] = {
/* columns rows colors chars-per-pixel */
"64 64 189 2 ",
"   c None",
".  c #537D0F",
"X  c #5F7E3C",
"o  c #647D3E",
"O  c #6C7C3D",
"+  c #787739",
"@  c #737A3D",
"#  c #617C40",
"$  c #84773B",
"%  c #8D743B",
"&  c #81793C",
"*  c #94743B",
"=  c #9E723B",
"-  c #AD6E3A",
";  c #AA6F39",
":  c #B36C37",
">  c #B46B38",
",  c #B96838",
"<  c #AF7936",
"1  c #A1713B",
"2  c #AD7339",
"3  c #B1753A",
"4  c #B17637",
"5  c #0D8E3F",
"6  c #138E3B",
"7  c #1A8F34",
"8  c #0D903F",
"9  c #1B9235",
"0  c #16903B",
"q  c #1D913D",
"w  c #1F9A3E",
"e  c #288E2E",
"r  c #398F28",
"t  c #3A8F27",
"y  c #2B902D",
"u  c #379127",
"i  c #3B9127",
"p  c #33902A",
"a  c #3A912A",
"s  c #208F34",
"d  c #26883F",
"f  c #32863F",
"g  c #38863F",
"h  c #229335",
"j  c #21913D",
"k  c #2A983A",
"l  c #3F9C37",
"z  c #4F8F1F",
"x  c #5C8F16",
"c  c #548F1B",
"v  c #598915",
"b  c #4C911E",
"n  c #47901E",
"m  c #5D9115",
"M  c #54901A",
"N  c #589118",
"B  c #648F0F",
"V  c #648F13",
"C  c #6B8F14",
"Z  c #639113",
"A  c #699316",
"S  c #6B9519",
"D  c #6E991B",
"F  c #67951F",
"G  c #7B9316",
"H  c #70971B",
"J  c #7B961A",
"K  c #729B1E",
"L  c #709014",
"P  c #4B8E23",
"I  c #449023",
"U  c #4A9223",
"Y  c #43962B",
"T  c #5E9E2D",
"R  c #4B813F",
"E  c #53813E",
"W  c #489338",
"Q  c #54993A",
"!  c #669B24",
"~  c #769D22",
"^  c #789E24",
"/  c #63803C",
"(  c #669E3D",
")  c #6C9F3F",
"_  c #709F3E",
"`  c #4BA53E",
"'  c #5EA739",
"]  c #6BA22B",
"[  c #76A024",
"{  c #7CA226",
"}  c #7DA528",
"|  c #7BAB2E",
" . c #68A938",
".. c #76B43F",
"X. c #0D8D43",
"o. c #0D8E49",
"O. c #0A8843",
"+. c #138646",
"@. c #138C44",
"#. c #1B8943",
"$. c #128C4B",
"%. c #198D4C",
"&. c #0C9041",
"*. c #0A9146",
"=. c #149342",
"-. c #1B9443",
";. c #15914C",
":. c #1A934B",
">. c #1C9847",
",. c #1B8D53",
"<. c #159251",
"1. c #1B9253",
"2. c #238843",
"3. c #3A8642",
"4. c #2E9C42",
"5. c #229742",
"6. c #319D40",
"7. c #269656",
"8. c #409F40",
"9. c #5B9A40",
"0. c #6B9F41",
"q. c #719E42",
"w. c #42A341",
"e. c #4CA842",
"r. c #49A542",
"t. c #55AA43",
"y. c #58A843",
"u. c #66AE43",
"i. c #6AA043",
"p. c #7CB541",
"a. c #74B347",
"s. c #84961A",
"d. c #819213",
"f. c #9C981C",
"g. c #8A9C21",
"h. c #88963B",
"j. c #A09D21",
"k. c #AC8339",
"l. c #AB943D",
"z. c #A99D3F",
"x. c #A7963F",
"c. c #81A629",
"v. c #84AA2D",
"b. c #89AC2F",
"n. c #84AC31",
"m. c #89AE32",
"M. c #8EB235",
"N. c #8FB63B",
"B. c #8BB83F",
"V. c #92B436",
"C. c #94B739",
"Z. c #96B93C",
"A. c #9BBB3E",
"S. c #A8A52A",
"D. c #B2A329",
"F. c #A8A83E",
"G. c #A0BF3F",
"H. c #A3B03F",
"J. c #BEB539",
"K. c #C2A52C",
"L. c #CAA72F",
"P. c #CEAB32",
"I. c #D7AA32",
"U. c #E3AC36",
"Y. c #EAAD36",
"T. c #EDAF3A",
"R. c #FCAF3B",
"E. c #E7B137",
"W. c #F4B23C",
"Q. c #FBB03A",
"!. c #FAB137",
"~. c #9FC03F",
"^. c #A0C13F",
"/. c #A99F40",
"(. c #83B642",
"). c #85B943",
"_. c #8CB942",
"`. c #87B748",
"'. c #89B747",
"]. c #94BD43",
"[. c #9FBF41",
"{. c #A4AE42",
"}. c #A3B343",
"|. c #A0BE42",
" X c #E4BE44",
".X c #F7BB42",
"XX c #9EC041",
"oX c #99C149",
"OX c #A0C042",
/* pixels */
"                                                                                                                                ",
"                                                                                                                                ",
"                                                                                                                                ",
"                                                                                                                                ",
"                                                                                                                                ",
"                                                                                                                                ",
"                                                                                                                                ",
"                                                                                                                                ",
"                                                                        ;.1.X.<.;.                                              ",
"                                    1.@.#.#.;.,.        7.:.;.;.=.-.4.r.t.' T U p h 6 @.<.;.                                    ",
"                                ,.#.@ = - - & 3.%.=.=.w k e.u.).oXoX[.[.|.|.|.|.C.b.[ T Y y 9 0 @.1.7.                          ",
"                                @.$ > > > > > ; / 8.).].[.XXOX|.|.[.[.[.|.|.oXOX^.|.G.A.C.V.| ] U i y &.                        ",
"                              %.E > > > > > > , k.].|.|.A.|.G.A.|.[.OX^.OXG.A.OXG.A.^.OXG.A.^.C.V V c X.                        ",
"                              X.$ > > > > > > < }.V.[.|.[.[.|.G.[.[.A.[.A.[.[.G.^.OXOXA.OXOXA.{ Z B u o.                        ",
"                              @.@ > > > > > < }.m.V ~ |.[.[.G.G.A.OX^.|.OXOX~.XX^.[.[.[.^.A.A.D V x 7                           ",
"                                f > > > > 4 {.[.{ Z V |.[.|.|.|.OXOX[.[.OXOXOX[.|.[.OX[.G.|.V.V V U 6                           ",
"                                X.o : > 3 /.[.[.~ V V ].|.|.Z.].XX[.OXOX[.[.[.[.[.[.|.XXA.XXc.Z V y o.                          ",
"                              $.*.X.# 1 /.[.[.[.~ V } [.|.V.S S A.[.|.OX[.[.[.|.[.[.[.[.OX~.H Z m 6                             ",
"                          @.d o % * % h.[.[.[.[.N.} [.[.[.~ V V c.|.A.OX[.[.^.G.XX|.[.[.^.C.A V M X.                            ",
"                        %.E ; > > > z.|.[.[.[.[.[.[.[.[.].D V V { |.[.[.XX|.OXOX[.[.^.~.^.c.V Z p $.                            ",
"                        #.1 > > , k.}.|.[.[.[.[.[.A.C.[.[.~ Z A M.[.[.A.XXG.G.A.[.[.~.[.A.H Z B 9                               ",
"                      1.R > > > > /.oX[.[.[.[.[.n.F A c.A.].M.C.A.[.OX_.XX|.~.XX[.G.OXA.V.V Z M X.                              ",
"                      @.o > > > > F.[.[.[.[.[.].S Z Z A V.|.[.n.H | ..4.t.).oX[.[.[.OXOXc.Z V t X.                              ",
"                      @.E : > > > }.[.[.[.[.[.} V V V Z m.Z.{ Z x e X.  O.X.5.t._.[.XX~.D V x 9                                 ",
"                        2.- > : 2 |.|.|.|.[.[.! V V V V c.D V c 0 o.          o.&.6.a._.V V b X.                                ",
"                        @.O : > < |.[.|.[.[.[.^ V C V v V x I 6 O.                @.=.5.y z p @.                                ",
"                      +.o.=.+ > k.|.[.[.[.[.[._.S V V . V c 6                           %.5 X.                                  ",
"                    o.3.o % = : l.|.[.[.[.[.[.|.N.^ ^ V Z n 8                                                                   ",
"                  @.E ; > > > : F.OX[.[.[.|.[.[.}.[.m.C V t X.                                                                  ",
"                  3.* > > > > : F.XX[.[.[.[.[.[.[.|.m.! A Y -.-.>.>.-.>.>.>.:.:.:.=.;.;.$.                                      ",
"                ;.@ > > > > > 3 }.|.[.[.[.[.[.[.[.OX[.].Z.]._._.B.B.B.p.(.(.p.p.p.' z U y *.                                    ",
"                o.& > > > > > < G.|.[.[.[.[.[.[.[.[.[.[.|.|.|.[.[.[.[.XX[.XXXXXXA.C.A Z b &.                                    ",
"                $.@ > > > : > < }.G.^.|.[.[.~ A n.[.G.G.[.G.[.[.A.XXA.OX^.|.~.A.^.OXc.Z B i X.                                  ",
"                  3.1 > > > > k.XX|.[.OX[.C.x Z A M.G.XXA.[.~.[.A.[.[.[.OXG.^.OXOXA.A.~ V Z h %.                                ",
"                  @.O > > > : l.oXOXA.OX[.| V V V A V.|.OXOX[.[.XX|.~.[.XX[.|.^.G.|.oXZ.Z V n 6                                 ",
"                    2.# > > > l.OX^.|.|.].^ V V V Z c.XX|.OX|.XXXXXX[.[.|.[.[.[.G.G.|.OX{ V m y @.                              ",
"                      @.3.$ ; x.XXXX^.[.[.n.V Z Z V c.G.XX|.[.[.|.XX[.|.[.[.[.OX[.XX|.OXC.Z V V 6                               ",
"                          X.@.t.|.XXM.b.[.[.n.K D K C.[.|.XX[.[.[.[.[.[.[.[.[.[.[.[.[.A.~.M.A m P o.                            ",
"                            1.e.[.[.H A M.[.[.C.C.Z.|.[.OX|.|.|.[.[.XX[.[.XX[.[.XX|.OXA.~.A.~ V m 9 ;.                          ",
"                            ,.e.^.A.Z Z c.XX|.|.[.[.[.|.OX^.A.^.[.[.|.[.[.|.[.[.|.OXOX~.OXXXV.V V n 0                           ",
"                            1.e.^.[.~ D M.|.[.[.[.[.[.[.[.[.A.OXXX[.[.A.[.[.~.XXXXOX[.[.G.A.A.S x m q                           ",
"                            1.e.A.[.G.XX[.C.{ m.[.[.[.[.[.[.|.|.[.XXXX~.~.[.[.A.~.[.[.[.|.G.A.D Z m j                           ",
"                            1.e.OXXXG.OXZ.~ Z D [.[.^.|.Z.c.A | t.k t.`.XXXXA.[.^.|.[.[.A.|.Z.D Z x j                           ",
"                            1.e.^.OXA.OX].} S { [.[.[.{ D x i 0 o.1.@.>.` [.OXG.OX|.oX|.|.G.Z.S m m j                           ",
"                            1.e.OX[.[.[.[.[.C.[.|.|.OXV V c q         :.` [.OXG.~.[.[.|.oXG.Z.A V x q                           ",
"                            1.e.XX[.[.[.[.[.[.[.|.oXXXA V N 0         *.p.|.^.OXXX|.[.XX|.G.C.S Z N q                           ",
"                            1.e.^.[.[.[.[.[.[.[.[.[.XXA V x 9 o.;.1.1.:.oX|.G.A.~.[.[.|.|.[.C.A Z M q                           ",
"                            1.e.~.[.[.[.[.[.[.[.[.XXXX~ K D l 4.4.4.4.r.oXG.G.[.XX|.[.[.[.[.C.D Z x q                           ",
"                            1.e.~.XXG.^.OX|.[.[.[.[.[.[.^.[.oXXXXXXXXXXX|.[.^.OXOX[.XX|.[.XXC.A V M q                           ",
"                            1.e.^.XXA.OXOXA.|.XX[.OX[.[.OXOXG.~.XXXXXXOX~.G.OXA.XX[.[.[.XXXXC.A Z M q                           ",
"                            1.e.^.OXA.~.^.A.OX|.[.[.[.|.|.A.OXA.XX~.OXOXA.OX|.[.|.XX[.[.|.A.C.A V M q                           ",
"                            <.e.^.OXOX|.OXG.OX^.[.[.[.~.G.^.OXXXA.[.A.^.|.^.XX[.[.[.G.^.OXOXC.A V c -.                          ",
"                            %.4.).A.XXOXOXA.G.OX[.[.[.[.|.[.OX|.XX|.XX|.|.XX|.[.|.[.[.|.^.~.v.Z x u @.                          ",
"                              X.w `.XXXXOX[.G.OXG.[.G.|.[.[.OXOXoXOX[.[.XXOX[.[.XX[.OXA.A.M.A B I X.                            ",
"                                @.-.).OX^.OX[.A.A.A.^.|.oXG.G.C.v.} c.A.XXXXXXXX~.^.^.^.b.Z Z I 5                               ",
"                                    =.y.A.|.G.[.XXM.H A H b.V.Z L g.G A Z.v.S A D v.[.b.B m u X.                                ",
"                                      -.u.[.|.[.V.A s.J.D.s.K G P. XI.J [ D s.S.G A { A V I 6                                   ",
"                                        =.8.].G.K J E..XQ.j.V P.Q.Q.Q.K.Z j..X.XU.s.Z Z u 5                                     ",
"                                          X.e.B.A K.!.!.Q.P.G R.Q.Q.Q.Y.C I.Q.Q.R.D.Z n 5                                       ",
"                                            o.9 F Y.Q.Q.Q.L.f.Q.Q.Q.Q.T.d.Y..XQ.R.P.i 8                                         ",
"                                              +.j ( i.0.0.Q W 0.0.0.0.( r 0.q._ q.9.@.                                          ",
"                                                                                                                                ",
"                                                                                                                                ",
"                                                                                                                                "
};
