/* XPM */
static char *out[] = {
/* columns rows colors chars-per-pixel */
"64 64 153 2 ",
"   c None",
".  c #3E6C06",
"X  c #42700B",
"o  c #4D7A0C",
"O  c #577F3B",
"+  c #5B7E3D",
"@  c #667D3E",
"#  c #6D7C3F",
"$  c #757A3B",
"%  c #797A3B",
"&  c #83773C",
"*  c #8E753B",
"=  c #94753C",
"-  c #9C713B",
";  c #9B7E3A",
":  c #AC6E39",
">  c #B26C37",
",  c #B46B39",
"<  c #A6713B",
"1  c #AF7538",
"2  c #AE7C3B",
"3  c #B17439",
"4  c #B07E3C",
"5  c #0D8D3D",
"6  c #168E33",
"7  c #128F3D",
"8  c #08913F",
"9  c #1E9134",
"0  c #17933D",
"q  c #1B903D",
"w  c #308F2E",
"e  c #388F28",
"r  c #2B912E",
"t  c #3A9026",
"y  c #32912A",
"u  c #399028",
"i  c #228E34",
"p  c #2B8E31",
"a  c #24873F",
"s  c #2F873F",
"d  c #32873E",
"f  c #3A843D",
"g  c #239230",
"h  c #269A3F",
"j  c #299B3E",
"k  c #5B8711",
"l  c #5D8F16",
"z  c #518F1C",
"x  c #5A8F1B",
"c  c #46911F",
"v  c #4E901D",
"b  c #559016",
"n  c #5F9114",
"m  c #54901A",
"M  c #5E9019",
"N  c #638F13",
"B  c #639114",
"V  c #699316",
"C  c #6C961A",
"Z  c #6F991D",
"A  c #739B1D",
"S  c #438F22",
"D  c #508D20",
"F  c #469021",
"G  c #489020",
"H  c #44833F",
"J  c #4C813E",
"K  c #56803E",
"L  c #649E29",
"P  c #759D21",
"I  c #799F23",
"U  c #7B873E",
"Y  c #4FA034",
"T  c #4DA13C",
"R  c #76A123",
"E  c #7BA225",
"W  c #7EA428",
"Q  c #6FB23F",
"!  c #0B8742",
"~  c #078C44",
"^  c #0C8C44",
"/  c #0F8749",
"(  c #0D8E4A",
")  c #138D45",
"_  c #1C8D45",
"`  c #17874B",
"'  c #148D4A",
"]  c #1B8D4C",
"[  c #0D9043",
"{  c #139143",
"}  c #1B9445",
"|  c #14924B",
" . c #1A934E",
".. c #198750",
"X. c #1C8D55",
"o. c #139152",
"O. c #1B9352",
"+. c #2F8641",
"@. c #238942",
"#. c #2C8841",
"$. c #378542",
"%. c #3F8441",
"&. c #239742",
"*. c #259943",
"=. c #2B9B44",
"-. c #369E42",
";. c #258E52",
":. c #229554",
">. c #259758",
",. c #229958",
"<. c #34A142",
"1. c #3BA343",
"2. c #458340",
"3. c #42A443",
"4. c #4CA743",
"5. c #52A740",
"6. c #53A943",
"7. c #5BAC43",
"8. c #65A743",
"9. c #63AE43",
"0. c #6FAF44",
"q. c #62AE48",
"w. c #67B143",
"e. c #6BB143",
"r. c #74B443",
"t. c #7BB543",
"y. c #AF833D",
"u. c #AD8B3C",
"i. c #AB933D",
"p. c #81A52A",
"a. c #84AA2D",
"s. c #87AD30",
"d. c #8AAE32",
"f. c #8DB134",
"g. c #91B437",
"h. c #93B639",
"j. c #97B93C",
"k. c #9ABC3E",
"l. c #A0BF3F",
"z. c #9EC03F",
"x. c #989C41",
"c. c #80B743",
"v. c #85B942",
"b. c #8CBB44",
"n. c #8ABD49",
"m. c #94BD43",
"M. c #9FBF41",
"N. c #91BF49",
"B. c #A1BF42",
"V. c #8DC048",
"C. c #9EC042",
"Z. c #90C049",
"A. c #A0C043",
/* pixels */
"                                                                                                                                ",
"                                                                                                                                ",
"                                                                                                                                ",
"                                          ..X.              ;.O.X.                                                              ",
"                                      ) @.2.2.] )       ) a J K $.'           | |  .                                            ",
"                                    @.* : , , < + ) >.) # , , , , * @.^   ' +.@ & $ d )                                         ",
"                                  ] % , , , , , : 2.) 2.: , , , , > & @.] #.= , > : - s )                                       ",
"                                ' 2., , , , , , , - J < , , , , > , , K ) * , , , , , = d                                       ",
"              ;.O.,.,.,.O.>.:.:.] $ , , , , , , : , * : , , , , , , , & %.: , , , , , : K )                                     ",
"              ^ q.e.e.w.9.7.w.T 8.x.i.i.i.i.u.i.u.u.y.y.y.y.y.y.2 2 2 ; U 3 3 3 3 3 3 , % ) ) { | |  . .                        ",
"              ( r.A.A.A.C.A.A.C.C.C.C.C.A.C.C.C.A.A.C.C.M.M.M.B.A.A.A.A.M.B.B.B.B.B.B.B.M.Z.V.V.L m v u (                       ",
"              ) 7.A.B.B.l.z.A.A.M.M.C.C.A.A.B.M.A.A.M.C.C.M.M.A.A.k.M.A.M.B.B.M.B.M.M.B.C.C.C.C.C B N S ^                       ",
"              O.3.l.l.A.z.B.k.A.M.M.M.M.M.M.M.M.C.M.C.B.B.N.B.B.A.B.M.M.M.M.M.M.B.l.k.B.l.B.z.C.B N N y '                       ",
"                =.A.A.l.l.z.l.l.M.M.M.M.B.M.M.C.B.M.M.M.B.M.A.B.A.B.M.M.B.C.B.M.k.k.B.l.B.k.C.k.B N l g                         ",
"                0 Z.A.k.l.A.C.A.M.B.M.M.M.M.M.B.M.M.M.M.B.A.M.M.B.M.M.M.M.M.M.M.A V g.l.B.l.l.f.B N m 0                         ",
"                ) b.A.l.l.k.C.B.A.B.M.M.M.M.M.M.M.M.M.M.M.M.M.M.M.M.M.M.M.M.M.m.C N p.B.k.A.l.a.N N v 5                         ",
"                ( r.M.k.M.M.l.M.M.M.M.M.M.B.M.M.M.M.M.M.M.M.M.M.M.M.M.B.M.M.B.h.V B R M.M.h.a.P B N c (                         ",
"                ' 7.M.M.A.k.z.A.M.M.M.M.M.C.M.M.M.M.M.M.B.M.M.B.M.M.M.M.M.M.M.m.V N d.B.M.I N o l N e ^                         ",
"                  3.m.M.z.l.B.A.M.M.M.M.M.M.M.M.C.B.M.M.M.M.M.M.M.M.M.M.M.M.M.M.s.s.B.A.j.V N X k B p |                         ",
"                  h b.z.l.C.k.A.B.M.M.M.M.M.M.M.M.M.M.M.C.M.M.M.M.M.M.M.M.M.M.M.M.M.B.B.j.V l . k n i `                         ",
"                  { t.C.k.z.l.A.M.M.C.B.M.M.B.C.B.M.M.M.A.A.A.C.M.M.B.B.M.M.B.M.M.m.h.M.M.W V o n l q                           ",
"                  ( w.k.A.B.z.A.M.M.M.M.M.M.B.M.C.A.M.M.l.A.k.C.M.M.M.B.M.M.M.M.g.C B p.m.M.d.N N b {                           ",
"                  ~ 4.M.l.l.M.k.M.M.M.M.C.M.M.M.A.l.l.z.k.A.z.C.M.M.M.M.M.M.M.M.P B N B d.M.s.N N v [                           ",
"                  ' -.C.C.A.M.M.M.B.M.M.M.M.M.M.l.A.k.A.l.l.C.C.M.M.M.M.M.M.M.g.B N N N W M.W N N c [                           ",
"                    *.m.M.C.B.M.M.M.M.M.C.l.C.l.M.M.M.M.l.l.A.C.M.M.M.M.M.M.M.d.N N N N p.M.I N N u |                           ",
"                    } v.M.M.M.M.M.M.M.M.z.C.C.l.M.M.C.M.Z.j.h.v.c.r.t.M.M.M.M.f.N V N N s.h.C N N p                             ",
"                    ) t.M.B.z.C.C.C.C.C.C.b.v.r.e.w.6.4.1.<.=.*._ [ T M.k.A.M.j.C N N C h.g.B N N i                             ",
"                    ^ 3.7.6.3.1.=.*.} { 8 [ [ ( o.O.O.o.          { n.M.A.C.M.A.j.a.p.j.M.s.N N z q                             ",
"                      ( / ^ ' `                                   =.A.k.l.l.C.A.A.z.B.M.l.p.N N G )                             ",
"                                                                | 9.C.A.A.l.B.C.C.A.M.M.l.I N B u {                             ",
"                                                                ) b.C.C.B.z.M.M.A.C.l.l.z.A N B r {                             ",
"                                                                =.C.B.A.k.C.B.C.l.l.l.l.k.V N B 9 )                             ",
"                                                              ~ 9.B.A.l.z.z.B.a.C d.M.M.m.B N N 7                               ",
"                                                              5 b.C.l.l.l.z.M.C B B s.M.h.B N l ^                               ",
"                                                            ' 1.B.M.M.A.M.k.s.V N N V f.d.N N x {                               ",
"                                                            { r.C.B.M.k.M.M.a.N N N N P I N N S (                               ",
"                                                            =.m.M.l.B.B.M.B.d.V B N B Z C N N t (                               ",
"                                                          ( 6.M.M.B.k.B.M.M.C.f.Z V C d.C N N r                                 ",
"                                                          [ r.z.M.k.M.m.I I M.M.j.h.g.g.C N N 9                                 ",
"                                                          j m.l.z.A.B.g.B N m.M.l.A.A.d.V N n 7                                 ",
"                                                        ' 5.B.z.l.M.k.f.N N h.B.B.B.B.a.N N l ^                                 ",
"                                                        } n.C.l.M.l.l.M.f.b.B.m.a.j.B.I N N m ~                                 ",
"                                                        1.C.A.l.A.k.k.A.M.M.M.I B R M.A l N F (                                 ",
"                                                      ( e.k.k.A.l.B.A.A.M.M.M.R N I M.V N N u '                                 ",
"                                                      ) m.l.l.l.l.l.M.M.M.M.C.m.f.k.k.B N n r                                   ",
"                                                    ) <.A.z.A.A.z.A.M.M.M.B.M.M.A.l.h.N B b 9                                   ",
"                                                    } e.C.l.l.k.z.M.M.M.C.M.M.M.C.l.d.N N v 0                                   ",
"                                                    =.m.k.B.z.A.B.M.M.M.M.M.M.B.B.z.a.N N c 5                                   ",
"                                                  ' 7.B.A.k.A.l.M.M.M.M.M.M.M.M.M.M.E N N u (                                   ",
"                                                  { t.M.z.l.l.l.M.B.C.M.B.M.M.C.M.M.P N N w ^                                   ",
"                                                  *.M.M.l.A.l.z.M.M.M.M.M.M.M.B.M.M.B N N i ^                                   ",
"                                                ) 6.M.M.A.k.M.l.M.M.M.M.M.M.M.A.M.k.N N n q                                     ",
"                                                { t.M.M.M.k.l.A.M.M.M.M.C.B.M.A.M.f.N N b 0                                     ",
"                                              O.h M.M.M.l.A.l.A.M.M.M.M.A.A.k.A.M.a.N l z 7                                     ",
"                                              ) 7.B.A.M.l.z.l.k.M.M.M.M.l.l.l.C.M.P N N G ^                                     ",
"                                              ! w.b.M.M.A.l.C.l.M.M.C.B.A.k.M.B.j.C N N u ~                                     ",
"                                              ^ } *.1.7.t.b.M.C.M.M.C.B.M.M.M.M.j.V B N r )                                     ",
"                                                      ` | } =.3.9.c.m.C.M.M.M.M.h.B B B i                                       ",
"                                                            | { ) } <.6.r.m.C.M.f.N B l 9                                       ",
"                                                                      ' { ^ &.1.Y z M D }                                       ",
"                                                                              ` ^ 8 5 6 (                                       ",
"                                                                                      '                                         ",
"                                                                                                                                ",
"                                                                                                                                "
};
