/* XPM */
static char *out[] = {
/* columns rows colors chars-per-pixel */
"64 64 169 2 ",
"   c None",
".  c #5E7E3E",
"X  c #677C35",
"o  c #6A7D3D",
"O  c #727A3D",
"+  c #7C793B",
"@  c #85773C",
"#  c #8C753C",
"$  c #80783A",
"%  c #95733C",
"&  c #9A723A",
"*  c #AE6F34",
"=  c #AD6E3A",
"-  c #B46C37",
";  c #B46B38",
":  c #B86A38",
">  c #AC7335",
",  c #A37A32",
"<  c #A6703B",
"1  c #AB7039",
"2  c #AF7839",
"3  c #B37239",
"4  c #0C8C3F",
"5  c #158F37",
"6  c #1E8F35",
"7  c #138D3D",
"8  c #1C8C3D",
"9  c #0E913C",
"0  c #1B9236",
"q  c #13913E",
"w  c #1B923D",
"e  c #2E8F2B",
"r  c #328F2B",
"t  c #23902F",
"y  c #2C912D",
"u  c #3D9126",
"i  c #34912C",
"p  c #399029",
"a  c #228F34",
"s  c #35843E",
"d  c #249131",
"f  c #289131",
"g  c #20923F",
"h  c #23983E",
"j  c #3F9731",
"k  c #3A9F3F",
"l  c #568F17",
"z  c #5E8F16",
"x  c #47901D",
"c  c #4C901D",
"v  c #5E9014",
"b  c #54901B",
"n  c #5B9119",
"m  c #648F0F",
"M  c #63900E",
"N  c #638F13",
"B  c #649013",
"V  c #699317",
"C  c #649419",
"Z  c #6C9619",
"A  c #6F991C",
"S  c #729B1E",
"D  c #439022",
"F  c #499122",
"G  c #4B992D",
"H  c #579423",
"J  c #44823F",
"K  c #4D823E",
"L  c #51813F",
"P  c #5B803F",
"I  c #769E21",
"U  c #799F23",
"Y  c #6D8034",
"T  c #4BA53E",
"R  c #4EA83E",
"E  c #76A122",
"W  c #7BA225",
"Q  c #7EA428",
"!  c #7DA238",
"~  c #7EAB33",
"^  c #0C8747",
"/  c #078B43",
"(  c #0D8C44",
")  c #0E8C49",
"_  c #138C45",
"`  c #1B8F42",
"'  c #128C4A",
"]  c #1A8E4C",
"[  c #13834D",
"{  c #039244",
"}  c #0C9143",
"|  c #019449",
" . c #0A924C",
".. c #129144",
"X. c #1A9545",
"o. c #1C9943",
"O. c #14924B",
"+. c #1B914C",
"@. c #1B9151",
"#. c #1A9A55",
"$. c #2D8741",
"%. c #248A44",
"&. c #2E8940",
"*. c #368542",
"=. c #358841",
"-. c #229643",
";. c #249943",
":. c #2C9B44",
">. c #329D43",
",. c #278B55",
"<. c #219254",
"1. c #2EA042",
"2. c #3CA142",
"3. c #34A165",
"4. c #408442",
"5. c #588040",
"6. c #45A441",
"7. c #4CA542",
"8. c #50A644",
"9. c #56A944",
"0. c #59AA43",
"q. c #5FB043",
"w. c #64AE43",
"e. c #68A941",
"r. c #65B040",
"t. c #6DB243",
"y. c #79B643",
"u. c #73B443",
"i. c #4BAA75",
"p. c #888F2D",
"a. c #9C842F",
"s. c #8F972E",
"d. c #909E2F",
"f. c #978830",
"g. c #9C8932",
"h. c #999034",
"j. c #949833",
"k. c #A28132",
"l. c #AD803A",
"z. c #A9893B",
"x. c #AC933F",
"c. c #81A62A",
"v. c #85AA2D",
"b. c #89AE2F",
"n. c #80A424",
"m. c #86AC31",
"M. c #8AAE31",
"N. c #91A538",
"B. c #99AB39",
"V. c #98A335",
"C. c #8DB134",
"Z. c #91B436",
"A. c #93B63A",
"S. c #9AB33B",
"D. c #96B93B",
"F. c #9ABB3D",
"G. c #A8A23E",
"H. c #A0BF3E",
"J. c #9FC03F",
"K. c #82B744",
"L. c #84B944",
"P. c #8BBA43",
"I. c #93BC42",
"U. c #9FBF41",
"Y. c #A7A640",
"T. c #A3B642",
"R. c #A0BF42",
"E. c #9EC041",
"W. c #A0C043",
/* pixels */
"                                                                                                                                ",
"                                                                                                                                ",
"                                                                                                                                ",
"                                                                  ' }  .} ]                                                     ",
"                                                ' ( ( O.        ( *.+ @ O *.(                                                   ",
"                                              _ L + @ O $. .  ' 4.= ; ; ; = K _                                                 ",
"                              ] _ ( '       ( o < ; ; 1 % J O._ % - ; - - ; & *.                                                ",
"                          ] %.K + + P %.+.+.5.; : ; ; ; - < 4.*.* ; ; ; ; ; - O (                                               ",
"                          ..@ = ; : = $ &.%.# ; ; ; ; ; ; ; $ 5.: ; ; ; ; ; : # _                                               ",
"                        ' O : ; : ; - - & P 1 ; ; ; ; ; ; ; = O ; ; ; - ; ; ; % %.                                              ",
"                        ` ; ; ; ; 3 N.d.s.p.f.a.a., < > * * ; o 1 ; - : ; ; ; # +.                                              ",
"                      ] . ; ; ; ; z.U.U.E.E.U.F.F.S.S.S.B.B.j.u.j.h.g.g.k., , Y w ..                                            ",
"                      ] . ; ; - 3 Y.R.U.U.U.U.U.H.U.U.R.U.E.U.R.E.U.W.U.U.I.n.B l u (                                           ",
"                      _ . : : ; l.T.R.R.U.U.U.U.R.U.U.U.U.U.R.R.U.U.U.U.U.U.D.Z N n 7                                           ",
"                        =.; - ; z.R.U.U.c.c.I.U.R.U.U.U.U.U.U.U.R.U.U.U.F.R.H.W N N y '                                         ",
"                        _ & * ; G.U.U.I.A N I U.U.U.U.U.U.U.U.U.E.R.U.U.R.R.E.C.N N x (                                         ",
"                        ' J = 2 T.U.U.U C N C U U.U.U.U.U.U.U.U.R.E.H.W.W.F.H.F.V B v q                                         ",
"                          7 + z.U.E.U.A N N N V C.R.U.U.U.U.U.U.U.H.E.H.W.J.W.W.E N N d }                                       ",
"                            _ e.U.U.R.I N N C N U R.W.F.U.W.R.U.R.F.F.W.W.H.U.F.C.N B F 7                                       ",
"                            q y.H.U.U.C.A C N N M.U.D.U.I.L.I.U.H.W.J.R.R.E.U.R.F.Z B B d                                       ",
"                            2.I.v.S D.R.S.M.v.m.v.I n G 1.X.:.7.L.R.U.U.U.U.U.U.F.W B B u _                                     ",
"                          ' r.F.A N W R.R.R.U.m.N N u { | O.  3.1.E.W.F.U.R.U.U.W.D.B B b _                                     ",
"                          } P.D.Z N U R.U.R.U.m.B N u { | #.  i.:.W.H.W.R.E.E.W.J.J.S B B 6 '                                   ",
"                        ,.;.E.J.D.M.U.U.Z.I.U.Z.E B b f }  .O.;.R E.H.H.U.U.R.E.E.H.v.B B u /                                   ",
"                        ' 7.U.E.F.W.W.c.A n.E.E.F.M.W ~ t.6.0.L.W.W.W.H.E.W.E.H.H.E.D.B B b 5                                   ",
"                        ( 0.U.U.H.W.W.Z N S U.R.U.U.U.E.U.U.W.W.H.H.H.H.W.E.R.E.J.W.F.V N b d                                   ",
"                        ' o.K.E.U.E.J.b.E b.W.U.W.W.U.U.U.R.U.U.W.H.H.W.R.W.F.W.F.E.Q N v r 7                                   ",
"                            _ 7.I.E.J.J.J.U.U.U.W.W.F.U.U.U.U.R.H.W.W.H.U.W.H.W.Z.Z N c t _                                     ",
"                              _ 7.P.E.U.U.U.U.U.H.U.R.U.U.U.U.E.U.U.U.U.U.U.U.C.B M c 7 (                                       ",
"                                _ :.K.W.U.U.U.R.U.U.E.U.U.U.R.U.U.U.U.R.U.U.Q V v p 0                                           ",
"                                  +.w L.R.J.U.U.U.U.U.U.R.U.U.U.U.U.U.U.R.C.B B F { '                                           ",
"                                  / 2.E.U.U.U.U.U.U.U.R.U.U.U.U.U.R.U.U.R.E.m.V v x 4 '                                         ",
"                              ' o.w.E.U.U.U.U.U.U.U.U.U.U.U.U.U.U.U.R.R.R.R.I.I.S M l 0 }                                       ",
"                            _ ;.L.H.E.U.U.U.U.U.U.U.U.U.U.R.U.U.U.U.R.R.R.W.U.R.D.S M n y (                                     ",
"                          ..7.P.H.R.R.U.R.U.R.U.R.E.R.U.E.R.U.U.U.R.W.R.U.U.U.U.U.F.Q B v r q '                                 ",
"                       ./ r.U.U.F.U.U.U.U.U.U.U.U.R.U.U.U.U.U.U.U.R.U.U.U.R.U.U.J.E.J.c.B B x 9 ..                              ",
"                    _ ;.y.E.W.R.W.H.J.W.R.U.U.U.U.R.R.R.E.R.U.R.E.U.U.U.U.U.U.R.U.R.H.H.Z.V m c q _                             ",
"                    ..y.E.J.H.E.H.W.W.F.R.R.U.U.U.R.W.R.U.U.U.U.R.R.U.U.U.U.U.U.U.H.J.U.F.I N m t (                             ",
"                    X.K.J.J.F.U.W.H.H.J.R.R.R.R.U.U.U.U.U.U.E.J.U.U.U.U.U.U.U.U.W.E.H.H.H.E N B y ..                            ",
"                    X.L.W.H.W.U.J.W.n.S P.I.R.R.U.U.U.U.R.U.H.W.U.U.U.U.R.U.U.U.E.W.E.W.H.W N M y O.                            ",
"                    X.P.E.W.R.H.J.A.N B E R.R.R.U.U.U.U.U.U.H.E.U.U.U.U.J.J.R.W.W.R.U.U.J.W B N i O.                            ",
"                    -.P.R.U.H.R.W.c.V B S F.R.R.U.U.U.U.I.U.I.I.U.E.R.R.W.H.F.W.H.E.R.U.J.c.B N p O.                            ",
"                    :.I.R.F.W.H.U.b.B B E U.R.W.U.A.E B H T q ..9.P.R.U.W.H.H.W.R.E.U.U.J.v.N N u O.                            ",
"                    :.E.R.D.S v.F.F.c.c.S.U.R.F.I B l y ( { {   ' -.7.I.F.J.W.H.U.U.U.U.E.v.N N D ..                            ",
"                  @.:.I.R.v.N C F.R.R.R.E.R.W.I.B N F q | |  .      X.P.H.W.F.W.U.R.E.R.E.C.N N x q                             ",
"                  @.>.E.U.I B B A.U.U.W.E.E.E.S.N B b } / |  .      o.I.E.H.W.E.U.U.U.U.I.C.N N x 4                             ",
"                  ) 2.E.U.U N S I.R.E.R.U.U.E.I.C B b 0 { |  .<.@.} >.I.H.F.W.H.U.U.U.U.R.C.N N x q                             ",
"                  ( 2.E.E.m.S M.R.R.S.A.I.U.U.U.A.Q A b i h } } ;.0.L.U.E.R.H.W.U.U.U.R.E.A.N N b w                             ",
"                  / 7.E.F.J.F.J.E.Z.Z C I F.U.U.U.U.I.Z.I.I.u.y.I.W.U.U.U.U.R.U.U.U.U.U.U.Z.B z b g                             ",
"                  / 9.R.W.J.E.E.D.S N B B C.U.U.R.U.R.R.U.U.R.U.W.W.F.U.U.U.U.U.U.U.U.U.U.S.V N l X.                            ",
"                  ( 0.R.J.W.J.E.v.v N B B m.U.U.U.U.R.H.U.U.U.U.H.E.U.U.U.U.U.U.U.U.U.U.U.I.Z N v g                             ",
"                  _ w.R.J.F.E.J.d.B N B B M.U.U.U.U.U.U.U.U.U.U.E.H.U.R.U.U.U.U.U.U.U.U.U.S.Z N v 6                             ",
"                  ..t.J.U.R.F.W.c.B B B B A.E.U.U.U.U.U.U.U.U.R.W.R.U.U.U.U.U.U.U.U.U.U.E.I.I N v a                             ",
"                  4 u.E.H.E.H.W.D.S B B I U.R.U.U.U.R.U.U.U.U.U.U.U.U.U.U.U.R.U.U.U.U.U.E.D.I N z d                             ",
"                  _ y.J.W.H.W.W.R.F.v.v.F.U.U.U.R.U.U.U.U.R.U.U.R.R.U.U.U.U.U.U.U.U.U.U.E.F.E N v y                             ",
"                  ( T I.W.W.F.H.J.W.H.H.W.F.U.R.U.U.U.U.U.U.U.U.U.E.U.U.U.U.R.U.U.U.U.R.E.F.W B N y                             ",
"                    X.k y.R.H.R.W.R.F.W.H.J.J.U.W.E.W.W.W.W.R.R.U.U.W.H.W.U.E.H.E.H.E.J.E.F.W B N y                             ",
"                        q >.L.U.E.W.W.H.H.E.J.H.U.H.H.F.H.W.F.R.U.U.W.F.J.H.U.U.J.E.R.F.C.W C c e w                             ",
"                          ( ;.w.I.W.F.U.U.R.F.W.U.F.W.J.J.F.R.H.U.R.U.U.H.F.F.W.E.J.C.I C x y 7 '                               ",
"                              _ :.r.E.U.J.W.W.H.H.W.H.W.H.W.F.U.U.U.U.U.W.W.W.A.W B b y 8 _                                     ",
"                                  ( 2.P.I.U.U.U.W.U.U.E.U.U.U.U.U.U.U.U.F.b.Z v D 0 _ [                                         ",
"                                    ) h 7.9.0.0.0.0.0.0.0.9.9.0.0.0.0.T G p y 0 _                                               ",
"                                          (   ^ ^ ( ^ ( ) ) ' ' ' ' ' ' ' (                                                     ",
"                                                                                                                                "
};
