/* XPM */
static char *out[] = {
/* columns rows colors chars-per-pixel */
"64 64 171 2 ",
"   c None",
".  c #436E07",
"X  c #467308",
"o  c #4D790B",
"O  c #50780E",
"+  c #637D3D",
"@  c #6E7B3D",
"#  c #7C793D",
"$  c #75793C",
"%  c #8F7C27",
"&  c #937B29",
"*  c #947A27",
"=  c #87773B",
"-  c #8B753C",
";  c #83783C",
":  c #9D7530",
">  c #9C733B",
",  c #94743A",
"<  c #A46F3A",
"1  c #AC6E3B",
"2  c #B46C37",
"3  c #B46B38",
"4  c #A47431",
"5  c #A87133",
"6  c #A77934",
"7  c #A47139",
"8  c #A9703A",
"9  c #B27138",
"0  c #B07C39",
"q  c #0B8C3E",
"w  c #1D8F35",
"e  c #158F3C",
"r  c #1C8D3C",
"t  c #0F923B",
"y  c #139237",
"u  c #13923E",
"i  c #1C933C",
"p  c #1C9035",
"a  c #288F2F",
"s  c #348F2A",
"d  c #2F912C",
"f  c #379126",
"g  c #3C9026",
"h  c #359129",
"j  c #399128",
"k  c #248E34",
"l  c #2E8F30",
"z  c #2B873F",
"x  c #29893E",
"c  c #37853F",
"v  c #3C833E",
"b  c #239132",
"n  c #2A9333",
"m  c #22963E",
"M  c #24993F",
"N  c #339E3F",
"B  c #389F3D",
"V  c #418F1F",
"C  c #4C8F1E",
"Z  c #5F8A12",
"A  c #558F1A",
"S  c #5B8F18",
"D  c #4E901E",
"F  c #5B9017",
"G  c #52901A",
"H  c #64900F",
"J  c #638F13",
"K  c #6C8C15",
"L  c #6D8B1B",
"P  c #7B851E",
"I  c #639013",
"U  c #699316",
"Y  c #649318",
"T  c #6B951A",
"R  c #6F9A1C",
"E  c #719A1D",
"W  c #4B8F20",
"Q  c #439122",
"!  c #47833F",
"~  c #49823E",
"^  c #5A803E",
"/  c #54803C",
"(  c #788520",
")  c #759D21",
"_  c #799F23",
"`  c #49A53F",
"'  c #59AC3F",
"]  c #76A022",
"[  c #7BA224",
"{  c #7DA529",
"}  c #77AA33",
"|  c #0E8746",
" . c #068C45",
".. c #0C8C44",
"X. c #0C8D49",
"o. c #128745",
"O. c #138D44",
"+. c #1B8C47",
"@. c #11864A",
"#. c #138C4A",
"$. c #1A8C4C",
"%. c #059244",
"&. c #099244",
"*. c #0D904A",
"=. c #149244",
"-. c #1C9443",
";. c #14914B",
":. c #1A924D",
">. c #159650",
",. c #1D9453",
"<. c #248742",
"1. c #2D8641",
"2. c #228A43",
"3. c #298A45",
"4. c #338742",
"5. c #3A8541",
"6. c #209745",
"7. c #279B45",
"8. c #2B9C43",
"9. c #229648",
"0. c #339D42",
"q. c #3B9E41",
"w. c #2A8E57",
"e. c #278D55",
"r. c #269358",
"t. c #2D975E",
"y. c #2A9355",
"u. c #33A041",
"i. c #3EA143",
"p. c #5A8041",
"a. c #44A342",
"s. c #4DA742",
"d. c #50A742",
"f. c #55AA43",
"g. c #5AAC42",
"h. c #63AF44",
"j. c #68AF44",
"k. c #6CB144",
"l. c #73B343",
"z. c #7BB544",
"x. c #848220",
"c. c #898024",
"v. c #AC8638",
"b. c #AB8B3A",
"n. c #A89D3F",
"m. c #81A62A",
"M. c #84AA2D",
"N. c #88AE2F",
"B. c #86AD31",
"V. c #8AAD32",
"C. c #8EB235",
"Z. c #8FB639",
"A. c #91B437",
"S. c #93B53A",
"D. c #96B93D",
"F. c #9BBD3E",
"G. c #AAA23F",
"H. c #A5AD3E",
"J. c #A6B03E",
"K. c #A1BF3E",
"L. c #9EC03E",
"P. c #81B743",
"I. c #8AB744",
"U. c #85B943",
"Y. c #8DBB45",
"T. c #95BD44",
"R. c #9FBF41",
"E. c #A0B740",
"W. c #A0BE42",
"Q. c #9DC041",
"!. c #A0C044",
/* pixels */
"                                                                                                                                ",
"                                                                                                                                ",
"                                                                                                                                ",
"                                                                                                                                ",
"                                                          $.:.:.,.                                                              ",
"                                      #.;.#.:.X.      r.+.+ - - + r $.                                                          ",
"                                    +.v + # $ ! +.  y.2.; 1 3 3 3 ; <.o.                                                        ",
"                                  #.^ 1 3 2 3 1 # 2.2.# 2 2 3 3 3 3 - 2.  #.3.5.5.3.#.                                          ",
"                                $.<.1 3 3 3 3 3 3 p.~ 3 3 3 3 3 3 2 3 ! X.x - 8 1 = 4.#.                                        ",
"                                $.@ 3 3 3 3 3 3 3 < > 3 3 6 & ( P 4 3 # 1.< 3 3 3 2 7 <.@.                                      ",
"                                <.> 3 3 3 3 2 3 3 8 b.E.W.R.] Y F K * , - 2 3 3 3 3 2 @ +.                                      ",
"                                v 3 3 3 3 0 b.n.H.R.W.W.Q.T.T.V.T I J P : 3 3 3 3 3 3 > 1.                                      ",
"                            w.:.4.< v.E.E.E.W.R.R.R.R.R.R.R.R.Q.D.E I I K & 2 3 3 2 2 1 c                                       ",
"                          X.8.s.z.E.W.W.E.R.R.W.R.R.R.R.!.W.W.!.L.L.m.U I J x.5 3 3 2 < c                                       ",
"                          7.!.R.W.W.R.R.W.W.R.R.R.R.R.R.R.R.Q.R.R.R.R.D.] J J K & 2 2 = <.                                      ",
"                        #.i.K.Q.W.W.T.V.T.W.R.R.R.R.W.R.R.R.W.W.Q.W.R.!.F.M.U J K % 4 + o.                                      ",
"                        X.g.R.W.R.!.m.J T A.W.W.Q.W.W.R.R.R.R.R.W.Q.R.R.R.R.A.] I I L n u                                       ",
"                        X.j.!.W.F.R.T J J _ T.W.R.R.Q.W.R.R.R.R.R.W.R.R.R.Q.R.F.[ I H Z s X.$.                                  ",
"                        q z.Q.Q.!.D.I I J J E R.R.R.R.R.R.R.R.R.R.R.R.R.R.R.Q.Q.K.A.R J J D k O.                                ",
"                        u Q.Q.Q.K.S.I J J J J R.W.Q.W.R.R.!.R.R.R.R.R.R.R.R.R.R.L.K.F._ I J J s #.                              ",
"                        M Q.K.F.W.T.) Y J J T R.!.R.R.R.L.L.L.!.R.R.Q.R.F.!.!.W.L.!.K.M.I J J D >.                              ",
"                      ;.a.W.D.] V.R.T.V._ { Z.R.Q.Q.R.R.Q.L.W.!.Q.R.R.R.K.!.K.Q.R.F.Q.M.J J J C ;.                              ",
"                      ;.h.Q.{ I ) T.R.W.R.R.R.R.R.B.E Z.R.k.u.k.W.!.R.W.F.!.W.Q.W.L.L.M.J J J C ;.                              ",
"                      =.z.!.] I E S.Q.R.R.R.R.V.T I I D 6. .:.*.` T.K.R.W.Q.W.W.Q.!.Q.{ J J J V X.                              ",
"                      -.I.!.S.m.V.R.D.R.R.R.S.U J J W e %.%.    :.P.R.R.R.R.R.R.R.R.Q.{ J J J V  .                              ",
"                      8.T.Q.K.R.K.D.E E S.K.A.J J J Q q %.%.    =.Y.W.R.W.R.R.R.R.R.Q.{ J J J g  .                              ",
"                      0.R.F.R.L.W.V.J I A.W.C.J I I Q &.%.%.;.,.=.Q.Q.Q.R.R.R.R.W.!.R.{ J J J g ..                              ",
"                      a.Q.R.R.Q.F.D._ m.T.W.D.B.M.M.} g.g.g.g.' j.F.Q.R.R.W.R.R.T.R.R.[ J J J j ..                              ",
"                    ;.d.!.Q.R.F.!.K.Q.Q.R.R.R.R.!.F.!.!.!.K.!.W.W.R.R.R.R.W.R.R.R.R.Q.) J I I h  .                              ",
"                      -.l.W.Q.Q.R.L.L.R.R.R.R.R.!.!.Q.K.W.L.K.!.Q.K.R.R.R.Q.Q.W.R.R.Q._ J Z J h ..                              ",
"                        i z.K.Q.R.K.K.R.R.!.!.R.K.F.!.F.Q.!.K.K.F.!.W.R.Q.R.W.R.R.R.Q.) J J J s *.                              ",
"                        | i Q.Q.F.!.Q.K.R.F.K.R.R.R.K.!.W.F.!.F.!.K.Q.W.W.R.R.R.R.R.Q.) Z J J d :.                              ",
"                          o.8.P.R.W.!.F.L.K.F.!.R.R.W.Q.R.R.R.R.R.R.W.R.R.R.R.R.Q.W.Q.E J J J d r.                              ",
"                            X.u.Y.Q.K.Q.R.!.K.K.W.R.R.!.R.W.Q.R.R.R.R.!.R.R.R.R.W.W.Q.E J J J n                                 ",
"                              ..a.I.Q.Q.R.F.F.!.Q.W.!.K.R.R.R.R.R.R.F.Q.R.R.Q.W.W.Q.Q.T J Z J b                                 ",
"                                ..N Q.!.K.!.R.L.!.F.F.W.Q.W.R.Q.K.R.!.K.R.W.Q.W.Q.W.Q.T J J J k                                 ",
"                                  ..s.Q.Q.K.W.W.K.!.F.!.R.R.R.T.W.W.R.R.Q.R.R.R.R.R.R.U J J I p                                 ",
"                                    | g.T.L.Q.W.K.Q.L.K.W.Q.Q.Q.Y.T.R.) [ R.R.R.R.R.Q.U J I I p                                 ",
"                                      -.f.P.z.l.} h.g.s.a.q.0.8.B R.Z.Y Y Z.R.R.R.R.F.I Z I F p                                 ",
"                                        =.-.&.%. .q X.#.      &.h.R.m.J K V.R.R.R.R.V.J J J D q                                 ",
"                                                              6.T.R.m.J Y S.R.R.B.m.) J I J h ..                                ",
"                                                            -.z.W.R.Z.E Z.W.R.Z.J Z o J I G w                                   ",
"                                                          :.i.R.W.Q.R.R.R.W.R.m.J o . J I f ..                                  ",
"                                                          -.z.Q.W.Q.Q.R.R.W.W.M.Z . O J F p |                                   ",
"                                                  r.#...u g.Q.K.R.Q.F.m.R M.W.D.L o Z J D ..                                    ",
"                                          t.,.;.u u.g.z.T.R.Q.K.R.Q.m.J J H D.F.) I I I s ..                                    ",
"                                  r.,.=.-.i.g.I.Q.Q.!.F.W.Q.F.!.F.A.H I J I N.S.U I J G w                                       ",
"                            :.:.9.8.a.k.P.Q.Q.Q.!.W.K.R.R.K.Q.K.!.m.I I J I M.N.J J I j ..                                      ",
"                      =.6.0.g.k.I.T.Q.F.K.!.L.K.R.!.K.K.W.L.W.K.W.m.J Y J J B.) J J I e #.                                      ",
"                    #.8.z.T.W.R.W.W.L.!.L.K.!.K.R.F.R.Q.L.K.F.!.R.V.J J J J B.U J J G q                                         ",
"                      -.z.R.W.R.K.K.W.Q.R.K.K.F.R.K.F.!.F.!.!.F.R.R.V.R T V.E J J F s ..                                        ",
"                        i Y.R.R.!.F.L.K.F.!.Q.W.R.Q.K.K.W.L.K.R.R.!.R.R.R.S.J J H A y                                           ",
"                        X.i.R.R.L.R.R.K.F.R.!.K.F.!.K.R.R.F.!.R.W.Q.D.B._ U A Q k e q                                           ",
"                          X.k.R.F.R.F.!.!.L.K.F.L.K.L.!.K.!.Q.Q.D.) U I A a t ..#.                                              ",
"                            -.z.R.R.K.!.K.K.K.!.W.W.K.L.L.F.M.E I F g k q ..                                                    ",
"                            ..7.T.W.K.F.R.Q.W.F.Q.L.D.N.E I Z Q b ....                                                          ",
"                              ..g.T.W.K.!.K.W.R.S.m.E I G f b O.X.                                                              ",
"                                =.g.W.W.F.S.M.E Y A j b e O.                                                                    ",
"                                o.-.T.Z.m.T H A h i X.#.                                                                        ",
"                                  X.n I F s p ..X.                                                                              ",
"                                    X.p q X.+.                                                                                  ",
"                                                                                                                                ",
"                                                                                                                                ",
"                                                                                                                                "
};
