/* XPM */
static char *out[] = {
/* columns rows colors chars-per-pixel */
"64 64 28 1 ",
"  c black",
". c #120317",
"X c #3B122F",
"o c #310D35",
"O c #222028",
"+ c #343336",
"@ c #4E1A3F",
"# c #571748",
"$ c #6E2749",
"% c #7B3155",
"& c #515151",
"* c #746842",
"= c #7E7245",
"- c #676767",
"; c gray45",
": c #817E3C",
"> c #913C51",
", c #A27242",
"< c #95426A",
"1 c #C16A7D",
"2 c #848252",
"3 c #DEC87E",
"4 c #F8F273",
"5 c gray56",
"6 c #AEAEAE",
"7 c #E5959F",
"8 c #F1DA84",
"9 c #FEFA9D",
/* pixels */
"3338888888888883338888888888888888888888833333334444444444444443",
"3333338883333444333383333888888333333333333333444444444444444443",
"4433333333344444444888833333333333333333333444444444444444444444",
"4444333334444444444888888333333388844444444444444444444444444444",
"9444444444444448888888888888888884444444444444444444444444449999",
"9999444444444488888833338888888444444444444444444444444449999999",
"8899944444444444888883333888884444444444444444444888888888888888",
"8889999999444444888888888888844444444444444448884444488888888888",
"8888888889999888888888888888844444444444444888444444488888888888",
"8888888888888888888888333388888444444444448888444448888888888888",
"8888888888888888333333333338888888884448888888444488888888888888",
"3333888888888888333333333888388888888888888888888333338888833333",
"4333388888888888883333333388338888888888888888833333333388333344",
"4444444333388888888883333333          88888833333444444444444444",
"4444444443333338888333333333          88888333344444444444444444",
"444444444443333333333333333 ######$$$$ 3333333444444449999944444",
"4444444444444443333344444  ###oooooo##$  33344444444999999994444",
"8444444444444444444444444  ###oooooo##$  88444448888888888888448",
"8888444444444999999999444  #$$#>>>$$oo#   8844888888888888444444",
"488888844444999999999999   #$$......##>>> 8888888888888888884444",
"888888844444488888888888   #$$......##>>> 8888888888888888888888",
"888888884888888888888888 $$#..$>>>$$..$  33333888888888888888888",
"888888888888888888888888 77...$>>>>>..#77 3333388888333333333888",
"888888888888888888888888 77...$>>>>>..#77 3338888333333333333333",
"888888888888888888888888 11.$$o###$$..o11 3888333333333444444444",
"4433388888333334444444333  o..ooo###..o  33333333444444444444444",
"3333333333333444444444444  o..ooo###..o  33333444444444444444444",
"444333338884444444444444444 ..oooo..ooo  33333444444444444444444",
"444448888888844444444999994 ..oooo..ooo  33444444444444999999944",
"4444888888888444449999999  %%%.ooo..%% 4444444444444499999999999",
"488888883333884448888888 55%%%%.....%%5  44444444444999988888888",
"888888333333388888888888 55%%%%.....%%5  44444444444888888888888",
"833888883333388888888888 --<<<<<<<<<<<5  44444444488888888888888",
"8333883333388888888888888  $$$$$$$$$$$177 4444488888888888888888",
"8888333333888888888888888  $$$$$$$$$$$177 4448844488888888888888",
"8883333333883338888888888  $,,$$$$,,$$177 8888444888888888888888",
"3333333333883333888888888  XXXXXXXXXXX   88888888888888888888888",
"3334433333388333888888888  XXXXXXXXXXX   88888888883333333888883",
"4444444433338888888888888  @@@@@@@@@@@ 8888888883333333334444444",
"444444444333338888883333333 OO+   &&;; 8888883333333344444444444",
"444444444444444433333333333 OO+   &&;; 8833333333344444444444444",
"444444444444444443333333444 OO+  *    33333334444444444444444444",
"99444444444444444444444444: OO+  :    *8888884444444444444444999",
"9999944444444444444444444:: OO+  ::::===888888844444444444999999",
"8889944444444444444444444222  O++ ::====888888888448888888899988",
"8888888844444444444444499222  O++ ======888888888888888888888888",
"88888888888444444444499999==  ;66 =====8883333338888888888888888",
"888888884444888844449999888=  &&& ===*33333333333888888888888888",
"8888888444488444488888888888  &&& **3333333333388888888888888888",
"8888888888888844888888888888888888833333388833888883388888888888",
"8888888888888888888888888888888888888883888833888333338333888888",
"8888888888888888888888888888888888888883888333333333444433333888",
"8333443333333388888888888888833388888833333333333334444443333338",
"3334444333333333888888888833333338883333333333333444444444443333",
"3344444444443333388888888333333333333333333333344444444444444443",
"4444444444444433333888833333444443333333333444444444444444444444",
"4444444444444444333333444444444444444444444444449999999994444444",
"4444444444444444444444444444444444444444444499999999999888888444",
"4444444444444449994444444444449999999999999999998888888888888888",
"8888888444444999999944444449999988888899999988888888888888888888",
"8888844448888888888994444499988888888888888888888888888888888888",
"8888844444888888888899444488888888888888888888888883333888888888",
"8888884448888888888888888888888888888888888888833333333333388888",
"8888888888888888888888888888888888888888888833333333444444444333"
};
