/* XPM */
static char *result[] = {
/* columns rows colors chars-per-pixel */
"64 64 21 1 ",
"  c #120317",
". c #1C1F1C",
"X c #3B122F",
"o c #310D35",
"O c #222028",
"+ c #343336",
"@ c #4E1A3F",
"# c #571748",
"$ c #6E2749",
"% c #7B3155",
"& c #515151",
"* c #676767",
"= c gray45",
"- c #913C51",
"; c #A27242",
": c #95426A",
"> c #C16A7D",
", c gray56",
"< c #AEAEAE",
"1 c #E5959F",
"2 c None",
/* pixels */
"2222222222222222222222222222222222222222222222222222222222222222",
"2222222222222222222222222222222222222222222222222222222222222222",
"2222222222222222222222222222222222222222222222222222222222222222",
"2222222222222222222222222222222222222222222222222222222222222222",
"222222222222222222222222...............2222222222222222222222222",
"222222222222222222222222...............2222222222222222222222222",
"222222222222222222222...##########$$$$$..22222222222222222222222",
"222222222222222222222...##########$$$$$..22222222222222222222222",
"222222222222222222222...##########$$$$$..22222222222222222222222",
"2222222222222222222..#####ooooooooooo##$$..222222222222222222222",
"2222222222222222222..#####ooooooooooo##$$..222222222222222222222",
"2222222222222222222..###$$###-----$$$oo##.....222222222222222222",
"2222222222222222222..###$$###-----$$$oo##.....222222222222222222",
"2222222222222222222..###$$###-----$$$oo##.....222222222222222222",
"2222222222222222.....###$$           ##----...222222222222222222",
"2222222222222222.....###$$           ##----...222222222222222222",
"2222222222222222...$$###  $$$-----$$$  $$..222222222222222222222",
"2222222222222222...$$###  $$$-----$$$  $$..222222222222222222222",
"2222222222222222...$$###  $$$-----$$$  $$..222222222222222222222",
"2222222222222222...11     $$$--------  ##11...222222222222222222",
"2222222222222222...11     $$$--------  ##11...222222222222222222",
"2222222222222222...11     $$$--------  ##11...222222222222222222",
"2222222222222222...>>   $$ooo#####$$$  oo>>...222222222222222222",
"2222222222222222...>>   $$ooo#####$$$  oo>>...222222222222222222",
"2222222222222222222..ooo  ooooo######  oo..222222222222222222222",
"2222222222222222222..ooo  ooooo######  oo..222222222222222222222",
"2222222222222222222..ooo  ooooo######  oo..222222222222222222222",
"222222222222222222222...  oooooooo   oo..22222222222222222222222",
"222222222222222222222...  oooooooo   oo..22222222222222222222222",
"222222222222222222222...oo   ooooo   oo@@..222222222222222222222",
"222222222222222222222...oo   ooooo   oo@@..222222222222222222222",
"222222222222222222222...oo   ooooo   oo@@..222222222222222222222",
"2222222222222222222..***%%%%%        %%%%,,...222222222222222222",
"2222222222222222222..***%%%%%        %%%%,,...222222222222222222",
"2222222222222222222..***%%%%%        %%%%,,...222222222222222222",
"2222222222222222222..***%%%%%%%%%%%%%%%%%**...222222222222222222",
"2222222222222222222..***%%%%%%%%%%%%%%%%%**...222222222222222222",
"2222222222222222...>>>>>:::::::::::::::::..222222222222222222222",
"2222222222222222...>>>>>:::::::::::::::::..222222222222222222222",
"2222222222222222...>>111$$$$$$$$$$$$$$$$$..222222222222222222222",
"2222222222222222...>>111$$$$$$$$$$$$$$$$$..222222222222222222222",
"2222222222222222222.....$$;;;$$$$$$$$;;$$..222222222222222222222",
"2222222222222222222.....$$;;;$$$$$$$$;;$$..222222222222222222222",
"2222222222222222222.....$$;;;$$$$$$$$;;$$..222222222222222222222",
"222222222222222222222...XXXXXXXXXXXXXXXXX..222222222222222222222",
"222222222222222222222...XXXXXXXXXXXXXXXXX..222222222222222222222",
"222222222222222222222...@@@@@@@@@@@@@@@@@..222222222222222222222",
"222222222222222222222...@@@@@@@@@@@@@@@@@..222222222222222222222",
"222222222222222222222...@@@@@@@@@@@@@@@@@..222222222222222222222",
"222222222222222222222...=====.....OOO11..22222222222222222222222",
"222222222222222222222...=====.....OOO11..22222222222222222222222",
"222222222222222222222...=====.....OOO11..22222222222222222222222",
"222222222222222222222222.....22...OOO++..22222222222222222222222",
"222222222222222222222222.....22...OOO++..22222222222222222222222",
"22222222222222222222222222222..OOO+++..2222222222222222222222222",
"22222222222222222222222222222..OOO+++..2222222222222222222222222",
"22222222222222222222222222222..OOO+++..2222222222222222222222222",
"22222222222222222222222222222..<<<===..2222222222222222222222222",
"22222222222222222222222222222..<<<===..2222222222222222222222222",
"22222222222222222222222222222..&&&&&&..2222222222222222222222222",
"22222222222222222222222222222..&&&&&&..2222222222222222222222222",
"22222222222222222222222222222..&&&&&&..2222222222222222222222222",
"2222222222222222222222222222222222222222222222222222222222222222",
"2222222222222222222222222222222222222222222222222222222222222222"
};
