/* XPM */
static char *out[] = {
/* columns rows colors chars-per-pixel */
"64 64 27 1 ",
"  c black",
". c #120317",
"X c #3B122F",
"o c #310D35",
"O c #222028",
"+ c #343336",
"@ c #4E1A3F",
"# c #571748",
"$ c #6E2749",
"% c #7B3155",
"& c #746842",
"* c #7E7245",
"= c #676767",
"- c gray45",
"; c #817E3C",
": c #913C51",
"> c #A27242",
", c #95426A",
"< c #C16A7D",
"1 c #848252",
"2 c #DEC87E",
"3 c #F8F273",
"4 c gray56",
"5 c #AEAEAE",
"6 c #E5959F",
"7 c #F1DA84",
"8 c #FEFA9D",
/* pixels */
"2227777777777772227777777777777777777777722222223333333333333332",
"2222227772222333222272222777777222222222222222333333333333333332",
"3322222222233333333777722222222222222222222333333333333333333333",
"3333222223333333333777777222222277733333333333333333333333333333",
"8333333333333337777777777777777773333333333333333333333333338888",
"8888333333333377777722227777777333333333333333333333333338888888",
"7788833333333333777772222777773333333333333333333777777777777777",
"7778888888333333777777777777733333333333333337773333377777777777",
"7777777778888777777777777777733333333333333777333333377777777777",
"7777777777777777777777222277777333333333337777333337777777777777",
"7777777777777777222222222227777777773337777777333377777777777777",
"2222777777777777222222222777277777777777777777777222227777722222",
"3222277777777777772222222277227777777777777777722222222277222233",
"3333333222277777777772222222          77777722222333333333333333",
"3333333332222227777222222222          77777222233333333333333333",
"333333333332222222222222222 ######$$$$ 2222222333333338888833333",
"3333333333333332222233333  ###oooooo##$  22233333333888888883333",
"7333333333333333333333333  ###oooooo##$  77333337777777777777337",
"7777333333333888888888333  #$$#:::$$oo#  77733777777777777333333",
"3777777333338888888888883  #$$......##:   7777777777777777773333",
"7777777333333777777777777  #$$......##:   7777777777777777777777",
"777777773777777777777777   #..$:::$$..$:: 2222777777777777777777",
"777777777777777777777777 66#..$:::::..#66 2222277777222222222777",
"777777777777777777777777 66#..$:::::..#66 2227777222222222222222",
"777777777777777777777777 <<o..o###$$..o<< 2777222222222333333333",
"3322277777222223333333222  .$$o#####..o  22222222333333333333333",
"2222222222222333333333333  .$$o#####..o  22222333333333333333333",
"333222227773333333333333333...oooo##..o  22222333333333333333333",
"333337777777733333333888883...oooo##..o  22333333333333888888833",
"333377777777733333888888888 ..oooo..oo@  33333333333388888888888",
"3777777722227733377777777  4%%.ooo..%%%  33333333333888877777777",
"7777772222222777777777777  4%%.ooo..%%%  33333333333777777777777",
"722777772222277777777777 ===%%%.....%%%66 3333333377777777777777",
"722277222227777777777777 <<<,,,,,,,,,,,66 3333377777777777777777",
"777722222277777777777777 <<<,,,,,,,,,,,66 3337733377777777777777",
"7772222222772227777777777   $$$$$$$$$$$  77777333777777777777777",
"222222222277222277777777777 $$>$$$$$>>$  77777777777777777777777",
"222332222227722277777777777 $$>$$$$$>>$  77777777772222222777772",
"333333332222777777777777777 XXXXXXXXXXX  77777772222222223333333",
"333333333222227777772222222 @@@@@@@@@@@  77772222222233333333333",
"333333333333333322222222222 @@@@@@@@@@@  22222222233333333333333",
"333333333333333332222222333 OO+  ---   2222223333333333333333333",
"88333333333333333333333333; OO+  ---   7777773333333333333333888",
"8888833333333333333333333;; OO+     ;***777777733333333333888888",
"777883333333333333333333311 --5  ;;;****777777777337777777788877",
"777777773333333333333338811 --5  ;******777777777777777777777777",
"77777777777333333333388888*************7772222227777777777777777",
"777777773333777733338888777**********&22222222222777777777777777",
"77777773333773333777777777777*****&&2222222222277777777777777777",
"7777777777777733777777777777777777722222277722777772277777777777",
"7777777777777777777777777777777777777772777722777222227222777777",
"7777777777777777777777777777777777777772777222222222333322222777",
"7222332222222277777777777777722277777722222222222223333332222227",
"2223333222222222777777777722222227772222222222222333333333332222",
"2233333333332222277777777222222222222222222222233333333333333332",
"3333333333333322222777722222333332222222222333333333333333333333",
"3333333333333333222222333333333333333333333333338888888883333333",
"3333333333333333333333333333333333333333333388888888888777777333",
"3333333333333338883333333333338888888888888888887777777777777777",
"7777777333333888888833333338888877777788888877777777777777777777",
"7777733337777777777883333388877777777777777777777777777777777777",
"7777733333777777777788333377777777777777777777777772222777777777",
"7777773337777777777777777777777777777777777777722222222222277777",
"7777777777777777777777777777777777777777777722222222333333333222"
};
