/* XPM */
static char *out[] = {
/* columns rows colors chars-per-pixel */
"64 64 26 1 ",
"  c black",
". c #120317",
"X c #3B122F",
"o c #310D35",
"O c #4E1A3F",
"+ c #571748",
"@ c #6E2749",
"# c #7B3155",
"$ c #515151",
"% c #746842",
"& c #7E7245",
"* c #676767",
"= c gray45",
"- c #817E3C",
"; c #913C51",
": c #A27242",
"> c #95426A",
", c #C16A7D",
"< c #848252",
"1 c #DEC87E",
"2 c #F8F273",
"3 c gray56",
"4 c #AEAEAE",
"5 c #E5959F",
"6 c #F1DA84",
"7 c #FEFA9D",
/* pixels */
"1116666666666661116666666666666666666666611111112222222222222221",
"1111116661111222111161111666666111111111111111222222222222222221",
"2211111111122222222666611111111111111111111222222222222222222222",
"2222111112222222222666666111111166622222222222222222222222222222",
"7222222222222226666666666666666662222222222222222222222222227777",
"7777222222222266666611116666666222222222222222222222222227777777",
"6677722222222222666661111666662222222222222222222666666666666666",
"6667777777222222666666666666622222222222222226662222266666666666",
"6666666667777666666666666666622222222222222666222222266666666666",
"6666666666666666666666111166666222222222226666222226666666666666",
"6666666666666666111111111116666666662226666666222266666666666666",
"1111666666666666111111111666166666666666666666666111116666611111",
"2111166666666666661111111166116666666666666666611111111166111122",
"2222222111166666666661111111666666666666666611111222222222222222",
"2222222221111116666111111111       66666666111122222222222222222",
"2222222222211111111111111111       66611111111222222227777722222",
"222222222222222111112222222 ++++@@@   11111122222222777777772222",
"622222222222222222222222   +++oooo+@@@ 6666222226666666666666226",
"666622222222277777777722   +++oooo+@@@ 6666622666666666666222222",
"266666622222777777777777   +@@+;@@o+++   66666666666666666662222",
"66666662222226666666666    +@@....+;;;;  66666666666666666666666",
"66666666266666666666666    +@@....+;;;;  11111666666666666666666",
"66666666666666666666666 @@@+..@;@@.@@@ 1111111166666111111111666",
"66666666666666666666666 @@@+..@;@@.@@@ 1111116666111111111111111",
"66666666666666666666666 555...@;;;.+++5  11666111111111222222222",
"22111666661111122222221 ,,,.@@o+@@.ooo,  11111111222222222222222",
"11111111111112222222222 ,,,.@@o+@@.ooo,  11111222222222222222222",
"222111116662222222222222   o..o+++.ooo 1111111222222222222222222",
"222226666666622222222777772 oo.ooo.ooo 1111222222222222777777722",
"222266666666622222777777777 oo.ooo.ooo 2222222222222277777777777",
"266666661111662226666666667 oooooo.OOO 2222222222222777766666666",
"666666111111166666666666666 oooooo.OOO   22222222222666666666666",
"611666661111166666666666   3###....###3  22222222266666666666666",
"61116611111666666666666 333*##########*  22222266666666666666666",
"66661111116666666666666 333*##########*  22226622266666666666666",
"666111111166111666666  ,,,,*>>>>>>>>>> 6666666222666666666666666",
"111111111166111166666  ,555 @@@@@@@@@@ 6666666666666666666666666",
"111221111116611166666  ,555 @@@@@@@@@@ 6666666666661111111666661",
"22222222111166666666666     @@:@@@:@@@ 6666666661111111112222222",
"222222222111116666661111111 XXXXXXXXXX 6666661111111122222222222",
"222222222222222211111111111 XXXXXXXXXX 6611111111122222222222222",
"222222222222222221111111222 OOOOOOOOOO 1111112222222222222222222",
"77222222222222222222222222- OOOOOOOOOO 6666662222222222222222777",
"7777722222222222222222222-- ==44==    &&666666622222222222777777",
"6667722222222222222222222<<<<<-$$$ -&&&&666666666226666666677766",
"6666666622222222222222277<<<<<<$$$ &&&&&666666666666666666666666",
"66666666666222222222277777&&&&&=== &&&&6661111116666666666666666",
"666666662222666622227777666&&&&   &&&%11111111111666666666666666",
"66666662222662222666666666666&&   %%1111111111166666666666666666",
"6666666666666622666666666666666666611111166611666661166666666666",
"6666666666666666666666666666666666666661666611666111116111666666",
"6666666666666666666666666666666666666661666111111111222211111666",
"6111221111111166666666666666611166666611111111111112222221111116",
"1112222111111111666666666611111116661111111111111222222222221111",
"1122222222221111166666666111111111111111111111122222222222222221",
"2222222222222211111666611111222221111111111222222222222222222222",
"2222222222222222111111222222222222222222222222227777777772222222",
"2222222222222222222222222222222222222222222277777777777666666222",
"2222222222222227772222222222227777777777777777776666666666666666",
"6666666222222777777722222227777766666677777766666666666666666666",
"6666622226666666666772222277766666666666666666666666666666666666",
"6666622222666666666677222266666666666666666666666661111666666666",
"6666662226666666666666666666666666666666666666611111111111166666",
"6666666666666666666666666666666666666666666611111111222222222111"
};
