/* XPM */
static char *result[] = {
/* columns rows colors chars-per-pixel */
"64 64 22 1 ",
"  c black",
". c #120317",
"X c #1C1F1C",
"o c #3B122F",
"O c #310D35",
"+ c #222028",
"@ c #343336",
"# c #4E1A3F",
"$ c #571748",
"% c #6E2749",
"& c #7B3155",
"* c #515151",
"= c #676767",
"- c gray45",
"; c #913C51",
": c #A27242",
"> c #95426A",
", c #C16A7D",
"< c gray56",
"1 c #AEAEAE",
"2 c #E5959F",
"3 c None",
/* pixels */
"3333333333333333333333333333333333333333333333333333333333333333",
"3333333333333333333333333333333333333333333333333333333333333333",
"3333333333333333333333333333333333333333333333333333333333333333",
"3333333333333333333333333333333333333333333333333333333333333333",
"333333333333333333333333XXXXXXXXXXXXXXX3333333333333333333333333",
"333333333333333333333333XXXXXXXXXXXXXXX3333333333333333333333333",
"333333333333333333333XXX$$$$$$$$$$%%%%%XX33333333333333333333333",
"333333333333333333333XXX$$$$$$$$$$%%%%%XX33333333333333333333333",
"333333333333333333333XXX$$$$$$$$$$%%%%%XX33333333333333333333333",
"3333333333333333333XX$$$$$OOOOOOOOOOO$$%%XX333333333333333333333",
"3333333333333333333XX$$$$$OOOOOOOOOOO$$%%XX333333333333333333333",
"3333333333333333333XX$$$%%$$$;;;;;%%%OO$$XXXXX333333333333333333",
"3333333333333333333XX$$$%%$$$;;;;;%%%OO$$XXXXX333333333333333333",
"3333333333333333333XX$$$%%$$$;;;;;%%%OO$$XXXXX333333333333333333",
"3333333333333333XXXXX$$$%%...........$$;;;;XXX333333333333333333",
"3333333333333333XXXXX$$$%%...........$$;;;;XXX333333333333333333",
"3333333333333333XXX%%$$$..%%%;;;;;%%%..%%XX333333333333333333333",
"3333333333333333XXX%%$$$..%%%;;;;;%%%..%%XX333333333333333333333",
"3333333333333333XXX%%$$$..%%%;;;;;%%%..%%XX333333333333333333333",
"3333333333333333XXX22.....%%%;;;;;;;;..$$22XXX333333333333333333",
"3333333333333333XXX22.....%%%;;;;;;;;..$$22XXX333333333333333333",
"3333333333333333XXX22.....%%%;;;;;;;;..$$22XXX333333333333333333",
"3333333333333333XXX,,...%%OOO$$$$$%%%..OO,,XXX333333333333333333",
"3333333333333333XXX,,...%%OOO$$$$$%%%..OO,,XXX333333333333333333",
"3333333333333333333XXOOO..OOOOO$$$$$$..OOXX333333333333333333333",
"3333333333333333333XXOOO..OOOOO$$$$$$..OOXX333333333333333333333",
"3333333333333333333XXOOO..OOOOO$$$$$$..OOXX333333333333333333333",
"333333333333333333333   ..OOOOOOOO...OOOOXX333333333333333333333",
"333333333333333333333   ..OOOOOOOO...OOOOXX333333333333333333333",
"3333333333333333333XX&&&&&...OOOOO...&&XX33333333333333333333333",
"3333333333333333333XX&&&&&...OOOOO...&&XX33333333333333333333333",
"3333333333333333333XX&&&&&...OOOOO...&&XX33333333333333333333333",
"3333333333333333XXX<<&&&&&&&&........&&<<XX333333333333333333333",
"3333333333333333XXX<<&&&&&&&&........&&<<XX333333333333333333333",
"3333333333333333XXX<<&&&&&&&&........&&<<XX333333333333333333333",
"3333333333333333XXX==>>>>>>>>>>>>>>>>>><<XXXXX333333333333333333",
"3333333333333333XXX==>>>>>>>>>>>>>>>>>><<XXXXX333333333333333333",
"3333333333333333333XX%%%%%%%%%%%%%%%%%%,,22XXX333333333333333333",
"3333333333333333333XX%%%%%%%%%%%%%%%%%%,,22XXX333333333333333333",
"3333333333333333333XX%%%::%%%%%%%%:::%%XXXXXXX333333333333333333",
"3333333333333333333XX%%%::%%%%%%%%:::%%XXXXXXX333333333333333333",
"3333333333333333333XXooooooooooooooooooXXXX333333333333333333333",
"3333333333333333333XXooooooooooooooooooXXXX333333333333333333333",
"3333333333333333333XXooooooooooooooooooXXXX333333333333333333333",
"3333333333333333333XX##################XX33333333333333333333333",
"3333333333333333333XX##################XX33333333333333333333333",
"333333333333333333333XXX++@@@XXXXX***--XX33333333333333333333333",
"333333333333333333333XXX++@@@XXXXX***--XX33333333333333333333333",
"333333333333333333333XXX++@@@XXXXX***--XX33333333333333333333333",
"333333333333333333333XXX++@@@XX333XXXXXXX33333333333333333333333",
"333333333333333333333XXX++@@@XX333XXXXXXX33333333333333333333333",
"333333333333333333333XXX++@@@XX333XXXXXXX33333333333333333333333",
"333333333333333333333XXX++@@@XX33333333XX33333333333333333333333",
"333333333333333333333XXX++@@@XX33333333XX33333333333333333333333",
"333333333333333333333333XX+++@@XXX33333XX33333333333333333333333",
"333333333333333333333333XX+++@@XXX33333XX33333333333333333333333",
"333333333333333333333333XX+++@@XXX33333XX33333333333333333333333",
"333333333333333333333333XX---11XXX333333333333333333333333333333",
"333333333333333333333333XX---11XXX333333333333333333333333333333",
"333333333333333333333333XX*****XXX333333333333333333333333333333",
"333333333333333333333333XX*****XXX333333333333333333333333333333",
"333333333333333333333333XX*****XXX333333333333333333333333333333",
"3333333333333333333333333333333333333333333333333333333333333333",
"3333333333333333333333333333333333333333333333333333333333333333"
};
