/* XPM */
static char *result[] = {
/* columns rows colors chars-per-pixel */
"64 64 20 1 ",
"  c #120317",
". c #1C1F1C",
"X c #3B122F",
"o c #310D35",
"O c #222028",
"+ c #343336",
"@ c #4E1A3F",
"# c #571748",
"$ c #6E2749",
"% c #7B3155",
"& c #676767",
"* c gray45",
"= c #913C51",
"- c #A27242",
"; c #95426A",
": c #C16A7D",
"> c gray56",
", c #AEAEAE",
"< c #E5959F",
"1 c None",
/* pixels */
"1111111111111111111111111111111111111111111111111111111111111111",
"1111111111111111111111111111111111111111111111111111111111111111",
"1111111111111111111111111111111111111111111111111111111111111111",
"1111111111111111111111111111111111111111111111111111111111111111",
"111111111111111111111111...............1111111111111111111111111",
"111111111111111111111111...............1111111111111111111111111",
"111111111111111111111...##########$$$$$..11111111111111111111111",
"111111111111111111111...##########$$$$$..11111111111111111111111",
"111111111111111111111...##########$$$$$..11111111111111111111111",
"1111111111111111111..#####ooooooooooo##$$..111111111111111111111",
"1111111111111111111..#####ooooooooooo##$$..111111111111111111111",
"1111111111111111111..###$$###=====$$$oo##..111111111111111111111",
"1111111111111111111..###$$###=====$$$oo##..111111111111111111111",
"1111111111111111111..###$$###=====$$$oo##..111111111111111111111",
"1111111111111111111..###$$           ##==.....111111111111111111",
"1111111111111111111..###$$           ##==.....111111111111111111",
"1111111111111111.....###  $$$=====$$$  $$==...111111111111111111",
"1111111111111111.....###  $$$=====$$$  $$==...111111111111111111",
"1111111111111111.....###  $$$=====$$$  $$==...111111111111111111",
"1111111111111111...<<###  $$$========  ##<<...111111111111111111",
"1111111111111111...<<###  $$$========  ##<<...111111111111111111",
"1111111111111111...<<###  $$$========  ##<<...111111111111111111",
"1111111111111111...::ooo  ooo#####$$$  oo::...111111111111111111",
"1111111111111111...::ooo  ooo#####$$$  oo::...111111111111111111",
"1111111111111111111..   $$ooo########  oo..111111111111111111111",
"1111111111111111111..   $$ooo########  oo..111111111111111111111",
"1111111111111111111..   $$ooo########  oo..111111111111111111111",
"111111111111111111111     oooooooo###  oo..111111111111111111111",
"111111111111111111111     oooooooo###  oo..111111111111111111111",
"1111111111111111111..@@@  oooooooo   oo..11111111111111111111111",
"1111111111111111111..@@@  oooooooo   oo..11111111111111111111111",
"1111111111111111111..@@@  oooooooo   oo..11111111111111111111111",
"1111111111111111111..%%%%%   ooooo   %%>>..111111111111111111111",
"1111111111111111111..%%%%%   ooooo   %%>>..111111111111111111111",
"1111111111111111111..%%%%%   ooooo   %%>>..111111111111111111111",
"1111111111111111...&&%%%%%%%%        %%&&&&...111111111111111111",
"1111111111111111...&&%%%%%%%%        %%&&&&...111111111111111111",
"1111111111111111...::;;;;;;;;;;;;;;;;;;::<<...111111111111111111",
"1111111111111111...::;;;;;;;;;;;;;;;;;;::<<...111111111111111111",
"1111111111111111111..$$$$$$$$$$$$$$$$$$....111111111111111111111",
"1111111111111111111..$$$$$$$$$$$$$$$$$$....111111111111111111111",
"1111111111111111111..$$$--$$$$$$$$---$$..11111111111111111111111",
"1111111111111111111..$$$--$$$$$$$$---$$..11111111111111111111111",
"1111111111111111111..$$$--$$$$$$$$---$$..11111111111111111111111",
"1111111111111111111..XXXXXXXXXXXXXXXXXX..11111111111111111111111",
"1111111111111111111..XXXXXXXXXXXXXXXXXX..11111111111111111111111",
"1111111111111111111..@@@@@@@@@@@@@@@@@@..11111111111111111111111",
"1111111111111111111..@@@@@@@@@@@@@@@@@@..11111111111111111111111",
"1111111111111111111..@@@@@@@@@@@@@@@@@@..11111111111111111111111",
"111111111111111111111.....*****...OOO++..11111111111111111111111",
"111111111111111111111.....*****...OOO++..11111111111111111111111",
"111111111111111111111.....*****...OOO++..11111111111111111111111",
"11111111111111111111111111........OOO++..11111111111111111111111",
"11111111111111111111111111........OOO++..11111111111111111111111",
"1111111111111111111111111111111...,,,**..11111111111111111111111",
"1111111111111111111111111111111...,,,**..11111111111111111111111",
"1111111111111111111111111111111...,,,**..11111111111111111111111",
"1111111111111111111111111111111111111111111111111111111111111111",
"1111111111111111111111111111111111111111111111111111111111111111",
"1111111111111111111111111111111111111111111111111111111111111111",
"1111111111111111111111111111111111111111111111111111111111111111",
"1111111111111111111111111111111111111111111111111111111111111111",
"1111111111111111111111111111111111111111111111111111111111111111",
"1111111111111111111111111111111111111111111111111111111111111111"
};
