/* XPM */
static char *out[] = {
/* columns rows colors chars-per-pixel */
"64 64 26 1 ",
"  c black",
". c #120317",
"X c #3B122F",
"o c #310D35",
"O c #222028",
"+ c #343336",
"@ c #4E1A3F",
"# c #571748",
"$ c #6E2749",
"% c #7B3155",
"& c #746842",
"* c #7E7245",
"= c #676767",
"- c gray45",
"; c #913C51",
": c #A27242",
"> c #95426A",
", c #C16A7D",
"< c #848252",
"1 c #DEC87E",
"2 c #F8F273",
"3 c gray56",
"4 c #AEAEAE",
"5 c #E5959F",
"6 c #F1DA84",
"7 c #FEFA9D",
/* pixels */
"1116666666666661116666666666666666666666611111112222222222222221",
"1111116661111222111161111666666111111111111111222222222222222221",
"2211111111122222222666611111111111111111111222222222222222222222",
"2222111112222222222666666111111166622222222222222222222222222222",
"7222222222222226666666666666666662222222222222222222222222227777",
"7777222222222266666611116666666222222222222222222222222227777777",
"6677722222222222666661111666662222222222222222222666666666666666",
"6667777777222222666666666666622222222222222226662222266666666666",
"6666666667777666666666666666622222222222222666222222266666666666",
"6666666666666666666666111166666222222222226666222226666666666666",
"6666666666666666111111111116666666662226666666222266666666666666",
"1111666666666666111111111666166666666666666666666111116666611111",
"2111166666666666661111111166116666666666666666611111111166111122",
"2222222111166666666661111111666666666666666611111222222222222222",
"22222222211111166661111111111       6666666111122222222222222222",
"22222222222111111111111111   #####$$   1111111222222227777722222",
"22222222222222211111222222   #####$$   1111122222222777777772222",
"6222222222222222222222222 ####ooooo#$$$ 666222226666666666666226",
"6666222222222777777777222 ####ooooo#$$$ 666622666666666666222222",
"2666666222227777777777772 ###$#;;;$o### 666666666666666666662222",
"6666666222222666666666666 ###$#;;;$o### 666666666666666666666666",
"6666666626666666666666666 ###$.....#;;;  11111666666666666666666",
"666666666666666666666666  ###.$;;;$.$$$; 11111166666111111111666",
"666666666666666666666666  ###.$;;;$.$$$; 11116666111111111111111",
"666666666666666666666666 5###.$;;;;.###5 11666111111111222222222",
"221116666611111222222211 ,ooo.o###$.ooo, 11111111222222222222222",
"1111111111111222222222222 ...$o####.ooo 111111222222222222222222",
"2221111166622222222222222 ...$o####.ooo 111111222222222222222222",
"2222266666666222222227777 ...$o####.ooo 111222222222222777777722",
"22226666666662222277777777....oooo#.ooo 222222222222277777777777",
"2666666611116622266666666 @@@.oooo.o   2222222222222777766666666",
"6666661111111666666666666 @@@.oooo.o   2222222222222666666666666",
"6116666611111666666666666 @@@.oooo.o   2222222222266666666666666",
"6111661111166666666666666 %%%%.ooo.%333 222222266666666666666666",
"666611111166666666666666 =%%%%%....%==== 22226622266666666666666",
"666111111166111666666666 =%%%%%....%==== 66666222666666666666666",
"111111111166111166666666 =%%%%%....%==== 66666666666666666666666",
"111221111116611166666666 ,>>>>>>>>>>,,,5 66666666661111111666661",
"2222222211116666666666666 $$$$$$$$$$    666666661111111112222222",
"2222222221111166666611111 $$$:$$$$:$   6666661111111122222222222",
"2222222222222222111111111 $$$:$$$$:$   6611111111122222222222222",
"2222222222222222211111112 XXXXXXXXXX   1111112222222222222222222",
"7722222222222222222222222 @@@@@@@@@@   6666662222222222222222777",
"7777722222222222222222222 @@@@@@@@@@   6666666622222222222777777",
"66677222222222222222222227    --  O+   6666666666226666666677766",
"6666666622222222222222277<    --  O+   *666666666666666666666666",
"6666666666622222222227777<****    O+   *661111116666666666666666",
"6666666622226666222277776*****    O+   &111111111666666666666666",
"66666662222662222666666666******  4-   1111111166666666666666666",
"666666666666662266666666666********&&&11166611666661166666666666",
"66666666666666666666666666666*******6661666611666111116111666666",
"6666666666666666666666666666666666666661666111111111222211111666",
"6111221111111166666666666666611166666611111111111112222221111116",
"1112222111111111666666666611111116661111111111111222222222221111",
"1122222222221111166666666111111111111111111111122222222222222221",
"2222222222222211111666611111222221111111111222222222222222222222",
"2222222222222222111111222222222222222222222222227777777772222222",
"2222222222222222222222222222222222222222222277777777777666666222",
"2222222222222227772222222222227777777777777777776666666666666666",
"6666666222222777777722222227777766666677777766666666666666666666",
"6666622226666666666772222277766666666666666666666666666666666666",
"6666622222666666666677222266666666666666666666666661111666666666",
"6666662226666666666666666666666666666666666666611111111111166666",
"6666666666666666666666666666666666666666666611111111222222222111"
};
