/* XPM */
static char *result[] = {
/* columns rows colors chars-per-pixel */
"64 64 28 1 ",
"  c #111211",
". c #131513",
"X c #1C1F1C",
"o c #1E201D",
"O c #23221F",
"+ c #2A2824",
"@ c #2C2824",
"# c #342A25",
"$ c #3A332E",
"% c #3C312C",
"& c #7A2D18",
"* c #512D23",
"= c #5B3C2C",
"- c #453A35",
"; c #4A413C",
": c #5A5237",
"> c #645C3F",
", c #695D58",
"< c #5E724A",
"1 c #70694F",
"2 c #677755",
"3 c #6A7A5A",
"4 c #70805F",
"5 c #778667",
"6 c #8DAB5F",
"7 c #A2A97F",
"8 c #BEC49F",
"9 c None",
/* pixels */
"9999999999999999999999999999999999999999999999999999999999999999",
"9999999999999999999999999999999999999999999999999999999999999999",
"9999999999999999999999999999999999999999999999999999999999999999",
"9999999999999999999999999999999999999999999999999999999999999999",
"9999999999999999999999999999999999999999999999999999999999999999",
"9999999999999999999999999999999999999999999999999999999999999999",
"9999999999999999999999999999999999999999999999999999999999999999",
"9999999999999999999999999999XXXXXXXXXXX9999999999999999999999999",
"9999999999999999999999999999XXXXXXXXXXX9999999999999999999999999",
"99999999999999999999999999XX==*********XX99999999999999999999999",
"99999999999999999999999999XX==*********XX99999999999999999999999",
"999999999999999999999999XX==<<==*****==<<XX999999999999999999999",
"999999999999999999999999XX==<<==*****==<<XX999999999999999999999",
"999999999999999999999XXX**==<<==***==<<<<<<XXX999999999999999999",
"999999999999999999999XXX**==<<==***==<<<<<<XXX999999999999999999",
"999999999999999999999XXX**==<<=====22<<<<<<XXX999999999999999999",
"999999999999999999999XXX**==<<=====22<<<<<<XXX999999999999999999",
"999999999999999999999XXX**==<<=====22<<<<<<XXX999999999999999999",
"999999999999999999999XXX==<<22==4444422<<<<XXX999999999999999999",
"999999999999999999999XXX==<<22==4444422<<<<XXX999999999999999999",
"999999999999999999999XXX<<2244==444444422<<XXX999999999999999999",
"999999999999999999999XXX<<2244==444444422<<XXX999999999999999999",
"999999999999999999999XXX22XXXX44===44XXXX22XXX999999999999999999",
"999999999999999999999XXX22XXXX44===44XXXX22XXX999999999999999999",
"999999999999999999999XXX22886644===44668822XXX999999999999999999",
"999999999999999999999XXX22886644===44668822XXX999999999999999999",
"999999999999999999999XXX44444444444==444444XXX999999999999999999",
"999999999999999999999XXX44444444444==444444XXX999999999999999999",
"999999999999999999999XXX44444444444==444444XXX999999999999999999",
"999999999999999999999XXX<<44444444444==44<<XXX999999999999999999",
"999999999999999999999XXX<<44444444444==44<<XXX999999999999999999",
"9999999999999999999XX***--<<77447774477==XX999999999999999999999",
"9999999999999999999XX***--<<77447774477==XX999999999999999999999",
"99999999999999999XX*****--%%<<77&&&77&&%@XX999999999999999999999",
"99999999999999999XX*****--%%<<77&&&77&&@oXX999999999999999999999",
"999999999999999XX55**---%%%%%%<<&&&&&%@XX99999999999999999999999",
"999999999999999XX55**$$$%%%%%%<<&&&&&%@XX99999999999999999999999",
"999999999999999XX$-55XXX@%%%%%%%444%%-$XXXX999999999999999999999",
"999999999999999XX$-55XXX@%%%%%%%444%%-$XXXX999999999999999999999",
"999999999999999XX$-55XXX@%%%%%%%444%%-$XXXX999999999999999999999",
"999999999999999XX$--$XXXO#####33&&&----$$$+XXX999999999999999999",
"999999999999999XX$--$XXXO#####33&&&$$$$---$XXX999999999999999999",
"999999999999999XX$--$XXXO#########OXXXX5555XXX999999999999999999",
"999999999999999XX$--$XXXO#########OXXXX5555XXX999999999999999999",
"999999999999999XX$--$XXX>>>>>>>>>>>>>XXXXXX999999999999999999999",
"999999999999999XX$--$XXX>>>>>>>>>>>>>XXXXXX999999999999999999999",
"999999999999999XX5555XXX>>>>>>::>>>>>>>XX99999999999999999999999",
"999999999999999XX5555XXX>>>>>>::>>>>>>>XX99999999999999999999999",
"99999999999999999XXXX999XX>>>>>>:::>>>>11XX999999999999999999999",
"99999999999999999XXXX999XX>>>>>>:::>>>>11XX999999999999999999999",
"99999999999999999XXXX999XX>>>>>>:::>>>>11XX999999999999999999999",
"999999999999999999999XXX111111XXXXX::1111XX999999999999999999999",
"999999999999999999999XXX111111XXXXX::1111XX999999999999999999999",
"999999999999999999999XXX;;;;XX99XXX4444XX99999999999999999999999",
"999999999999999999999XXX;;;;XX99XXX4444XX99999999999999999999999",
"999999999999999999999XXX,,,,XX99999XXXX9999999999999999999999999",
"999999999999999999999XXX,,,,XX99999XXXX9999999999999999999999999",
"999999999999999      .........  .........     999999999999999999",
"999999999999999      .........  .........     999999999999999999",
"99999999999999999                          999999999999999999999",
"99999999999999999                          999999999999999999999",
"99999999999999999                          999999999999999999999",
"9999999999999999999999999999999999999999999999999999999999999999",
"9999999999999999999999999999999999999999999999999999999999999999"
};
