/* XPM */
static char *result[] = {
/* columns rows colors chars-per-pixel */
"64 64 23 1 ",
"  c #111211",
". c #131513",
"X c #1C1F1C",
"o c #342A25",
"O c #3C312C",
"+ c #7A2D18",
"@ c #512D23",
"# c #5B3C2C",
"$ c #453A35",
"% c #4A413C",
"& c #5A5237",
"* c #645C3F",
"= c #695D58",
"- c #5E724A",
"; c #70694F",
": c #677755",
"> c #6A7A5A",
", c #70805F",
"< c #778667",
"1 c #8DAB5F",
"2 c #A2A97F",
"3 c #BEC49F",
"4 c None",
/* pixels */
"4444444444444444444444444444444444444444444444444444444444444444",
"4444444444444444444444444444444444444444444444444444444444444444",
"4444444444444444444444444444444444444444444444444444444444444444",
"4444444444444444444444444444444444444444444444444444444444444444",
"4444444444444444444444444444444444444444444444444444444444444444",
"4444444444444444444444444444444444444444444444444444444444444444",
"4444444444444444444444444444444444444444444444444444444444444444",
"44444444444444444444444444444XXXXXXXXXXX444444444444444444444444",
"44444444444444444444444444444XXXXXXXXXXX444444444444444444444444",
"444444444444444444444444444XX##@@@@@@@@@XX4444444444444444444444",
"444444444444444444444444444XX##@@@@@@@@@XX4444444444444444444444",
"444444444444444444444444XXX##--##@@@@###--XX44444444444444444444",
"444444444444444444444444XXX##--##@@@@###--XX44444444444444444444",
"4444444444444444444444XX@@@##--##@@##-------XX444444444444444444",
"4444444444444444444444XX@@@##--##@@##-------XX444444444444444444",
"4444444444444444444444XX@@@##--##@@##-------XX444444444444444444",
"4444444444444444444444XX@@@##--####::-------XX444444444444444444",
"4444444444444444444444XX@@@##--####::-------XX444444444444444444",
"4444444444444444444444XX###--::##,,,,:::----XX444444444444444444",
"4444444444444444444444XX###--::##,,,,:::----XX444444444444444444",
"4444444444444444444444XX---::,,##,,,,,,,::--XX444444444444444444",
"4444444444444444444444XX---::,,##,,,,,,,::--XX444444444444444444",
"4444444444444444444444XX:::XXXX,,##,,XXXXX::XX444444444444444444",
"4444444444444444444444XX:::XXXX,,##,,XXXXX::XX444444444444444444",
"4444444444444444444444XX:::3311,,##,,11133::XX444444444444444444",
"4444444444444444444444XX:::3311,,##,,11133::XX444444444444444444",
"4444444444444444444444XX,,,,,,,,,,,##,,,,,,,XX444444444444444444",
"4444444444444444444444XX,,,,,,,,,,,##,,,,,,,XX444444444444444444",
"4444444444444444444444XX---,,,,,,,,,,###,,--XX444444444444444444",
"4444444444444444444444XX---,,,,,,,,,,###,,--XX444444444444444444",
"4444444444444444444444XX---,,,,,,,,,,###,,--XX444444444444444444",
"44444444444444444444XX@@$$$--22,,22,,222##XX44444444444444444444",
"44444444444444444444XX@@$$$--22,,22,,222##XX44444444444444444444",
"444444444444444444XX@@@@$$$OO--22++22+++OOXX44444444444444444444",
"444444444444444444XX@@@@$$$OO--22++22+++OOXX44444444444444444444",
"4444444444444444XX<<@@$$OOOOOOO--++++OOOXX4444444444444444444444",
"4444444444444444XX<<@@$$OOOOOOO--++++OOOXX4444444444444444444444",
"4444444444444444XX$$<<XXOOOOOOOOO,,OO$$$XXXX44444444444444444444",
"4444444444444444XX$$<<XXOOOOOOOOO,,OO$$$XXXX44444444444444444444",
"4444444444444444XX$$$$XXooooooo>>oo$$$$$$$$$XX444444444444444444",
"4444444444444444XX$$$$XXooooooo>>oo$$$$$$$$$XX444444444444444444",
"4444444444444444XX$$$$XXoooooooooooXXXXX<<<<XX444444444444444444",
"4444444444444444XX$$$$XXoooooooooooXXXXX<<<<XX444444444444444444",
"4444444444444444XX$$$$XXoooooooooooXXXXX<<<<XX444444444444444444",
"4444444444444444XX$$$$XX*************XXXXXXX44444444444444444444",
"4444444444444444XX$$$$XX*************XXXXXXX44444444444444444444",
"4444444444444444XX$$$$XX*************XXXXXXX44444444444444444444",
"4444444444444444XX<<<<XX*******&&*******XX4444444444444444444444",
"4444444444444444XX<<<<XX*******&&*******XX4444444444444444444444",
"444444444444444444XXXX44XXX******&&*****;;XX44444444444444444444",
"444444444444444444XXXX44XXX******&&*****;;XX44444444444444444444",
"4444444444444444444444XX;;;;;;;XXXX&&;;;;;XX44444444444444444444",
"4444444444444444444444XX;;;;;;;XXXX&&;;;;;XX44444444444444444444",
"4444444444444444444444XX%%%%%XX44XX,,,,,XX4444444444444444444444",
"4444444444444444444444XX%%%%%XX44XX,,,,,XX4444444444444444444444",
"4444444444444444444444XX%%%%%XX44XX,,,,,XX4444444444444444444444",
"4444444444444444444444XX=====XX4444XXXXX444444444444444444444444",
"4444444444444444444444XX=====XX4444XXXXX444444444444444444444444",
"4444444444444444      .........  .........    444444444444444444",
"4444444444444444      .........  .........    444444444444444444",
"444444444444444444                          44444444444444444444",
"444444444444444444                          44444444444444444444",
"4444444444444444444444444444444444444444444444444444444444444444",
"4444444444444444444444444444444444444444444444444444444444444444"
};
