/* XPM */
static char * collective_xpm[] = {
"43 48 6 1",
" 	c None",
".	c #161C2E",
"+	c #E9F044",
"@	c #CEA554",
"#	c #FFFFFF",
"$	c #AC7A58",
"                              .....        ",
"                              .......      ",
"                              ..+.....     ",
"                              ..++++...    ",
"                              ..++++++..   ",
"                            ....+@@++++..  ",
"                           .....+@@@++@@.. ",
"                           ......@@++@@@...",
"                          ...###...+@@@@@..",
"                   ..........####...@@.....",
"                 .............####.......  ",
"               ......++++++....###+....    ",
"              .....+++####+++....+++...    ",
"              ....+++#######++@...++...    ",
"             ....++++#######+++@.......    ",
"             ....++++#######+++@......     ",
"            ...++++++###$$##+++@@....      ",
"          .....++++++##$$$##++++@@@..      ",
"      ........+++.....$$$###++++@@@...     ",
"     .......$$@@.......$$$++++++@@@...     ",
"    .....++@@$@....@@..$$$++++++@@@...     ",
"   ...+++++@@@@...@@@+++$$$+++++@@@@..     ",
"  ...+####+++@@....@@++++++++++@@@@@..     ",
" ...++####+++@@.....@@+++++++++@@@@@..     ",
" ..++#####+++++........+++++++@@@@@$..     ",
"...++#####+$$++++.......@@++++@@@$$$..     ",
"...++###+++$$$++...+@...@@@@@@@@$$$$..     ",
"..@++++++++$$$$...++@@..@@$$$$$$$$$$..     ",
"..@@++++++++$$$...+++...@@@$$$$$$$$...     ",
"..@@+++++++++$$$$.......++@@$$$$$$...      ",
"..@@+++++++++$$$$$$$...++++@@$$$$....      ",
"..@@++++++++$$$$$$$$...++++@@$$$.....      ",
"..@@@+++++++$$$++++++++++++@@$$$$$...      ",
"..@@@@++++++$$+++++++++++++@@$$$$$$...     ",
" ..@@@@++++++++++++++++++++@@$$$$$$...     ",
" ..@@@@@++++++++++++++++++@@@$$$$$$...     ",
" ...@@@@@@@++++++++++++++@@@$$$$$$....     ",
"  ..@@@@@@@@@@+++++++++@@@@@$$$$$$...      ",
"  ...@@@@@@@@@@@@@@@@@@@@@@$$$$$$....      ",
"   ...@@@@@@@@@@@@@@@@@@@@$$$$$$....       ",
"    ...$@@@@@@@@@@@@@@@@$$$$$$......       ",
"     ....$$@@@@@@@@@@@$$$$$$.......        ",
"      .......$$$@@@$$$$..........          ",
"        .....................              ",
"            ............                   ",
"                                           ",
"                                           ",
"                                           "};
