/* XPM */
static char *out[] = {
/* columns rows colors chars-per-pixel */
"64 64 28 1 ",
"  c black",
". c #120317",
"X c #230726",
"o c #310D35",
"O c #222028",
"+ c #343336",
"@ c #43153B",
"# c #1C1859",
"$ c #571748",
"% c #6E2749",
"& c #2A6957",
"* c #515151",
"= c #676767",
"- c gray45",
"; c #913C51",
": c #8C4B63",
"> c #C16A7D",
", c #3B804D",
"< c #DEC87E",
"1 c #F8F273",
"2 c #5078A1",
"3 c gray56",
"4 c #9C8C9C",
"5 c #AEAEAE",
"6 c #E5959F",
"7 c #F1DA84",
"8 c #FEFA9D",
"9 c #F2E9F2",
/* pixels */
"<<<777777777777<<<77777777777777777777777<<<<<<<111111111111111<",
"<<<<<<777<<<<111<<<<7<<<<777777<<<<<<<<<<<<<<<11111111111111111<",
"11<<<<<<<<<111111117777<<<<<<<<<<<<<<<<<<<<111111111111111111111",
"1111<<<<<1111111111777777<<<<<<<77711111111111111111111111111111",
"8111111111111117777777777777777771111111111111111111111111118888",
"88881111111111777777<<<<7777777111111111111111111111111118888888",
"778881111111111177777<<<<777771111111111111111111777777777777777",
"7778888888111111777777777777711111111111111117771111177777777777",
"7777777778888777777777777777711111111111111777111111177777777777",
"7777777777777777777777<<<<77777111111111117777111117777777777777",
"7777777777777777<<<<<<<<<<<777     71117777777111177777777777777",
"<<<<777777777777<<<<<<<<<777<7     77777777777777<<<<<77777<<<<<",
"1<<<<7777777777777<<<<<<<<77  %;;;%  7777777777<<<<<<<<<77<<<<11",
"1111111<<<<7777777777<<<<<<<  .....  7777777<<<<<111111111111111",
"111111111<<<<<<7777<<<<<<<<<  .....  777777<<<<11111111111111111",
"11111111111<<<<<<<<<<<<<<<  oo%o%%o%%  <<<<<<<111111118888811111",
"111111111111111<<<<<111111  oo%o%%o%%  <<<<<11111111888888881111",
"7111111111111111111111111 oo%%$o%%$%%;; 777111117777777777777117",
"7777111111111888888888111 $$oo$$ooo$$%% 777711777777777777111111",
"1777777111118888888888881 $$oo$$ooo$$%% 777777777777777777771111",
"7777777111111777777777777 oo$$;;$$;oo$$ 777777777777777777777777",
"7777777717777777777777777 oo$$;;$$;oo$$ <<<<<<777777777777777777",
"77777777777777777777777   $$$$$$$$%$$;; <<<<<<<77777<<<<<<<<<777",
"77777777777777777777777  %%%$$oo::%oo%%   <<<7777<<<<<<<<<<<<<<<",
"77777777777777777777777  %%%$$oo::%oo%%   <777<<<<<<<<<111111111",
"11<<<77777<<<<<1111111<<< oooo#>>>#44$$%  <<<<<<<111111111111111",
"<<<<<<<<<<<<<111111111111 oooo#>>>#44$$%  <<<<111111111111111111",
"111<<<<<77711111111111111 %%992666299oo <<<<<<111111111111111111",
"1111177777777111111118888 %%>>66666>>%% <<<111111111111888888811",
"11117777777771111188888888    X&&&X    1111111111111188888888888",
"17777777<<<<7711177777777 ==&&@,,,@&&33 111111111111888877777777",
"777777<<<<<<<777777777777 ==&&@,,,@&&33 111111111111777777777777",
"7<<77777<<<<<7777777777  =33&&@,,,@&&==3  1111111177777777777777",
"7<<<77<<<<<777777777777  =33&&@,,,@&&==3  1111177777777777777777",
"7777<<<<<<7777777777777  >66@@&,,,&@@==3  1117711177777777777777",
"777<<<<<<<77<<<77777777  >66&&,,,,,&&>>6  7777111777777777777777",
"<<<<<<<<<<77<<<<7777777  >66&&,,,,,&&>>6  7777777777777777777777",
"<<<11<<<<<<77<<<777777777   OO+++++++   77777777777<<<<<<<77777<",
"11111111<<<<7777777777777   OO+++++++   77777777<<<<<<<<<1111111",
"111111111<<<<<777777<<<<<<  >>6   O66  777777<<<<<<<<11111111111",
"1111111111111111<<<<<<<<<<<<  -*  O++  77<<<<<<<<<11111111111111",
"11111111111111111<<<<<<<1111  -*  O++  <<<<<<1111111111111111111",
"8811111111111111111111111111  55  555  7777771111111111111111888",
"8888811111111111111111111111  55  555  7777777711111111111888888",
"77788111111111111111111118888811  ---  7777777777117777777788877",
"7777777711111111111111188888888811   777777777777777777777777777",
"7777777777711111111118888877777777   77777<<<<<<7777777777777777",
"7777777711117777111188887777777777777<<<<<<<<<<<<777777777777777",
"7777777111177111177777777777777777<<<<<<<<<<<<<77777777777777777",
"77777777777777117777777777777777777<<<<<<777<<77777<<77777777777",
"777777777777777777777777777777777777777<7777<<777<<<<<7<<<777777",
"777777777777777777777777777777777777777<777<<<<<<<<<1111<<<<<777",
"7<<<11<<<<<<<<777777777777777<<<777777<<<<<<<<<<<<<111111<<<<<<7",
"<<<1111<<<<<<<<<7777777777<<<<<<<777<<<<<<<<<<<<<11111111111<<<<",
"<<1111111111<<<<<77777777<<<<<<<<<<<<<<<<<<<<<<1111111111111111<",
"11111111111111<<<<<7777<<<<<11111<<<<<<<<<<111111111111111111111",
"1111111111111111<<<<<<111111111111111111111111118888888881111111",
"1111111111111111111111111111111111111111111188888888888777777111",
"1111111111111118881111111111118888888888888888887777777777777777",
"7777777111111888888811111118888877777788888877777777777777777777",
"7777711117777777777881111188877777777777777777777777777777777777",
"777771111177777777778811117777777777777777777777777<<<<777777777",
"77777711177777777777777777777777777777777777777<<<<<<<<<<<<77777",
"77777777777777777777777777777777777777777777<<<<<<<<111111111<<<"
};
