/* XPM */
static char *_1d3bae801cd474785f34eb0f93a1b4f[] = {
/* columns rows colors chars-per-pixel */
"64 64 188 2 ",
"   c #292334",
".  c #2F2835",
"X  c #2E273A",
"o  c #2C2B3A",
"O  c #342D37",
"+  c #322A3C",
"@  c #32313B",
"#  c #40393C",
"$  c #4B433D",
"%  c #352D42",
"&  c #382F46",
"*  c #2F3A47",
"=  c #373043",
"-  c #393047",
";  c #3B324A",
":  c #3C384E",
">  c #3B3E53",
",  c #40364B",
"<  c #453C4D",
"1  c #493F4F",
"2  c #35444E",
"3  c #3B4656",
"4  c #324B55",
"5  c #315057",
"6  c #37535E",
"7  c #39515E",
"8  c #3B5562",
"9  c #345C62",
"0  c #385C65",
"q  c #39696E",
"w  c #3E6D72",
"e  c #397073",
"r  c #4F4945",
"t  c #4B414D",
"y  c #554D45",
"u  c #50464C",
"i  c #5C5547",
"p  c #4C4756",
"a  c #554C52",
"s  c #435656",
"d  c #5C5353",
"f  c #57545A",
"g  c #655B4B",
"h  c #655957",
"j  c #5D614D",
"k  c #69624B",
"l  c #766C4C",
"z  c #7D774D",
"x  c #6D6253",
"c  c #76695D",
"v  c #67735A",
"b  c #415262",
"n  c #635A67",
"m  c #456869",
"M  c #597366",
"N  c #426B75",
"B  c #45747D",
"V  c #487779",
"C  c #716666",
"Z  c #757579",
"A  c #847E4F",
"S  c #877E57",
"D  c #877862",
"F  c #68866E",
"G  c #778575",
"H  c #9A954E",
"J  c #9E9A4E",
"K  c #89835A",
"L  c #928653",
"P  c #9A8C55",
"I  c #9E9057",
"U  c #9B905C",
"Y  c #A19C4E",
"T  c #A7985E",
"R  c #AB9B5F",
"E  c #A9A54F",
"W  c #AAA54F",
"Q  c #A7A150",
"!  c #ABA652",
"~  c #A8A15A",
"^  c #B4AF56",
"/  c #898260",
"(  c #958566",
")  c #9C8B62",
"_  c #9C8B69",
"`  c #A49465",
"'  c #A3926A",
"]  c #AD9C6D",
"[  c #B09E6F",
"{  c #98A077",
"}  c #ACA765",
"|  c #B2AB65",
" . c #B7A76A",
".. c #B5A26D",
"X. c #BAB266",
"o. c #BFB867",
"O. c #AAA576",
"+. c #B9A872",
"@. c #B5AE7B",
"#. c #ABB970",
"$. c #BBB175",
"%. c #C2BC5D",
"&. c #C2AF6D",
"*. c #C4BA67",
"=. c #C2AE73",
"-. c #C6B276",
";. c #CBB877",
":. c #D3BF7A",
">. c #C6C15D",
",. c #CAC268",
"<. c #DAD267",
"1. c #DAD36C",
"2. c #C5C174",
"3. c #C8C37B",
"4. c #D3C37B",
"5. c #DCC67D",
"6. c #DEC87E",
"7. c #D0DF7E",
"8. c #E2DC6C",
"9. c #E1CB7E",
"0. c #E4D17C",
"q. c #F0DD7F",
"w. c #DCE479",
"e. c #ECE471",
"r. c #E9E776",
"t. c #F1E677",
"y. c #F5ED75",
"u. c #F3E27E",
"i. c #F6EC79",
"p. c #F7F173",
"a. c #F8F273",
"s. c #F7F079",
"d. c #F9F379",
"f. c #497C83",
"g. c #3F8384",
"h. c #4C898D",
"j. c #518C8D",
"k. c #4B8F94",
"l. c #4B9594",
"z. c #4D979A",
"x. c #569997",
"c. c #708180",
"v. c #669E90",
"b. c #73A788",
"n. c #60AC9F",
"m. c #7BAE9F",
"M. c #4EA3A4",
"N. c #55A6A3",
"B. c #5BA8A5",
"V. c #65ABA9",
"C. c #76AFAA",
"Z. c #79B8A1",
"A. c #9E8E85",
"S. c #9C9898",
"D. c #A2968A",
"F. c #9EB285",
"G. c #A8B284",
"H. c #A9BC8D",
"J. c #A5A79B",
"K. c #BAAA9E",
"L. c #9BBAAE",
"P. c #A6B5AA",
"I. c #B9B2A4",
"U. c #CBBAA9",
"Y. c #8EC192",
"T. c #B1C78C",
"R. c #D5D180",
"E. c #E4CE80",
"W. c #E7D181",
"Q. c #ECD682",
"!. c #EED883",
"~. c #E7DA89",
"^. c #F1DB84",
"/. c #F3E082",
"(. c #F3E189",
"). c #EAEE9A",
"_. c #F5ED93",
"`. c #F7F193",
"'. c #FBF494",
"]. c #FCF595",
"[. c #FCF894",
"{. c #FCF69A",
"}. c #FDF99B",
"|. c #C8C8BC",
" X c #DDCBB7",
".X c #E7D5BE",
"XX c #CAD7CD",
"oX c #E3D9C7",
/* pixels */
"6.6.9.Q.!.!.^.^.^.!.!.!.!.^.!.9.6.9.Q.!.^.!.!.!.!.^.^.^.^.^.^.!.!.!.!.!.!.!.!.!.Q.9.6.6.6.6.9.0.y.a.a.a.a.a.a.a.a.a.a.a.a.a.y.9.",
"9.9.6.9.9.9.Q.!.Q.9.9.9.0.y.y.t.0.9.9.E.Q.E.9.9.9.Q.!.!.!.!.Q.9.9.9.9.9.9.9.9.9.9.6.6.9.9.0.t.y.p.a.a.a.a.a.a.a.a.a.a.a.a.a.y.0.",
"y.t.0.9.6.6.9.9.9.9.0.t.y.p.a.p.y.y.y.!.^.!.Q.9.9.9.9.9.9.9.:.' +.9.9.9.9.9.9.9.9.9.0.t.y.y.p.a.a.a.a.a.a.a.a.a.a.a.a.a.a.a.p.y.",
"d.p.y.t.0.9.9.9.0.t.y.p.a.a.a.y.y.p.y.^.^.^.^.!.Q.9.9.9.9.9.-.d ( !.q.y.y.y.y.y.y.y.y.p.a.a.a.a.a.a.a.a.a.a.a.a.a.a.a.a.d.d.d.d.",
"[.d.d.d.y.y.y.y.y.p.a.a.a.a.y.^.^.^.^.^.!.!.!.!.^.!.!.!.!.!.:.d ( y.y.a.a.a.a.a.a.a.a.a.a.a.a.a.a.a.a.a.a.a.a.a.a.d.d.d.[.}.}.}.",
"{.].[.[.d.a.a.a.a.a.a.a.a.p.u.^.^.^.^.!.E.9.9.9.Q.^.^.^.^.^.4.d x } e.a.a.a.a.a.a.a.a.a.a.a.a.a.a.y.p.y.y.y.y.y.s.'.].].{.{.{.{.",
"^.(.'.}.[.d.d.d.d.d.a.a.a.a.y.y.^.^.^.^.Q.9.9.9.E.!.^.^.^.^.1.d ; d 1.a.a.a.a.a.a.a.a.a.a.y.y.y.p.u././.^.^.^.^.^.^.^.^.^.^.^.^.",
"^.^.(.'.{.].].].].[.d.d.d.y.y.y.^.^.^.^.^.!.!.!.!.^.^.^.^.y.1.d ; d 1.a.a.a.a.a.a.a.a.y.y./.^.u.y.p.y.y.y.^.^.^.^.^.^.^.^.^.^.^.",
"^.^.^.^.^.^.^.^.(.'.].].'./.^.^.^.^.^.^.^.^.!.!.!.!.^.^.^.,.K t ; d 1.a.a.a.a.a.a.a.y.^.^.^.y.y.a.a.a.y.y.^.^.^.^.^.^.^.^.^.^.^.",
"^.^.^.^.^.^.^.^.^.^.^.^.^.^.^.^.!.!.!.!.!.Q.9.9.9.9.Q.^.^._ ; ; ; a o.8.a.a.a.y.y.y.^.^.^.^.y.a.a.a.y.^.^.^.^.^.^.^.^.^.^.^.^.^.",
"!.!.!.!.^.^.^.^.^.^.^.^.^.^.^.!.9.9.9.9.9.9.6.6.6.9.E.!.!._ ; ; ; , a ] y.y.y.^.^.^.^.^.^.^.y.y.y.y.^.!.!.!.^.^.^.^.^.!.!.!.!.!.",
"9.9.9.9.Q.^.^.^.^.^.^.^.^.^.^.!.9.9.6.6.6.6.6.6.9.Q.!.!.E._ ; ; ; ; ; _ ^.^.^.^.^.^.^.^.^.^.^.!.!.9.9.9.9.9.Q.!.^.^.Q.9.9.9.9.0.",
"t.0.9.9.0.^.^.!.!.!.!.^.^.^.^.^.!.Q.9.9.9.6.6.6.6.9.Q.W.-.D ; ; ; ; ; _ ^.^.^.^.^.^.^.^.!.!.Q.9.9.9.9.9.9.9.9.0.^.^.0.9.9.0.t.y.",
"p.y.y.y.y.y.y.0.9.9.9.Q.!.!.!.^.^.^.!.Q.Q.9.6.6.6.6.9.;.c 1 ; ; ; ; ; _ Q.^.^.^.^.^.^.Q.9.9.9.9.0.t.y.y.y.y.y.y.y.y.y.y.y.y.p.a.",
"a.a.a.a.a.a.p.y.t.0.9.9.9.9.9.Q.!.!.Q.9.9.6.6.6.6.6.6.-.h ; ; ; ; ; ; h ' 9.!.!.!.!.Q.9.6.6.0.t.y.p.a.a.a.a.d.d.d.d.d.a.a.a.a.a.",
"a.a.a.a.a.a.a.a.p.y.t.0.9.9.9.9.9.9.9.6.9.9.9.9.9.9.4.O.a ; ; ; ; ; ; ; d O.+.......=.5.9.0.t.p.a.a.a.a.d.d.[.}.}.}.[.d.a.a.a.a.",
"y.a.a.a.a.a.a.a.a.a.p.y.y.y.t.0.9.9.9.0.t.y.y.t.e.e.#.M 3 ; ; ; ; ; ; : 3 m s # # # x ;.e.e.p.a.y.y.y.s.'.].{.{.{.{.{.'.s.a.a.y.",
"^.y.y.y.a.a.a.a.a.a.a.a.a.d.d.i.i.i.i.i.d.d.a.,.A z j 2 6 8 7 : ; ; ; b N 4 o       # l z ~ e.y.^.^.^.^.^.^.^.^.^.^././.u.p.p.u.",
"^.^.^.^.y.y.y.a.a.a.a.a.d.[.}.}.}.}.}.}.(.3.*.K O     o 4 9 9 8 b b b N w o           X X g +.9.^.^.^.^.^.^.^.^.^.^.i.y.y.a.a.y.",
"i.^.^.^.^.^.^.y.a.a.a.d.[.{.{.{.{.{.{._.@.r # @         o o * f.k.k.k.0 o           X & - , d =.^.^.^.^.^.^.^.^.^.^.^.^.y.y.y.y.",
"^.^.^.^.^.^.^.y.a.y.y.y.i./.^.^.^.^.Q.` i .                 o 4 6 6 6 *   + % % % % % ; ; ; t +.^.^.^.^.^.^.^.^.^.^.^.^.^.^.^.^.",
"^.^.^.^.^.^.^.^.i.^.^.^.^.^.^.^.^.9...g X             X X X X X X X X X + ; ; ; ; ; ; ; ; t c ;.^.^.^.^.!.!.!.!.!.!.!.!.!.^.^.^.",
"^.^.^.^.^.^.^.^.^.^.^.^.^.^.^.^.^.-.h < %           + - - - - - - - - - ; ; ; ; ; ; ; < 1 c ;.W.^.!.!.Q.9.9.9.9.9.9.9.9.9.Q.!.!.",
"^.^.^.^.^.^.^.^.^.^.^.^.^.^.^.^.^.6.[ h - % % % % % & ; ; ; ; ; ; ; ; ; ; ; ; ; ; ; d _ ' -.W.Q.Q.9.9.9.6.6.6.9.9.9.9.9.9.9.0.0.",
"^.^.!.!.!.^.^.^.^.^.!.!.!.!.!.^.^.^.0.' h , ; ; ; ; ; ; ; ; ; ; ; ; ; > 3 3 3 3 3 f ( 6.Q.Q.9.9.9.9.9.9.9.9.0.t.y.y.y.y.y.y.y.y.",
"y.t.9.9.9.Q.!.!.!.Q.9.9.9.9.0.y.y.y.y.e.| a t 1 1 : : : : : : < : ; < b w q q e V { :.6.9.9.9.9.0.t.y.y.y.y.y.p.a.a.a.a.a.a.a.a.",
"0.0.9.6.6.9.9.9.9.9.9.9.0.t.y.p.a.a.a.a.8.o.X.X.} M 0 0 0 0 m Z f - C G c.b B l.l.G.6.6.6.9.t.y.y.p.a.a.a.a.a.a.a.a.a.a.a.a.a.a.",
"y.y.t.0.9.9.9.9.Q.!.!.t.y.p.a.a.a.a.a.a.a.d.d.d.r.b.g.g.g.g.j.P.Z 1 D.I.S.p B M.N.H.6.9.9.0.y.a.a.a.a.a.a.a.a.d.d.d.d.d.d.d.a.a.",
"a.a.p.y.t.!.!.!.^.^.^.^.^.y.a.a.a.a.d.d.d.[.}.}.).Z.M.M.M.M.V.XXS.n U.oX|.n f.M.N.H.0.t.y.y.p.a.a.a.a.a.a.d.d.[.}.}.}.}.}.[.d.d.",
"a.y.y.y.^.^.^.^.!.!.!.!.^.y.a.a.a.s.'.].].{.{.{.).Z.M.M.M.M.V.|.U.K. X.X XK.m.M.B.T.y.p.a.a.a.a.a.a.a.a.d.[.}.}.{.{.{.{.{.{.].].",
"y.^.^.^.^.^.!.Q.9.9.9.9.Q./.y.y.y.^.^.^.^.^.^.^.~.T.Z.N.M.M.B.L.J.A.A.A.D.P.C.n.Y.7.a.a.a.a.a.a.a.a.a.d.'.{.{.'.(.^.^.^.^.^.^.^.",
"^.!.!.^.^.!.E.9.6.6.6.6.9.!.^.^.^.^.^.^.^.^.^.^.!.Q.H.x.z.z.z.x.m + + + 2 h.z.b.w.p.a.a.a.a.a.a.a.a.y.y./.^.^.^.^.^.^.^.^.^.^.^.",
"!.9.9.Q.^.^.Q.Q.9.6.6.9.9.!.^.^.^.^.^.^.^.^.^.^.^.^.O.b b b b b > %     o 2 2 v 8.a.a.a.a.a.a.y.y.y.^.^.^.^.^.^.^.^.^.^.^.^.^.^.",
"!.9.9.E.Q.Q.9.9.6.6.9.Q.!.^.^.^.^.^.^.^.^.^.^.^.W.+.c ; ; ; ; ; ; & X         i 8.a.a.a.a.y.y.u./.^.^.^.^.^.^.^.^.^.^.^.^.^.^.^.",
"^.!.Q.Q.9.9.6.6.6.9.Q.^.!.!.!.^.^.^.^.^.^.^.^.^.6.c ; ; ; ; ; ; ; & X         y ,.e.y.y.y./.u.y.y.i.^.^.^.^.^.^.^.^.^.^.^.^.^.^.",
"!.!.Q.9.6.6.6.6.6.9.!.!.9.9.9.Q.^.^.^.^.^.^.^.^.6.h ; ; ; ; ; ; ; & X         O i  .^.^.^.^.i.y.y.^.^.^.^.^.^.^.^.^.^.^.^.^.^.^.",
"9.9.9.9.9.6.6.6.6.9.Q.!.9.6.6.9.!.^.^.^.^.^.^.:._ a ; ; ; ; ; ; ; & X           O ` ^.^.^.^.^.^.^.^.^.!.!.!.!.!.!.!.^.^.^.^.^.!.",
"9.9.0.t.t.0.9.9.6.6.9.Q.Q.9.9.9.!.^.^.^.^.^.^.] 1 ; ; ; ; ; ; ; ; & X           O ` ^.^.^.^.^.^.!.!.Q.9.9.9.9.9.9.0.^.^.^.^.^.0.",
"y.y.y.p.p.y.y.t.0.6.6.9.Q.Q.Q.!.^.^.^.^.!.!.!.] 1 ; ; ; ; ; ; ; ; ; & X         O ` ^.^.^.!.!.Q.9.9.9.6.6.9.9.9.0.t.y.y.y.y.y.y.",
"a.a.a.a.a.a.a.p.t.0.9.9.9.0.^.^.!.!.!.Q.9.9.9.' < ; ; ; ; ; ; ; ; ; ; +         O ` !.!.Q.9.9.9.6.6.9.9.0.t.y.y.y.p.a.a.a.a.a.a.",
"a.a.a.a.a.a.a.a.p.y.y.y.y.y.y.y.0.9.9.9.6.6.6.' < ; ; ; ; ; ; ; ; ; ; +         O ) 9.9.9.9.9.9.9.0.t.y.y.p.a.a.a.a.a.a.a.a.a.a.",
"d.d.a.a.a.a.a.a.a.a.a.a.a.a.a.p.t.0.9.9.9.9.9.' 1 ; ; ; ; ; ; ; ; ; ; +         O ) 9.9.9.t.y.y.y.y.p.a.a.a.a.a.a.a.a.a.a.d.d.d.",
"}.[.d.d.d.a.a.a.a.a.a.a.a.a.a.a.p.y.y.y.y.y.y.| 1 ; ; ; ; ; ; ; ; ; ; +         O ` !.!.!.y.y.a.a.a.a.a.a.a.a.a.a.a.d.d.d.[.}.}.",
"{.{.].[.[.d.a.a.a.a.a.a.a.a.a.a.a.a.a.a.a.a.a.| 1 ; ; ; ; ; ; ; ; ; ; +         O ` ^.^.^.^.^.y.y.a.a.y.y.y.y.y.y.s.'.[.}.}.{.{.",
"^.^.(.'.].s.y.y.a.a.a.a.a.a.a.a.a.a.a.a.a.a.a.| 1 ; ; ; ; ; ; ; ; ; ; +         O ` ^.^.^.^.^.^.^.y.y.^.^.^.^.^.^.^.(.'.{.'.(.^.",
"^.^.^.^.^.^.^.^.y.y.y.a.a.a.a.a.a.a.a.a.a.d.d.@.1 ; ; ; ; ; ; ; ; - + X         O ` !.!.!.!.!.!.^.^.^.^.^.^.^.^.^.^.^.^.^.^.^.^.",
"^.^.^.^.^.^.^.^././.u.y.y.y.y.y.a.a.a.a.d.[.}.@.1 ; ; ; ; ; ; ; ; & X           O ` 9.9.9.9.9.9.Q.^.^.^.^.^.^.^.^.^.^.^.^.^.^.^.",
"^.^.^.^.^.^.^.^.y.y.y.y./.^./.u.y.y.y.s.'.{.{.@.1 ; ; ; ; ; ; ; ; & X           O ) 6.6.6.6.6.9.E.!.^.^.^.^.^.^.^.^.^.^.^.^.^.^.",
"^.^.^.^.^.^.^.i.y.y.y.^.^.i.y.y.y.^.^.^.^.^.^.4._ a ; ; ; ; ; ; ; & X           O ) 9.9.6.6.9.Q.!.^.^.!.!.^.^.^.^.^.^.^.^.^.^.^.",
"^.^.^.^.^.^.^.^.^.^.^.^.^.^.y.y.^.^.^.^.^.^.^.^.9.D a ; ; ; ; ; - %           O y ..!.Q.9.9.Q.^.^.!.Q.9.9.Q.^.!.!.!.^.^.^.^.^.^.",
"^.^.^.^.^.^.^.^.^.^.^.^.^.^.^.^.^.^.^.^.^.^.^.^.Q.6._ < : : : : = O           y =.W.^.Q.9.9.Q.!.Q.9.9.6.9.0.!.0.9.9.Q.!.!.^.^.^.",
"^.!.!.!.^.^.!.!.!.!.!.!.!.!.^.^.^.^.^.^.^.^.^.^.^.^.G.V B B B B G / s 5 5 5 5 M 5.!.Q.9.6.6.9.9.9.6.6.0.t.y.y.t.0.6.9.9.9.Q.!.^.",
"Q.9.9.0.y.y.0.9.9.9.9.9.9.9.Q.!.^.^.^.^.^.^.^.^.^.^.T.v.j.h.h.x.F.;.F m 9 9 m G 4.9.9.6.6.6.6.6.6.9.0.t.p.a.a.p.t.0.9.9.6.9.9.Q.",
"9.6.0.t.p.p.t.0.9.9.9.9.6.6.9.9.Q.^.^.^.^.^.^.^.^.Q.$.K f > p S U T U i o o k ` :.6.6.6.6.6.6.9.0.t.y.p.a.a.a.a.p.y.y.t.0.9.9.9.",
"9.0.t.p.a.a.p.y.y.y.y.t.0.9.6.6.9.Q.!.^.^.^.^.!.W.&.T S u ; t S P P P i   X g I ..;.6.9.9.9.0.t.y.p.a.a.a.a.a.a.a.a.a.p.y.y.t.0.",
"y.y.p.a.a.a.a.a.a.a.a.p.y.t.0.9.6.9.9.Q.!.!.!.0.5.R P L k i g H Q P P k $ $ l P I &.0.t.y.y.y.p.d.d.d.d.d.d.d.d.d.a.a.a.a.a.p.y.",
"a.a.a.a.a.a.a.a.a.a.a.a.a.p.y.t.0.9.9.9.0.0.y.y.e.%.! Q Y J Y W W W Q J H H Y ! ^ <.y.p.d.d.d.d.[.}.}.[.}.}.[.].'.s.y.y.y.a.a.a.",
"a.a.a.a.a.a.a.a.a.a.a.a.a.a.a.d.i.i.y.y.y.y.p.a.y.8.>.! W W ! ! ! ! ! ! ! ! ! ^ <.e.d.d.[.}.}.}.{.{.{.{.{.{.'.(.^.^.^.^.^.y.y.y.",
"y.y.y.y.y.y.y.a.a.a.a.a.a.d.d.[.}.[.d.d.a.a.a.a.a.a.8.>.%.*.2.2.2.2.2.2.2.2.2.R.`.}.}.}.{.{.{.'.(.^.^.^.^.^.^.^.^.^.^.^.^.^.^.^.",
"^.^.^.^.^.^.u.p.a.y.y.y.s.'.].{.{.{.].[.d.a.a.a.a.a.s.`.`._._._.!.Q.Q.Q.Q.!._.`.{.{.{.'.(.^.^.^.^.^.^.^.^.^.^.^.^.^.^.^.^.^.^.^.",
"^.^.^.^.^.y.y.a.p.u.^.^.^.^.^.^.^.^.(.'.[.d.a.a.a.d.'.{.'.(.^.^.^.^.^.^.^.^.^.^.^.^.^.^.^.^.^.^.^.^.^.!.!.!.!.^.^.^.^.^.^.^.^.^.",
"^.^.^.^.^.y.a.a.a.i.^.^.^.^.^.^.^.^.^.(.'.'.s.y.y.y./.^.^.^.^.^.^.^.^.^.^.^.^.^.^.^.^.^.^.^.^.!.!.!.Q.9.9.9.9.Q.!.!.!.^.^.^.^.^.",
"^.^.^.^.^.^.y.y.y.^.^.^.^.^.^.^.^.^.^.^.^.^.^.^.^.^.^.^.^.^.^.^.^.^.^.^.^.^.^.^.^.^.^.^.!.!.Q.9.9.9.9.6.9.9.9.9.0.0.0.^.^.!.!.!.",
"^.^.^.^.^.^.^.^.^.^.^.^.^.^.^.^.^.^.^.^.^.^.^.^.^.^.^.^.^.^.^.^.^.^.^.^.^.^.^.^.^.^.^.!.9.9.9.6.6.6.6.9.t.y.y.y.y.y.y.y.y.9.9.9."
};
