/* XPM */
static char *result[] = {
/* columns rows colors chars-per-pixel */
"64 64 23 1 ",
"  c #111211",
". c #131513",
"X c #1C1F1C",
"o c #342A25",
"O c #3C312C",
"+ c #7A2D18",
"@ c #512D23",
"# c #5B3C2C",
"$ c #453A35",
"% c #4A413C",
"& c #5A5237",
"* c #645C3F",
"= c #695D58",
"- c #5E724A",
"; c #70694F",
": c #677755",
"> c #6A7A5A",
", c #70805F",
"< c #778667",
"1 c #8DAB5F",
"2 c #A2A97F",
"3 c #BEC49F",
"4 c None",
/* pixels */
"4444444444444444444444444444444444444444444444444444444444444444",
"4444444444444444444444444444444444444444444444444444444444444444",
"4444444444444444444444444444444444444444444444444444444444444444",
"4444444444444444444444444444444444444444444444444444444444444444",
"4444444444444444444444444444444444444444444444444444444444444444",
"4444444444444444444444444444444444444444444444444444444444444444",
"444444444444444444444444444XXXXXXXXXXX44444444444444444444444444",
"444444444444444444444444444XXXXXXXXXXX44444444444444444444444444",
"444444444444444444444444XXX##@@@@@@@@@X4444444444444444444444444",
"444444444444444444444444XXX##@@@@@@@@@X4444444444444444444444444",
"444444444444444444444444XXX##@@@@@@@@@X4444444444444444444444444",
"4444444444444444444444XX###--##@@@@###-XX44444444444444444444444",
"4444444444444444444444XX###--##@@@@###-XX44444444444444444444444",
"44444444444444444444XX@@###--##@@##------XX444444444444444444444",
"44444444444444444444XX@@###--##@@##------XX444444444444444444444",
"44444444444444444444XX@@###--####::------XX444444444444444444444",
"44444444444444444444XX##---::##,,,,:::---XX444444444444444444444",
"44444444444444444444XX##---::##,,,,:::---XX444444444444444444444",
"44444444444444444444XX--:::,,##,,,,,,,:--XX444444444444444444444",
"44444444444444444444XX--:::,,##,,,,,,,:--XX444444444444444444444",
"44444444444444444444XX::     ,,##,,    ::XX444444444444444444444",
"44444444444444444444XX::     ,,##,,    ::XX444444444444444444444",
"44444444444444444444XX::     ,,##,,    ::XX444444444444444444444",
"44444444444444444444XX::33311,,##,,1113::XX444444444444444444444",
"44444444444444444444XX::33311,,##,,1113::XX444444444444444444444",
"44444444444444444444XX,,,,,,,,,,,##,,,,,,XX444444444444444444444",
"44444444444444444444XX,,,,,,,,,,,##,,,,,,XX444444444444444444444",
"44444444444444444444XX--,,,,,,,,,,,###,--XX444444444444444444444",
"44444444444444444444XX--,,,,,,,,,,,###,--XX444444444444444444444",
"44444444444444444444XX$$---22,,22,,222#$$XX444444444444444444444",
"44444444444444444444XX$$---22,,22,,222#$$XX444444444444444444444",
"44444444444444444444XX$$OOO--22++22+++O$$XX444444444444444444444",
"44444444444444444444XX$$OOO--22++22+++O$$XX444444444444444444444",
"44444444444444444444XX$$OOO--22++22+++O$$XX444444444444444444444",
"44444444444444444444XX$$OOOOO--++++OOOO$$XX444444444444444444444",
"44444444444444444444XX@@OOOOOOOOOOOOOOO$$XX444444444444444444444",
"44444444444444444444XX@@OOOOOOOOOOOOOOO$$XX444444444444444444444",
"44444444444444444444XX<<oooOOOO++OO,,,o$$XX444444444444444444444",
"44444444444444444444XX<<oooOOOO++OO,,,o$$XX444444444444444444444",
"4444444444444444444X$$$$XXXoooooo>>>>>$$$XX444444444444444444444",
"4444444444444444444X$$$$XXXoooooo>>>>>$$$XX444444444444444444444",
"4444444444444444444X$$$$XXXoooooo>>ooo$$$XX444444444444444444444",
"4444444444444444444X$$$$XXXoooooo>>ooo$$$XX444444444444444444444",
"4444444444444444444X$$$$XXXooooooooooo$$$XX444444444444444444444",
"4444444444444444444X$$$$XXXooooooooooo$$$XX444444444444444444444",
"4444444444444444444X$$$$XXXooooooooooo$$$XX444444444444444444444",
"4444444444444444444X<<<<**************<<<XX444444444444444444444",
"4444444444444444444X<<<<**************<<<XX444444444444444444444",
"44444444444444444444XXXX*******&&******XX44444444444444444444444",
"44444444444444444444XXXX*******&&******XX44444444444444444444444",
"4444444444444444444444XX*****&&XX;;;;;;XX44444444444444444444444",
"4444444444444444444444XX*****&&XX;;;;;;XX44444444444444444444444",
"4444444444444444444444XX*****XX44XX----XX44444444444444444444444",
"4444444444444444444444XX%%%%%XX44XX>>>>XX44444444444444444444444",
"4444444444444444444444XX%%%%%XX44XX>>>>XX44444444444444444444444",
"4444444444444444444444XX=====XX4444XXXX4444444444444444444444444",
"4444444444444444444444XX=====XX4444XXXX4444444444444444444444444",
"4444444444444444444444XX=====XX4444XXXX4444444444444444444444444",
"4444444444444444444   .........  ........  444444444444444444444",
"4444444444444444444   .........  ........  444444444444444444444",
"44444444444444444444                     44444444444444444444444",
"44444444444444444444                     44444444444444444444444",
"4444444444444444444444444444444444444444444444444444444444444444",
"4444444444444444444444444444444444444444444444444444444444444444"
};
