/* XPM */
static char *result[] = {
/* columns rows colors chars-per-pixel */
"64 64 23 1 ",
"  c #0A0B0A",
". c #0C0C0C",
"X c #111211",
"o c #2D2420",
"O c #342A25",
"+ c #3C312C",
"@ c #7A2D18",
"# c #512D23",
"$ c #5B3C2C",
"% c #453A35",
"& c #5A5237",
"* c #645C3F",
"= c #625652",
"- c #5E724A",
"; c #70694F",
": c #677755",
"> c #6A7A5A",
", c #70805F",
"< c #778667",
"1 c #8DAB5F",
"2 c #A2A97F",
"3 c #BEC49F",
"4 c None",
/* pixels */
"4444444444444444444444444444444444444444444444444444444444444444",
"4444444444444444444444444444444444444444444444444444444444444444",
"4444444444444444444444444444444444444444444444444444444444444444",
"4444444444444444444444444444444444444444444444444444444444444444",
"4444444444444444444444444444444444444444444444444444444444444444",
"4444444444444444444444444444444444444444444444444444444444444444",
"4444444444444444444444444444XXXXXXXXXX44444444444444444444444444",
"4444444444444444444444444444XXXXXXXXXX44444444444444444444444444",
"44444444444444444444444444XX$$########XX444444444444444444444444",
"44444444444444444444444444XX$$########XX444444444444444444444444",
"44444444444444444444444444XX$$########XX444444444444444444444444",
"444444444444444444444444XX$$--$$####$$--XX4444444444444444444444",
"444444444444444444444444XX$$--$$####$$--XX4444444444444444444444",
"444444444444444444444XXX##$$--$$###$------XX44444444444444444444",
"444444444444444444444XXX##$$--$$###$------XX44444444444444444444",
"444444444444444444444XXX##$$--$$$$$:------XX44444444444444444444",
"444444444444444444444XXX$$--::$$,,,,::----XX44444444444444444444",
"444444444444444444444XXX$$--::$$,,,,::----XX44444444444444444444",
"444444444444444444444XXX--::,,$$,,,,,,::--XX44444444444444444444",
"444444444444444444444XXX--::,,$$,,,,,,::--XX44444444444444444444",
"444444444444444444444XXX::XXXX,,$$$,XXXX::XX44444444444444444444",
"444444444444444444444XXX::XXXX,,$$$,XXXX::XX44444444444444444444",
"444444444444444444444XXX::XXXX,,$$$,XXXX::XX44444444444444444444",
"444444444444444444444XXX::3311,,$$$,1133::XX44444444444444444444",
"444444444444444444444XXX::3311,,$$$,1133::XX44444444444444444444",
"444444444444444444444XXX,,,,,,,,,,,$,,,,,,XX44444444444444444444",
"444444444444444444444XXX,,,,,,,,,,,$,,,,,,XX44444444444444444444",
"444444444444444444444XXX--,,,,,,,,,,$$,,--XX44444444444444444444",
"444444444444444444444XXX--,,,,,,,,,,$$,,--XX44444444444444444444",
"444444444444444444444XXX%%--22,,222,22$$%%XX44444444444444444444",
"444444444444444444444XXX%%--22,,222,22$$%%XX44444444444444444444",
"444444444444444444444XXX##++--22@@@2@@++%%XX44444444444444444444",
"444444444444444444444XXX##++--22@@@2@@++%%XX44444444444444444444",
"444444444444444444444XXX##++--22@@@2@@++%%XX44444444444444444444",
"444444444444444444444XXX<<##++--@@@@++++%%%%XXX44444444444444444",
"444444444444444444444XXX%%<<++++++++++++%%%%XXX44444444444444444",
"444444444444444444444XXX%%<<++++++++++++%%%%XXX44444444444444444",
"444444444444444444444XXX%%%%++++++++,,OO%%%%XXX44444444444444444",
"444444444444444444444XXX%%%%++++++++,,OO%%%%XXX44444444444444444",
"444444444444444444444444XX%%OOOOOOO>>>XXXX%%XXX44444444444444444",
"444444444444444444444444XX%%OOOOOOO>>>XXXX%%XXX44444444444444444",
"444444444444444444444444XX%%%%OOOOO>OOXXXX%%%%%XX444444444444444",
"444444444444444444444444XX%%%%OOOOO>OOXXXX%%%%%XX444444444444444",
"444444444444444444444444XX<<<<ooooooooXXXX%%%%%XX444444444444444",
"444444444444444444444444XX<<<<ooooooooXXXX%%%%%XX444444444444444",
"444444444444444444444444XX<<<<ooooooooXXXX%%%%%XX444444444444444",
"444444444444444444444444XX**************XX<<<<<XX444444444444444",
"444444444444444444444444XX**************XX<<<<<XX444444444444444",
"444444444444444444444444XX******&&&*****XXXXXXX44444444444444444",
"444444444444444444444444XX******&&&*****XXXXXXX44444444444444444",
"444444444444444444444444XX;;;;;;XXX&****XX4444444444444444444444",
"444444444444444444444444XX;;;;;;XXX&****XX4444444444444444444444",
"444444444444444444444444XX====XX444X****XX4444444444444444444444",
"44444444444444444444444444XXXX44444X>>>>XX4444444444444444444444",
"44444444444444444444444444XXXX44444X>>>>XX4444444444444444444444",
"4444444444444444444444444444@@44444X<<<<XX4444444444444444444444",
"4444444444444444444444444444@@44444X<<<<XX4444444444444444444444",
"4444444444444444444444444444@@44444X<<<<XX4444444444444444444444",
"444444444444444444444   ........   .......       444444444444444",
"444444444444444444444   ........   .......       444444444444444",
"444444444444444444444444                       44444444444444444",
"444444444444444444444444                       44444444444444444",
"4444444444444444444444444444444444444444444444444444444444444444",
"4444444444444444444444444444444444444444444444444444444444444444"
};
