/* XPM */
static char *result[] = {
/* columns rows colors chars-per-pixel */
"64 64 24 1 ",
"  c #0A0B0A",
". c #0C0C0C",
"X c #111211",
"o c #2D2420",
"O c #342A25",
"+ c #3C312C",
"@ c #7A2D18",
"# c #512D23",
"$ c #5B3C2C",
"% c #453A35",
"& c #4A413C",
"* c #5A5237",
"= c #645C3F",
"- c #695D58",
"; c #5E724A",
": c #70694F",
"> c #677755",
", c #6A7A5A",
"< c #70805F",
"1 c #778667",
"2 c #8DAB5F",
"3 c #A2A97F",
"4 c #BEC49F",
"5 c None",
/* pixels */
"5555555555555555555555555555555555555555555555555555555555555555",
"5555555555555555555555555555555555555555555555555555555555555555",
"5555555555555555555555555555555555555555555555555555555555555555",
"5555555555555555555555555555555555555555555555555555555555555555",
"5555555555555555555555555555555555555555555555555555555555555555",
"5555555555555555555555555555555555555555555555555555555555555555",
"5555555555555555555555555555555555555555555555555555555555555555",
"5555555555555555555555555555XXXXXXXXXX55555555555555555555555555",
"5555555555555555555555555555XXXXXXXXXX55555555555555555555555555",
"5555555555555555555555555555XXXXXXXXXX55555555555555555555555555",
"55555555555555555555555555XX$$########XX555555555555555555555555",
"55555555555555555555555555XX$$########XX555555555555555555555555",
"55555555555555555555555XXX$$;;$$#####$;;XX5555555555555555555555",
"55555555555555555555555XXX$$;;$$#####$;;XX5555555555555555555555",
"555555555555555555555XX###$$;;$$##$$$;;;;;XX55555555555555555555",
"555555555555555555555XX###$$;;$$$$>>>;;;;;XX55555555555555555555",
"555555555555555555555XX###$$;;$$$$>>>;;;;;XX55555555555555555555",
"555555555555555555555XX$$$;;>>$$<<<<<>;;;;XX55555555555555555555",
"555555555555555555555XX$$$;;>>$$<<<<<>;;;;XX55555555555555555555",
"555555555555555555555XX;;;>><<$$<<<<<<>>;;XX55555555555555555555",
"555555555555555555555XX;;;>><<$$<<<<<<>>;;XX55555555555555555555",
"555555555555555555555XX;;;>><<$$<<<<<<>>;;XX55555555555555555555",
"555555555555555555555XX>>>XXXX<<$$<<<XXX>>XX55555555555555555555",
"555555555555555555555XX>>>XXXX<<$$<<<XXX>>XX55555555555555555555",
"555555555555555555555XX>>>4422<<$$<<<244>>XX55555555555555555555",
"555555555555555555555XX>>>4422<<$$<<<244>>XX55555555555555555555",
"555555555555555555555XX<<<<<<<<<<<$$$<<<<<XX55555555555555555555",
"555555555555555555555XX<<<<<<<<<<<$$$<<<<<XX55555555555555555555",
"555555555555555555555XX;;;<<<<<<<<<<<$<<;;XX55555555555555555555",
"555555555555555555555XX;;;<<<<<<<<<<<$<<;;XX55555555555555555555",
"555555555555555555555XX%%%;;33<<33<<<3$$%%XX55555555555555555555",
"555555555555555555555XX%%%;;33<<33<<<3$$%%XX55555555555555555555",
"555555555555555555555XX%%%;;33<<33<<<3$$%%XX55555555555555555555",
"555555555555555555555XX###%%;;33@@333@%%%%XX55555555555555555555",
"555555555555555555555XX#####++;;@@@@@+%%%%XX55555555555555555555",
"555555555555555555555XX#####++;;@@@@@+%%%%XX55555555555555555555",
"555555555555555555555XX111##+++++++++<%%%%XX55555555555555555555",
"555555555555555555555XX111##+++++++++<%%%%XX55555555555555555555",
"555555555555555555555XX%%%11OOOOOO,,,,%%%%XX55555555555555555555",
"555555555555555555555XX%%%11OOOOOO,,,,%%%%XX55555555555555555555",
"555555555555555555555XX%%%%%OOOOOO,,,O%%%%XX55555555555555555555",
"555555555555555555555XX%%%%%OOOOOO,,,O%%%%XX55555555555555555555",
"555555555555555555555XX%%%%%oooooooooo%%%%XX55555555555555555555",
"555555555555555555555XX%%%%%oooooooooo%%%%XX55555555555555555555",
"555555555555555555555XX%%%%%oooooooooo%%%%XX55555555555555555555",
"555555555555555555555XX%%%%%==========%%%%XX55555555555555555555",
"555555555555555555555XX%%%%%==========%%%%XX55555555555555555555",
"555555555555555555555XX11111====**====1111XX55555555555555555555",
"555555555555555555555XX11111====**====1111XX55555555555555555555",
"55555555555555555555555XXX::::::XX***===XX5555555555555555555555",
"55555555555555555555555XXX::::::XX***===XX5555555555555555555555",
"55555555555555555555555XXX&&&&XX55XXX===XX5555555555555555555555",
"55555555555555555555555XXX--@@XX@@XXX,,,XX5555555555555555555555",
"55555555555555555555555XXX--@@XX@@XXX,,,XX5555555555555555555555",
"55555555555555555555555555XXXX5555XXX111XX5555555555555555555555",
"55555555555555555555555555XXXX5555XXX111XX5555555555555555555555",
"55555555555555555555555555XXXX5555XXX111XX5555555555555555555555",
"555555555555555555555  .........  ........  55555555555555555555",
"555555555555555555555  .........  ........  55555555555555555555",
"55555555555555555555555                   5555555555555555555555",
"55555555555555555555555                   5555555555555555555555",
"5555555555555555555555555555555555555555555555555555555555555555",
"5555555555555555555555555555555555555555555555555555555555555555",
"5555555555555555555555555555555555555555555555555555555555555555"
};
