/* XPM */
static char *fdf438a428854e56b68e7799415601abYaepbMVI0y0U6kv8[] = {
/* columns rows colors chars-per-pixel */
"64 64 22 1 ",
"  c None",
". c #1C1F1C",
"X c #6E2749",
"o c #913C51",
"O c #231924",
"+ c #310D35",
"@ c #571748",
"# c #8C4B63",
"$ c #66334B",
"% c #C16A7D",
"& c #F2E9F2",
"* c #5078A1",
"= c #E5959F",
"- c #AEAEAE",
"; c gray56",
": c #2A6957",
"> c #361831",
", c #3B804D",
"< c #251D23",
"1 c #43153B",
"2 c #242625",
"3 c gray45",
/* pixels */
"                                                                ",
"                                                                ",
"                             ..........                         ",
"                             ..........                         ",
"                             ..........                         ",
"                          ...XXXXoooooX....                     ",
"                          ...XXXXoooooX....                     ",
"                          .................                     ",
"                          .................                     ",
"                          .................                     ",
"                        .....XXXX.XXXX.XXXX.                    ",
"                        .....XXXX.XXXX.XXXX.                    ",
"                        ...OOXXXXOXXXXOXXXX.                    ",
"                        ...O+XXXX+XXXX+XXXX.                    ",
"                     .....XXX@@@@+XXXX@XXXXo....                ",
"                     ...OOXXX@@@@+XXXX@XXXXo....                ",
"                     ...@@+++@@@@@+++++@@@@X....                ",
"                     ...@@+++@@@@@+++++@@@@X....                ",
"                     ...@@+++@@@@@+++++@@@@X....                ",
"                     ...O+@@@ooooo@@@@o++++@....                ",
"                     ...O+@@@ooooo@@@@o++++@....                ",
"                   .....@@@@@@@@@@@@@@X@@@@o....                ",
"                   .....@@@@@@@@@@@@@@X@@@@o....                ",
"                   .....@@@@@@@@@@@@@@X@@@@o....                ",
"                   ..XXXXX@@@+++++####X++++X.......             ",
"                   ..XXXXX@@@+++++####X++++X.......             ",
"                     ...O++++$$$$%%%%%$$$$$@XXXX...             ",
"                     ...O++++$$$$%%%%%$$$$$@XXXX...             ",
"                     ...O++++$$$$%%%%%$$$$$@XXXX...             ",
"                   .....XX&&&****=====*&&&&O.......             ",
"                   .....XX&&&****=====*&&&&O.......             ",
"                   .....XX&&&****=====*&&&&O.......             ",
"                ...--;;;XX%%%==========%%%%X-------..           ",
"                ...--;;;XX%%%==========%%%%X-------..           ",
"              ..===%%;;;;;.......::::::....;;;;;%%%==...        ",
"              ..===%%;;;;;.......::::::....;;;;;%%%==...        ",
"              ..===%%;;;;;.......::::::....;;;;;%%%==...        ",
"              ..===%%;;;;;.......::::::....;;;;;%%%==...        ",
"              ..===%%.....:::>>>>,,,,,,<<<......%%%==...        ",
"                .....   ..:::1111,,,,,,111<.    .....           ",
"                .....   ..:::1111,,,,,,111<.    .....           ",
"                .....   ..:::1111,,,,,,111<.    .....           ",
"                .....   ..:::1111,,,,,,111<.    .....           ",
"                        ..<11::::,,,,,,::::.                    ",
"                        ..:::,,,,,,,,,......                    ",
"                        ..:::,,,,,,,,,......                    ",
"                        ..:::,,,,,,,,,......                    ",
"                        ..:::,,,,,,,,,......                    ",
"                        ....................                    ",
"                        ..%%%====......====.                    ",
"                        ..%%%====......====.                    ",
"                        ..%%%====......====.                    ",
"                        ..%%%====......====.                    ",
"                     ......2...............                     ",
"                     ......2...............                     ",
"                     ......2...............                     ",
"                     ...33333.....33333----.                    ",
"                     ...33333.....33333----.                    ",
"                     ...-----....                               ",
"                     ...-----....                               ",
"                     ...-----....                               ",
"                                                                ",
"                                                                ",
"                                                                "
};
