/* XPM */
static char *_7cc4df6aaea48c28b9240e82582325ao0otmIku90RYbTFV[] = {
/* columns rows colors chars-per-pixel */
"64 64 19 1 ",
"  c None",
". c #1C1F1C",
"X c #6E2749",
"o c #913C51",
"O c #310D35",
"+ c #571748",
"@ c #8C4B63",
"# c #C16A7D",
"$ c #66334B",
"% c #E5959F",
"& c gray56",
"* c #230726",
"= c #2A6957",
"- c #AEAEAE",
"; c #43153B",
": c #3B804D",
"> c #222028",
", c #343336",
"< c #242625",
/* pixels */
"                                                                ",
"                                                                ",
"                                                                ",
"                                                                ",
"                                                                ",
"                             ..........                         ",
"                             ..........                         ",
"                             ..........                         ",
"                          ...XXXXooooXX...                      ",
"                          ...XXXXooooXX...                      ",
"                          ................                      ",
"                          ................                      ",
"                          ................                      ",
"                          ................                      ",
"                        ..OOOXXXXOXXXOOXXX..                    ",
"                     ...OOXXX++++OXXX++XXXoo....                ",
"                     ...OOXXX++++OXXX++XXXoo....                ",
"                     ...OOXXX++++OXXX++XXXoo....                ",
"                     ...OOXXX++++OXXX++XXXoo....                ",
"                     ...++OOO+++++OOOOO+++XX....                ",
"                     ...++OOO+++++OOOOO+++XX....                ",
"                     ...++OOO+++++OOOOO+++XX....                ",
"                     ...OO+++ooooo+++ooOOO++....                ",
"                   .....+++++++++++++XX+++oo....                ",
"                   .....+++++++++++++XX+++oo....                ",
"                   .....+++++++++++++XX+++oo....                ",
"                   .....+++++++++++++XX+++oo....                ",
"                   ..XXXXX+++OOOOO@@@XXOOOXX.......             ",
"                     ...OOOOO#############++XXXX...             ",
"                     ...OOOOO#############++XXXX...             ",
"                     ...OOOOO#############++XXXX...             ",
"                     ...OOOOO#############++XXXX...             ",
"                     ...XX$$$$$$$%%%%$$$$$OO....                ",
"                     ...XX$$$$$$$%%%%$$$$$OO....                ",
"                     ...XX###%%%%%%%%%%###XX....                ",
"                     ...XX###%%%%%%%%%%###XX....                ",
"                   ..&&&.....****======.....----...             ",
"                   ..&&&.....****======.....----...             ",
"                   ..&&&--===;;;;::::::;;;&&----...             ",
"                   ..&&&--===;;;;::::::;;;&&----...             ",
"                   ..&&&--===;;;;::::::;;;&&----...             ",
"                   ..###%%;;;====::::::===##%%%%...             ",
"                   ..###%%;;;====::::::===##%%%%...             ",
"                   ..###%%;;;====::::::===##%%%%...             ",
"                   ..###%%;;;====::::::===##%%%%...             ",
"                     .....>>>>>>>,,,,,<.........                ",
"                     .....>>>>>>>,,,,,<.........                ",
"                        ..>>>,,,,....>><<<..                    ",
"                        ..>>>,,,,....>>,,<..                    ",
"                        ..>>>,,,,....>>,,<..                    ",
"                          ###%%%%....>>%%%                      ",
"                          ###%%%%....>>%%%                      ",
"                                                                ",
"                                                                ",
"                                                                ",
"                                                                ",
"                                                                ",
"                                                                ",
"                                                                ",
"                                                                ",
"                                                                ",
"                                                                ",
"                                                                ",
"                                                                "
};
