/* XPM */
static char *_db49faf720e4aef8fdacbdace65ff02KGLJK54RpMjVkLFt[] = {
/* columns rows colors chars-per-pixel */
"64 64 19 1 ",
"  c None",
". c #1C1F1C",
"X c #913C51",
"o c #6E2749",
"O c black",
"+ c #310D35",
"@ c #571748",
"# c #8C4B63",
"$ c #C16A7D",
"% c #E5959F",
"& c gray56",
"* c #66334B",
"= c #AEAEAE",
"- c #230726",
"; c #2A6957",
": c #43153B",
"> c #3B804D",
", c #222028",
"< c #343336",
/* pixels */
"                                                                ",
"                                                                ",
"                                                                ",
"                                                                ",
"                                                                ",
"                                                                ",
"                                                                ",
"                                                                ",
"                                                                ",
"                                                                ",
"                                                                ",
"                                                                ",
"                                                                ",
"                                                                ",
"                              .....   ....                      ",
"                              .....   ....                      ",
"                              .....   ....                      ",
"                              ...XX...X...                      ",
"                           ...oooXXoooo...                      ",
"                           ...oooXXoooo...                      ",
"                           ...oooXXoooo...                      ",
"                           ...............                      ",
"                           ...............                      ",
"                           ...............                      ",
"                          O+++ooo++ooo+ooo..                    ",
"                       ...+ooo@@@++ooo@oooXX..                  ",
"                       ...+ooo@@@++ooo@oooXX..                  ",
"                       ...+ooo@@@++ooo@oooXX..                  ",
"                       ...@+++@@@@@++++@@@oo..                  ",
"                       ...@+++@@@@@++++@@@oo..                  ",
"                       ...+@@@XXXXX@@@X+++@@..                  ",
"                       ...+@@@XXXXX@@@X+++@@..                  ",
"                       ...+@@@XXXXX@@@X+++@@..                  ",
"                      ....@@@@@@@@@@@@o@@@XX..                  ",
"                      .oooo@@@+++++###o+++oo.....               ",
"                      .oooo@@@+++++###o+++oo.....               ",
"                      .oooo@@@+++++###o+++oo.....               ",
"                   .......++++$$$$$$$$$$$$@@oo.....             ",
"                   .......++++$$$$$$$$$$$$@@oo.....             ",
"                 ..%%%&...o******%%%%%****++..===%%...          ",
"                 ..%%%&...o******%%%%%****++..===%%...          ",
"                 ..%%%&...o******%%%%%****++..===%%...          ",
"                 ..$$$&...o$$$%%%%%%%%%$$$oo..&&&$$...          ",
"                 ..$$$&...o$$$%%%%%%%%%$$$oo..&&&$$...          ",
"                   ....&&&....---;;;;;;.....==.....             ",
"                   ....&&&....---;;;;;;.....==.....             ",
"                       ....:::;;;>>>>>>;;;....                  ",
"                       ....:::;;;>>>>>>;;;....                  ",
"                       ....:::;;;>>>>>>;;;....                  ",
"                          .,,,<<<.....,<<<..                    ",
"                           $$$%%%.....,%%%                      ",
"                           $$$%%%.....,%%%                      ",
"                           $$$%%%.....,%%%                      ",
"                                                                ",
"                                                                ",
"                                                                ",
"                                                                ",
"                                                                ",
"                                                                ",
"                                                                ",
"                                                                ",
"                                                                ",
"                                                                ",
"                                                                "
};
