/* XPM */
static char *_df65899fd8349cbebe19aa2f03fc022J4biusKtKg0a23xG[] = {
/* columns rows colors chars-per-pixel */
"64 64 15 1 ",
"  c None",
". c #1C1F1C",
"X c #AEAEAE",
"o c gray45",
"O c #343336",
"+ c #6E2749",
"@ c black",
"# c #3B122F",
"$ c #A27242",
"% c #E5959F",
"& c gray56",
"* c #571748",
"= c #C16A7D",
"- c #310D35",
"; c #913C51",
/* pixels */
"                                                                ",
"                                                                ",
"                                                                ",
"                                                                ",
"                                                                ",
"                                                                ",
"                                                                ",
"                                                                ",
"                                                                ",
"                                                                ",
"                                                                ",
"                                                                ",
"                                                                ",
"                                                                ",
"                                                                ",
"                                                                ",
"                                                                ",
"                                                                ",
"                                                                ",
"                                                                ",
"                                                                ",
"                                                                ",
"                          ....            ....                  ",
"                          ....            ....                  ",
"                          .XXX...     ....X...                  ",
"                          .XXX...     ....X...                  ",
"                          .XXX...     ....X...                  ",
"                          .oooooo..  .ooooo...                  ",
"                          .oooooo..  .ooooo...                  ",
"                          ................O...                  ",
"                          ................O...                  ",
"                          ................O...                  ",
"                          .+++++++++++++++@                     ",
"                          .+++++++++++++++@                     ",
"                      ....#################...                  ",
"                      ....+$$$.....++.....+...                  ",
"                      ....+$$$.....++.....+...                  ",
"                      ....+$$$.....++.....+...                  ",
"                   .......++++...++..+....+........             ",
"                   .......++++...++..+....+........             ",
"                 ..%%&....+...***++***....+...XXX%%..           ",
"                 ..%%&....+...***++***....+...XXX%%..           ",
"                 ..%%&....+...***++***....+...XXX%%..           ",
"                 ..==&........-----**;........&&&==..           ",
"                 ..==&........-----**;........&&&==..           ",
"                   ........+++---++--+....-........             ",
"                   ........+++---++--+....-........             ",
"                   ........+++---++--+....-........             ",
"                     .====-...;;;++++*....-===...               ",
"                     .====-...;;;++++*....-===...               ",
"                     .%%%%*...+++;;;;+....*%%%...               ",
"                     .++++****........+++++;;;...               ",
"                     .++++****........+++++;;;...               ",
"                     .++++****........+++++;;;...               ",
"                     .....*++++++++++*****;...                  ",
"                     .....*++++++++++*****;...                  ",
"                      ....*+++***;;;;+----*                     ",
"                      ....*+++***;;;;+----*                     ",
"                      ....*+++***;;;;+----*                     ",
"                          ****--------****+                     ",
"                           **********+++++                      ",
"                           **********+++++                      ",
"                           **********+++++                      ",
"                           **********+++++                      "
};
