/* XPM */
static char *result[] = {
/* columns rows colors chars-per-pixel */
"64 64 23 1 ",
"  c black",
". c #230726",
"X c #310D35",
"o c #222028",
"O c #343336",
"+ c #43153B",
"@ c #1C1859",
"# c #571748",
"$ c #6E2749",
"% c #2A6957",
"& c #676767",
"* c gray45",
"= c #913C51",
"- c #8C4B63",
"; c #C16A7D",
": c #3B804D",
"> c #5078A1",
", c gray56",
"< c #9C8C9C",
"1 c #AEAEAE",
"2 c #E5959F",
"3 c #F2E9F2",
"4 c None",
/* pixels */
"4444444444444444444444444444444444444444444444444444444444444444",
"4444444444444444444444444444444444444444444444444444444444444444",
"44444444444444444444444444444           444444444444444444444444",
"44444444444444444444444444444           444444444444444444444444",
"444444444444444444444444444  $$$=====$$$  4444444444444444444444",
"444444444444444444444444444  $$$=====$$$  4444444444444444444444",
"444444444444444444444444444  $$$=====$$$  4444444444444444444444",
"444444444444444444444444444               4444444444444444444444",
"444444444444444444444444444               4444444444444444444444",
"444444444444444444444444   XX$$$XXX$$XXX$$   4444444444444444444",
"444444444444444444444444   XX$$$XXX$$XXX$$   4444444444444444444",
"444444444444444444444444   XX$$$XXX$$XXX$$   4444444444444444444",
"4444444444444444444444  XXX$$###XXX$$###$$===  44444444444444444",
"4444444444444444444444  XXX$$###XXX$$###$$===  44444444444444444",
"4444444444444444444444  XXX$$###XXX$$###$$===  44444444444444444",
"4444444444444444444444  ###XX######XXXXX##$$$  44444444444444444",
"4444444444444444444444  ###XX######XXXXX##$$$  44444444444444444",
"4444444444444444444444  XXX##======##===XX###  44444444444444444",
"4444444444444444444444  XXX##======##===XX###  44444444444444444",
"4444444444444444444444  XXX##======##===XX###  44444444444444444",
"4444444444444444444     #############$$$##===  44444444444444444",
"4444444444444444444     #############$$$##===  44444444444444444",
"4444444444444444444   $$$$$##XXXXXX--$$$XX$$$     44444444444444",
"4444444444444444444   $$$$$##XXXXXX--$$$XX$$$     44444444444444",
"4444444444444444444   $$$$$##XXXXXX--$$$XX$$$     44444444444444",
"4444444444444444444444  XXXXX@@@;;;;;@@@<<###$$   44444444444444",
"4444444444444444444444  XXXXX@@@;;;;;@@@<<###$$   44444444444444",
"4444444444444444444444  $$$33>>>22222>>>33XXX  44444444444444444",
"4444444444444444444444  $$$33>>>22222>>>33XXX  44444444444444444",
"4444444444444444444444  $$$33>>>22222>>>33XXX  44444444444444444",
"4444444444444444444444  $$$;;22222222222;;$$$  44444444444444444",
"4444444444444444444444  $$$;;22222222222;;$$$  44444444444444444",
"444444444444444444444444     ...%%%%%%%%     4444444444444444444",
"444444444444444444444444     ...%%%%%%%%     4444444444444444444",
"444444444444444444444444     ...%%%%%%%%     4444444444444444444",
"4444444444444444444444  ,,,%%+++::::::::++,,,  44444444444444444",
"4444444444444444444444  ,,,%%+++::::::::++,,,  44444444444444444",
"4444444444444444444   ,,,,,22222::::::::22222,,   44444444444444",
"4444444444444444444   ,,,,,22222::::::::22222,,   44444444444444",
"4444444444444444444   ,,,,,22222::::::::22222,,   44444444444444",
"4444444444444444444   &&&&&;;;;;::::::::;;;;;&&   44444444444444",
"4444444444444444444   &&&&&;;;;;::::::::;;;;;&&   44444444444444",
"4444444444444444444444     %%:::::::::::%%     44444444444444444",
"4444444444444444444444     %%:::::::::::%%     44444444444444444",
"4444444444444444444444     %%:::::::::::%%     44444444444444444",
"444444444444444444444444   oooooOOOOOOOOoo   4444444444444444444",
"444444444444444444444444   oooooOOOOOOOOoo   4444444444444444444",
"444444444444444444444444   oooooOOOOOOOOoo   4444444444444444444",
"444444444444444444444444   ooOOO     oooOO   4444444444444444444",
"444444444444444444444444   ooOOO     oooOO   4444444444444444444",
"4444444444444444444444  ;;;22   444  ooo22   4444444444444444444",
"4444444444444444444444  ;;;22   444  ooo22   4444444444444444444",
"4444444444444444444444  ;;;22   444  ooo22   4444444444444444444",
"4444444444444444444444  oooOO      ooOOO  4444444444444444444444",
"4444444444444444444444  oooOO      ooOOO  4444444444444444444444",
"4444444444444444444   *****  444   ooOOO  4444444444444444444444",
"4444444444444444444   *****  444   ooOOO  4444444444444444444444",
"4444444444444444444   *****  444   ooOOO  4444444444444444444444",
"4444444444444444444   11111  444   *****11   4444444444444444444",
"4444444444444444444   11111  444   *****11   4444444444444444444",
"4444444444444444444444444444444444444444444444444444444444444444",
"4444444444444444444444444444444444444444444444444444444444444444",
"4444444444444444444444444444444444444444444444444444444444444444",
"4444444444444444444444444444444444444444444444444444444444444444"
};
