/* XPM */
static char *result[] = {
/* columns rows colors chars-per-pixel */
"64 64 23 1 ",
"  c #1C1F1C",
". c #230726",
"X c #310D35",
"o c #222028",
"O c #343336",
"+ c #43153B",
"@ c #1C1859",
"# c #571748",
"$ c #6E2749",
"% c #2A6957",
"& c #676767",
"* c gray45",
"= c #913C51",
"- c #8C4B63",
"; c #C16A7D",
": c #3B804D",
"> c #5078A1",
", c gray56",
"< c #9C8C9C",
"1 c #AEAEAE",
"2 c #E5959F",
"3 c #F2E9F2",
"4 c None",
/* pixels */
"4444444444444444444444444444444444444444444444444444444444444444",
"4444444444444444444444444444444444444444444444444444444444444444",
"4444444444444444444444444444           4444444444444444444444444",
"4444444444444444444444444444           4444444444444444444444444",
"44444444444444444444444444               44444444444444444444444",
"44444444444444444444444444               44444444444444444444444",
"44444444444444444444444444               44444444444444444444444",
"4444444444444444444444    XX$$XXXX$$XXX$$   44444444444444444444",
"4444444444444444444444    XX$$XXXX$$XXX$$   44444444444444444444",
"4444444444444444444444    XX$$XXXX$$XXX$$   44444444444444444444",
"44444444444444444444  XXXX$$##XXXX$$###$$===  444444444444444444",
"44444444444444444444  XXXX$$##XXXX$$###$$===  444444444444444444",
"44444444444444444444  ####XX######XXXXX##$$$  444444444444444444",
"44444444444444444444  ####XX######XXXXX##$$$  444444444444444444",
"44444444444444444444  XXXX##======##===XX###  444444444444444444",
"44444444444444444444  XXXX##======##===XX###  444444444444444444",
"44444444444444444444  XXXX##======##===XX###  444444444444444444",
"44444444444444444444  XXXX##======##===XX###  444444444444444444",
"44444444444444444444  ##############$$$##===  444444444444444444",
"44444444444444444444  ##############$$$##===  444444444444444444",
"444444444444444444    $$$$##XXXXXX--$$$XX$$$    4444444444444444",
"444444444444444444    $$$$##XXXXXX--$$$XX$$$    4444444444444444",
"444444444444444444    $$$$##XXXXXX--$$$XX$$$    4444444444444444",
"444444444444444444  $$XXXXXX@@;;;;;;@@@<<###$$  4444444444444444",
"444444444444444444  $$XXXXXX@@;;;;;;@@@<<###$$  4444444444444444",
"444444444444444444  $$XXXXXX@@;;;;;;@@@<<###$$  4444444444444444",
"44444444444444444444  $$$$33>>222222>>>33XXX  444444444444444444",
"44444444444444444444  $$$$33>>222222>>>33XXX  444444444444444444",
"44444444444444444444  $$$$;;22222222222;;$$$  444444444444444444",
"44444444444444444444  $$$$;;22222222222;;$$$  444444444444444444",
"4444444444444444444444      ..%%%%%%%%%     44444444444444444444",
"4444444444444444444444      ..%%%%%%%%%     44444444444444444444",
"4444444444444444444444      ..%%%%%%%%%     44444444444444444444",
"44444444444444444444  ,,,,%%++:::::::::++,,,  444444444444444444",
"44444444444444444444  ,,,,%%++:::::::::++,,,  444444444444444444",
"444444444444444444  ,,,,,,%%++:::::::::++,,,,,  4444444444444444",
"444444444444444444  ,,,,,,%%++:::::::::++,,,,,  4444444444444444",
"444444444444444444  ,,,,,,%%++:::::::::++,,,,,  4444444444444444",
"444444444444444444  &&&&&&2222:::::::::22222&&  4444444444444444",
"444444444444444444  &&&&&&2222:::::::::22222&&  4444444444444444",
"444444444444444444  &&&&&&2222:::::::::22222&&  4444444444444444",
"44444444444444444444      ;;;;:::::::::;;;;;  444444444444444444",
"44444444444444444444      ;;;;:::::::::;;;;;  444444444444444444",
"44444444444444444444      ;;;;:::::::::;;;;;  444444444444444444",
"4444444444444444444444    ooooOOOOOOOOOoo   44444444444444444444",
"4444444444444444444444    ooooOOOOOOOOOoo   44444444444444444444",
"4444444444444444444444    ooOO      oooOO   44444444444444444444",
"4444444444444444444444    ooOO      oooOO   44444444444444444444",
"4444444444444444444444    ooOO      oooOO   44444444444444444444",
"44444444444444444444  ;;;;22  4444  ooo22   44444444444444444444",
"44444444444444444444  ;;;;22  4444  ooo22   44444444444444444444",
"44444444444444444444  ;;;;22  4444  ooo22   44444444444444444444",
"44444444444444444444  ;;;;22  4444  ooo22   44444444444444444444",
"44444444444444444444  ooooOO      ooOOO  44444444444444444444444",
"44444444444444444444  ooooOO      ooOOO  44444444444444444444444",
"444444444444444444  ooOOOO  44    ooOOO  44444444444444444444444",
"444444444444444444  ooOOOO  44    ooOOO  44444444444444444444444",
"444444444444444444  ******  44    *****  44444444444444444444444",
"444444444444444444  ******  44    *****  44444444444444444444444",
"444444444444444444  ******  44    *****  44444444444444444444444",
"444444444444444444  111111  44444444***11   44444444444444444444",
"444444444444444444  111111  44444444***11   44444444444444444444",
"4444444444444444444444444444444444444444444444444444444444444444",
"4444444444444444444444444444444444444444444444444444444444444444"
};
