/* XPM */
static char *out[] = {
/* columns rows colors chars-per-pixel */
"64 64 30 1 ",
"  c black",
". c #230726",
"X c #310D35",
"o c #222028",
"O c #343336",
"+ c #43153B",
"@ c #1C1859",
"# c #571748",
"$ c #6E2749",
"% c #2A6957",
"& c #746842",
"* c #7E7245",
"= c #676767",
"- c gray45",
"; c #817E3C",
": c #913C51",
"> c #8C4B63",
", c #C16A7D",
"< c #3B804D",
"1 c #848252",
"2 c #DEC87E",
"3 c #F8F273",
"4 c #5078A1",
"5 c gray56",
"6 c #9C8C9C",
"7 c #AEAEAE",
"8 c #E5959F",
"9 c #F1DA84",
"0 c #FEFA9D",
"q c #F2E9F2",
/* pixels */
"2229999999999992229999999999999999999999922222223333333333333332",
"2222229992222333222292222999999222222222222222333333333333333332",
"3322222222233333333999922222222222222222222333333333333333333333",
"3333222223333333333999999222222299933333333333333333333333333333",
"0333333333333339999999999999999993333333333333333333333333330000",
"0000333333333399999922229999999333333333333333333333333330000000",
"9900033333333333999992222999993333333333333333333999999999999999",
"9990000000333333999999999999933333333333333339993333399999999999",
"9999999990000999999999999999933333333333333999333333399999999999",
"9999999999999999999999222299999333333333339999333339999999999999",
"9999999999999999222222222229999999993339999999333399999999999999",
"2222999999999999222222222999299999999999999999999222229999922222",
"3222299999999999992222222299229999999999999999922222222299222233",
"3333333222299999999992222222999999999999999922222333333333333333",
"333333333222222999922222222222      9999999222233333333333333333",
"333333333332222222222222222222      9922222222333333330000033333",
"3333333333333332222233333333  $:::$$ 222222233333333000000003333",
"9333333333333333333333333333         999999333339999999999999339",
"9999333333333000000000333333         999999933999999999999333333",
"399999933333000000000000333 XX$XX$XX$  9999999999999999999993333",
"9999999333333999999999999  X$$#XX$##$:: 999999999999999999999999",
"9999999939999999999999999  X$$#XX$##$:: 222222999999999999999999",
"9999999999999999999999999  #XX###XXX#$$ 222222299999222222222999",
"9999999999999999999999999  X##:::#::X## 222229999222222222222222",
"9999999999999999999999992  X##:::#::X## 922999222222222333333333",
"332229999922222333333322   #######$$#:: 922222222333333333333333",
"222222222222233333333333 $$$##XXX>$$X$$   2222333333333333333333",
"333222229993333333333333 $$$##XXX>$$X$$   2222333333333333333333",
"3333399999999333333330000  XXX@,,,@@6##$  2333333333333000000033",
"3333999999999333330000000  $qq488844qXX 333333333333300000000000",
"3999999922229933399999999  $qq488844qXX 333333333333000099999999",
"9999992222222999999999999  $,,888888,$$ 333333333333999999999999",
"922999992222299999999999999   .%%%%%   3333333333399999999999999",
"922299222229999999999999999   .%%%%%   3333333399999999999999999",
"9999222222999999999999999  5%%+<<<<<+55 333339933399999999999999",
"999222222299222999999999 555888<<<<<8885  9999333999999999999999",
"222222222299222299999999 555888<<<<<8885  9999999999999999999999",
"222332222229922299999999 ===,,,<<<<<,,,=  9999999992222222999992",
"3333333322229999999999999   oooOOOOOo   999999992222222223333333",
"3333333332222299999922222   oooOOOOOo   999992222222233333333333",
"333333333333333322222222222 ooO   ooO  9922222222233333333333333",
"3333333333333333322222223  ,88 && oo8  2222223333333333333333333",
"0033333333333333333333333  ,88 ;; oo8  9999993333333333333333000",
"00000333333333333333333;;  oOO   oOO **9999999933333333333000000",
"9990033333333333333333;; ---  ;  oOO ***999999999339999999900099",
"9999999933333333333333;1 ---  1  oOO ***999999999999999999999999",
"999999999993333333333011 777  *  ---7  *992222229999999999999999",
"999999993333999933330001*************&&2222222222999999999999999",
"99999993333993333999999***********&&&&&2222222299999999999999999",
"9999999999999933999999999**********&&&22299922999992299999999999",
"999999999999999999999999999********99992999922999222229222999999",
"9999999999999999999999999999999999999992999222222222333322222999",
"9222332222222299999999999999922299999922222222222223333332222229",
"2223333222222222999999999922222229992222222222222333333333332222",
"2233333333332222299999999222222222222222222222233333333333333332",
"3333333333333322222999922222333332222222222333333333333333333333",
"3333333333333333222222333333333333333333333333330000000003333333",
"3333333333333333333333333333333333333333333300000000000999999333",
"3333333333333330003333333333330000000000000000009999999999999999",
"9999999333333000000033333330000099999900000099999999999999999999",
"9999933339999999999003333300099999999999999999999999999999999999",
"9999933333999999999900333399999999999999999999999992222999999999",
"9999993339999999999999999999999999999999999999922222222222299999",
"9999999999999999999999999999999999999999999922222222333333333222"
};
