/* XPM */
static char *result[] = {
/* columns rows colors chars-per-pixel */
"64 64 24 1 ",
"  c black",
". c #1C1F1C",
"X c #230726",
"o c #310D35",
"O c #222028",
"+ c #343336",
"@ c #43153B",
"# c #1C1859",
"$ c #571748",
"% c #6E2749",
"& c #2A6957",
"* c #676767",
"= c gray45",
"- c #913C51",
"; c #8C4B63",
": c #C16A7D",
"> c #3B804D",
", c #5078A1",
"< c gray56",
"1 c #9C8C9C",
"2 c #AEAEAE",
"3 c #E5959F",
"4 c #F2E9F2",
"5 c None",
/* pixels */
"5555555555555555555555555555555555555555555555555555555555555555",
"5555555555555555555555555555555555555555555555555555555555555555",
"55555555555555555555555555555...........555555555555555555555555",
"55555555555555555555555555555...........555555555555555555555555",
"555555555555555555555555555..%%%-----%%%..5555555555555555555555",
"555555555555555555555555555..%%%-----%%%..5555555555555555555555",
"555555555555555555555555555..%%%-----%%%..5555555555555555555555",
"555555555555555555555555555...............5555555555555555555555",
"555555555555555555555555555...............5555555555555555555555",
"555555555555555555555555...oo%%%ooo%%ooo%%...5555555555555555555",
"555555555555555555555555...oo%%%ooo%%ooo%%...5555555555555555555",
"555555555555555555555555...oo%%%ooo%%ooo%%...5555555555555555555",
"5555555555555555555555..ooo%%$$$ooo%%$$$%%---..55555555555555555",
"5555555555555555555555..ooo%%$$$ooo%%$$$%%---..55555555555555555",
"5555555555555555555555..ooo%%$$$ooo%%$$$%%---..55555555555555555",
"5555555555555555555555..$$$oo$$$$$$ooooo$$%%%..55555555555555555",
"5555555555555555555555..$$$oo$$$$$$ooooo$$%%%..55555555555555555",
"5555555555555555555555..ooo$$------$$---oo$$$..55555555555555555",
"5555555555555555555555..ooo$$------$$---oo$$$..55555555555555555",
"5555555555555555555555..ooo$$------$$---oo$$$..55555555555555555",
"5555555555555555555.....$$$$$$$$$$$$$%%%$$---..55555555555555555",
"5555555555555555555.....$$$$$$$$$$$$$%%%$$---..55555555555555555",
"5555555555555555555...%%%%%$$oooooo;;%%%oo%%%.....55555555555555",
"5555555555555555555...%%%%%$$oooooo;;%%%oo%%%.....55555555555555",
"5555555555555555555...%%%%%$$oooooo;;%%%oo%%%.....55555555555555",
"5555555555555555555555..ooooo###:::::###11$$$%%...55555555555555",
"5555555555555555555555..ooooo###:::::###11$$$%%...55555555555555",
"5555555555555555555555..%%%44,,,33333,,,44ooo..55555555555555555",
"5555555555555555555555..%%%44,,,33333,,,44ooo..55555555555555555",
"5555555555555555555555..%%%44,,,33333,,,44ooo..55555555555555555",
"5555555555555555555555..%%%::33333333333::%%%..55555555555555555",
"5555555555555555555555..%%%::33333333333::%%%..55555555555555555",
"555555555555555555555555     XXX&&&&&&&&.....5555555555555555555",
"555555555555555555555555     XXX&&&&&&&&.....5555555555555555555",
"555555555555555555555555     XXX&&&&&&&&.....5555555555555555555",
"5555555555555555555555..<<<&&@@@>>>>>>>>@@<<<..55555555555555555",
"5555555555555555555555..<<<&&@@@>>>>>>>>@@<<<..55555555555555555",
"5555555555555555555...<<<<<33333>>>>>>>>33333<<...55555555555555",
"5555555555555555555...<<<<<33333>>>>>>>>33333<<...55555555555555",
"5555555555555555555...<<<<<33333>>>>>>>>33333<<...55555555555555",
"5555555555555555555...*****:::::>>>>>>>>:::::**...55555555555555",
"5555555555555555555...*****:::::>>>>>>>>:::::**...55555555555555",
"5555555555555555555555.....&&>>>>>>>>>>>&&.....55555555555555555",
"5555555555555555555555.....&&>>>>>>>>>>>&&.....55555555555555555",
"5555555555555555555555.....&&>>>>>>>>>>>&&.....55555555555555555",
"555555555555555555555555...OOOOO++++++++OO...5555555555555555555",
"555555555555555555555555...OOOOO++++++++OO...5555555555555555555",
"555555555555555555555555...OOOOO++++++++OO...5555555555555555555",
"555555555555555555555555...OO+++     OOO++...5555555555555555555",
"555555555555555555555555...OO+++     OOO++...5555555555555555555",
"5555555555555555555555..:::33...555  OOO33...5555555555555555555",
"5555555555555555555555..:::33...555  OOO33...5555555555555555555",
"5555555555555555555555..:::33...555  OOO33...5555555555555555555",
"5555555555555555555555..OOO++......OO+++..5555555555555555555555",
"5555555555555555555555..OOO++......OO+++..5555555555555555555555",
"5555555555555555555...=====..555...OO+++..5555555555555555555555",
"5555555555555555555...=====..555...OO+++..5555555555555555555555",
"5555555555555555555...=====..555...OO+++..5555555555555555555555",
"5555555555555555555...22222..555...=====22...5555555555555555555",
"5555555555555555555...22222..555...=====22...5555555555555555555",
"5555555555555555555555555555555555555555555555555555555555555555",
"5555555555555555555555555555555555555555555555555555555555555555",
"5555555555555555555555555555555555555555555555555555555555555555",
"5555555555555555555555555555555555555555555555555555555555555555"
};
