/* XPM */
static char *dcdf3f3456934b13919301bed90e6c39PffyTEMnPIVGRW2W[] = {
/* columns rows colors chars-per-pixel */
"64 64 28 1 ",
"  c #72751B",
". c #1D271A",
"X c #93A76D",
"o c #7F8226",
"O c #788C5F",
"+ c #787B21",
"@ c #656C17",
"# c #3E4E3A",
"$ c #4A5C42",
"% c #1A0A09",
"& c #1C0000",
"* c #A03B2B",
"= c #231513",
"- c #607253",
"; c #443B30",
": c #EDEBDB",
"> c #55674A",
", c #ACA492",
"< c #D2CEBC",
"1 c #4C0C0C",
"2 c #57493B",
"3 c #372828",
"4 c #4C4F49",
"5 c #393D37",
"6 c #2D312B",
"7 c #868B7C",
"8 c #8E8475",
"9 c #7B7061",
/* pixels */
"                                                                ",
"                                                                ",
"                                                                ",
"                                                                ",
"                                                                ",
"                              .   .                             ",
"                             .X. .X.                            ",
"                             .X. .X.    o                       ",
"                             .X. .OO.   ++                      ",
"                         .   .X. .O..o+ @+                      ",
"                        .X.  .XO.#.X.o++@@ oo+                  ",
"                        .X.  .OO#$.XO.++ @++o                   ",
"                        .OX.%.OO#&O.X.@+ +++                    ",
"                         .X%%%$&&#O.XO.@@++@                    ",
"                         .%%  %*&$OO.O. @@@                     ",
"                     &   %%O. .%%$OO.O.++                       ",
"                      &&%%.O. .O%%OO$OO.@                       ",
"                      &*% .O. .O$%%%%OO.                        ",
"                       %=%.OO.OXOO--$%O.                        ",
"                        %%.-OOXXXOOO-OO.                        ",
"                    ;;   %%.-OOOOOXOOOO.                        ",
"                    ;:;   %.-->$$OOOOOO.                        ",
"                    ;,<;;  .------$-OOO.  &                     ",
"                     ;,<<;.##$$----OOOO..&                      ",
"                      ;,$$XXXOO$--OOOO.%*&                      ",
"                       .OOOXXXOOOOOOOO.%%                       ",
"                        .OOOOXXXOOOOO$. %%                      ",
"                        ....OOOOOOOO$..  %%                     ",
"                        ..  .$$OOOO--..  %=%&                   ",
"                        ..   .------. .   %1*&&                 ",
"                        .%%% ;$-----. .   %=&                   ",
"                        %% %%2$-&-$-. .  %=%                    ",
"                        %.  %%&&--.-. .  %%                     ",
"                       %*.   %*&-.<.. . %=%                     ",
"                  &   %=..  ;,%%-.,..  %3=*&                    ",
"                   &&%=% .& ;:,%%.,....3=%&&                    ",
"                   &*3%  .  ;:,%=%,..&*3%   &                   ",
"                    %=%  .  ;<2.%=%,.%3=%                       ",
"                   %3%     ;:<;.-%=%%==%                        ",
"                   %=%     ;<; .-.%1==%                         ",
"                    %3%    ;,; .-.&*&%                   o      ",
"                    %=3%  .,,; .-.,&;               oo+  ++     ",
"                     &=3% .,;  ..,<&;  4             o++ @+  o  ",
"                   &&*1==%-.;  ..,:,;4  4            @+++@ ++@  ",
"           o         .%=%.-.; ;..,:,;44 555         o+@++  ++@  ",
"      oo+  ++       556%%.>.  ;..,<,;666  74        @++@+  @@   ",
"       o++ @+  o   4   4%.>>.;,..,,864 4             @+@@       ",
"       @+++@ ++@       44 6>.8,.,<,6544                         ",
"      o+@++  ++@      44 656.98.,,86654    4                    ",
"      @++@+  @@ 47 555566554669888655665544                     ",
"       @+@@      5577  5444465666655 4  75                      ",
"                      57  46444456544    74                     ",
"                      4    57 444464      4                     ",
"                      7   57      54                            ",
"                        4574      75555                         ",
"                         7 4       577 54                       ",
"                            4      5                            ",
"                            7     4  oo                         ",
"                                      o++   oo                  ",
"                                      @++  +o                   ",
"                                       @@ +++                   ",
"                                          ++@                   ",
"                                          @@                    ",
"                                                                "
};
