/* XPM */
static char *_45c588278294243888c66ef501a12eb26PPCUPjpcPjdhKg[] = {
/* columns rows colors chars-per-pixel */
"64 64 29 1 ",
"  c None",
". c #1C0000",
"X c #1A0A09",
"o c #231513",
"O c #372828",
"+ c #2D312B",
"@ c #2E3239",
"# c #393D37",
"$ c #31323C",
"% c #4C0C0C",
"& c #443B30",
"* c #57493B",
"= c #4C4F49",
"- c #49494C",
"; c #484C54",
": c #545960",
"> c #7B7061",
", c #696E76",
"< c #A03B2B",
"1 c #8E8475",
"2 c #868B7C",
"3 c #7D858E",
"4 c #ACA492",
"5 c #98A5B1",
"6 c #D2CEBC",
"7 c #B8CAD7",
"8 c #EDEBDB",
"9 c #D2EAF5",
"0 c #FFFFF3",
/* pixels */
"                                                                ",
"                                                                ",
"                                                                ",
"                                      $$$                       ",
"                                    $$997$$$$                   ",
"                                  $$9997$9977$$                 ",
"                                 $79997$9977777$$               ",
"                                 $7773$997$$55577$              ",
"                                 $773;777$  $$$$$               ",
"                                 $573777$    $$$                ",
"                                 $553775$  $$997$$              ",
"                                $753555$ $$9977777$$            ",
"                                $7577553$77775$$5777$           ",
"                         .     $939775375555$$  $$577$          ",
"                         .    $979973777753$      $$$           ",
"                        .<.  $77797779773753$$$XXX              ",
"                        X%oX$773773797737555777$XXXX            ",
"                   .   XOoXXX7343343777775555577$  XX           ",
"                    ..XoXX;7XX66*.437775555;;$$57$  X           ",
"                    .<oX &;7;XX..43375553$$$$ $$55$ X           ",
"                   XOoX  &;7;6X<.3535353$  $$ $ $5$  X          ",
"               .  XOoX  &8;7;*6XX353533$XX $$ $ $5$             ",
"                ..O<.  &46;5;6*4XX3333$ XoX $ $  $              ",
"                .<o..  &446;86*;XoX$3$   XX $                   ",
"               XOoX  . &144;644;7XX $$   XX $                   ",
"              XOooX   &0*14;411;7XX $$   X  $                   ",
"               XoX    &86*1;11&;7XX $$   X  $                   ",
"                XoX   &686*;*& $5XX $$ . X  $                   ",
"                 .<X &4*064;4& $.oX $$  ..  $                   ",
"                 ..XX*6*486;4*-.<%X $$  .<X                     ",
"                .   X*64*86;4& $.oX $$ XoXXX    .               ",
"                    &864*6844& $$XX  $XoX  XX ..                ",
"                    @864*4864& $$XoX XoX    XX<.                ",
"                    @66*X*684& $$XoOX<.      XX                 ",
"                   @;64& &484& $$ XoO..      XX                 ",
"                   @;44& &464& $$ XoX$ .    XX                  ",
"                   @;4*3@ &64& $$  X $     XX                   ",
"                  @5;1*3@ &64*X $    $     X                    ",
"                  @5;1*3@ &64*XX$          X                    ",
"                  @5;1*,@ &64*XX$X                              ",
"                  @55;,,@ &64& X$XX                             ",
"                  @55;,,3@*64&  $XoX .                          ",
"                 @555;:,3;*44&  $ XO.<..                        ",
"             =# =@5;5;:,,;*41&   -<oO-                          ",
"            =22#=@5;5;:,,;*41& + --oOX                          ",
"            2   +@3;5;::,,*41&+=-= XoX =   =                    ",
"               ==@3;5;::,*41&=#== =XoX=2  =                     ",
"              ==++3;;4*::*11*++#==#XooX+##2                     ",
"              ## #+;@44**11>+#=++=2=XX=2#2                      ",
"         =  ##2 ===@@14*11>+###==+  =#= 2#                      ",
"         2=#2=   ==@+11+>>+#===  2+  =   =                      ",
"          2 2=    =@#++=+++#==     =     =                      ",
"             =    =@+======+=           =                       ",
"             2=   #@==    ==+           2                       ",
"                 #2@        =++                                 ",
"                 =           #2#===                             ",
"                 2=          #  22                              ",
"                  2=        #2                                  ",
"                          ==2                                   ",
"                           2                                    ",
"                                                                ",
"                                                                ",
"                                                                ",
"                                                                "
};
