/* XPM */
static char *result[] = {
/* columns rows colors chars-per-pixel */
"64 64 28 1 ",
"  c #1C0000",
". c #1A0A09",
"X c #231513",
"o c #372828",
"O c #2D3327",
"+ c #2D312B",
"@ c #353B2E",
"# c #393D37",
"$ c #4C0C0C",
"% c #443B30",
"& c #57493B",
"* c #4C4F49",
"= c #49494C",
"- c #5D6250",
"; c #656B55",
": c #767A5F",
"> c #7B7061",
", c #A03B2B",
"< c #878966",
"1 c #8E8475",
"2 c #868B7C",
"3 c #A9A77D",
"4 c #ACA492",
"5 c #D7CF9E",
"6 c #D2CEBC",
"7 c #FCEABF",
"8 c #EDEBDB",
"9 c None",
/* pixels */
"9999999999999999999999999999999999999999999999999999999999999999",
"9999999999999999999999999999999999999999999999999999999999999999",
"9999999999999999999999999999999999999999999999999999999999999999",
"9999999999999999999999999999999999999999999999999999999999999999",
"9999999999999999999999999999999999999999999999999999999999999999",
"9999999999999999999999999999999999999999999999999999999999999999",
"9999999999999999999999999999999999999999999999999999999999999999",
"9999999999999999999999999999999999999999999999999999999999999999",
"9999999999999999999999999999999999999999999999999999999999999999",
"9999999999999999999999999999999999999999999999999999999999999999",
"9999999999999999999999999999999 99999999999999999999999999999999",
"9999999999999999999999999999999 99999999999999999999999999999999",
"9999999999999999999999999@9999 , 9999999999999999999999999999999",
"999999999999999999999999@7@99.X 9999@@@9999999999999999999999999",
"999999999999999999999999@7@9...X.9@@775@999999999999999999999999",
"999999999999999999999999@5@9.99.@@775@@9999999999999999999999999",
"999999999999999999999999@55@..@:755@@99@@@9999999999999999999999",
"999999999999999999999999@55 X.555@@..@@775@999999999999999999999",
"999999999999999999999999@  ,$.35@99@@755@@9999999999999999999999",
"999999999999999999999999@75 X.355@@755@@999999999999999999999999",
"99999999999999999999999@5755.o.35555@@99@@9999999999999999999999",
"99999999999999999999999@775:<.o 355@9@@@5@999 999999999999999999",
"99999999999999999999999@7755<.$,  ::@775@.9  9999999999999999999",
"99999999999999999999999@55 53.o 555575:@@.., 9999999999999999999",
"999999999999999999999999@55  XX.55::::@9@9..99999999999999999999",
"99999999999999999999999O3:5 ,X.55557755@@99..9999999999999999999",
"99999999999999999999999O33....55@@@5;@@9@99..9999999999999999999",
"99999999999999999999999O-..;;;@@9@9@@999@9..99999999999999999999",
"999999999999999999 9999.., <:<<O9@9@@999@9..99999999999999999999",
"9999999999999999999  9..&  -4-3O999@9999@9.999999999999999999999",
"9999999999999999999 ,..9%@< 4-3O999@9999@9.999999999999999999999",
"9999999999999999999.X.99%4;4&-33O99@999999.999999999999999999999",
"999999999999999999.o.999%4;4%-33O99@9999999999999999999999999999",
"9999999999999999999.o.99%6;%9O33O99@9999999999999999999999999999",
"9999999999999999999.X.99%6;%9O3-3O9@9999999999999999999999999999",
"99999999999999999999.X.9=&;%9O3-3O999999999999999999999999999999",
"99999999999999999999.X,=9%;%9O<@33O99999999999999999999999999999",
"999999999999999999999.$=9%;%9O<@<3O99999999999999999999999999999",
"999999999999999999999.X.9%8%9O@6-3O99999999999999999999999999999",
"9999999999999999999999.X.&6%9O@6-<3O9999999999999999999999999999",
"999999999999999999999 ,X.&68%O@6-<3O9*99999999999999999999999999",
"999999999999999999999= XX.&6&O@6@<<+#999999999999999999999999999",
"99999999999999999999=9*..*+46O@44-<+++#9999999999999999999999999",
"99999999999999999999999**+++4O&41-:+9*2#999999999999999999999999",
"999999999999999999999999#**#+O>+>@+**992*99999999999999999999999",
"99999999999999999999999*29*+#O+#++**9999929999999999999999999999",
"999999999999999999999992999+*O+##*+*9999999999999999999999999999",
"99999999999999999999999999#9*@*+**9#**29999999999999999999999999",
"999999999999999999999999***99@9+*999*999999999999999999999999999",
"999999999999999999999999922*999#2999*999999999999999999999999999",
"9999999999999999999999999999299**9992999999999999999999999999999",
"999999999999999999999999999999*99*299999999999999999999999999999",
"9999999999999999999999999999992999999999999999999999999999999999",
"9999999999999999999999999999999999999999999999999999999999999999",
"9999999999999999999999999999999999999999999999999999999999999999",
"9999999999999999999999999999999999999999999999999999999999999999",
"9999999999999999999999999999999999999999999999999999999999999999",
"9999999999999999999999999999999999999999999999999999999999999999",
"9999999999999999999999999999999999999999999999999999999999999999",
"9999999999999999999999999999999999999999999999999999999999999999",
"9999999999999999999999999999999999999999999999999999999999999999",
"9999999999999999999999999999999999999999999999999999999999999999",
"9999999999999999999999999999999999999999999999999999999999999999",
"9999999999999999999999999999999999999999999999999999999999999999"
};
