/* XPM */
static char *_87eb63c5f4d4fd9902c7ad08439766an2MI8A9NfABksRIy[] = {
/* columns rows colors chars-per-pixel */
"64 64 30 1 ",
"  c None",
". c #1C0000",
"X c #1A0A09",
"o c #231513",
"O c #2B1E20",
"+ c #372828",
"@ c #37292B",
"# c #2D312B",
"$ c #3F2F31",
"% c #393D37",
"& c #4C0C0C",
"* c #443B30",
"= c #493939",
"- c #57493B",
"; c #49484B",
": c #4C4F49",
"> c #49494C",
", c #654C4C",
"< c #7F5F5C",
"1 c #6D6152",
"2 c #7B7061",
"3 c #A03B2B",
"4 c #9D756B",
"5 c #8E8475",
"6 c #868B7C",
"7 c #C2927F",
"8 c #ACA492",
"9 c #D2CEBC",
"0 c #EDEBDB",
"q c #FFFFF3",
/* pixels */
"                                                                ",
"                      OOOO                                      ",
"          *       O  O7777OO                                    ",
"         *0*     O7O O447777OOO                                 ",
"         *0*     O7O  OO4444777OOOOOOO                          ",
"         *9*     O7O    OO4O4477777777OO                        ",
"         *9*    O47O X  > O4O44477777774O                       ",
"         *1*    O47@X@..  O4O$44477777774O                      ",
"         *0*    O47@X@3.OO@4O,$,444777744O                      ",
"         *90*   O47@Xo@X,,@4O,<<,,<4444444O                     ",
"         O-9-OOOO474@Xo@X@44O<<<<<<<<44444O                     ",
"  **     O-9,7O4O<44@4Xo@.44O,<<<<<<44444<O                     ",
"  *0*    OOO447O$<<44@Xo&3..O,,,,<<444444<O    .                ",
"   *0*   OO O4477$<<.<Xoo.O7O,$,47444444<<<O   .                ",
"    *9* XOOO,$4477,<<.&oX$O77O777444444,<<<O  .3.               ",
"    *10*-OO77<$<444,<.3oX$O4777744444@,<<<,O Xo&@X              ",
"     *999O74444O<<<<O<XX<$O4447444OOO<<<<<,@XXoo@X              ",
"     X-*9O,<<OO,OOOO XoXO$OO444OOO O,<<<<,,@* XXo@X             ",
" .  XoX *O*OOO O,O   X3> O  OOO,O  O,<<<<,@2*   XoX             ",
"  ..oX   O  OO O,O   X&. O    O,O  O,<<<,,@5*    XX .           ",
"  .3X    O  OO O,O   XX .O    O,O  O,<<<,,@58*   X&.            ",
"   XX    O  OO O,O  XoX  O     OO  O,<$<,,@88*   X3.            ",
"   XX    O  O  O<O  XX         OO  O,,$<,@289*   XX             ",
"    X    O  O  O<O  XX         OO  O,,$,,@5899* XX              ",
"   .3X   O  O  O<O   .X        OO  O=,$,,@5890* XX              ",
"   ..XX     O  O<O ..3&X       OO  O=,$,,@-890* XX              ",
"  .   X     O  O<O   .XoX   .  OO   O,$,=@2-89q*XoX             ",
"     XX     O  OO      XXX..    O   O=$,=@2-890-XXX             ",
"     X      O  OO        X3.    O . O=$,@55--89-X X             ",
"    XX      O  OO         XX    O  .O=$,@85--89XX XX            ",
"    X       O  OO          X    O  .O=$,@85-*8XX* XX  .         ",
"            O  OO         .3X   O  XO=$=@8.* *XX*  X..          ",
"            O  OO         ..X   O XXO$=@@98.>XX9*  X3.          ",
"            O  OO        .  XX   XoXO$=@@98.3X89q*  XX          ",
"            O   O            XXXXoX O$=@@09-XX-90*  XoX         ",
"            O   O            XoooX  O$@8@09XX *90*   XX         ",
"                O             X&X   O$@8@0XX  *99*   XoX        ",
"                O             .3.   O$@8XXX*  *998*  XXoXX      ",
"                O              .    O.XXoX3>   *98* XX Xo@X.    ",
"                O              .   ..3&oX0.>   *88* XX  Xo&3..  ",
"                O                    ;@X909->  *58-XX  6Xoo.    ",
"                O                   :X@X9q9*   *585O   :XoX:6   ",
"                O              :   ::XoX9q0*    *55O  :%XoX%%:  ",
"                O               :.:%%XoX90q*    *5@,O: ::X:6    ",
"                O                6..XoX99909*   *2@,O%:::% :    ",
"                             ##XXX&3oX*89909*   O@,,=O::%%%%    ",
"                          %%# XXXXXXX%*89999*  O,,,==O#% 666:   ",
"                         :  6XX:::%%##*88998*  O,,,==# :        ",
"                             X3> ::#%%#588888**@,,==#::         ",
"                         XXXXX..  :# :%#58855522@===##:::   :   ",
"                        XXXX    .:#:::%%##--2222@==#: %%%  :6   ",
"                       X         #: :::%%%#2222@=##%::: 6%:6    ",
"                                %:6   ::%%#######%%::    6%     ",
"                               %6      ::%#%%%%#%%::      6%    ",
"                               :6       :#% :: %#%::       :    ",
"                               :        #::::::: #:       :     ",
"                                       #:       ::#             ",
"                                      %6         #6#    :       ",
"                                :   %%:         6% 6##%%        ",
"                                 ::%6 6:        %    666%       ",
"                                 66    6::     6%        %      ",
"                                              ::6:       :      ",
"                                                 6              ",
"                                                                "
};
