/* XPM */
static char *result[] = {
/* columns rows colors chars-per-pixel */
"64 64 25 1 ",
"  c #1C0000",
". c #1A0A09",
"X c #231513",
"o c #1D271A",
"O c #372828",
"+ c #2D312B",
"@ c #393D37",
"# c #4C0C0C",
"$ c #443B30",
"% c #3E4E3A",
"& c #57493B",
"* c #4C4F49",
"= c #4A5C42",
"- c #55674A",
"; c #607253",
": c #7B7061",
"> c #A03B2B",
", c #788C5F",
"< c #8E8475",
"1 c #868B7C",
"2 c #93A76D",
"3 c #ACA492",
"4 c #D2CEBC",
"5 c #EDEBDB",
"6 c None",
/* pixels */
"6666666666666666666666666666666666666666666666666666666666666666",
"6666666666666666666666666666666666666666666666666666666666666666",
"6666666666666666666666666666666666666666666666666666666666666666",
"6666666666666666666666666666666666666666666666666666666666666666",
"6666666666666666666666666666666666666666666666666666666666666666",
"666666666666666666666666666666o666o66666666666666666666666666666",
"66666666666666666666666666666o2o6o2o6666666666666666666666666666",
"66666666666666666666666666666o2o6o2o6666666666666666666666666666",
"66666666666666666666666666666o2o6o,,o666666666666666666666666666",
"6666666666666666666666666o666o2o6o,oo666666666666666666666666666",
"666666666666666666666666o2o66o2,o%o2o666666666666666666666666666",
"666666666666666666666666o2o66o,,%=o2,o66666666666666666666666666",
"666666666666666666666666o,2o.o,,% ,o2o66666666666666666666666666",
"6666666666666666666666666o2...=  %,o2,o6666666666666666666666666",
"6666666666666666666666666o..66.> =,,o,o6666666666666666666666666",
"666666666666666666666 666..,o6o..=,,o,o6666666666666666666666666",
"6666666666666666666666  ..o,o6o,..,,=,,o666666666666666666666666",
"6666666666666666666666 >.6o,o6o,=....,,o666666666666666666666666",
"66666666666666666666666.X.o,,o,2,,;;=.,o666666666666666666666666",
"666666666666666666666666..o;,,222,,,;,,o666666666666666666666666",
"66666666666666666666$$666..o;,,,,,2,,,,o666666666666666666666666",
"66666666666666666666$5$666.o;;-==,,,,,,o666666666666666666666666",
"66666666666666666666$34$$66o;;;;;;=;,,,o66 666666666666666666666",
"666666666666666666666$344$o%%==;;;;,,,,oo 6666666666666666666666",
"6666666666666666666666$3==222,,=;;,,,,o.> 6666666666666666666666",
"66666666666666666666666o,,,222,,,,,,,,o..66666666666666666666666",
"666666666666666666666666o,,,,222,,,,,=o6..6666666666666666666666",
"666666666666666666666666oooo,,,,,,,,=oo66..666666666666666666666",
"666666666666666666666666oo66o==,,,,;;oo66.X. 6666666666666666666",
"666666666666666666666666oo666o;;;;;;o6o666.#>  66666666666666666",
"666666666666666666666666o...6$=;;;;;o6o666.X 6666666666666666666",
"666666666666666666666666..6..&=; ;=;o6o66.X.66666666666666666666",
"666666666666666666666666.o66..  ;;o;o6o66..666666666666666666666",
"66666666666666666666666.>o666.> ;o4oo6o6.X.666666666666666666666",
"666666666666666666 666.Xoo66$3..;o3oo66.OX> 66666666666666666666",
"6666666666666666666  .X.6o 6$53..o3ooooOX.  66666666666666666666",
"6666666666666666666 >O.66o66$53.X.3oo >O.666 6666666666666666666",
"66666666666666666666.X.66o66$4&o.X.3o.OX.66666666666666666666666",
"6666666666666666666.O.66666$54$o;.X..XX.666666666666666666666666",
"6666666666666666666.X.66666$4$6o;o.#XX.6666666666666666666666666",
"66666666666666666666.O.6666$3$6o;o > .66666666666666666666666666",
"66666666666666666666.XO.66o33$6o;o3 $666666666666666666666666666",
"666666666666666666666 XO.6o3$66oo34 $66*666666666666666666666666",
"6666666666666666666  >#XX.;o$66oo353$*66*66666666666666666666666",
"666666666666666666666o.X.o;o$6$oo353$**6@@@666666666666666666666",
"66666666666666666666@@+..o-o66$oo343$+++661*66666666666666666666",
"6666666666666666666*666*.o--o$3oo33<+*6*666666666666666666666666",
"66666666666666666666666**6+-o<3o343+@**6666666666666666666666666",
"6666666666666666666666**6+@+o:<o33<++@*6666*66666666666666666666",
"6666666666666666*16@@@@++@@*++:<<<+@@++@@**666666666666666666666",
"66666666666666666@@1166@****+@++++@@6*661@6666666666666666666666",
"6666666666666666666666@166*+****@+@**66661*666666666666666666666",
"6666666666666666666666*6666@16****+*666666*666666666666666666666",
"66666666666666666666661666@1666666@*6666666666666666666666666666",
"666666666666666666666666*@1*6666661@@@@6666666666666666666666666",
"666666666666666666666666616*6666666@116@*66666666666666666666666",
"6666666666666666666666666666*666666@6666666666666666666666666666",
"6666666666666666666666666666166666*66666666666666666666666666666",
"6666666666666666666666666666666666666666666666666666666666666666",
"6666666666666666666666666666666666666666666666666666666666666666",
"6666666666666666666666666666666666666666666666666666666666666666",
"6666666666666666666666666666666666666666666666666666666666666666",
"6666666666666666666666666666666666666666666666666666666666666666",
"6666666666666666666666666666666666666666666666666666666666666666"
};
