/* XPM */
static char *_7af6d95d76f4b3aecbd53fc0f507be64m2nb4hFRTOLw46A[] = {
/* columns rows colors chars-per-pixel */
"64 64 83 1 ",
"  c black",
". c #161C2E",
"X c #161C2E",
"o c #161C2E",
"O c #383E32",
"+ c #161C2E",
"@ c #E9F044",
"# c #6A7137",
"$ c #D9C34E",
"% c #D2B151",
"& c #A69048",
"* c None",
"= c #4E5260",
"- c #737782",
"; c #584D3C",
": c #ADA244",
"> c #D4B750",
", c #CEA554",
"< c #333234",
"1 c #161C2E",
"2 c #6A6E79",
"3 c white",
"4 c #ABADB4",
"5 c #846E45",
"6 c #494F33",
"7 c #C7CE40",
"8 c #F6F9B4",
"9 c #B6BD3F",
"0 c #3B404F",
"q c #BFC38A",
"w c #161C2E",
"e c #A89647",
"r c #959B3B",
"t c #DECABC",
"y c #DED24A",
"u c #9DA43C",
"i c #707464",
"p c #B98F73",
"a c #C09A80",
"s c #645F3B",
"d c #B18157",
"f c #B18F4E",
"g c #705447",
"h c #AC7A58",
"j c #F2F68F",
"k c #DFD54A",
"l c #A2844B",
"z c #C4A950",
"x c #DAD449",
"c c #E5E447",
"v c #EEF471",
"b c #E3DE48",
"n c #8E893F",
"m c #60533D",
"M c #C69B55",
"N c #C2A451",
"B c #B48457",
"V c #D3C64B",
"C c #946B51",
"Z c #88634E",
"A c #626836",
"S c #765849",
"D c #B68D55",
"F c #BA8B56",
"G c #52423F",
"H c #8C7446",
"J c #D1C14C",
"K c #3A3338",
"L c #161C2E",
"P c #161C2E",
"I c #161C2E",
"U c #161C2E",
"Y c #96754C",
"T c #161C2E",
"R c #2E2B35",
"E c #5A4C3E",
"W c #161C2E",
"Q c #161C2E",
"! c #161C2E",
"~ c #161C2E",
"^ c #161C2E",
"/ c #161C2E",
"( c #161C2E",
/* pixels */
"                                                                ",
"                                                                ",
"                                                                ",
"                                                                ",
"                                                                ",
"                                                                ",
"                                                                ",
"                                                                ",
"                                                                ",
"                                                                ",
"                                                                ",
"                                                                ",
"                                                                ",
"                                                                ",
"                                                                ",
"                                                                ",
"                                                                ",
"                                                                ",
"                                                                ",
"                                                                ",
"                                                                ",
"                                                                ",
"                                                                ",
"                                     ..X                        ",
"                                     oOo+                       ",
"                                     o@@#+                      ",
"                                     o@@#+                      ",
"                                  Xooo$%@&**                    ",
"                                  *==-;:>,<<.                   ",
"                            11+oooo2234o5o**X                   ",
"                           *oo67889660q7ow                      ",
"                          1o66@8333@@eorow                      ",
"                          *O99@83t3@@y<o*                       ",
"                          *O99@83t3@@y<o*                       ",
"                       ..oo9uu#ipa3@@@,5*                       ",
"                     ++oOsdfoo<<gh@@@@,5o                       ",
"                    +OOjjk%5ooly@zx@@c,,o                       ",
"                   .6vv33@bnooom9@@@@>,Mo                       ",
"                   o#jj38zN@66O<o,yyy,Bho                       ",
"                   o>@@@@Vhgoo@&o,dhhhhCo                       ",
"                   o>@@@@Vhgoo@&o,dhhhhCo                       ",
"                   o,@@@@@zhZZgoA@>BBhSow                       ",
"                   o,bb@@@hDzzz#9@$FFhGow                       ",
"                   *H,,b@@J@@@@@@@$FFhhgo                       ",
"                   .<,,,$b@@@@@@@b,ddhhKo                       ",
"                   Loll,,,,yyyyy>,MhhhZoP                       ",
"                   IUooY,,,,,,,,,FhhhGooIT                      ",
"                   IUooY,,,,,,,,,FhhhGooIT                      ",
"                   IIUUoREYF,,MFSGGoooWQIT                      ",
"                   !IIII~~ooooooo~~QQIII1                       ",
"                     ^^/IIIIIIIIIIIIII^!                        ",
"                          TTTTTTTT(                             ",
"                                                                ",
"                                                                ",
"                                                                ",
"                                                                ",
"                                                                ",
"                                                                ",
"                                                                ",
"                                                                ",
"                                                                ",
"                                                                ",
"                                                                ",
"                                                                "
};
