/* XPM */
static char *collective_floor1734639803[] = {
/* columns rows colors chars-per-pixel */
"64 64 171 2 ",
"   c #0F162C",
".  c #22262F",
"X  c #292B34",
"o  c #332E34",
"O  c #2E3237",
"+  c #343334",
"@  c #333834",
"#  c #3B3C36",
"$  c #363539",
"%  c #3B3B3C",
"&  c #413E3C",
"*  c #4B3E3B",
"=  c #3D4233",
"-  c #454335",
";  c #474B36",
":  c #43433C",
">  c #4D453A",
",  c #4A4A3C",
"<  c #52493A",
"1  c #585937",
"2  c #5C5C39",
"3  c #62553F",
"4  c #5A6036",
"5  c #6E643D",
"6  c #6B703F",
"7  c #747937",
"8  c #7B7C3B",
"9  c #3E424F",
"0  c #474740",
"q  c #4C4F4D",
"w  c #594640",
"e  c #5F4B43",
"r  c #555444",
"t  c #585646",
"y  c #595B44",
"u  c #525349",
"i  c #5E5B4A",
"p  c #505255",
"a  c #685848",
"s  c #715B44",
"d  c #7B5C4A",
"f  c #676648",
"g  c #66624E",
"h  c #7C7455",
"j  c #8D664F",
"k  c #8C694D",
"l  c #8D7347",
"z  c #977A4A",
"x  c #936B51",
"c  c #827A59",
"v  c #A67656",
"b  c #AC7B57",
"n  c #AF7C58",
"m  c #7E8439",
"M  c #7E8443",
"N  c #848639",
"B  c #898C3B",
"V  c #A2A83D",
"C  c #B2B33F",
"Z  c #BAC138",
"A  c #F0F63B",
"S  c #989B41",
"D  c #878750",
"F  c #8D845D",
"G  c #938F55",
"H  c #93895E",
"J  c #969656",
"K  c #A5894A",
"L  c #B7944F",
"P  c #AD8752",
"I  c #B28256",
"U  c #B48A54",
"Y  c #BB8D55",
"T  c #B49150",
"R  c #BC9254",
"E  c #BD9A50",
"W  c #BAAB48",
"Q  c #B9B841",
"!  c #B0AD5E",
"~  c #B3B15E",
"^  c #8C8D68",
"/  c #908560",
"(  c #9A8F62",
")  c #9E9263",
"_  c #A59967",
"`  c #A89B67",
"'  c #AC9D69",
"]  c #AAAE6B",
"[  c #B2A36B",
"{  c #B6A86F",
"}  c #B9A96E",
"|  c #AAA873",
" . c #B0AF72",
".. c #BDAE70",
"X. c #B6B87B",
"o. c #C39B52",
"O. c #C7AF4E",
"+. c #CAB34D",
"@. c #CDB94C",
"#. c #D2B64F",
"$. c #D3B94E",
"%. c #CDA453",
"&. c #CEA952",
"*. c #D1AA52",
"=. c #C29F61",
"-. c #C6BF67",
";. c #C0AF71",
":. c #C5B373",
">. c #C9B675",
",. c #D2BE78",
"<. c #C1C148",
"1. c #D6C74A",
"2. c #DBCC4B",
"3. c #D7DB42",
"4. c #DEDE46",
"5. c #DDD449",
"6. c #DFDA5A",
"7. c #E0D54A",
"8. c #E1DB48",
"9. c #E3E445",
"0. c #E7ED43",
"q. c #E8EE43",
"w. c #E9F143",
"e. c #E4E650",
"r. c #D4C177",
"t. c #D5C179",
"y. c #DCC67D",
"u. c #DEC87E",
"i. c #E3DE6E",
"p. c #E1CB7E",
"a. c #E6DF70",
"s. c #E4D17C",
"d. c #F0DD7F",
"f. c #E6E16D",
"g. c #E8E36E",
"h. c #ECE777",
"j. c #F1E677",
"k. c #F5ED75",
"l. c #F3E27E",
"z. c #F6EC79",
"x. c #EFF179",
"c. c #F7F173",
"v. c #F8F273",
"b. c #F7F079",
"n. c #F9F379",
"m. c #999BA2",
"M. c #A8AAB0",
"N. c #CDB099",
"B. c #DBD589",
"V. c #E4CE80",
"C. c #ECD682",
"Z. c #EED883",
"A. c #F1DB84",
"S. c #F3E082",
"D. c #F3E189",
"F. c #F7F78E",
"G. c #EEEC93",
"H. c #FBF495",
"J. c #FCF894",
"K. c #F2F699",
"L. c #FCF69A",
"P. c #FDF998",
"I. c #F5F8A3",
"U. c #F3F4AC",
"Y. c #E4E6B3",
"T. c #BCBEC4",
"R. c #E1D0C6",
"E. c #F5F4C3",
"W. c #F2EBE5",
"Q. c #FEFEF1",
"!. c #FEFEFC",
/* pixels */
"u.u.p.C.Z.Z.Z.A.A.Z.Z.Z.Z.A.d.p.p.p.s.A.A.A.C.Z.Z.Z.A.Z.A.A.Z.C.Z.Z.C.A.C.C.A.C.s.p.p.y.p.y.p.s.c.v.v.v.v.v.v.v.v.v.v.v.v.v.c.p.",
"p.p.u.p.p.p.C.Z.C.p.p.p.s.k.k.k.s.s.p.p.A.p.V.p.V.C.Z.Z.C.C.C.V.V.V.p.p.p.p.V.p.p.p.p.p.p.p.j.k.c.v.v.v.v.v.v.v.v.v.v.v.v.v.k.s.",
"k.j.s.p.u.u.p.p.p.p.s.k.k.c.c.c.k.k.l.A.A.C.C.V.y.y.V.V.y.V.p.p.V.V.y.p.p.p.p.p.p.p.s.k.k.k.v.v.v.v.v.v.v.v.v.v.v.v.v.v.v.v.v.k.",
"c.c.k.k.s.p.p.p.s.j.k.c.c.c.c.c.k.k.k.A.A.A.A.C.C.V.y.V.V.p.p.p.V.C.A.j.k.k.k.k.k.k.k.v.v.v.v.v.v.v.v.v.v.v.v.v.v.v.v.v.v.v.v.v.",
"J.n.n.n.k.k.k.k.c.c.v.v.v.c.c.A.A.A.A.A.C.C.C.V.Z.Z.C.A.C.A.A.d.d.k.k.v.c.v.v.v.v.v.v.v.v.v.v.v.v.v.v.v.v.v.v.v.v.v.v.F.H.P.P.P.",
"L.J.P.J.n.c.c.c.c.v.v.v.v.c.l.A.A.A.A.Z.V.V.V.V.Z.Z.A.A.A.Z.d.k.v.v.v.v.c.v.v.v.v.v.v.v.v.v.v.v.c.c.c.v.k.k.k.v.c.H.H.P.L.L.L.L.",
"A.D.L.L.J.n.n.n.n.n.v.v.c.c.c.k.Z.A.A.A.C.V.V.V.V.Z.A.A.A.d.z.v.v.v.v.v.v.v.v.v.v.v.k.v.v.v.v.v.c.d.d.d.d.d.A.A.A.D.A.A.D.A.A.D.",
"Z.A.D.H.L.J.J.H.H.H.n.n.b.c.c.c.A.A.A.A.C.C.C.C.Z.Z.A.A.A.l.k.v.v.v.v.v.v.v.v.v.v.v.v.v.v.d.d.d.c.k.v.c.k.d.A.A.A.A.A.A.A.A.A.A.",
"A.A.A.A.D.A.A.A.D.H.L.L.H.A.A.A.A.A.Z.A.A.Z.V.C.A.C.A.A.d.j.v.v.v.v.v.v.v.v.v.v.v.v.v.d.A.A.k.k.v.v.c.k.k.A.A.Z.A.A.A.A.A.A.A.A.",
"A.A.A.Z.A.A.A.A.A.A.A.A.A.A.A.A.Z.V.Z.Z.Z.Z.V.V.p.p.C.A.A.A.A.z.c.c.k.c.v.v.v.k.v.k.d.A.A.d.k.v.v.k.c.d.A.A.A.A.A.A.A.A.A.A.A.A.",
"Z.Z.C.C.A.A.A.A.A.A.A.A.A.A.A.A.V.V.V.V.V.V.V.V.y.V.p.A.A.A.A.A.A.d.d.d.k.k.l.A.A.A.A.A.A.A.v.k.c.k.A.C.Z.Z.C.A.A.A.A.C.C.A.C.C.",
"V.V.V.V.C.A.A.A.A.A.A.A.Z.A.A.A.V.y.y.y.V.t.,.V.V.V.A.A.p.C.A.A.A.A.A.A.A.A.d.A.A.A.A.A.A.A.A.A.Z.p.p.V.p.p.d.A.Z.A.C.V.V.p.p.V.",
"j.p.p.p.s.A.A.A.Z.Z.C.C.A.A.Z.Z.C.C.p.V.p.y.y.y.y.V.V.C.V.V.C.A.A.A.A.Z.A.A.A.A.A.A.A.Z.Z.Z.s.p.p.p.p.p.p.p.s.s.d.d.s.p.p.p.k.k.",
"c.k.k.k.k.c.k.s.p.p.p.d.Z.Z.Z.A.A.A.Z.C.V.p.p.p.y.V.y.V.C.V.C.C.A.A.A.A.Z.A.A.Z.A.A.A.C.V.V.p.s.p.k.c.c.k.k.k.k.c.c.k.k.k.k.k.k.",
"v.v.v.v.v.v.c.k.k.p.p.p.p.p.V.C.C.A.C.p.p.p.p.y.p.y.V.y.p.p.p.p.C.C.A.A.A.Z.Z.C.A.C.C.p.y.p.p.j.k.c.c.v.c.n.c.n.n.n.v.v.v.v.v.v.",
"v.v.v.v.v.v.c.c.c.k.k.p.p.p.p.p.y.p.p.p.p.p.p.p.p.p.p.p.p.y.p.p.p.p.p.C.Z.Z.V.V.p.p.p.y.p.p.j.c.v.v.v.v.n.n.J.P.P.H.J.n.v.v.v.v.",
"c.c.c.v.v.v.v.v.v.v.v.k.k.k.j.s.p.p.p.s.j.k.k.k.k.k.k.k.p.p.p.p.V.V.V.V.Z.V.y.V.p.p.p.s.j.c.c.c.c.k.k.v.H.H.L.I.L.L.P.H.c.v.v.k.",
"l.k.c.k.v.v.v.v.v.v.v.v.v.v.n.b.b.c.b.z.n.n.v.v.v.v.v.k.k.k.d.d.C.Z.Z.Z.Z.Z.Z.C.Z.Z.A.j.c.k.c.c.d.d.A.A.A.A.A.A.A.A.A.D.S.c.c.l.",
"A.A.A.l.v.v.k.v.v.v.v.v.n.H.P.P.P.P.P.P.P.J.n.v.v.v.v.v.v.v.k.k.Z.Z.A.Z.A.A.A.A.A.A.A.d.c.k.A.A.A.A.A.A.A.A.A.A.A.A.z.b.v.v.v.c.",
"k.A.A.A.A.A.d.c.v.v.v.v.H.H.L.L.L.L.L.L.L.J.J.J.b.c.v.v.v.v.v.k.A.Z.A.Z.A.A.A.A.A.A.A.A.A.A.Z.A.A.A.A.A.A.A.A.A.A.A.A.A.z.k.c.v.",
"A.A.A.A.A.A.A.k.v.k.v.v.n.A.A.A.D.A.D.A.A.A.A.D.A.A.d.c.c.c.k.A.A.A.Z.A.d.C.A.A.C.C.Z.Z.C.A.Z.A.A.A.A.A.A.A.A.A.A.A.A.A.A.A.A.A.",
"A.A.A.A.A.A.A.d.z.A.A.A.A.A.A.A.A.A.A.A.A.A.A.A.A.A.A.A.A.A.A.A.Z.Z.Z.Z.d.d.C.C.p.V.p.V.p.p.C.A.A.A.A.C.C.C.C.C.C.Z.C.Z.Z.A.A.A.",
"A.A.A.A.A.A.A.A.A.A.A.A.A.A.A.A.A.A.A.Z.A.A.A.A.A.Z.A.A.A.A.A.A.C.V.V.V.p.p.V.,.V.,.y.p.p.p.p.Z.A.Z.Z.C.V.V.V.V.p.p.p.p.V.C.Z.Z.",
"A.A.A.A.A.A.A.A.A.A.A.A.A.A.A.A.A.A.A.A.Z.A.A.A.Z.Z.Z.Z.A.A.A.A.Z.V.V.V.s.N.V.V.V.V.y.p.p.C.C.A.C.p.V.p.V.y.,.p.p.p.p.p.p.s.s.s.",
"A.d.d.A.A.Z.A.A.A.Z.Z.Z.d.C.A.A.A.A.A.A.A.d.A.Z.p.p.p.p.d.d.C.C.A.A.C.C.V.u.C.C.C.u.p.C.C.C.p.p.p.u.s.p.s.p.s.j.k.k.k.k.k.k.k.k.",
"j.d.p.p.p.C.Z.Z.Z.C.V.V.p.p.s.j.z.b.b.c.k.k.s.s.p.p.p.p.p.u.y.p.C.C.C.C.V.V.y.t.y.y.V.y.V.y.p.p.s.j.k.k.k.k.c.c.v.v.v.v.v.v.v.v.",
"s.s.p.p.y.p.p.p.p.p.y.p.s.k.k.v.v.v.v.v.n.c.k.k.k.k.p.p.u.p.u.u.V.V.V.V.p.p.' e u / t.y.y.p.j.k.c.c.v.v.c.c.v.v.v.v.v.v.v.v.v.v.",
"k.k.j.s.p.y.V.p.C.A.d.d.k.k.v.v.v.v.v.v.c.n.c.n.c.c.k.k.k.k.s.p.u.p.y.y.,.y.( 3 m 2 h t.y.s.k.c.v.v.v.v.v.v.v.n.v.n.v.n.v.v.v.v.",
"v.v.k.k.j.d.A.C.A.A.A.A.A.k.v.v.v.v.n.n.n.J.P.P.P.J.n.c.c.c.k.k.k.g.s.s.p.} a 7 5.3.B J i.c.c.v.v.v.v.c.v.n.n.J.P.P.L.L.P.H.n.n.",
"v.c.k.k.d.A.A.A.C.A.C.C.A.k.v.v.v.c.H.J.H.L.L.L.L.L.J.n.c.n.c.c.c.c.k.h.a.i 9 i K 5.#.< G c.c.v.v.v.c.c.n.J.P.P.L.L.L.L.L.L.H.H.",
"k.d.A.A.A.A.A.C.p.V.y.V.d.d.j.v.b.A.A.A.A.D.A.D.A.D.H.n.c.c.c.k.i.J f f r X m.T.p 8 5 < D c.c.v.v.v.c.v.H.L.L.L.D.D.A.D.D.A.D.A.",
"d.d.A.A.A.A.p.p.p.y.y.V.p.A.A.A.A.A.A.A.A.A.A.A.A.A.A.A.l.k.k.! ; = M ] ] 6 q M.X.- , ~ g.c.v.v.v.c.c.c.D.D.A.A.A.A.A.A.A.A.A.A.",
"C.V.V.C.A.A.d.s.y.V.y.V.V.C.A.A.A.A.A.A.A.A.A.A.A.A.A.Z.Z.A.p.0 @ Z H.!.Q.I.C & 7 4 y f.k.c.c.c.c.c.A.A.A.A.A.A.A.A.A.A.A.A.A.A.",
"C.V.u.V.C.s.p.p.V.y.V.C.C.A.A.A.A.A.A.A.A.A.A.Z.A.A.Z.Z.Z.Z.c # V A I.W.R.E.A K o + ~ k.c.c.k.S.A.S.A.A.A.A.A.A.A.A.Z.A.C.A.A.A.",
"Z.Z.Z.C.p.p.y.y.,.V.C.A.Z.Z.C.A.C.A.A.A.A.A.A.A.A.Z.s.[ c a O 8 C N ^ [ N.U.9.1.K & -.k.k.l.d.k.c.k.d.A.A.Z.A.A.A.A.A.A.A.A.A.A.",
"Z.Z.C.p.u.u.p.y.N.V.C.C.V.V.V.V.A.A.A.A.A.A.A.A.Z.C.[ : ; 8 z K @ > < 5 =.e.0.2.E # F Z.d.d.k.k.z.d.A.A.A.A.A.Z.A.A.A.Z.A.A.A.A.",
"V.u.p.p.p.p.y.p.p.p.s.d.p.p.p.V.C.A.A.A.A.A.A.Z.C.' ; | Y.x.7.z   3 $.8.1.9.0.$.%.s H C.A.A.A.A.A.A.Z.Z.Z.Z.d.C.A.A.A.A.A.A.A.C.",
"u.p.s.d.k.s.p.p.p.p.u.d.C.p.V.p.Z.A.A.Z.A.A.A.Z.y.t S E.Q.G.5.Q - . ; B 4.0.4.&.o.a H C.A.A.A.Z.Z.Z.C.p.V.p.p.p.p.s.d.A.A.A.A.V.",
"k.k.c.v.c.k.k.j.s.u.y.p.C.C.C.C.A.Z.A.Z.C.C.A.C.} + <.U.K.6.U W 4 7 5 o E &.o.Y n e H Z.Z.Z.d.s.p.p.p.y.y.p.p.p.s.j.k.k.k.k.z.z.",
"v.v.v.v.v.v.v.c.j.s.p.p.s.s.A.d.Z.Z.Z.Z.V.y.V.V.[ > 1.w.0.0.+.x > N 2 = +.Y b b d & [ Z.C.p.p.p.p.p.p.p.p.j.k.c.k.k.v.v.v.v.v.k.",
"v.v.v.v.v.v.v.v.v.k.k.k.k.k.k.k.V.V.p.p.p.p.y.p.[ - @.0.0.w.@.n I z - B q.#.I j o % ,.p.p.p.p.p.p.s.j.k.k.k.v.v.v.v.v.v.v.v.v.v.",
"v.v.v.c.v.v.v.v.v.v.v.v.v.v.v.c.l.V.p.s.p.p.p.p.r.1 E 5.0.w.O.@.9.9.3.A w.$.I v d $ ' y.p.j.c.c.k.k.v.v.v.v.v.v.v.v.v.v.v.v.n.n.",
"H.H.n.n.n.c.v.v.v.v.v.v.v.v.v.v.v.j.k.k.k.k.k.k.f.f l &.1.9.9.w.w.w.0.0.8.*.n n j X / C.A.k.c.c.v.v.v.v.v.v.v.v.v.v.v.n.n.H.L.P.",
"L.L.H.J.J.n.v.v.v.v.v.v.v.v.v.v.v.v.v.v.c.c.c.k.c.J < E &.&.#.2.5.5.5.1.*.Y n n < % :.A.A.A.A.z.c.v.v.k.v.v.n.n.v.v.H.H.P.P.L.L.",
"D.A.A.H.H.c.c.c.v.v.v.v.v.v.v.v.v.v.c.c.c.v.v.v.h. .u a R o.%.&.&.&.&.o.o.b x w . a ;.C.Z.A.Z.Z.d.k.v.A.A.A.A.A.A.A.A.L.L.L.D.A.",
"A.A.A.A.S.A.A.A.z.v.v.v.v.v.v.v.v.v.v.c.c.v.n.J.G.X.| u * s l I L T P k a e $ O u ( ..V.Z.C.C.V.d.A.d.A.A.A.A.A.A.A.A.A.A.D.A.A.",
"A.A.A.A.A.A.A.A.A.l.A.v.c.k.v.c.v.v.c.c.n.J.J.P.L.B.{ _ h g * & & & & % a g c ( ` { ,.V.V.V.,.V.C.A.A.A.A.A.A.A.A.A.A.A.A.A.A.A.",
"A.A.A.A.A.A.A.l.k.v.v.v.d.A.l.l.k.c.c.n.H.L.L.H.D.Z.u.r.....` ) _ ( ( _ ' ' [ } >.y.V.y.V.V.V.V.p.A.A.A.A.A.A.A.A.A.A.Z.A.A.A.A.",
"A.A.A.A.A.A.A.j.k.v.j.d.A.v.v.z.j.A.A.A.A.S.A.A.A.A.A.A.C.C.p.,.,.,.>.:.:.,.y.y.y.y.V.p.y.u.p.C.A.A.Z.C.A.A.A.A.A.A.A.A.A.A.A.A.",
"A.A.A.A.A.A.A.d.A.A.d.A.A.d.z.z.A.Z.A.A.A.A.A.A.A.A.A.A.A.A.A.A.A.Z.C.V.V.V.p.y.V.C.C.C.p.p.C.Z.A.C.C.V.p.Z.A.C.C.C.A.A.A.A.A.A.",
"A.A.A.A.A.A.C.d.A.A.A.A.A.A.d.A.A.A.A.A.A.A.A.A.A.A.A.A.A.A.A.A.A.A.Z.Z.C.C.C.V.C.Z.A.C.p.p.C.Z.C.p.p.y.p.s.A.s.p.p.C.C.A.C.Z.A.",
"A.A.Z.A.A.A.C.d.A.A.A.C.C.A.A.A.A.A.A.A.A.A.A.A.A.A.A.A.A.C.C.C.A.A.A.A.Z.C.C.V.C.C.C.V.y.y.p.p.p.p.p.p.j.k.c.j.s.p.p.p.V.C.Z.Z.",
"C.V.p.s.k.k.s.p.p.p.p.p.p.p.C.C.A.A.A.A.A.A.A.A.A.A.C.C.C.V.p.p.C.Z.A.A.d.d.y.y.V.V.y.y.u.u.u.p.y.p.s.j.v.v.v.v.k.p.p.p.V.p.p.C.",
"s.N.p.k.c.k.k.s.p.p.p.p.y.p.p.p.C.C.A.A.A.Z.A.A.C.C.V.p.p.y.p.p.V.C.Z.C.p.p.y.p.y.V.y.V.u.u.u.p.s.j.k.v.v.v.v.v.c.k.k.k.p.p.p.p.",
"s.s.k.c.c.v.c.k.c.k.k.j.s.p.y.p.V.C.Z.Z.A.A.A.C.C.V.V.y.p.s.p.p.p.p.V.V.p.u.u.u.p.y.y.y.p.p.s.j.k.v.v.k.v.v.v.v.c.c.v.c.k.k.j.p.",
"k.k.c.c.v.v.v.v.c.c.c.c.k.k.p.p.y.V.V.C.Z.Z.d.s.V.V.p.p.j.j.k.k.j.p.y.V.p.p.p.p.p.p.s.j.k.k.k.c.v.v.n.n.v.n.v.n.v.c.v.v.v.v.v.k.",
"v.v.v.v.v.v.v.v.v.v.c.v.v.c.k.j.s.p.p.s.s.s.k.k.k.c.k.c.c.v.v.n.k.k.c.c.k.k.k.k.c.k.k.c.n.n.n.n.J.P.P.P.L.L.L.H.F.v.v.v.v.k.v.v.",
"v.v.v.v.v.v.v.v.v.v.c.c.v.v.v.v.b.b.k.k.k.k.c.v.c.c.c.c.v.v.n.z.v.v.n.n.n.n.c.n.n.n.n.n.J.P.P.P.L.L.L.I.L.L.H.A.A.A.A.A.A.v.k.k.",
"k.v.v.v.k.v.v.v.v.c.v.c.v.v.v.H.P.H.n.n.c.c.v.v.c.v.c.n.n.n.L.L.H.L.H.H.H.H.L.P.L.L.L.H.L.L.L.L.D.A.A.D.A.A.A.A.A.A.A.A.A.d.A.A.",
"A.A.A.A.d.d.d.v.c.c.c.c.n.H.H.L.L.L.H.L.n.n.v.v.v.v.n.L.H.H.L.L.D.A.D.A.A.D.H.L.L.L.L.I.D.A.D.A.A.A.A.A.A.A.A.A.A.A.A.A.A.A.A.A.",
"A.A.A.A.A.k.k.v.v.d.A.A.A.A.A.D.A.A.D.L.H.n.v.v.v.n.H.H.L.D.A.A.A.A.A.A.A.A.A.D.A.A.D.A.A.A.A.C.A.A.A.C.d.C.C.A.A.A.A.A.A.A.A.A.",
"A.A.A.A.A.v.v.v.v.k.A.A.A.A.A.A.A.A.A.D.H.H.n.v.c.z.D.A.A.A.A.A.A.A.A.A.A.A.A.A.A.A.A.A.Z.A.Z.C.A.Z.C.V.p.p.p.C.A.C.A.A.A.A.A.A.",
"A.A.A.A.A.A.v.v.k.A.A.A.A.A.A.A.A.A.A.A.A.A.A.d.A.A.A.A.Z.A.A.A.A.A.A.Z.A.A.A.A.A.A.Z.Z.Z.Z.C.V.y.V.V.y.s.p.p.p.p.s.s.d.A.C.A.A.",
"A.A.A.A.A.A.A.d.A.A.A.A.A.A.A.A.A.A.A.A.A.A.A.A.A.A.A.A.A.A.A.A.A.A.A.A.A.A.A.A.A.A.A.C.V.V.y.V.y.V.y.p.j.k.k.k.k.k.c.k.l.p.p.p."
};
