/* XPM */
static char *corner_top_right1734639234[] = {
/* columns rows colors chars-per-pixel */
"64 64 120 2 ",
"   c #161C2E",
".  c #191F2F",
"X  c #161E30",
"o  c #1B2131",
"O  c #1C2C3B",
"+  c #1F303E",
"@  c #2C2E36",
"#  c #2E2F38",
"$  c #2E3336",
"%  c #2F3239",
"&  c #323736",
"*  c #353A37",
"=  c #323539",
"-  c #343A39",
";  c #3F3E3E",
":  c #403F3F",
">  c #43453D",
",  c #474B3D",
"<  c #4A4D3E",
"1  c #4E513F",
"2  c #1F3947",
"3  c #213C49",
"4  c #313E44",
"5  c #324046",
"6  c #395350",
"7  c #454440",
"8  c #4B4C41",
"9  c #514D46",
"0  c #47514D",
"q  c #4C5A4A",
"w  c #5C5A46",
"e  c #59554A",
"r  c #5D5B48",
"t  c #5F604A",
"y  c #616147",
"u  c #686051",
"i  c #937E69",
"p  c #AEAB5C",
"a  c #9A856A",
"s  c #9F886F",
"d  c #AF9F6B",
"f  c #A38A70",
"g  c #AC9472",
"h  c #B39778",
"j  c #B69B78",
"k  c #B99E79",
"l  c #AFA06B",
"z  c #B3A36C",
"x  c #BBAE6B",
"c  c #BAA177",
"v  c #BEAE70",
"b  c #BDA379",
"n  c #C3BF64",
"m  c #C2B36F",
"M  c #C1AA77",
"N  c #C0A57A",
"B  c #C3AB7A",
"V  c #C3B272",
"C  c #C8B675",
"Z  c #CCBB73",
"A  c #C7B078",
"S  c #CFBB78",
"D  c #D5BE7C",
"F  c #C6C364",
"G  c #CAC665",
"H  c #DCD66B",
"J  c #DFDA6B",
"K  c #D6C577",
"L  c #DACA77",
"P  c #D5C279",
"I  c #DBC57D",
"U  c #DEC87E",
"Y  c #CCD371",
"T  c #E0DC6D",
"R  c #E1CB7E",
"E  c #E1DC74",
"W  c #E8DE74",
"Q  c #E4D17C",
"!  c #EFDC7F",
"~  c #F0DD7F",
"^  c #D1E27F",
"/  c #EEE474",
"(  c #E3EA79",
")  c #F1E676",
"_  c #F5ED75",
"`  c #F3E37D",
"'  c #F6EC79",
"]  c #F7F173",
"[  c #F8F273",
"{  c #F7F079",
"}  c #F9F379",
"|  c #387E82",
" . c #3C8A8D",
".. c #3D8D90",
"X. c #429A9A",
"o. c #529E96",
"O. c #69B49E",
"+. c #6CB99D",
"@. c #45A6A5",
"#. c #46A8A7",
"$. c #47ABA9",
"%. c #49ACA8",
"&. c #5BB3A3",
"*. c #BCBF85",
"=. c #CAB481",
"-. c #CCC682",
";. c #E3CC81",
":. c #E6D183",
">. c #EBD482",
",. c #EED883",
"<. c #E2DD89",
"1. c #F1DB84",
"2. c #F3E082",
"3. c #F3E189",
"4. c #FBF78F",
"5. c #F5ED94",
"6. c #FBF494",
"7. c #FCF895",
"8. c #FCF699",
"9. c #FDF998",
/* pixels */
"& $ .   O  ...$.$.$.$.$...O X $ # @ .   @  . .O   . $ < T [ [ [ J < & & @ . O  .@.@.X. .O       O  .@.X. .O       O ..@.$.$.$.$.",
"H F , $ o O 3 ..@..... .2 o ; l V z : . X o O X . > F J _ [ [ [ ] J K K M > . 3  . .3 + & & $ $ . 2 | 3 5 $ $ $ $ o 2 ..@.$.$.$.",
"] ] J F > X   O + + O O X $ l L I D d @     . $ , G _ ] [ [ [ [ ] [ ] _ 1.V > . o @ & , F H H F , o O > z Z G H G , & 5 ..$.$.$.",
"[ ] ] ] G , & & $ X X X o > C ;.R R z @   $ , F J ] [ ] [ [ [ [ ] [ ] _ 1.,.V > & , F J ] ] ] ] F $ $ F ) _ ' [ _ H F q %.$.$.$.",
"7.} } [ ] J H H p $   X > F / L R m : . $ n T _ ] ] [ ] [ ] ] } [ [ ~ 1.1.1.~ H H J ] [ ] ] _ T n $ > J ] ] [ [ [ [ ] T ^ +.%.$.",
"8.7.9.9.} [ ] G > . . > G _ [ Q R z @ . , T [ [ [ [ { [ } 7.8.6.1.~ 1.1.~ ] ] [ ] ] [ [ ] T F , $ , x _ ] ] [ [ [ [ [ [ ] ^ &.$.",
"1.3.8.8.6.{ G , - - , G _ ] [ ) m : . > G _ [ [ [ [ 7.7.9.7.1.1.1.1.1.1._ ] ] [ ] ] ] J F , & & , F ] ] [ [ [ [ [ [ [ [ [ ( +.%.",
"1.1.1.1.3.<.t 8 -.<.E ' [ [ _ G > . & F _ ] _ _ ] [ 6.3.1.3.1.3.1._ ] ] [ [ [ [ ] J F , $ . > G J ] ] ] [ [ [ [ } [ [ [ [ ] ^ &.",
"1.1.1.1.1.,.I I ,.8.9.9.5.L v > o # < T _ _ 1.1.1.1.1.1.1._ _ _ } [ } [ [ _ T H n < $ . . , G _ [ [ ] } 7.9.9.6.7.6.4.[ [ [ ^ O.",
"1.1.1.1.1.1.1.1.,.,.,.I V e 7 $ : M D ~ ~ 1.,.1.1.1.1.1.1.1.1.' 6.8.7.] T G , & $ . $ & : V _ _ [ [ [ 7.8.9.5.:.;.;.:.) [ ] <.&.",
">.,.,.,.,.1.1.>.U :.P e 9 i s g S R R ,.1.1.1.1.1.,.,.1.1.1.1.1.3.8.9.<.y < = = & > F T I ! _ _ ] _ _ 5.:.;.;.;.L ;.-.Z H Y +.$.",
"R ;.R R :.:.:.P u g j s s j b ;.;.I R ;.,.1.,.,.;.R R ,.,.1.1.1.1.1.1.1.I I D T T T _ _ 1.1.1.,.,.Q U <.;.L L m v C z 7 & 6 X.$.",
") R R R M c k j f g h k b ;.>.>.;.R >.,.,.>.R R I I R R ;.1.1.1.1.1.1.1.1.1.,.` _ _ _ ~ 1.1.! R L ;.Q ) ] ] J t , , $ X O  .$.$.",
"] _ _ _ / M c c b j b R :.,.>.1.,.,.1.,.>.R R I I ;.;.I ;.>.:.:.>.1.1.1.1.1.1.1.~ ~ 1.1.,.>.I I Q ) ] [ ] ] ] J J F , X O  .@.$.",
"[ [ [ [ ] ) ) / / U I U U R ;.>.>.,.,.R R I R R I R I I B N N k N ;.:.:.,.,.1.,.Q ! ;.>.;.N k A / ] [ [ ] ] [ [ [ ] G > o 2 ..$.",
"[ [ [ [ [ [ [ [ ] _ _ Q R R R ;.R R R R R R R R R R R R >.>.;.N h k k N ;.>.>.;.N k k k k k N W ] ] ] [ ] ] [ [ ] ] ] G > X 2 X.",
"] [ [ [ [ [ [ [ [ [ [ _ _ _ ) Q R R R Q ) _ _ _ _ _ _ _ _ ~ 1.R N k h h k k k k h h k k N W ) ] [ [ _ [ [ ] ] ] [ [ [ _ G , @  .",
"~ _ [ ] [ [ [ [ [ [ [ [ [ [ } ' } ' ' ' } } [ [ [ [ [ [ [ _ 1.1.>.;.N k k k c k c M W ) ) ] ] ] ,.2.1.2.1.1.1.` ' ] _ [ _ F $ O ",
"~ 1.1.~ _ [ ] [ [ [ [ [ } 6.7.9.7.9.9.9.7.7.} } [ [ [ [ [ [ ] _ 1.,.>.:.Q >.! ) ) ) ] ] ] ] 1.1.1.1._ [ ] ] ] 1.1.1.~ [ ] H $   ",
"_ 1.1.1.1.1.~ _ _ [ [ } 6.8.9.9.9.8.8.8.9.8.8.4.' ] ] ] [ [ [ _ 1.1.1.1.1.1.1.1.~ ~ 1.~ 1.1.1.1.1.1._ _ ] ] ] 1.1.1.1.[ _ F $   ",
"1.1.,.1.1.1.1.1.1.1.' _ { 1.1.1.1.3.3.1.1.1.1.3.1.1.1.] ] [ _ 1.1.1.1.1.1.1.1.1.,.,.,.,.>.>.1.1.1.1.1.~ ] ] _ 1.1.1.! H m > . O ",
"1.1.1.,.1.1.1.1.1.1.1.1.1.1.1.1.,.,.,.1.1.1.1.1.1.1.1.1.1.1.1.1.1.>.1.>.1.>.>.>.R R ;.R ;.R >.1.1.1.,.,.1.1.1.>.! H F , $   O  .",
"1.1.1.1.1.1.1.1.1.1.1.1.1.1.1.1.1.1.1.1.1.1.1.1.1.1.1.1.1.1.1.1.>.;.R R ;.I ;.I U U I R R R R 1.1.,.>.:.I I I U Z y 1 * $ . O  .",
"1.1.1.1.1.1.1.1.1.1.1.1.1.1.1.1.1.1.1.1.1.1.1.1.1.>.1.>.1.1.1.1.1.>.;.R R I R ;.R I ;.I R >.:.Q :.;.N k k k N B W J H H F > . O ",
"1.~ 1.,.,.1.1.,.1.,.,.,.~ ,.,.1.1.1.1.1.1.1.1.>.R R R R ! >.,.,.1.1.,.>.;.R :.>.>.R U R R ;.N k k k h c c M W _ [ [ [ [ ] n $   ",
"~ ` R R R ,.,.,.,.>.;.;.R R Q _ ' { [ } _ _ Q Q R R U R R R R R >.>.,.:.>.R R >.>.R U D D k h h c c M W ) ) ] [ [ [ [ [ _ Z >   ",
"Q Q R R I R R ;.R R R R Q ) _ [ [ [ [ [ [ [ _ ] _ ) Q R R R U R R R R R R I R R R U I M k k k M W / / [ [ [ [ [ [ [ ] _ ) R z : ",
"_ _ ) Q R I ;.R ,.,.~ ~ _ [ [ [ [ [ [ [ [ } } } } [ _ _ _ ) R R R R R R I ;.I R U R I L U U / / ] [ [ [ [ [ [ ] ] _ _ Q R R I C ",
"[ [ _ _ _ 1.,.,.1.1.1.1.1._ [ [ [ [ } } } 7.8.9.9.7.} } ] ] ] _ _ ) Q R R R R R R R Q / _ _ ] [ [ [ [ [ ] } ] ] _ Q ,.>.R R I R ",
"[ [ _ _ ~ 1.1.1.,.,.,.1.1._ [ [ [ ' 6.7.8.9.8.8.8.9.7.} [ [ ] ] [ [ _ _ _ _ _ _ _ ] _ ] [ [ [ [ [ [ [ } 8.9.8.6.3.,.1.>.R I I P ",
"_ ~ ~ 1.1.1.,.,.R ;.R ;.,.~ _ _ _ 1.1.1.1.1.3.1.1.3.6.{ ] [ [ ] [ [ [ [ [ [ [ [ [ [ [ [ [ [ [ [ } { 7.7.9.8.3.1.1.1.:.R I C *.O.",
"~ ,.1.1.1.,.R R I R I I R ,.1.1.1.1.1.1.1.1.1.1.1.1.1.1.` _ _ ] [ [ [ [ [ [ [ [ [ [ [ [ [ [ [ } 8.9.9.7.3.1.1.1.1.>.;.;.z 0 o.#.",
",.R R ,.,.1.Q Q I R R R ;.>.1.1.1.1.1.1.1.1.1.,.1.1.1.1.1.1.1.~ _ [ [ [ [ [ [ [ [ [ [ [ [ [ [ 6.8.8.3.1.1.1.1.1.1.>.R z : @  .@.",
",.;.R ;.,.,.R R ;.I ;.>.1.,.1.1.1.1.1.,.1.1.1.,.1.,.1.1.1.1.1.1.~ _ [ [ _ _ _ [ [ [ [ _ _ _ 1.1.1.1.1.1.1.1.1.1.1.;.S w $ . 2  .",
",.,.,.>.R R I R I R >.1.>.1.,.1.1.1.,.,.1.1.1.,.1.1.1.1.1.1.1.1.~ ~ [ [ _ ~ ~ ~ _ _ ` 1.1.1.1.1.1.1.1.1.1.1.1.1.1._ _ T F > . O ",
",.,.>.;.I R R I I ;.>.>.;.;.R >.,.1.1.1.1.1.1.1.1.1.1.1.1.1.1._ _ [ [ [ ` ~ 1.1.~ 1.1.1.1.1.1.1.1.1.1.1.1.1.1.~ _ _ _ [ _ F $   ",
";.R R R R R R R I ;.>.,.R R R ;.>.1.1.1.1.1.1.1.1.,.,.,.1.1.1.1._ _ _ _ _ _ 1.1.1.1.1.,.1.1.1.1.1.1.1.,.,.,.1._ [ [ [ [ ] H &   ",
"R R Q ~ ) Q R R R I ;.>.,.R R R ,.1.1.1.1.1.1.1.1.1.1.,.>.1.1.1.1.1.1.1.1.1.1.1.1.1.1.1.,.,.1.1.,.,.>.R R Q _ [ [ [ [ [ _ F $ O ",
"_ _ _ [ [ _ _ ) R R R R ,.>.,.>.1.1.1.1.>.>.>.>.>.>.>.;.;.>.:.Q >.>.;.>.,.1.1.1.1.1.1.,.,.,.! ,.;.;.R I R ) ] [ _ [ ] L m 5 +  .",
"] [ [ [ [ [ [ [ ) R R R R Q 1.~ >.1.>.>.;.R ;.;.;.;.;.;.U U B b k k k N ;.>.>.>.,.,.,.,.,.R R R ;.I R R _ ] ] _ ,.,.m 7 & o 5 ..",
"] ] [ [ [ [ [ [ [ _ _ _ _ _ _ _ ;.;.R R R R R I R R R R R R I D k k h h k k k c D D R R R R R R R Q ) _ [ ] ~ ! I v > .   O  .#.",
"[ [ [ [ [ [ [ [ [ [ [ [ [ [ [ [ ~ ;.R R R R R R _ _ _ _ ] / Q R R D N k k h k k k k k D I W W _ _ _ [ [ _ J K M 7 & $ $ . O X.#.",
"8.4.} [ } [ [ [ [ [ [ [ [ [ [ [ [ _ _ _ _ _ _ _ [ [ ] ] [ [ ] _ _ _ ) / R R ;.;.N k j j k k N W / J H J F , & $ o > z l @ O X.#.",
"8.8.8.7.4.} [ [ [ [ [ [ [ [ [ [ [ [ [ [ [ [ [ [ [ } } } [ [ [ [ [ [ [ ] ~ ,.:.,.>.:.;.N k k b N z w 1 8 8 & & & < G / Z 7 + X.$.",
"1.1.1.6.6.} ] ] [ [ [ [ [ [ [ [ [ [ [ ] [ [ [ [ } 9.9.9.8.8.{ { [ [ _ _ ~ 1.1.1.1.1.,.:.>.;.;.>.Q H H P K K H H J ] ) U z 4 ..$.",
"1.1.1.1.3.~ 1.1._ [ [ [ [ [ [ [ [ [ [ ] [ [ } 6.9.8.8.8.8.8.8.6._ _ ~ 1.1.1.1.1.1.1.1.>.,.1.,.,.1.1.1.,.1.1._ _ _ ) Q C d 4 ..$.",
"1.1.1.1.1.1.1.1.1.~ ~ [ [ _ [ [ [ [ ] ] } 8.9.9.8.9.3.1.1.3.1.1.~ 1.1.1.1.,.,.,.>.>.R ;.;.;.;.;.>.1.1.1.1.1._ _ L Z z 7 > - 6 @.",
"1.1.1.1.1.1.1.~ ' [ [ [ ~ 1.2.~ ] ] ] ] 6.8.9.8.3.1.1.1.1.1.1.1.1.1.>.1.,.R R R ;.R I R I I I R ;.,.1.1.1.1.1.R Z r , < F H Y +.",
"1.1.1.1.1.1.1._ _ _ _ ~ 1._ _ [ ' 1.1.1.1.1.1.1.1.1.1.1.1.1.1.1.1.>.;.;.R I R U U R ;.R U U ;.>.,.1.,.>.1.1.>.R R T T T _ ] ] / ",
"1.1.1.1.1.1.1.1.1.1.1.1.1.~ ' _ 1.>.1.1.1.1.1.1.1.1.1.1.,.1.1.1.1.1.>.;.;.;.R R ;.>.>.>.R R >.1.1.1.>.;.R >.1.~ _ _ [ [ _ ] _ J ",
"1.1.1.3.1.1.1.1.1.1.1.1.1.1.1.1.1.1.1.1.1.1.1.1.1.1.1.1.1.1.1.1.1.1.1.>.:.,.>.R >.1.1.>.R U :.1.>.R R R R Q _ [ ] [ [ [ _ _ L , ",
"1.,.,.,.1.1.,.,.1.,.,.,.>.1.1.1.1.1.1.1.1.1.1.1.1.1.1.1.1.1.>.>.1.1.1.1.1.1.>.R >.>.>.;.I U R R R R R ) _ _ ] [ [ [ [ _ _ ! m $ ",
">.;.R Q ] _ Q R R R R R R R >.>.1.1.,.1.1.1.1.1.1.1.>.,.>.;.R R >.1.1.,.>.>.R U R ;.U U U U U U I ;.;.,.1.] [ _ ] [ _ ` ! V > . ",
";.;.R ) ] ] _ R R R R R R R R ;.>.1.1.1.1.1.1.1.1.>.;.R R R R R ;.>.,.>.R R R R R U U U U R U R R >.>.1.1.1.1.1.1.1.,.I m : . O ",
";.R _ ] ] [ ] _ _ _ _ ) Q R R I ;.>.,.1.1.1.1.,.>.;.;.R R R R R R R ;.R L U U U U R U R R R Q ) ,.1.1.1.,.>.:.:.:.I M > # . 3  .",
") ) ] ] [ [ [ [ [ [ [ [ _ ) R R I R ;.>.,.,.~ R ;.;.R R W _ _ _ ) R R R Q R R R R R R ) _ _ ] ' 1.1.>.>.;.N k k a : # . X O  .@.",
"[ [ [ [ [ [ [ [ [ [ [ [ [ [ _ ) Q R R Q R Q _ _ _ ] ] ] [ [ [ } ] _ ] _ _ ] ] _ ' _ _ ] } } } { 8.5.=.B M c k g 9 * & $   O  .#.",
"[ [ [ [ [ [ [ [ [ [ [ [ [ [ [ [ ' ' _ _ _ [ [ [ ] ] ] [ [ [ } 2.[ ] } } ] [ } } } { } } 8.9.9.9.8.8.5.5.) / / ) J H H F , . 3  .",
"[ _ [ [ _ _ [ [ [ [ [ [ [ ] [ 6.9.8.} ' [ [ [ [ ] ] [ ] } } 8.8.8.8.6.8.6.9.8.8.8.8.8.8.8.9.9.8.1.1.1.1.1.~ ] ] [ [ [ _ G > . O ",
"1.1.~ 1.1.~ ~ [ ] ] ] _ ' 4.8.9.8.9.9.8.} [ [ [ [ [ } 7.8.8.8.8.3.1.3.1.1.1.6.9.8.8.8.8.1.3.1.1.1.1.1.1.1.1.1.1._ _ ] ] ) m $   ",
"1.1.1.1.1._ [ [ [ ` 1.1.1.1.3.1.1.1.3.8.8.} [ [ [ } 6.8.8.3.3.1.1.1.1.1.1.1.1.1.1.1.3.1.1.1.1.1.1.1.1.1.1.1.1.1.~ 1.1.1.1.K =   ",
"1.1.1.1.1._ [ [ [ ' 1.1.1.1.1.1.1.1.1.3.6.6.[ [ ] ' 3.1.1.1.,.1.1.1.1.1.1.1.1.1.1.1.1.1.1.1.1.1.>.:.:.>.1.1.1.1.1.1.1.1.1.K =   ",
"1.1.1.1.1.~ _ [ ' 1.1.1.1.1.1.1.1.1.1.1.1.1.1.1.~ 1.1.1.1.,.1.,.1.1.1.1.1.1.1.1.1.1.1.,.1.>.:.=.k h k =.R 1.1.1.1.1.1.1.1.P =   ",
"1.1.1.1.1.1.1.~ 1.1.1.1.1.1.1.1.1.1.1.1.1.1.1.1.1.1.1.1.1.,.1.1.1.1.1.1.1.1.1.1.1.,.1.>.;.b k j h h h h N ) ] ] ] [ _ 1.,.P %   "
};
