/* XPM */
static char *corner_top_left1734639233[] = {
/* columns rows colors chars-per-pixel */
"64 64 164 2 ",
"   c #161C2E",
".  c #191F2F",
"X  c #161E30",
"o  c #1A2131",
"O  c #1C2C3C",
"+  c #1F313E",
"@  c #252A37",
"#  c #272A36",
"$  c #2B2D36",
"%  c #2E3236",
"&  c #2E3339",
"*  c #323736",
"=  c #353A37",
"-  c #313439",
";  c #3D3C3F",
":  c #43453D",
">  c #474A3D",
",  c #1F3947",
"<  c #2E3D47",
"1  c #213C49",
"2  c #354445",
"3  c #3A4441",
"4  c #364A55",
"5  c #3A4B52",
"6  c #3B5451",
"7  c #454541",
"8  c #4A4646",
"9  c #474A42",
"0  c #514D47",
"q  c #48544F",
"w  c #565348",
"e  c #5D5B4A",
"r  c #4A5956",
"t  c #465A5D",
"y  c #5B604A",
"u  c #576A5F",
"i  c #606345",
"p  c #63695D",
"a  c #74665B",
"s  c #6C7453",
"d  c #4B696B",
"f  c #526868",
"g  c #516D6C",
"h  c #4E7578",
"j  c #557776",
"k  c #827A59",
"l  c #917D68",
"z  c #73896C",
"x  c #6E8D7A",
"c  c #758476",
"v  c #878650",
"b  c #A9A45E",
"n  c #98836A",
"m  c #899363",
"M  c #A29365",
"N  c #AE9C6D",
"B  c #B09C6F",
"V  c #A38A70",
"C  c #AB9371",
"Z  c #AF9970",
"A  c #B29677",
"S  c #B59C76",
"D  c #B29678",
"F  c #B69B79",
"G  c #BA9E79",
"H  c #92AC7F",
"J  c #B1AC60",
"K  c #B4A46D",
"L  c #BBAB6F",
"P  c #A7B36F",
"I  c #B8B661",
"U  c #BBA177",
"Y  c #BDAC70",
"T  c #BDA379",
"R  c #C2B36F",
"E  c #C1AA77",
"W  c #C0A67A",
"Q  c #C3AA7B",
"!  c #C9AF7C",
"~  c #C2B172",
"^  c #C9B675",
"/  c #CBBA74",
"(  c #D4BD7C",
")  c #C6C364",
"_  c #CAC665",
"`  c #C7C468",
"'  c #D1CD66",
"]  c #D5CF6A",
"[  c #DCD66A",
"{  c #DED96B",
"}  c #C8C57E",
"|  c #D4C376",
" . c #DACA77",
".. c #D5C279",
"X. c #DAC57C",
"o. c #DEC87D",
"O. c #E2DC6D",
"+. c #E1CB7E",
"@. c #E8DE74",
"#. c #E4D17C",
"$. c #E8D979",
"%. c #EEDB7F",
"&. c #F0DD7F",
"*. c #D1E17E",
"=. c #E9E46F",
"-. c #EEE573",
";. c #E2E97A",
":. c #F0E774",
">. c #F5ED75",
",. c #F2E47C",
"<. c #F4EB79",
"1. c #F7F173",
"2. c #F8F273",
"3. c #F7F079",
"4. c #F9F379",
"5. c #387D81",
"6. c #3C8A8D",
"7. c #3D8D90",
"8. c #5A8385",
"9. c #419A9A",
"0. c #76978F",
"q. c #639797",
"w. c #6E9E95",
"e. c #659C9B",
"r. c #689E9D",
"t. c #739B94",
"y. c #56A495",
"u. c #58A696",
"i. c #68B29F",
"p. c #6AB99E",
"a. c #45A6A5",
"s. c #46A8A7",
"d. c #47ABA9",
"f. c #49ACA8",
"g. c #59AEA3",
"h. c #5CB2A3",
"j. c #74ABAB",
"k. c #7EAEB0",
"l. c #8A9987",
"z. c #8DA191",
"x. c #98BAA6",
"c. c #84BBBC",
"v. c #88BEBF",
"b. c #9CC5BB",
"n. c #A7CCBB",
"m. c #CAC784",
"M. c #DCD488",
"N. c #E4CC81",
"B. c #E7D082",
"V. c #EBD482",
"C. c #EED883",
"Z. c #E1DD8A",
"A. c #EDD988",
"S. c #F1DB84",
"D. c #F3E083",
"F. c #F3E189",
"G. c #F4EC96",
"H. c #F7EE96",
"J. c #FBF495",
"K. c #FCF895",
"L. c #FCF69A",
"P. c #FDF998",
"I. c #8BC2C3",
"U. c #93C5C2",
/* pixels */
"d.d.d.d.d.9.9.9.9.9.9.f.f.f.f.7.7.a.7.9.d.d.d.d.d.d.d.d.d.y.2 * % X   O 6.7.9.9.a.s.s.6.O           O 6.s.d.d.s.9.6.O . % * * * ",
"d.d.d.9.6., O O + 2 q u.h.h.u.6 @ O , , 7.9.7.d.d.d.d.d.p.*.{ [ ) > * % + O + 1 6.9.6.1 o % * * * % . , 7.s.s.7.1 2 = : ) [ [ [ ",
"d.d.6.1 O * * * > ) [ *.;.;.*.' > * * * + O , 7.9.d.d.u.*.1.2.2.1.{ [ ) > * % o O O @ . : ) [ [ [ ) : . , 6.6., & L ..{ 1.2.4.2.",
"a.7., o > ) [ [ { 1.2.2.2.2.2.2.O.[ [ ) : % o O , 7.7.6 { 2.2.4.1.2.2.1.{ [ ) : .   . % R 1.1.1.2.1._ > % + O o 7 X.D.K.4.4.4.4.",
"9., X % ) >.2.2.1.2.2.2.2.2.2.2.2.2.2.&.( ~ > * o O O % ) 3.K.K.4.4.3.3.2.2.1._ > .   % ( >.1.1.2.2.1.{ ) :   % E C.S.L.K.J.K.P.",
"9.O   * [ >.>.2.4.4.4.2.2.2.4.4.4.4.4.S.&.$.O./ : o   o 9 Z.L.L.P.K.K.4.2.2.2.1./ : . % ^ %.>.<.K.K.4.2.1.) % % / S.S.S.S.S.F.J.",
"9.O X - | S.D.J.K.P.K.4.4.K.K.K.J.L.J.H.S.&.>.>._ > * @ 7 ( V.F.K.L.K.J.K.3.1.>.%.~ 7 * e +.S.S.J.L.K.K.3.{ : % Z N.C.S.S.S.S.S.",
"9.O X - ..S.S.F.L.L.P.J.J.P.K.F.S.S.S.S.S.S.&.<.1.[ ] N C S T N.B.Z.D.A.D.C.D.D.C.%.X.( +.#.S.S.D.F.L.J.3.C.^ w V W N.A.S.S.S.S.",
"9.1   % L X.V.&.S.S.S.F.S.S.S.S.V.C.C.C.C.S.S.&.>.>.,.B.N.W G W T W N.B.V.B.V.B.V.B.V.B.B.+.+.B.A.S.S.S.&.S.V.( G S W N.S.S.S.C.",
"s.6.1 o - 7 R | ........A.A.C.N.N.o.N.+.V.S.S.S.S.&.S.S.S.B.B.N.W G G G G G G G G W W W Q X.+.V.S.S.S.A.S.S.S.C.N.W G W N.C.S.S.",
"d.s.6.O     % * - = 7 e / o.o.o.o.o.o.o.N.V.C.S.S.S.S.S.S.S.S.S.V.+.W G G G G G W N.V.B.B.S.V.S.S.C.C.C.S.C.C.S.A.V.N.W ! N.C.C.",
"d.d.9.O         o ; K / o.#.+.+.+.+.o.+.o.o.N.V.S.S.S.S.S.S.S.S.S.A.V.B.B.B.B.B.B.S.S.S.S.S.S.V.V.+.+.+.+.+.%.S.S.S.V.V.N.! +.+.",
"s.9.6.O . % * % : K o.-.>.>.>.>.&.%.+.+.+.o.+.+.V.C.C.C.C.S.S.C.S.S.S.S.C.S.S.S.S.S.S.V.S.V.%.+.+.+.+.+.+.+.#.#.S.S.S.S.C.+.:.>.",
"9.1 O o : ) ] / / X.o.#.>.>.1.>.&.&.S.V.B.+.X.X.+.+.N.+.V.V.C.C.A.S.S.S.S.S.S.S.S.S.S.V.+.N.+.+.+.>.>.1.>.>.>.>.2.>.2.>.1.>.2.2.",
"6.O . : _ >.1.>.:.#. .+.+.#.>.>.:.&.%.+.+.o.+.+.o.+.o.o.+.N.+.+.V.V.S.S.S.S.C.C.S.V.V.N.o.+.+.>.>.2.2.2.2.2.4.4.2.4.2.2.2.2.2.2.",
"O   % ) 1.2.2.2.2.>.>.#.+.+.#.o.+.+.+.+.+.+.+.+.+.+.+.+.o.o.o.+.+.+.+.V.C.V.N.+.N.o.N.o.+.+.>.>.2.2.2.2.4.4.K.P.P.P.K.>.2.2.2.2.",
"    > { 2.2.2.2.2.2.2.>.>.>.:.#.+.#.+.#.>.>.>.>.>.>.>.:.#.+.+.+.+.N.+.N.A.N.N.N.+.+.+.+.<.>.2.2.4.J.P.K.L.J.L.L.L.L.L.K.3.2.2.>.",
"  % ` 3.4.2.2.2.2.2.2.2.2.2.2.>.>.>.>.>.>.1.2.2.2.2.2.2.>.>.%.%.V.C.C.C.S.V.V.C.V.C.%.>.1.2.2.>.K.L.L.L.L.S.S.S.F.S.D.D.,.>.>.,.",
"  = M.P.K.4.4.2.2.2.2.2.2.4.4.4.4.2.4.2.4.4.2.2.2.2.2.2.2.2.1.>.S.S.S.C.S.S.S.C.S.S.S.&.>.>.&.S.S.S.S.F.S.S.S.S.S.S.<.>.>.2.2.>.",
"  & m.P.P.P.P.K.4.4.2.2.4.K.K.K.K.J.K.K.K.J.J.J.4.>.2.2.2.2.2.>.S.S.S.C.S.S.S.S.S.S.S.S.S.S.S.S.S.S.S.S.S.S.S.S.S.S.S.D.>.>.2.>.",
"  o 9  .F.L.P.L.J.K.3.2.J.L.L.L.F.S.S.S.S.S.F.S.S.S.&.>.2.2.>.D.S.S.S.S.S.S.S.S.C.C.C.C.V.C.A.S.S.S.S.S.C.S.C.S.S.S.S.S.S.S.S.S.",
"O X % E C.S.F.A.D.S.S.S.S.S.S.S.S.S.S.A.S.S.S.S.S.S.S.&.S.S.S.S.C.C.C.C.V.V.S.V.+.+.+.N.N.+.V.S.S.S.S.A.C.C.A.V.C.C.C.S.S.S.S.S.",
"6.O o : Y ......X.V.S.S.S.S.S.S.S.S.A.S.S.S.S.S.S.S.S.S.S.S.S.S.%.+.+.+.+.+.+.+.( N.+.X.+.+.+.%.S.C.C.V.+.N.o.+.+.+.+.+.+.V.S.S.",
"7., X o % - - - 7 ~ ( X.B.V.V.#.V.S.S.S.S.S.S.S.A.B.V.B.B.B.B.B.V.| E U K ^ ( N.N.X.+.+.+.C.V.S.A.N.N.o.+.+.o.+.+.+.+.+.+.#.#.#.",
"d.7., O       % = > > e B G G G W N.B.V.S.S.V.V.+.T G G U G G F M w < 4 4 p l +.V.+.+.N.B.V.+.+.+.+. .#.+.+.#.:.>.>.>.>.>.>.>.1.",
"d.d.9.5.O   > ) [ [ [ O.@.E U U W W Q ! :.>.$.+.X.W G G F F n 0 5 8.c.v.c.k.r k +.o.( G W o.+.+.#.:.>.1.>.>.1.1.2.1.2.2.2.2.2.1.",
"d.d.9.2 - > _ >.2.2.2.2.1.:.:.:.:.:.:.:.2.2.>.>.>.-.o.X.X./ w 6 q.r.k.c.I.c.8.8 C F S A F X.:.>.>.2.2.2.2.2.2.2.2.2.2.2.2.2.2.2.",
"d.d.9.2 L  .>.2.2.2.2.2.1.2.2.2.2.2.2.2.4.4.3.4.2.2.>.>.>.b o 8.c.j.j.c.I.U.0.O a A F G W o.>.2.2.2.2.2.2.2.4.4.2.2.4.2.4.2.2.2.",
"d.d.9.r X.>.2.2.2.2.1.>.,.>.2.2.2.2.2.4.4.K.P.P.P.K.4.2.:.y < f b.b.I.n.n.z.r 2 > U | -.:.>.2.2.2.2.2.2.2.3.4.P.P.P.P.P.L.K.4.4.",
"d.d.g.m.%.>.2.2.>.&.V.&.S.>.2.2.2.>.K.J.J.L.L.L.L.L.K.4.I 3 f 5 c l.x.x.t.d 8.h e O.>.2.2.2.2.2.2.2.2.2.4.P.P.P.L.L.L.P.L.L.J.J.",
"d.d.f.M.S.>.2.>.#.+.+.+.C.S.>.2.1.&.S.S.F.S.S.F.S.F.J.3.) > r g d g q.e.e.r.q.j s O.1.2.2.2.2.2.2.2.2.2.J.P.L.L.F.S.S.S.F.S.S.F.",
"d.d.h.M.S.&.>.>.+.+.X.+.+.S.S.S.S.S.S.S.S.S.S.S.S.S.S.S.#.b y z u t h q.r.w.x m I =.1.2.2.2.2.2.2.2.2.>.F.S.F.S.S.S.S.S.S.S.S.S.",
"d.d.h.m.S.S.&.%.+.X.+.+.N.C.S.S.S.S.S.S.S.S.S.S.S.S.S.S.S.#.( R J v i z H P I ' -.1.>.2.2.2.2.>.>.>.S.S.S.C.S.C.S.S.S.S.S.S.S.S.",
"d.f.f.i.( V.C.+.X.N.X.V.C.C.C.S.V.S.S.S.S.S.S.S.C.C.S.S.S.C.%.%.$.[ ' [ -.=.-.:.1.1.2.2.2.>.>.S.D.,.S.S.S.C.S.S.S.S.S.S.S.S.S.S.",
"d.d.f.9.q E ( ^ X.N.N.+.V.C.S.S.S.S.S.V.S.S.S.S.S.S.S.S.S.S.S.S.S.&.2.2.>.&.S.,.>.>.>.>.1.&.&.>.>.>.&.S.S.S.S.S.S.C.S.S.S.S.S.V.",
"d.f.h.y.2 * * : Q ( X.( X.N.V.C.S.S.S.S.S.S.S.V.S.S.S.S.S.S.S.>.>.>.2.>.,.S.S.S.&.S.S.S.&.&.>.>.>.&.S.S.S.S.S.S.S.S.S.S.S.S.S.S.",
"f.p.*.*.) : . @ l F F F U ( V.V.S.S.V.S.S.S.S.S.S.S.S.S.S.S.C.S.>.2.>.2.>.>.S.S.S.S.S.S.S.S.S.S.S.S.V.S.V.S.C.C.C.S.S.S.S.S.S.V.",
"h.Z.2.2.>._ > * 8 V A S A S G W N.B.B.S.S.S.S.S.B.B.V.B.V.B.V.C.S.S.S.S.S.S.S.S.S.S.S.S.S.S.S.C.S.S.V.+.+.+.+.+.+.+.&.S.S.S.S.B.",
"p.*.2.2.2.>.O./ Z A F F A A A A G G W N.B.V.B.N.W G G G G G W +.S.C.C.S.S.S.S.S.S.S.S.S.C.V.%.%.+.+.+.+.+.+.+.+.#.:.1.>.1.1.<.>.",
"g.} ,.1.1.2.2.>.:.+.+.( E U G A D D D G G G G G D F D D A F G E +.+.V.C.C.C.A.S.S.C.C.C.C.+.+.+.+.+.+.+.+.:.>.>.>.1.1.1.1.2.2.>.",
"9.q ~ C.,.>.2.2.2.>.>.>.:.:.@.E G G S S G A G G T / Q U W X.X.X.o.+.+.+.+.+.#.V.V.+.N.+.+.+.+.+.+.#.>.>.1.2.2.2.2.2.2.2.2.2.2.2.",
"7.2 : Y C.D.>.2.2.2.2.2.2.>.1.:.%.N.X.+.X.+.X.+.-.>.-.:.=.>.:.#.+.+.+.+.+.+.+.+.N.+.N.+.#.,.>.>.>.>.>.2.2.2.2.2.2.2.2.2.2.2.4.4.",
"d.6.O 3 ~ C.S.>.1.2.2.2.2.2.2.2.>.>.>.>.>.>.>.>.1.2.1.1.2.2.2.>.>.>.:.:.#.+.N.V.S.V.V.V.%.>.1.1.2.2.2.2.2.2.>.2.2.>.2.4.4.K.K.P.",
"7.,     : ~ .. .&.>.>.2.2.2.2.2.>.>.2.2.1.1.1.1.2.4.4.4.4.4.2.2.2.2.2.1.,.S.S.C.S.S.S.S.S.S.&.1.1.2.2.1.>.2.>.4.1.>.J.J.P.P.L.L.",
"O         & - 7 E  .&.>.>.2.>.1.2.2.2.2.1.2.2.2.J.K.K.P.L.J.4.>.2.1.2.>.&.S.S.C.S.S.A.S.S.S.S.S.&.>.>.&.S.S.S.S.S.S.S.L.P.L.F.F.",
"    . $ - % o   * e +.&.S.S.S.&.>.1.2.2.1.2.2.K.L.L.J.P.L.L.L.H.>.1.&.S.S.S.S.S.S.C.V.V.S.V.A.V.S.%.S.S.S.S.S.S.S.S.S.S.S.S.S.S.",
"    : ~ X.~ 7 - : ~ V.S.S.S.S.S.S.&.:.-.:.G.H.H.H.H.A.S.S.S.S.S.S.&.S.S.S.S.V.S.V.V.+.N.+.+.+.+.C.S.S.S.S.S.S.S.S.S.S.S.S.A.S.S.",
"  % E %.S.V.| X.X.V.V.V.V.V.B.V.B.N.T T G T W W Q Q ! C.S.S.S.S.S.S.C.C.V.+.+.+.N.N.+.+.+.+.( N.+.C.S.S.S.S.S.S.S.S.S.S.S.S.S.S.",
"  % R V.%.C.C.X.#.N.W G G G W W W W G G G G W +.V.B.B.S.S.S.V.S.S.C.N.+.N.( +.+.o.+.+.+.o.o.N.V.C.S.S.V.V.S.S.S.S.S.S.S.S.S.S.S.",
"O o : E | ( ~ w C G F G G W @.:.%.V.B.B.B.B.B.S.S.S.S.S.S.S.S.S.S.S.C.+.N.+.+.+.+.V.C.V.+.+.V.A.S.C.V.o.X.%.C.C.C.C.C.S.S.S.S.S.",
"6.O o % - - * ; V G W +.V.%.>.2.>.S.S.S.S.S.S.S.S.S.S.S.S.S.S.&.S.S.C.V.V.C.V.+.V.S.A.V.o.+.V.V.V.N.( W W +.%.#.+.+.V.C.C.C.S.S.",
"9.O         @ l G +.%.>.>.>.>.1.1.S.S.S.S.S.S.S.S.S.S.S.S.V.S.%.C.S.S.S.S.A.V.N.V.S.V.N.o.o...N.X.X.G D Q @.>.<.+.+.+.+.N.C.C.C.",
"9.O     . % : N @.>.>.>.S.&.S.S.S.S.S.S.S.A.S.S.S.S.S.V.V.+.+.+.C.S.S.C.V.V.+.+.+.N.o.o.X.( U F G ( W E @.2.2.2.:.#.+.+.o.+.+.V.",
"6.O   % > ) O.=.>.&.S.&.S.S.S.S.S.S.S.S.S.S.S.S.S.V.+.+.+.+.X.+.+.V.C.B.m.N.o.( X...( ( T F D U E &.:.>.1.2.2.2.1.>.>.>.+.+.+.+.",
"O . : ) { 1.1.1.S.S.S.S.S.S.S.S.S.S.S.S.S.S.S.S.V.+.o.+.+.#.#.+.+.+.o.W S F G F F G F S D D T @.>.2.2.>.2.2.2.2.1.1.2.2.>.>.,.#.",
"  % ) >.2.2.2.1.&.S.S.S.S.S.S.&.S.&.S.&.S.S.S.#.+.+.+.+.&.>.>.>.,.+.X.W U D D D D G G T U T -.2.2.2.2.4.2.2.4.4.2.1.2.2.2.2.2.>.",
"  * O.2.2.2.2.2.2.>.S.S.&.>.1.>.2.>.2.>.2.>.>.>.>.>.>.1.2.2.2.2.2.>.>.:.@.Q U U Q @.-.>.,.:.3.4.P.P.P.P.L.L.L.L.J.2.2.1.1.>.2.2.",
"  * ] >.>.1.2.2.2.2.1.1.2.2.2.2.2.4.2.2.2.2.2.2.2.2.2.2.2.2.3.4.2.2.4.4.2.<.:.:.,.4.4.4.K.P.P.L.L.L.P.L.L.L.J.S.S.&.S.&.&.>.>.>.",
"  % R #.#.:.>.>.1.>.>.1.2.2.>.4.4.K.4.3.2.2.2.2.2.2.2.4.2.4.L.L.J.P.J.L.J.J.L.P.P.P.P.L.L.P.P.L.F.S.S.F.S.S.S.S.S.S.S.S.S.S.S.S.",
"o % N ^ X.#.+.+.+.#.#.:.3.J.J.J.J.L.J.L.4.2.2.2.2.2.4.K.L.L.L.L.S.S.S.F.S.F.L.L.L.L.L.L.F.A.S.F.S.S.S.S.S.S.S.S.S.S.S.S.S.S.S.S.",
"6.@ % : B ^ ^ ! ^ +.+.A.S.S.S.F.S.S.F.L.K.4.2.2.2.2.J.L.H.S.S.F.S.S.S.S.S.S.S.S.S.S.S.S.S.S.A.S.S.S.A.A.%.%.C.S.S.S.S.S.S.S.S.S.",
"6.O     $ - : > e X.C.S.S.S.S.S.S.S.S.F.J.K.>.2.1.>.D.S.S.S.S.S.S.S.S.S.S.S.S.S.S.C.S.S.S.S.S.V.S.C.V.+.+.+.+.V.V.C.C.S.S.S.S.S.",
"O       . 7 ~ ( ( C.S.S.S.S.S.S.S.S.S.S.S.S.S.S.S.S.S.S.S.S.A.S.S.S.S.S.S.S.S.S.S.S.S.S.V.C.V.N.+.+.+.+.+.+.#.+.+.+.#.%.S.C.S.C.",
"        $ ~ %.S.S.S.S.S.S.S.S.S.S.S.S.S.S.S.S.S.S.S.S.S.S.S.S.A.S.S.S.S.S.S.S.A.S.S.S.C.+.+.+.o.o.o.o.+.,.>.>.>.1.1.1.1.,.#.+.+."
};
