/* XPM */
static char *result[] = {
/* columns rows colors chars-per-pixel */
"64 64 193 2 ",
"   c #3C2D15",
".  c #3E371F",
"X  c #4A2611",
"o  c #442A13",
"O  c #4C2913",
"+  c #472711",
"@  c #4C321E",
"#  c #51321F",
"$  c #5A351E",
"%  c #552F19",
"&  c #413B25",
"*  c #4C3D2A",
"=  c #4A3925",
"-  c #523522",
";  c #543B26",
":  c #543D29",
">  c #5A3B26",
",  c #5F6F18",
"<  c #646C17",
"1  c #6F771C",
"2  c #647D1E",
"3  c #6B791C",
"4  c #72751B",
"5  c #49422C",
"6  c #54422D",
"7  c #59432D",
"8  c #4F4733",
"9  c #4C4834",
"0  c #4F4F3B",
"q  c #534532",
"w  c #5C4632",
"e  c #534A34",
"r  c #5B4A35",
"t  c #5C4D3C",
"y  c #5E473A",
"u  c #4E523E",
"i  c #5B523E",
"p  c #57503B",
"a  c #634D3E",
"s  c #747D22",
"d  c #787B21",
"f  c #4E4F42",
"g  c #5B4E41",
"h  c #504F43",
"j  c #4B5444",
"k  c #4C5748",
"l  c #4C5B4D",
"z  c #535144",
"x  c #5C5444",
"c  c #5A5947",
"v  c #565649",
"b  c #5D5549",
"n  c #545C4E",
"m  c #5D5B4B",
"M  c #4E5E51",
"N  c #535E50",
"B  c #5E5E53",
"V  c #585F59",
"C  c #615645",
"Z  c #635946",
"A  c #625649",
"S  c #645B4B",
"D  c #6B5343",
"F  c #635E53",
"G  c #5F604E",
"H  c #4F6B5D",
"J  c #4D6356",
"K  c #526255",
"L  c #5D6255",
"P  c #55675A",
"I  c #5C645A",
"U  c #55695D",
"Y  c #5A685A",
"T  c #63614D",
"R  c #626255",
"E  c #6A6556",
"W  c #63645A",
"Q  c #6C665C",
"!  c #656A5E",
"~  c #6A6A5D",
"^  c #746E5E",
"/  c #726557",
"(  c #566C61",
")  c #5A6F64",
"_  c #5B7266",
"`  c #57766B",
"'  c #56786D",
"]  c #597469",
"[  c #646C62",
"{  c #6B6D63",
"}  c #626760",
"|  c #706E65",
" . c #667265",
".. c #697165",
"X. c #65756A",
"o. c #6B756B",
"O. c #65796E",
"+. c #6A796D",
"@. c #747164",
"#. c #797265",
"$. c #72746B",
"%. c #7B7669",
"&. c #737A6E",
"*. c #7B7A6C",
"=. c #797867",
"-. c #647D73",
";. c #6C7C72",
":. c #747E73",
">. c #7C7E72",
",. c #807B6E",
"<. c #807D72",
"1. c #5F801F",
"2. c #60801E",
"3. c #708123",
"4. c #7E8326",
"5. c #7B8528",
"6. c #768929",
"7. c #658076",
"8. c #698177",
"9. c #66857B",
"0. c #6B847A",
"q. c #65897E",
"w. c #6B897F",
"e. c #768176",
"r. c #7D8276",
"t. c #74857B",
"y. c #7C857A",
"u. c #75897E",
"i. c #7C897E",
"p. c #828276",
"a. c #83857A",
"s. c #89867B",
"d. c #83897E",
"f. c #88877B",
"g. c #648A81",
"h. c #6B8C85",
"j. c #758C83",
"k. c #7C8C82",
"l. c #748780",
"z. c #6C938D",
"x. c #759187",
"c. c #7C9186",
"v. c #749289",
"b. c #7C928A",
"n. c #7C9A8F",
"m. c #7E9891",
"M. c #6A9490",
"N. c #00C9E3",
"B. c #17FFE9",
"V. c #19FFEA",
"C. c #0BE2FE",
"Z. c #12F5FF",
"A. c #19FEFF",
"S. c #16FEFF",
"D. c #24FFFF",
"F. c #2BFFFF",
"G. c #33FFFF",
"H. c #5CCEE7",
"J. c #6ECEE7",
"K. c #66CEE7",
"L. c #74CFE5",
"P. c #7DCFE6",
"I. c #64D7EF",
"U. c #6BD4EA",
"Y. c #76D0E5",
"T. c #79D1E5",
"R. c #77D4EA",
"E. c #79D4EA",
"W. c #64D7F0",
"Q. c #838D82",
"!. c #8C8D83",
"~. c #878F88",
"^. c #908F84",
"/. c #849185",
"(. c #8A9086",
"). c #859289",
"_. c #8B968D",
"`. c #8B988E",
"'. c #929186",
"]. c #92958B",
"[. c #91988E",
"{. c #849A92",
"}. c #8C9A92",
"|. c #949D94",
" X c #979F98",
".X c #96A098",
"XX c #83CEE7",
"oX c #8ACEE7",
"OX c #92CEE7",
"+X c #BDFFFF",
"@X c #C5FFFF",
"#X c #DCFFFF",
"$X c #E5FFFF",
/* pixels */
"1 1 1 1 1 1 3 1 3 1 1 1 1 1 1 1 1 4 1 4 4 4 1 1 3 1 3 1 3 3 3 3 3 3 3 3 3 4 3 4 1 4 4 4 4 4 4 4 1 1 1 1 3 3 1 1 3 3 3 3 1 1 1 3 ",
"1 1 1 1 3 3 3 1 3 3 1 3 3 1 1 1 4 1 4 4 1 1 1 4 1 3 3 3 3 3 3 3 3 3 3 3 3 3 3 3 1 1 1 1 1 1 4 1 1 1 1 3 3 3 3 3 3 3 3 3 3 1 1 1 ",
"1 1 3 3 3 3 3 3 3 3 3 3 1 1 1 1 1 1 1 1 4 1 3 3 1 3 3 3 3 2 3 3 3 3 3 3 3 3 4 3 1 1 1 1 4 1 4 1 1 1 1 3 3 3 3 3 3 3 3 3 3 3 3 1 ",
"1 3 3 3 3 3 3 3 3 3 3 3 3 3 1 1 1 1 1 1 1 3 1 1 3 3 3 3 3 3 2 2 2 3 2 3 3 3 3 4 1 1 1 1 1 1 4 1 1 1 3 3 3 3 3 3 3 3 3 2 3 3 3 3 ",
"3 3 3 3 2 3 3 2 3 3 3 3 3 3 3 1 3 1 1 1 3 1 1 3 1 2.3 2.3 @X2 3 3 2 3 2 3 3 3 3 1 1 1 1 1 1 1 3 3 1 3 3 3 2.3 2 3 2 3 2 3 3 3 3 ",
"3 3 3 3 3 2 2 3 2 2 2 3 3 3 3 3 1 3 1 1 1 1 3 1 1 1 3 3 3 3 3 @X2 @X2 3 3 3 3 3 3 1 1 1 1 1 1 1 1 3 3 3 3 1 3 V.V.V.V.3 3 3 3 3 ",
"3 3 2 2 2 V.V.V.2 3 3 2 2 3 3 3 3 1 3 1 3 1 3 3 2.3 2.3 2.@X2 @X2 @X2 3 3 3 3 3 3 1 1 1 1 1 1 1 3 3 3 3 2.1 2.3 2 V.3 2 3 2 2 3 ",
"3 2 3 2 2 V.2 2 V.V.2 2 3 3 3 3 3 1 1 1 3 3 3 3 1 3 3 2.2 @X@X@X2 2 2 2 2 2 3 3 5.1 3 1 1 1 3 1 3 3 2.3 3 2.3 V.2 2 V.2.2 3 2 3 ",
"3 3 2 2 2 B.2 2 2 2 2 2 2 3 2 3 3 3 3 3 1 3 3 3 3 3 2 2 2 2 2 @X2 @X2 2 2 3 2 3 3.3.1 3 1 3 1 1 3 3 3 3 2 2 2 2 2 2 2 2 2 2 3 3 ",
"3 2 2 2 2 B.B.B.2.2 2 2 2 3 3 3 3 3 3 3 3 3 3 3 2 2 3 2 2 2 2 2.2 2 2 2 6.6.3.1 , s 1 1 1 3 3 3 3 3 2 2 2 2 2 2 2 2 2.2 2 2 2 2 ",
"2 2 2 2 2 B.2 1.B.B.2 2 2 3 2 3 3 3 3 3 3 3 3 3 3 3 i i i i i i i i r r r r 3.3., , 3 5.4.s 3 3 3 3 3 2 2 2 2 B.1.2 B.2 2 2 3 2 ",
"3 2 2 2 1.2 1.1.1.2 1.2 2 2 2 3 3 3 1 3 3 3 3 3 3 e /.k.c.k.c.#X#X#Xc.i.k.r.r 3.3 , s s 4.3 3 3 3 3 2 2 2 2 2 V.1.B.2.2 2 2 2 3 ",
"2 2 2 2 2 1.1.1.2.2.2.2 2 2 3 3 3 3 3 3 3 3 1 3 3 r ).k.c.c.c.L L +Xi.c.d.i.r 3.3 3.s s 3 3 3 3 3 3 2 2 2 2 1.V.2.2.V.2.2.2 2 2 ",
"3 2 2 1.2.1.B.B.1.1.2.2 2 2 2 2 3 3 3 3 1 3 : : : r ).Q.i.#X/.+XL +Xc./.d./.r o : : s < 3 1 3 3 2 3 2 2 2 2 2.2.2.2.2.2.2 2 2 3 ",
"2 2 2 1.1.B.1.1.1.B.2.2.2.2 3 2 3 3 3 3 w r >.e.r.r _.k.c.#Xc.L }.}././.c.d.r E >.r.; : 1 1 1 3 3 2 2 2 2 2.2 2.2.2.2.2 2.2 2 2 ",
"2 2 2 1.1.B.1.B.V.B.2.2.2 2 2 3 3 t y.a.y.>.: : : r )./.d.#X#X$X}.}.c./.d./.r 7 : > p.a.a.y.7 3 3 3 2 3 2 2.1.2.2.2.B.2.2.2 2 2 ",
"2 2 2 1.1.B.1.1.1.B.1.1.2 2 2 t t y.a.a.i.: d.d.d.r d./.d.n.n.d./.Q././.Q.Q.a Q.d.d.- 7 p.a.7 3 3 3 2 2.2 2.2.V.V.V.V.2.2 2 2 2 ",
"2 2 2 1.1.B.B.B.1.1.1.2 1.9 Q.k.d.}.> $.&.p.a.a.y.w `.d.d.d.d././././.Q.Q.Q.: Q.d.d.d.d.d.w [.*.&.&.8 6 2 2.2.V.V.V.V.2.2.2 2 2 ",
"2 2 3 2 1.1.1.1.1.1.2 2 5 b.k.k.i.: y.&.=.r.y.y.r.(.r /.d.d./.d././.Q./.Q._.>.y.r.d.d.d.d.Q.: - &.&.t.t.2.2.1.1.2.1.1.2.2 2 2 2 ",
"2 2 2 2 1.1.1.1.1.1.5 m.b.b.k.* y.a.y.y.d.d.a.a.a.t = |..X! Y X.[ [ [ |. X Xk.>.r.r.d.a.Q.d.Q.Q.o o t.t.l.j.1.1.1.1.1.2.2 2 2 2 ",
"2 2 2 1.1.1.1.B.B.B.& n.).b.: y.i.y.y.d.d.d.d.d.~.t @ L R Y Y [ [ [ X.o.o.o.[.}.y.r.a.a.a.:.d.Q.Q.k.k.k.j.j.2 B.1.1.B.1.1.1.2 2 ",
"2 2 2 2 1.1.B.1.9 m.j.{.f l.l.y.i.y.y.a.d.d.(.L L L @ L Y o o o & * = F o.o.$.$.&.&.].e.r.r.e.y.i.k.t.  {.{.{.G.1.V.1.1.2 2 2 2 ",
"2 2 2 1.1.B.1.9 G.F.j.j.* j.l.k.y.d.d.d.(.n m L L L o o o c c G S m G 8 * : o.&.&.&.| [.y.y.y.y.y.t.i.k.k.j.j.F.. 1.B.1.2 2 2 2 ",
"2 2 2 2.1.1.B.v.0.j.h.b.b.l.c.k.d.d.d.v v v v o G G ! ~  . . . .X.;.+.;.;.v v N : : o...} }.e.e.e.t.t.t.j.  j.x.m.& 1.2 2 2 2 2 ",
"3 2 2 2 1.1.. D.D.D.* v.c.c.c.k.c.d.`.c v o   c ! ~ !  . . . .X.+.;.;.+.;.n v e.e.e.: ..} } ~.Q.e.t.t.t.u.x.j.u.F.F.2.2.2.2 2 3 ",
"2 2 2 2 2   v.w.t.* b.x.c.c.).}.`.u h o o ~ ~ ~  . . . .X. .O.O.;.-.;.;.l.O.+.o.o.o.o.e.6 } Y `.Q.k.k.k.k.j.9 F.j.u.N.1.2.2 2 2 ",
"3 2 2 8 8 9 9 9 9 8 8 f f }.}.`._.h z c m ! ! !  .] X.X.] 7.O.7.-.-.-.k O.X.+.X.o.+.o.o.:.; L m Q.b.k.j.f j e C.C.e C.e e e 3 2 ",
"2 q `.b.b.F.F.j.D.D.0.l.t.t.}.v v o c .... .{  .e.j u u j j k l M M N J K n K n l.o.o.;.;.;.o B }.).).).t.k.l.k.F.F.j.k.i.k.e 3 ",
"3 t {.u.l.k.F.l.F.t.l.u.t.t.e.}.z c c .... .{ [ k K K M K J K K K P P P P P Y L L O.O.o.;.:.>.o }.Q.l.l.l.i.k.l.k.k.k.k.k.k.e 2 ",
"3 e _.i.i.u.l.l.l.j.l.t.l.i.t.V o c  . .L o.X.X.u O.L.L.L.Y.O.7.O.Y.Y.Y.L.P.Y.Y.Y n o.+.;.;.;.:.V }.y.k.u.i.k.F.k.k.F.i.i.i.e 3 ",
"3 e `.i.k.l.S.W F.u.i.t.i.y.t.V o c  . .;.n o.O.K Y.' O.O.' Y.L.7.7.7.7.7.O.7.L.I N O.;.o.:.:.:.V }.y.y.i.k.i.F.S.S.i.k.i.i.r 3 ",
"3 r `.k.k.Z.F.k.Z.F.k.i.l.).~.o v o.o.o.o.O.t.k K Y.7.7.Y.7.Y.T.7.Y.Y.Y.T.Y.Y.Y.( Y +.+.+.+.o.o.o }.y.l.Q.k.Q.G.Z.F.G R /./.r 3 ",
"1 w _.Q.k.x l.k.z y.k.y.k././.o c +.o.o.o.O.l.K P Y.-.7.7.7.Y.T.7.T.Y.7.7.7.7.7.U Y ;.O.o.o.o.;.o }.k.a.k.Q.k.G.b k.G.x Q.Q.r 3 ",
"3 w _.Q.Q.Q._._.Q.Q.Q.Q.Q.Q./.o c $.+.o.+.;.;.P U 7.Y.Y.T.T.h.7.7.Y.T.0.Y.Y.Y.T.( -.;.;.;.o.+.o.o }.k.Q.a.Q.Q.Q.).~././.~.Q.7 3 ",
"1 w '.Q.Q.Q.Q.Q.Q.Q.Q.d.a.Q.d.o c o.:.+.;.;.;.j.U 7.7.7.w.0.9.7.9.w.q.q.9.7.7.7.( 8.-.;.+.o.o.$.o _.<.Q.Q.Q.Q.~.~.~.Q./././.w 3 ",
"1 w |.~.Q.Q.!.Q.Q.Q.Q.Q.y.Q.Q.O b $.o.;.e.8.8.7.( Y.9.9.9.q.E.E.q.T.T.T.Y.w.9.w._ 7.8.;.+.+.....O _.a.Q.Q.Q.~.Q.~.Q.(.=.!.!.7 3 ",
"1 :  X(.(.Q.Q.d.Q.d.d.d.d.q : @ o &.&.:.0.e.0.8.( 7.R.R.R.R.q.q.q.E.E.h.w.w.q.E._ 7.8.+.o...[ { g g g a.Q.Q.~.~.Q.~.=.%.d.(.w 1 ",
"1 O $.| @.! ! W ! a ].~.~.y.p.y.r.:.:.t.e.t.;.7._ R.q.9.q.g.R.R.g.E.E.g.R.T.T.E._ 8.-.;.;.;...6 >.:.>.~.~.A A | R W W W W W O 1 ",
"4 O | R R R W W R a 7 a.y.p.<.y.r.w :.e.e.t.;.7._ h.R.R.R.U.g.g.g.E.E.g.g.q.q.XX .8.8.;.:.;.7 >.>.>.>.>.*.~.>.F R R W W W W O 1 ",
"4 O | R O p.p.%.@.^ # ].a.a.p.a.y.a.~.:.e.t.t.7.) U.( H H H W.W.( W.I.I.I.J H ' _ 0.;.;.;.7 { | y.y.>.>.!.Q | >.d.d.d.].W W O 1 ",
"4 O { F O p.<.>.*.| - ].a.a.a.p.a.a.a.t :.t.t.-.u.] ] ] ` ` ' ' 7.' ' ' ' ` ] _ j.8.;.:.y W Q.~.Q.<.a.<.(.F #.>.a.s.d.^.W F O 4 ",
"4 4 4 1 O !.p.>.>.>.*.A A a.a.a.a.d.Q.(.y.t t.t.0.8.q.q.q.q.g.g.g.g.M.M.` q.9.9.8.8.* i.k.y.a.a.a.y.a.^.g O >.<.a.p.!.F 4 4 4 4 ",
"4 4 4 4 4 b !.<.<.<.%.- A '.a.a.d.d.d.a.d.i.q t.u.w.0.q.q.q.g.g.U.g.K.q.v.9.9.9.;.8 k.k.<.Q.Q.a.<.Q.(.g O #.<.<.s.s.g O 4 5.1 4 ",
"4 4 4 4 4 % F <.<.<.<.D > Q | D '.d.d.!.d.i.i.u.u.5 5 9.q.q.U.q.J.q.K.q.q.9.& u.b.b.Q.Q.Q.Q.a.a.s.!.g g O #.<.s.d.!.X d s < 4 4 ",
"4 4 4 4 4 O F !.<.<.D D a Q ^ S S d.d.d.Q.i.i.y.u.w.t.0 u u H.H.H.j j j 0.9.u.t.b.Q.Q.Q.Q.Q.!.Q.^.b g # / a <.<.^.g O d d < 4 4 ",
"4 4 4 4 4 4 d Q a ^.<.<.!.^.% ^ ^ ].].d.d.d.i.i.i.u.T n.n.n.n.v.T.v.T.j.j.{.j.c.k.c.Q.Q.Q.a.[.b b b / ,.,.%.,.^.S X 4 < < 4 4 4 ",
"4 4 4 4 4 4 4 Q a ^.p.<.p.<.,.$ ^ ^ ~ ].d.d.d.i.d.i.T x.c.n.x.x.v.x.x.x.x.{.k.i.k.Q.Q.Q.].[.b A # ; ,.,.,.,.<.g S O 4 4 4 4 4 4 ",
"4 4 4 4 4 4 4 < O Q Q s.s.<.s.s.s.$ ~ ~ ~ E [.|.i.i `.i.c.c.c.n.XXXXXXj.u.j.z y.}.[.B m b A - - %.,.,.,.<.<.D g 4 4 4 4 4 4 4 4 ",
"4 4 4 4 4 4 4.d < / / !.!.s.s.s.s.!.> Q Q Q R T |.i `.c.c.c.b. .c. .XXc.k.k.i }.T S S m b ; %.#.#.,.,.,.<.D g % 4 4 4 4 4 4 4 4 ",
"4 4 4 4 4 4 < d d < % / / s.s.!.^.D s.<.y.O O T R i _.).c./.oXT OXY oXc.k.k.i p T S o O d.s.Q s.,.,.<.g g y 4 4 4 4 4 4 4 4 4 4 ",
"4 4 4 4 4 4 4 < d < < O Q Q Q '.^.s.s.a.p.p.*.O O i _.).).).oXOXK.}.k./.k.Q.i O o o >.>.d.s.a./ s.s.A b % X 4 4 4 4 4 4 4 4 4 4 ",
"4 4 4 4 4 4 4 4 4 4 4 4 4 O Q Q a ^.'.<.p.>.r.&.e.r [.(.(.).(.}./.{././.Q.Q.i W a.y.p.a.d.^.^.g F A X X 4 4 4 4 4 4 4 4 4 4 4 4 ",
"4 4 4 4 4 4 4 4 4 4 4 4 4 4 % Q a F W '.'.].>.*.=.r |.!./././././.~.Q.Q.Q.Q.r R r.r.'.(.'.D a y F X 4 4 4 4 4 4 4 4 4 4 4 4 4 4 ",
"4 4 4 4 4 4 4 d 4 4 4 4 4 4 4 4 4 O Q F R F F F m O $.o.~ } { } ! ! I o.| o.- q Z Z Z C a a X X 4 4 4 4 4 4 4 4 4 4 4 4 4 4 4 4 ",
"4 4 4 4 4 4 4 4 4 4 4 4 4 4 4 4 4 4 O F F F S S c O $.! } ! ! } W W W I R { o 7 Z Z C C a X 4 4 4 4 4 4 4 4 4 4 4 4 4 4 4 4 4 4 ",
"4 4 4 4 4 4 4 4 4 4 4 4 4 4 4 4 4 4 4 4 4 4 O X O O @.! ~ L B B I W L R F L O + + + 4 4 4 4 4 4 4 4 4 4 4 4 4 4 4 4 4 4 4 4 4 4 ",
"4 4 4 4 4 4 4 4 4 4 4 4 4 4 4 4 4 4 4 4 4 4 4 4 1 + @.E b b L B R R F R F B + 1 4 4 4 4 4 4 4 4 4 4 4 4 4 4 4 4 4 4 4 4 4 4 4 4 ",
"4 4 4 4 4 4 4 4 4 4 4 4 4 4 4 4 4 4 4 4 4 4 4 4 4 1 O O + + + + + + o + + + 4.4 4 4 4 4 4 4 4 4 4 4 4 4 4 4 4 4 4 4 4 4 4 4 4 4 ",
"4 4 4 4 4 4 4 4 4 4 4 4 4 4 4 4 4 4 4 4 4 4 4 4 1 4 4 1 1 1 3 1 1 1 4 1 1 1 4.s 4 4 4 4 4.4.4 4 4 4 4 4 4 4 4 4 4 4 4 4 4 4 4 4 ",
"4 4 4 4 4 4 4 4 4 4 4 4 4 4 4 4 4 4 4 4 4 4 4 4 1 4 4 1 4 1 4 4 1 1 1 4 4 1 < d d 4 4 d 4.4 4 4 4 4 4 4 4 4 4 4 4 4 4 4 4 4 4 d ",
"4 4 4 4 4 4 4 4 4 4 4 4 4 4 4 4 4 4 4 4 4 4 4 4 4 4 1 4 4 1 4 4 1 4 1 1 4 1 4 < 4 4 d d d 4 4 4 4 4 4 4 4 4 4 4 4 4 4 4 4 4 4 4 ",
"4 4 4 4 4 4 4 4 4 4 4 4 4 4 4 4 4 4 4 4 4 4 4 4 4 4 4 1 4 4 4 4 4 4 4 4 4 4 4 4 4 4 d d 4 4 4 4 4 4 4 4 4 4 4 4 4 4 4 4 4 4 4 4 ",
"4 4 4 4 4 4 4 4 4 4 4 4 4 4 4 4 4 4 4 4 4 4 4 4 4 4 4 4 4 4 1 4 4 4 4 4 4 4 4 4 4 4 4 > 4 4 4 4 4 4 4 4 4 4 4 4 4 4 4 4 4 4 4 4 ",
"4 4 4 4 4 4 4 4 4 4 4 4 4 4 4 4 4 4 4 4 4 4 4 4 4 4 4 4 4 4 4 4 4 4 4 4 4 4 4 4 4 4 4 4 4 4 4 4 4 4 4 4 4 4 4 4 4 4 4 4 4 4 4 4 "
};
