/* XPM */
static char *exit1734640601[] = {
/* columns rows colors chars-per-pixel */
"64 64 234 2 ",
"   c #1A1E2F",
".  c #1C2333",
"X  c #272D2F",
"o  c #242936",
"O  c #26313E",
"+  c #2A323C",
"@  c #36373B",
"#  c #473B3D",
"$  c #3D4239",
"%  c #49483B",
"&  c #54483D",
"*  c #595B37",
"=  c #63573E",
"-  c #646936",
";  c #6E7537",
":  c #2B3944",
">  c #2C3A44",
",  c #333D44",
"<  c #363F46",
"1  c #503F40",
"2  c #2F404D",
"3  c #34434B",
"4  c #394548",
"5  c #39454A",
"6  c #3C4A4D",
"7  c #364952",
"8  c #334A55",
"9  c #3B4D52",
"0  c #3E5156",
"q  c #3C545B",
"w  c #3D5860",
"e  c #474A46",
"r  c #584942",
"t  c #4B5349",
"y  c #585849",
"u  c #465758",
"i  c #445A5D",
"p  c #575C54",
"a  c #624C45",
"s  c #675645",
"d  c #765947",
"f  c #5C634A",
"g  c #576359",
"h  c #68654B",
"j  c #796449",
"k  c #717249",
"l  c #656655",
"z  c #756B55",
"x  c #667359",
"c  c #797756",
"v  c #445D62",
"b  c #495F61",
"n  c #4B6464",
"m  c #4B6668",
"M  c #4A666B",
"N  c #4D6A6B",
"B  c #566965",
"V  c #516C6B",
"C  c #59756D",
"Z  c #466B71",
"A  c #4D6D71",
"S  c #506D73",
"D  c #4E7276",
"F  c #537474",
"G  c #577678",
"H  c #557A7C",
"J  c #597D7C",
"K  c #687363",
"L  c #6D756B",
"P  c #87674C",
"I  c #8D704C",
"U  c #97764C",
"Y  c #857C5A",
"T  c #9B7754",
"R  c #A47C4E",
"E  c #A47B54",
"W  c #A77A54",
"Q  c #7A8137",
"!  c #79855D",
"~  c #5B817F",
"^  c #788A6E",
"/  c #688578",
"(  c #8F933B",
")  c #9CA23B",
"_  c #ADB33E",
"`  c #D9DF3F",
"'  c #91904D",
"]  c #8A845A",
"[  c #968356",
"{  c #999658",
"}  c #AC8358",
"|  c #B38857",
" . c #AA9750",
".. c #BA9359",
"X. c #9CA545",
"o. c #B4AE49",
"O. c #A9A75C",
"+. c #BFA254",
"@. c #B1AD5E",
"#. c #868964",
"$. c #988C61",
"%. c #9D9264",
"&. c #96946B",
"*. c #8A9071",
"=. c #B28E60",
"-. c #A19465",
";. c #A89A65",
":. c #AB9D69",
">. c #BA9663",
",. c #95A96E",
"<. c #AEA266",
"1. c #AEA16A",
"2. c #A4A969",
"3. c #B3AA67",
"4. c #B3A46B",
"5. c #BAAA6E",
"6. c #B9B663",
"7. c #A7A774",
"8. c #B1AF76",
"9. c #BDAD71",
"0. c #B4B175",
"q. c #BAB678",
"w. c #CFB94F",
"e. c #CDAA54",
"r. c #D1AC56",
"t. c #D3B652",
"y. c #C39C61",
"u. c #C6B668",
"i. c #D4B069",
"p. c #C3B272",
"a. c #CCBA75",
"s. c #C9B878",
"d. c #D1BE78",
"f. c #BEC849",
"g. c #BDC376",
"h. c #C8CB43",
"j. c #D8C94B",
"k. c #DDD449",
"l. c #D7CA56",
"z. c #C9D45C",
"x. c #E2DA4C",
"c. c #DAE141",
"v. c #E6EB44",
"b. c #EAF048",
"n. c #EAF056",
"m. c #D3CD6E",
"M. c #DBD56D",
"N. c #D5C279",
"B. c #DBC57C",
"V. c #D2CE78",
"C. c #DEC97D",
"Z. c #E5DA6D",
"A. c #E5CA73",
"S. c #E1CC7E",
"D. c #E4D17C",
"F. c #EAD87D",
"G. c #E7E76A",
"H. c #EDF26B",
"J. c #ECE573",
"K. c #F5ED75",
"L. c #F4E67B",
"P. c #EDF276",
"I. c #F7F173",
"U. c #F8F273",
"Y. c #F7F079",
"T. c #F9F379",
"R. c #577D82",
"E. c #5C8484",
"W. c #5A8588",
"Q. c #5D8B8B",
"!. c #5F9192",
"~. c #628583",
"^. c #678B86",
"/. c #638C8B",
"(. c #788C82",
"). c #6D978D",
"_. c #759789",
"`. c #668E94",
"'. c #639494",
"]. c #6A9494",
"[. c #699897",
"{. c #659C9C",
"}. c #6A9D9C",
"|. c #729C98",
" X c #79A28D",
".X c #6BA19E",
"XX c #78A097",
"oX c #72A39D",
"OX c #6C9EA1",
"+X c #6CA2A2",
"@X c #73A4A3",
"#X c #7AA8A4",
"$X c #74ABAB",
"%X c #7BACAD",
"&X c #7BB1AE",
"*X c #7BAFB0",
"=X c #7DB2B3",
"-X c #7FB8B9",
";X c #869B8D",
":X c #8CAA93",
">X c #B8BB91",
",X c #89B3A8",
"<X c #8DB5AD",
"1X c #96B9A9",
"2X c #81B5B5",
"3X c #86B8B6",
"4X c #85BABB",
"5X c #8ABEBD",
"6X c #C3BA83",
"7X c #91C0B8",
"8X c #96C3B9",
"9X c #A7C9AE",
"0X c #A8CBB7",
"qX c #D0D189",
"wX c #E4CE80",
"eX c #E7D180",
"rX c #ECD682",
"tX c #EED883",
"yX c #F1DB84",
"uX c #E1DB9E",
"iX c #EEEF89",
"pX c #F3E184",
"aX c #F3E189",
"sX c #F4F395",
"dX c #FBF495",
"fX c #FCF895",
"gX c #FCF69A",
"hX c #FDF998",
"jX c #F3F4AC",
"kX c #88BFC1",
"lX c #8BC2C2",
"zX c #93C5C1",
"xX c #F8FACA",
"cX c #FCFDE9",
/* pixels */
"C.C.S.rXtXtXtXyXtXtXtXtXtXyXyXD.S.S.rXyXyXyXrXrXrXtXyXyXyXyXtXtXtXtXrXrXrXrXrXrXF.S.S.S.B.S.A.S.K.U.U.U.U.U.U.U.U.U.U.U.U.U.K.A.",
"S.S.C.S.S.S.tXtXrXwXC.S.D.K.K.K.D.A.S.S.rXS.wXwXwXrXtXtXrXrXrXwXwXwXwXwXwXwXwXwXS.S.B.S.S.S.K.K.U.U.U.U.U.U.U.U.U.U.U.U.U.U.K.D.",
"K.K.D.S.C.C.S.C.C.C.D.K.K.I.I.I.K.K.L.yXyXtXrXwXS.S.wXwXwXB.S.S.wXwXB.A.S.S.B.S.S.S.S.K.K.K.I.U.U.U.U.U.U.U.U.U.U.U.U.U.U.U.I.K.",
"I.K.K.K.D.C.D.S.D.K.K.I.U.U.U.K.K.K.K.F.yXyXyXrXtXD.6XwXwXS.wXS.wXrXyXL.K.K.K.K.K.K.K.I.I.I.I.U.U.U.U.U.U.U.U.U.U.U.U.U.U.T.T.T.",
"dXT.T.T.K.K.K.K.K.U.U.U.U.U.K.L.yXyXyXyXyXyXrXrXtXtXrXtXrXyXyXF.L.K.K.U.U.U.U.U.U.U.U.U.U.U.U.U.U.U.U.U.U.U.K.Y.U.U.T.iXfXgXgXfX",
"gXdXhXfXT.I.U.U.U.U.U.U.U.I.L.yXyXyXyXyXeX6XwXwXtXyXyXyXyXyXyXK.K.I.I.U.U.U.U.U.U.U.U.U.U.U.U.I.U.I.K.K.Y.K.K.K.U.fXfXgXfXgXgXgX",
"tXaXgXhXfXT.T.T.Y.U.U.U.U.I.K.K.yXyXyXtXtXwXwXwXwXtXyXyXyXF.K.U.I.I.U.U.U.U.U.U.U.U.U.I.I.I.I.K.I.L.F.L.L.yXyXL.yXyXaXyXyXyXyXaX",
"yXyXaXgXgXdXdXdXfXfXT.T.Y.I.I.L.yXyXyXyXtXtXtXtXrXtXyXyXyXL.K.U.I.I.U.U.U.U.K.U.I.U.U.I.I.yXyXL.I.I.T.Y.K.yXyXyXyXyXyXyXyXyXyXyX",
"yXyXyXyXyXyXaXyXaXdXgXgXdXyXyXyXyXyXyXyXyXrXrXrXeXeXrXwXu.{ { O.O.O.{ 6.G.H.K.K.U.K.K.F.L.yXK.I.U.U.U.U.K.yXyXyXyXyXyXrXyXyXyXyX",
"yXyXyXyXyXyXyXyXyXyXyXyXyXyXyXyXtXrXrXyXrXeXs.9.#.c ! p 6 4 b G C B u e t c { { m.m.F.F.yXyXK.U.U.U.U.yXyXyXyXyXyXyXyXyXyXyXyXyX",
"tXrXrXrXyXyXyXyXyXyXyXyXyXyXyXyXwXB.B.S.s.$.p A v v {.+X}././..X{..X.XW.F H ] 7.G t $.d.yXtXK.K.K.K.yXrXrXrXyXyXyXyXyXyXyXyXrXtX",
"wXwXwXwXtXyXyXyXyXyXyXyXyXyXyXyXwXwXB.9.y M ].lXQ.OX&X+X.X{.'.{.{.{..X.X!.}.K (.3X}.N p 4.yXyXtXyXS.B.wXS.S.rXyXyXyXrXS.wXS.S.wX",
"L.D.C.C.D.yXyXtXtXtXtXtXyXyXyXrXa.] Y t u !.=X4XOX(.XX*X$X@X/.}.$X-X4X$X$X$X`.`.3X4X{.n e Y ] 5.B.S.S.S.S.S.D.D.F.yXS.S.S.S.K.K.",
"I.K.K.I.K.I.K.D.S.S.wXrXrXrXS.9.y 7 3 o n Q.&X7X:X6X>X2X-X+XQ.].=XlXlX5X4XD n +X5X2X'.N + > 8 e ;.M.J.K.K.K.K.K.I.I.I.I.K.K.I.I.",
"U.U.U.U.U.U.I.K.K.S.C.S.wXd.c e q {.N O b G .X1X1Xg.z E.{.{.{.!.'.$X&X[.@Xi W.2X<XoXJ n 3 i '.Z $ c M.I.U.U.U.T.T.T.U.U.U.U.I.I.",
"U.U.U.U.U.U.U.I.I.K.K.S.B.Y G S Z (.c 6 v M !..X/.B n }.@X{.+X$X+X+X'.@X4X~.L *.).'.A 3 7 b '.H M J ] H.T.T.fXhXfXgXfXT.U.U.I.I.",
"I.I.U.U.U.U.U.U.I.I.I.J.O.@ W.Q.N >XV.x '.%X$X'.M v v `.*X2X*X+XS M ].=X$XC  .Z.>X#X*X@XG H {.F ~ !.4 ' iXdXgXgXgXgXgXdXY.U.U.U.",
"L.K.K.K.I.U.U.U.I.I.H.6.e 6 A H 0 #.] t /.lXlX%XA : 0 W.*X2X4X,X;Xi [.+X!.t +.jXuX<XkX$XV A H u N D 9 9 &.rXyXyXyXyXpXpXL.K.K.L.",
"yXyXyXL.K.K.I.I.K.I.z.t i M 6 6 * e X i Q.#X1X2X`.: i Q.{.OX+X@XoXG Q.{.OXD & ' ,.$X$X'.V > 3 < 4 4 n n # 4.rXyXyXyXL.T.K.U.Y.K.",
"K.yXyXyXyXyXL.K.J.' e $ u 9 N L >Xk 2 F [.}.+X{.G M F E.'.{.{.{.{.M D {.'.A v B A OX{.{.G u : 8 S A 0 i , e ] F.yXyXyXpXK.K.U.Y.",
"yXyXyXyXyXyXyXK.6.e b 0 O D 4X;XV.z s L J H A @XlXlX=X^.~.E.'.}.Q.0 n {.%X%X5X8X$XD R.D n M A OXlXlXH O 4 i u $.rXyXyXyXyXyXL.yX",
"yXyXyXyXyXyXyXS.c b M 3 3 /.7X@X^ l qXm.[ e i Q.=XlXzXzX8XR.0 S n 3 > ~.#X8X8X,X|.M : : q !.-XkXkXlX].9 O i n l d.rXyXrXyXyXtXyX",
"yXyXyXyXyXyXrX-.u n 7 3 N Q.$X-X8Xz.fXaX[ 6 V H '.@X,X9X9X(.7 S S R.'.[.~ ~.}.{.'.F B c #.;X-X7X$X$XQ.N 6 , i 9 Y d.S.S.S.yXyXrX",
"yXyXyXyXyXyXp.@ > , . 3 V J {.{.'.g.o.e.= 4 V J !.{.{.{.].v i %X3XlX8X5XE.M {.].(.M f l.M.>X.X+X}.{.Q.V 9 o [ x @ -.S.S.S.S.D.C.",
"yXyXrXrXrXS.h 3 u O : 7 M R.R.!.{.'.6 f : < A !.OX{.{.{.].i 3 R.}.$X#X+XM A W.x a.l ; x.sXG./ {.!.R.R.D 9 4 k ^ 4 y M.I.K.K.K.K.",
"K.L.S.S.C.-., b N < u G =X-XW.M '..XM q : : M R.!.+X+X!.~.c K /.{.{.].'.q D `.g g.K r | h.X.L }.A G =X2X~.i > n n , k G.I.I.U.I.",
"D.A.S.S.p.l u c { p n ].lXlXlX3X5X4X#Xn O M *X@X'.!.{.!.l u.7.G S |.4X2X#X5XlX@X#X2XG , C |.3XkX2XkXlXlX|.N > n n u t 3.K.U.U.U.",
"K.K.K.C.:.B p q.Z.I J $X5XlXlXlXlXlX&XH : n ].kX4X3X=X@X`.;X/ M > F +X%X,X#X+XOXOX}.V > N %XlXzXlXlX8XzX=X!.7 0 u 9 B { M.I.I.U.",
"I.U.I.Z.{ i t ' +.% R.{.+X$X7X0X0X,XG V > i C }.3X0X0X0X0X&XOXD 3 N Q.{.{.!.OX{.'.A n : n S :X0X0X0X1X#X}.{.q . + 4 B *.qXfXU.U.",
"U.I.J.u.c 4 6 + g 0 W.{.{.OX+X+XoX^.N M > 3 V Q.{.oXoX@XoX+X!.M e q G OX+X{.{.+X].F v > N M W.@X#XoX/ &.].Q.q q > 4 4 l 7.qXdXfX",
"K.L.p.-.e 4 + 4 ~ Q.W.+X+X{.{.{.{.!.N 0 o & p G /.^._.)._.C l T T z u L C ~.W.N C t z + 4 M Q.{.}.A c uX:X^.E.E.u @ e 3 $.4.C.yX",
"yXtXB.c + 4 o i N ~ 2XkX-X=X$X{.{.'.i O @ R | ..z d >.5.y.s } i.y...s | } } h s >.| | e . 0 /.*.:.] s 6._.=X^.N z <.z + l 9.eXyX",
"tXS.s.h + : v N b K *.;X$X7X2X.X~ G M b O P W W & a W | W # d } T P # E | E a & | W P , i N p [ J.jX,.].].R.B n y q.l o y 5.D.yX",
"tXs.4.h 4 F =X@X].>Xl.o.g Q._.[.q i M u O T W W d d ..| | = I } } } & E | } d r W W W @ u B 6 P A.G.f.n V n V ~.|.2XF 7 e :.p.rX",
"rXp.[ t M }.4XlX:XL.iXk.s L 3.B 8 n M >   r I I & # U ) ( % = P X.( @ ( o.; & % U U d o : b v p &.{ c O b ^.oX5XkXkXOXS @ Y 4.B.",
"wXp.c 3 E.{.$X$Xx h.w. .e { 6.t ].5X#XV < . .       X - * ( ; - - ; ( - - X   . o .   : m ].5X5X5X4XOX: R.4XzX0X5X2X}.~.3 z 4.N.",
"d.;.h 9 !.{.{..X!. X^ b > C C [.8X,X^.C 7 # a r d r * c.b.n.P.iXn.H.iXb.v.( # # r r 1 < C E.,X7X5X@X/.7 V }.@X@X+X{.{.{.u h 1.p.",
"5.-.e > !.+X.X!..X!.].x 3 E.{.{.}.}.{.R.u @ P P T P * c.b.sXcXcXjXH.b.b.v.; P d P P 1 7 G '.{..X}.{.~.4 , D {.{.{.{..X{.8 @ :.1.",
"3.O.r 7 Q.*X$X+X+X{.;Xa.j q '.{.{.{.{.E.n @ U W |  .& h.n.jXcXcXxXjXI.b.` * o. .W T # i / ].+X{.{.*.@.-.N S OXOX{.$X-XQ.0 $ O.O.",
"6.' < V !.$XlXkX7X-X9XqXy > '.{.{.{.Q.N <   P W R o.; h.b.I.H.iXxXjXn.v.h.* h...E T X h q.(.!.{.W.z l.V.:XkXkXkX5XlX*X{.F 4 k @.",
"O.* 3 ~ {.{.#X1X,X1X5X).u `.%X4X-X%X/.M 8 . d T T w.- o.b.b.v.b.P.H.n.b._ % j.| } I . - D.:X#X4XOXt [ #.^.3X8X,X1X%X!..XW.0 $ O.",
"O.y 9 N !.{.{.{.Q.|..X!.].lXlXkXlXlXkX3X+Xq & T =.t.Q ) v.v.v.v.b.b.v.b._ % j.U } s < H |.lX7XlXlX%X&X#XQ.}.|.Q.'.}..X{.D 0 $ O.",
"0.&.t t 0 n Q..X.X{.!.~ :X0XlXzX5X4X3X=X~.: @ W y.r.) ) v.k.j.j.k.j.k.v._ - r.W W r : R.=X=X4X4XlXlX0X1X~ Q.{.OX}.!.n q t u ! q.",
"g.8.7.0.#.' ! ).{.{.w 4 / ,X,X,X}.'.].[.J B < I ..| ( ) k.k.k.w.e.t.x.v.( - ..W W < b F ].'.].].#X<X,X/ 9 q [.{.XX^ ] ] 0.7.0.0.",
"B.d.q.0.0.@.@.2.,.c l e M '.}..X{.{.'.D A u u P W W P ) x.x.t.r.e.t.t.k.; & W W P < 6 v H !.{.}..X{.{.A + 3 x &.7.1.1.0.0.0.5.s.",
"tXD.p.:.1.<.<.<.@.@.@.{ h ~ ^.|. X X/ t f c f r W W P ) v.b.t.r.r.e.r.t.= = T E d @ z y t B _.|.[.^.~ e t [ :.:.:.1.1.1.<.1.N.tX",
"yXyXN.9.5.a.5.1.:.<.O.@.@.' ' ,.2.@.O.O.6.q.z @ s d P - w.Z.A.A.A.A.A.i.= s d P d z %.] $.$.-.&.*.] ] %.:.:.:.:.1.a.p.p.5.9.D.tX",
"yXyXrXF.D.tXD.9.m.z.6.g.3.3.<.3.@.@.@.@.8.7.#.c z z =.;.p.F.yXrXF.F.F.F.i.;.] Y Y %.%.%.-.%.-.-.;.:.<.:.5.9.4.1.9.eXtXrXeXrXtXtX",
"yXyXyXyXyXyXyXL.J.J.J.D.p.3.@.@.@.<.:.4.:.4.1.1.:.:.p.yXrXyXyXyXyXrXwXwXwXs.:.-.-.-.-.-.-.-.-.;.:.4.:.1.N.rXwXwXeXyXyXyXtXyXyXyX",
"yXyXyXyXyXyXyXF.yXL.F.yXF.a.6.@.4.a.d.:.:.:.:.:.:.3.S.yXrXyXyXyXyXtXrXwXwXwXd.;.-.;.:.:.-.:.N.p.5.C.p.a.C.rXyXtXtXtXyXyXyXyXyXyX",
"yXyXyXyXyXyXyXtXyXyXyXyXyXyXD.S.S.yXrXd.d.5.:.:.:.d.yXrXyXyXyXyXyXyXyXrXeXrXrXp.;.:.:.5.p.d.eXeXD.C.B.C.S.D.tXD.S.S.rXtXrXyXyXyX",
"yXtXtXrXyXyXtXtXrXyXrXyXrXyXyXyXyXyXyXyXyXp.:.:.p.eXyXyXyXrXyXrXtXyXyXyXyXrXrXB.>.:.;.p.6XS.C.wXS.C.C.S.K.K.K.K.S.C.S.S.wXrXtXrX",
"rXwXC.D.K.Y.D.C.wXB.S.S.S.S.rXrXyXyXyXrXS.d.5.4.B.yXrXyXrXS.S.S.rXyXyXrXyXrXS.B.s.-.9.d.B.C.wXB.B.S.D.K.U.U.U.U.K.D.A.C.wXB.wXrX",
"wXwXS.K.U.K.K.D.C.A.S.C.S.B.S.S.yXyXyXS.p.d.:.a.rXrXS.S.S.B.S.B.wXrXyXrXS.S.B.B.B.1.9.s.p.S.B.S.S.K.K.U.U.I.U.U.I.K.K.K.S.S.S.S.",
"B.A.J.U.U.U.U.K.K.K.K.K.S.S.S.S.S.rXrXd.N.p.3.S.rXS.S.S.S.S.S.S.S.wXwXwXS.B.B.S.B.s.;.5.3.N.D.K.K.U.U.U.U.U.U.U.I.I.U.I.K.K.L.D.",
"L.K.U.U.U.U.U.U.U.U.U.U.K.K.S.S.B.S.B.a.S.N.S.D.S.S.S.D.K.K.K.K.L.wXd.wXS.S.S.S.S.S.d.M.m.M.K.T.U.T.T.U.Y.T.T.U.U.U.U.U.I.I.I.K.",
"U.U.U.U.U.U.U.U.U.U.U.U.U.U.K.L.S.S.S.S.D.D.K.K.K.K.K.I.U.U.U.U.I.K.I.K.K.I.K.K.I.L.K.U.Y.T.T.T.hXhXhXgXhXgXgXgXdXI.U.I.I.U.U.U.",
"U.U.U.U.U.U.U.U.U.U.U.U.U.U.U.U.Y.Y.K.K.K.K.U.U.U.U.I.T.U.U.Y.Y.T.Y.T.T.Y.T.T.Y.T.T.Y.T.dXhXhXgXgXgXgXgXgXgXdXyXaXtXyXyXyXK.I.U.",
"U.K.U.K.K.U.K.U.U.U.U.U.U.U.Y.fXhXfXT.Y.U.U.U.U.U.U.U.Y.T.T.dXgXdXfXfXhXdXfXfXhXgXgXgXgXhXhXgXgXaXaXyXyXyXaXyXyXtXyXyXyXyXyXyXyX",
"yXtXyXyXtXL.L.K.U.K.U.U.Y.dXfXgXgXgXfXfXT.U.U.U.U.U.T.fXfXdXjXgXyXyXyXyXyXaXdXgXgXgXgXgXaXyXyXyXyXyXyXyXyXyXyXyXyXyXyXyXyXyXyXyX",
"yXyXyXyXrXT.U.U.K.L.yXyXyXyXyXaXyXyXaXgXfXT.U.U.U.I.dXfXgXaXyXyXyXyXyXyXyXyXyXyXyXyXyXaXyXyXyXyXyXyXyXtXrXrXyXyXyXyXyXyXyXyXyXyX",
"yXyXyXyXyXL.U.U.U.K.yXyXyXyXyXyXyXyXyXaXdXdXT.T.I.K.yXyXyXyXyXyXyXyXyXyXyXyXyXyXyXyXyXyXyXyXyXtXtXtXrXwXS.S.S.rXrXyXrXyXyXyXyXyX",
"yXyXyXyXyXL.U.U.K.tXyXyXyXyXyXyXyXyXyXyXyXyXyXyXyXyXyXyXtXyXyXyXyXyXyXyXyXyXyXyXyXtXyXtXrXtXeXwXwXwXC.C.S.S.S.S.S.D.S.yXyXyXrXyX",
"yXyXyXyXyXyXtXyXyXyXyXyXyXyXyXyXyXyXyXyXyXyXyXyXyXyXyXyXyXyXyXyXyXyXyXyXyXyXyXyXyXyXyXrXwXwXB.wXB.B.C.S.K.K.I.K.K.I.K.K.K.S.S.S."
};
