/* XPM */
static char *inac_exit1734640602[] = {
/* columns rows colors chars-per-pixel */
"64 64 232 2 ",
"   c #161C2E",
".  c #1A1E2E",
"X  c #1B212F",
"o  c #1D2433",
"O  c #212431",
"+  c #272B36",
"@  c #352F34",
"#  c #26313E",
"$  c #2A333D",
"%  c #37373B",
"&  c #463C3C",
"*  c #3A413C",
"=  c #4A473F",
"-  c #57463D",
";  c #2B3642",
":  c #2D3A44",
">  c #2D3E49",
",  c #323D43",
"<  c #353F46",
"1  c #4E3F40",
"2  c #2F434E",
"3  c #34434B",
"4  c #3A4448",
"5  c #3B494E",
"6  c #354A54",
"7  c #3B4C52",
"8  c #3E5256",
"9  c #3C525A",
"0  c #3C5862",
"q  c #434543",
"w  c #464C4A",
"e  c #574842",
"r  c #4A534B",
"t  c #555648",
"y  c #424E52",
"u  c #435354",
"i  c #4B5656",
"p  c #42565A",
"a  c #445A5D",
"s  c #4A5E5D",
"d  c #575D55",
"f  c #634D43",
"g  c #685646",
"h  c #785C48",
"j  c #625C50",
"k  c #576A56",
"l  c #596359",
"z  c #68694B",
"x  c #7A664A",
"c  c #78774D",
"v  c #676854",
"b  c #6D7053",
"n  c #7B7758",
"m  c #445D61",
"M  c #495F62",
"N  c #4B6364",
"B  c #4F6867",
"V  c #44636A",
"C  c #4A6668",
"Z  c #4D6A6B",
"A  c #586763",
"S  c #526D6B",
"D  c #58736C",
"F  c #4D6C71",
"G  c #516F71",
"H  c #4D7277",
"J  c #537373",
"K  c #5B7876",
"L  c #51757B",
"P  c #557A7B",
"I  c #5A7C7C",
"U  c #667768",
"Y  c #6D7768",
"T  c #83624A",
"R  c #8B684C",
"E  c #956E4E",
"W  c #8C724F",
"Q  c #9A744E",
"!  c #857B58",
"~  c #997452",
"^  c #A17754",
"/  c #A57953",
"(  c #AB7D54",
")  c #78835B",
"_  c #5A807F",
"`  c #65837D",
"'  c #788A71",
"]  c #87803F",
"[  c #82834D",
"{  c #94844A",
"}  c #868555",
"|  c #8E835D",
" . c #92855D",
".. c #938B5B",
"X. c #8D9359",
"o. c #9C9959",
"O. c #AB875A",
"+. c #B38255",
"@. c #B58B5C",
"#. c #A59A58",
"$. c #BA955A",
"%. c #ACA95C",
"&. c #B9A654",
"*. c #B1AD5E",
"=. c #B1B553",
"-. c #898D65",
";. c #968C62",
":. c #9E9264",
">. c #9B9869",
",. c #909474",
"<. c #A29465",
"1. c #A69B66",
"2. c #AC9E69",
"3. c #AC996E",
"4. c #95A473",
"5. c #ADA266",
"6. c #AEA16A",
"7. c #A6A968",
"8. c #B4AB65",
"9. c #B4A56C",
"0. c #BAAA6D",
"q. c #AAB46F",
"w. c #BAB664",
"e. c #B8AC73",
"r. c #B3B176",
"t. c #B9B77A",
"y. c #C6B353",
"u. c #C39963",
"i. c #CAAA6B",
"p. c #C3BE64",
"a. c #C4B373",
"s. c #C8B774",
"d. c #CDBA76",
"f. c #D2BE77",
"g. c #DCDA56",
"h. c #EAEA59",
"j. c #CCC668",
"k. c #D4CB69",
"l. c #DBD76C",
"z. c #CDCF77",
"x. c #D6C477",
"c. c #D5C27A",
"v. c #DBC67C",
"b. c #DEC87D",
"n. c #E1CC7E",
"m. c #E8DC75",
"M. c #E4D17C",
"N. c #E8D97A",
"B. c #E8E26D",
"V. c #EEF36E",
"C. c #ECE874",
"Z. c #F5ED75",
"A. c #F4E67B",
"S. c #F7F173",
"D. c #F8F273",
"F. c #F7F079",
"G. c #F9F379",
"H. c #587C81",
"J. c #5A8687",
"K. c #5C8484",
"L. c #5D8B8C",
"P. c #5F908F",
"I. c #5F9394",
"U. c #658887",
"Y. c #628D8D",
"T. c #63918C",
"R. c #6D9188",
"E. c #779989",
"W. c #648E93",
"Q. c #639494",
"!. c #6B9592",
"~. c #699697",
"^. c #639798",
"/. c #659C9B",
"(. c #6B9D9C",
"). c #779C94",
"_. c #729D9C",
"`. c #7FA28A",
"'. c #6FA091",
"]. c #6BA09E",
"[. c #78A49B",
"{. c #6D9FA0",
"}. c #719EA2",
"|. c #6DA2A2",
" X c #6EA6A8",
".X c #72A4A5",
"XX c #78A7A6",
"oX c #7CAAA3",
"OX c #75A6A8",
"+X c #73A9AA",
"@X c #7AACAD",
"#X c #7CAEB0",
"$X c #7DB2B3",
"%X c #7FB7B8",
"&X c #8B9A88",
"*X c #92A38B",
"=X c #84A799",
"-X c #A7B488",
";X c #82AEA3",
":X c #8BAEA1",
">X c #86B3AA",
",X c #93BBAD",
"<X c #83B5B4",
"1X c #87B9B6",
"2X c #85BBBC",
"3X c #89BCBC",
"4X c #90BBB5",
"5X c #C0B684",
"6X c #A2C29B",
"7X c #8AC0BE",
"8X c #99C4B8",
"9X c #A5CAB7",
"0X c #ABCEBA",
"qX c #D3D28F",
"wX c #E4CE80",
"eX c #E6D683",
"rX c #ECD682",
"tX c #EED883",
"yX c #F1DB84",
"uX c #F3E082",
"iX c #F3E189",
"pX c #F0EB94",
"aX c #F2F297",
"sX c #FBF495",
"dX c #FCF895",
"fX c #FCF69A",
"gX c #FDF998",
"hX c #C6C7A8",
"jX c #F0F1A9",
"kX c #89BFC0",
"lX c #8AC2C3",
"zX c #92C4C1",
/* pixels */
"b.b.n.rXrXtXyXyXyXtXtXtXtXyXN.M.n.n.rXtXtXtXrXrXrXyXyXyXtXyXyXrXrXrXrXtXtXrXrXtXN.n.n.n.f.n.n.M.Z.D.D.D.D.D.D.D.D.D.D.D.S.S.S.n.",
"n.n.b.n.n.n.rXtXrXwXb.n.M.Z.F.Z.M.n.n.wXtXwXwXwXwXrXrXrXrXwXrXwXwXwXn.n.n.n.wXn.n.n.v.n.n.M.A.Z.S.S.D.D.D.D.D.D.D.D.D.D.S.D.S.M.",
"Z.Z.M.n.b.b.n.n.b.n.M.Z.S.S.S.S.Z.Z.A.tXtXrXrXwXwXf.wXwXwXwXn.n.wXwXwXn.n.n.n.n.n.n.M.A.Z.Z.D.D.D.D.D.D.D.D.D.D.D.D.D.D.D.D.Z.Z.",
"S.Z.Z.Z.M.n.n.n.n.Z.Z.S.S.S.S.S.D.D.Z.yXyXyXyXrXrXwXwXwXv.wXwXwXwXtXtXA.Z.Z.Z.Z.Z.Z.Z.S.D.D.D.D.D.D.D.D.D.D.D.S.D.D.D.D.D.G.D.D.",
"dXG.G.S.Z.Z.Z.Z.Z.D.D.D.D.D.Z.yXyXyXyXyXrXrXtXwXtXrXrXrXyXrXrXtXA.Z.S.S.Z.S.S.D.D.D.D.D.D.D.D.D.D.D.F.S.S.S.S.S.S.S.G.G.dXfXgXgX",
"fXsXgXdXG.S.S.S.D.D.D.D.D.S.A.yXyXyXyXtXwXwXwXwXrXyXyXyXyXyXA.Z.S.S.S.D.S.S.D.D.D.D.D.D.D.D.D.D.S.S.Z.Z.S.F.Z.Z.G.sXfXfXfXfXfXfX",
"tXiXfXfXgXG.G.G.G.F.D.D.D.D.S.Z.yXtXyXyXrXwXwXwXwXrXyXyXyXyXF.S.D.D.D.D.D.D.D.D.D.D.D.D.D.Z.S.S.S.A.A.A.A.A.yXyXyXyXyXiXiXyXyXyX",
"yXyXiXfXfXsXdXdXsXdXG.D.F.F.F.Z.yXyXyXtXtXrXtXtXtXyXyXyXyXA.S.S.Z.Z.S.S.D.D.D.D.D.D.D.D.D.yXyXA.S.Z.Z.S.A.yXyXyXyXyXyXyXyXyXyXyX",
"yXyXyXyXiXyXyXyXyXfXfXfXsXuXyXyXtXyXtXyXyXtXwXtXrXrXtXtXM.m.B.B.B.B.B.C.S.S.D.S.S.S.Z.yXyXN.S.S.D.S.S.S.Z.yXyXyXyXyXyXyXyXyXyXyX",
"yXyXyXtXyXyXyXyXyXyXyXyXyXyXyXyXrXrXtXtXtXrXwXwXd.a.d.0. .z b ) ! ) b { w.k.k.l.V.Z.N.yXyXyXG.S.D.S.S.yXyXtXyXtXyXyXyXtXyXyXyXyX",
"yXrXrXrXyXyXyXyXyXyXyXyXyXyXyXtXb.wXwXn.wXf.<.n v r D G V m G L.J._ J 9 u k } ;.-.o.n.yXyXyXZ.Z.Z.Z.yXrXtXtXyXyXyXyXtXtXrXrXtXtX",
"wXwXwXwXtXyXyXyXyXyXyXyXyXyXyXtXwXb.v.v.2.j M _.F J.@X#X X^.Y./.].].].Q.K.L.| -XW.M v 2.rXtXtXtXtXn.n.n.wXn.rXyXyXyXtXwXwXwXwXwX",
"A.n.n.n.M.yXyXyXtXtXrXyXyXyXtXtXeXc.a.<.4 P @XlX^.}.OX{.].{.^.^.].|.+X X/.+XJ J.kX#XJ.5 ;.f.f.v.n.n.M.n.n.n.M.M.N.yXM.n.n.n.Z.Z.",
"Z.Z.Z.S.Z.S.Z.M.n.n.n.rXtXtXrXrX9.t t $ u P.@X7X}.,.*X2X2X.XK.(.%X2XlX%X<XW.K.{.kX$XQ.N @ r t ..v.A.Z.Z.Z.S.Z.Z.S.S.S.S.A.Z.S.S.",
"D.D.D.D.D.D.S.Z.Z.M.n.b.b.b.i.! w H Z + s _ .X9X6XqX7.Q. X(.^.T.].%XlX$X@X9 K.<X4XoXK.B + m L 7 W j.V.S.S.S.S.G.G.F.D.D.D.D.S.S.",
"D.D.D.D.D.S.S.S.S.Z.Z.n.n.a.U 9 6 ~.D : a Z P.|.[.-.d W.]./././.].|.^.T.OXZ U.)..XQ.S 7 : V ^.V 7 k j.Z.G.G.gXgXgXfXdXG.D.D.D.S.",
"D.D.S.D.D.D.D.D.D.D.D.V.B.! P Q.Z &X9.v L H././.I C C ~.@X XOX+XQ.Y.Q.$X1X` O.8.=X(.K.F a P ^.G T.J.z B.aXsXfXfXfXfXdXsXZ.S.S.S.",
"N.Z.S.S.D.D.D.D.D.D.D.C.) % Z P.a 4.z.z L.kX2XOXm 6 9 U.$X2X2XoXU 7 (.+X^.i y.jXhX<XkX$XS L.P.m J.J : z wXyXyXiXiXyXiXuXA.Z.S.uX",
"yXyXyXA.Z.D.Z.D.D.D.V.o.w N a a 4 i q 7 I >X8XkXOX> u K.{. X@X1X:XI I./.^.N { k.q.<X<XY.M 5 u 4 a a N 5 ! M.yXyXyXyXZ.Z.S.D.S.S.",
"S.yXyXyXyXyXyXD.S.l.#.* u B 7 r ! z $ B P.(.;X{.H 2 N K././.^.I.^.Z K./.^.Z ; d ` OX/.^.J : < 3 5 5 M m %  .x.yXyXyXyXyXZ.F.S.S.",
"yXyXyXyXyXyXyXZ.B.c 5 7 < 6 .X).eX2.q A J./.J.{.@X@X_.I I P./.{.Q.m Z /. XW.}.OX!.J.^.L.C a 9 L.#X.X9 : 5 5 b x.rXyXyXtXyXyXyXyX",
"yXyXyXyXyXyXtXA.8.u B p $ G lX[.4.z ! 8.! y 9 W.2XlXlX<X@XP Z K.J 5 6 (.1X8X9X8X[.m 2 > 9 H. XlXlX7XI # 3 Z 8 >.rXtXtXrXtXyXyXyX",
"yXyXtXyXyXyXyXn.v s N : p P @X7X2Xq.jXpX&.w B P (.<X8X0X0X=X> M m 9 m P _ [.[./.I.G a A U.<X7X7X%X$XK.M $ a M d a.wXn.n.wXtXtXtX",
"yXyXyXyXtXrXwX! 4 5 ; : B L /.].oX=.g.k.~ 4 B J L.(./.[.[.B m .XOX1XkX4XK.G /./.R.N z y.j.*X+X+X/./.K.S 3 % n w j f.n.n.n.M.M.M.",
"yXyXtXtXrXrXe.< 4 ; O > a J J.^./.'.k b w 3 Z L././././.Q.a 3 L.OX#X>XoXZ L I.Y q.i { h.fXz.T.]./.L.P N 2 = 5.l % #.C.S.S.Z.Z.Z.",
"A.A.n.n.wXf.t y S y 3 Z /.@XL V L.|.V p 3 ; m L./././.^.Y.U l J.^.{.^.^.9 H P b z.t x y.g.=.D Q.V F .X|.Z 7 3 B p q p.S.S.S.D.D.",
"M.M.n.n.wX;.7 d n v y K 2XlXlXOX@X$X~.N # 6 !.Q.L.^./.I.A u.>.K.J.{.#X}.U.@X2XU.=X[.a = } ` $X$X}.2XlXlXK.u 7 Z s 3 c l.D.D.D.D.",
"Z.Z.A.M.d.n M ;.l.O.S {.7XlXlXlXlXlX7XU.> m _.lX$X@X+X(.K *X-.N 2 I @X<X,X<X+X|. XOXZ ; _ %X7XlXlXlXzXlXOXJ 2 Z p u b w.C.D.D.D.",
"S.S.Z.Z.y.v s [ p.Q V /. X@X7X8X0X8XT.D 3 8 J (.3X9X0X0X8X@X(.J > Z Q./././././.^.J a : S U.4X0X0X9X,X;X|.L.> o $ p U r.eXdXG.F.",
"S.S.Z.l.<.y y $ t w H /.I.]. XoX;X!.S B 3 6 Z J.^.;X;X:X[.(.^.J 5 N P ^.(././.|.L.G a : N S T.oX>X=XR.E.I.J.2 > $ y 4 -.qXpXaXdX",
"Z.A.n.9.b 4 < # Z L.P I.|.I././.^.^.J M # % i H Q.!.~.~.).` A W E j i ` H L.L.H F 7 d + p S P.^.{.V :.qX).H.L.I < : 3 j 9.s.tXuX",
"A.rXn.3.& < $ 6 Z _ .X7X%X$X X|./.^.C # + Q @.O.n v 3.3.$.j ~ i.i.@.j @.~ O.v j O.O.O.% + m W.&X>.x c q.E.#XK.A ! ..r % ;.d.rXtX",
"rXwXv.:.% , 2 V S A Y =X<XkX2X+XW.H.C M > h ( / g - +.@.O.= x +.~ x & O.O.^ e t @.+.x ; m N l $.C.qX' ]._.P B i ! t.q $ ! c.tXyX",
"tXb.0. .4 p Q.@XU.4.d.y.k L.).].C p B M : T ( ( h f @.( ( f T +.( Q - / ( ( h f ( / R ; M B q O.eXV.=.D S A S H._.).m < b 9.c.yX",
"tXf.1.z u L.$XlX;Xl.aXh.] y 9.U 0 y F > o f E R - & E Q T & f E Q x @ R E h - & E ^ h   ; M p j #.X.k 3 C W.XXkXzX2XW.a q <.i.rX",
"tXf.<.q N ^.|.%XD =.g.y.g v k.z H.<X;XG < o O . O . O O . . . O O X . O O . . O O + o > B _.4X<X7X%XJ.$ ~.lX8X8X3X@X^.Z 4 ;.9.rX",
"wX9.;.q I /./.|.T.T.4.k ; N U K.4X4X!.S p , f & g e     .               .   & & 1 f & 6 S R.,X9X4X.XI 5 H.|.+X[.]././.J.q  .6.v.",
"a.2.! O P /.|.I.]./.^.Y 4 V ^./.}.{./.K.M + T T E T +     .               . h h T E & 9 _ Q.^.].].~.P ; 7 J././././.].J.+ n 5.0.",
"p.*.n $ H |.%X|.|.|.E.5X{ > I././././.L.N ; R / ( E &                     @ E / ^ ~ % l ` ]./.].^.,.&.-.C H.{.{.|.$X+XP 3 z %.*.",
"j.%.= 9 P.|.%XlX%XlX8XqX! ; J./././.L.J 7 . T / ^ ^ &                     @ ( +./ R + n e.R.^.].H { B.8.>XkXkXkX7X2X XT.s * o.w.",
"w.[ $ Z /./.].>X=X,X8X[.N H.@X<X%X$X!.F 9 o f ( Q +.&                     @ @.O.+.h O W qX`.@X2XW.r o.b _.7X4X:X,X.X/./.J # c =.",
"w.) % N J././.].P.T.|.^.Y.3XlXkXlXlXlX2X+X0 = / @.@.g . .                 & $.E +.e 2 K.=XkXlXlXkX#X$XW.T.].!.L.~././.J.C : z w.",
"z.7.v r r N J /.].].Q.P E.0XzX8X3X<X<X$X!.3 $ Q u.u.T .               . . f @.( / % 2 Y.$X1X1X3XkXzX0X=XP Q.{.{.]._ m 8 t l 4.t.",
"qX8.r.r.>.X.X.' /.^.H 2 D ).>X>X_.^.Q.~.K.S 4 T u.( T . O O . .   . o   . g ( +.E 4 N P Q.Q.Q.~.;X>X=XD 3 V ^.(.E.X.X.>.r.r.r.t.",
"eXc.c.r.q.8.*.%.7.-.b t r T.]././.|./.H Z i i x ( / T . * v } X.z z t O X g / ( h 4 5 m J Q.^.(.(./.I.a + t Y >.1.2.9.r.r.r.a.v.",
"tXtXv.2.9.5.5.7.*.*.=.*.) D _ E.'.`.' r z ) z & ^ Q R + o n ;.>.8.[ q % O x ~ ^ h % n t t D E._.R.` G q z 2.9.9.6.9.2.2.2.0.eXtX",
"yXyXrXa.0.f.d.6.8.9.5.%.=.%.o.7.q.=.%.%.8.t.n + f g R % = b ;.:.<.! ! e & z g T g ! :.;.<.:.<.:.>...;.1.2.2.2.2.e.c.f.s.0.c.rXyX",
"yXyXyXrXrXyXM.c.j.l.p.j.8.1.5.7.%.8.*.*.r.r.-.} ! ! <.|  .1.6.2.2.2.1.b .... .! | :.<.:.<.:.<.<.<.2.2.9.a.a.9.0.f.tXyXtXrXrXyXyX",
"tXyXyXtXtXyXyXA.A.Z.A.A.f.8.&.8.5.5.9.5.6.6.6.6.6.6.2.2.2.2.6.2.2.2.<.<.<.:.<.<.:.:.:.:.:.<.<.1.2.9.9.e.M.rXrXrXrXyXyXyXyXyXtXyX",
"yXyXyXyXyXyXyXA.yXN.N.yXtXn.j.w.i.f.v.0.2.2.2.2.2.2.6.2.2.2.2.6.6.2.2.<.<.<.<.<.<.2.2.3.<.0.v.a.d.b.d.c.n.N.yXtXrXtXrXyXyXyXyXyX",
"yXyXyXyXyXyXtXyXyXyXyXyXyXyXM.rXrXrXtXwXv.a.6.6.2.9.2.2.2.2.2.2.2.2.2.2.<.2.2.<.3.2.2.a.d.v.rXrXwXn.n.b.M.n.yXn.wXwXrXrXtXyXyXyX",
"yXtXtXtXyXyXtXtXyXtXtXtXrXtXtXyXtXyXyXtXyXd.6.2.2.9.9.2.2.2.2.2.2.2.2.6.6.6.6.<.9.2.2.a.wXwXn.n.n.v.n.n.A.Z.S.Z.n.n.n.n.wXrXrXyX",
"rXwXn.M.Z.Z.M.n.n.b.n.b.n.wXrXrXyXyXtXyXyXn.f.9.s.wXc.9.0.s.9.2.9.0.a.d.d.d.f.a.c.a.d.n.b.b.b.b.n.n.M.Z.S.S.D.S.C.M.M.n.wXn.wXrX",
"wXwXn.C.S.S.Z.M.n.n.n.n.b.b.b.wXrXrXyXyXyXtXyXM.rXrXb.c.c.b.v.f.v.n.rXwXn.v.b.b.b.b.wXv.b.b.b.n.M.A.S.S.S.S.D.D.S.Z.Z.Z.n.n.n.n.",
"v.n.Z.S.S.D.S.S.Z.Z.Z.Z.M.b.b.b.n.rXtXtXyXyXyXtXrXwXb.b.n.n.n.n.n.n.n.n.v.v.n.v.n.v.v.n.n.n.M.Z.Z.S.S.D.S.D.D.D.D.D.D.S.Z.Z.A.n.",
"A.Z.S.S.S.S.D.D.S.S.S.S.Z.Z.M.n.n.n.wXtXtXtXyXn.M.n.n.M.Z.Z.Z.Z.C.n.n.n.n.M.n.n.n.n.n.A.Z.Z.Z.S.S.S.D.G.G.G.G.G.D.D.S.S.S.S.S.A.",
"D.D.D.S.D.D.D.S.S.D.D.D.D.S.S.Z.n.n.n.M.M.M.Z.S.Z.S.Z.S.D.D.D.D.S.Z.S.Z.Z.Z.Z.Z.F.Z.Z.S.G.G.G.G.gXgXgXgXfXfXfXsXsXS.D.F.S.S.D.D.",
"D.D.D.S.D.D.D.S.D.D.D.D.D.D.S.S.F.F.Z.Z.Z.S.S.D.S.S.S.S.D.D.D.F.D.D.G.G.G.G.G.S.G.G.G.G.dXfXgXfXfXfXfXfXfXfXsXyXyXA.yXyXA.A.F.S.",
"S.F.Z.S.F.S.Z.S.D.S.D.S.S.S.G.fXfXdXG.G.S.S.G.D.D.D.S.G.F.G.fXfXdXfXfXdXsXdXfXgXfXgXfXfXfXfXfXfXiXiXyXyXyXyXyXyXyXyXtXtXtXyXA.yX",
"yXA.yXyXyXA.A.S.S.S.S.S.G.sXdXfXfXfXdXfXG.S.D.D.D.D.G.dXdXfXfXjXyXyXyXiXyXiXsXfXfXfXfXfXiXyXyXiXyXyXyXyXyXyXyXyXyXyXyXyXtXyXyXyX",
"yXyXyXyXtXZ.Z.S.Z.A.yXyXyXyXyXiXyXyXiXfXdXG.D.D.D.F.sXfXfXyXyXyXyXyXyXyXyXyXyXyXyXyXyXyXyXyXtXyXyXyXyXtXN.yXtXyXyXyXyXyXyXyXyXyX",
"yXyXyXyXA.A.F.D.D.Z.yXyXyXyXyXyXyXyXyXiXsXsXF.D.S.Z.uXyXiXyXyXyXyXyXyXyXyXyXyXyXyXyXyXyXyXyXtXtXtXtXrXwXn.n.n.rXrXtXtXyXyXyXyXyX",
"yXyXyXrXyXA.F.D.Z.yXyXyXyXyXyXyXyXyXyXyXyXyXyXyXyXyXyXyXyXtXyXyXyXyXyXyXyXyXyXyXyXyXtXtXrXtXtXn.wXwXwXwXn.n.n.n.n.M.M.yXyXrXrXyX",
"yXyXyXyXyXyXyXyXyXyXyXyXyXyXyXyXyXyXyXyXyXyXyXyXyXyXyXyXyXyXtXyXyXyXyXyXyXyXyXyXyXyXyXrXwXwXn.5XwXf.wXwXA.Z.S.Z.Z.Z.Z.Z.A.n.b.wX"
};
