/* XPM */
static char *result[] = {
/* columns rows colors chars-per-pixel */
"64 64 71 1 ",
"  c #4C2611",
". c #4E2912",
"X c #502A13",
"o c #542F1A",
"O c #54321E",
"+ c #5C351E",
"@ c #553522",
"# c #5A3721",
"$ c #563825",
"% c #5C3B26",
"& c #563C29",
"* c #5C3D29",
"= c #656C17",
"- c #72751B",
"; c #5D412C",
": c #5D4431",
"> c #5E473A",
", c #5E4B3D",
"< c #61432E",
"1 c #634631",
"2 c #654935",
"3 c #654C3B",
"4 c #694D39",
"5 c #6B513C",
"6 c #787B21",
"7 c #5C4E41",
"8 c #5E5245",
"9 c #5E5449",
"0 c #634E41",
"q c #635444",
"w c #695343",
"e c #665846",
"r c #6B5946",
"t c #625649",
"y c #685649",
"u c #665A4B",
"i c #6A5C4C",
"p c #745D49",
"a c #655D53",
"s c #6A5E51",
"d c #676056",
"f c #6B6154",
"g c #676158",
"h c #6C655A",
"j c #6F685E",
"k c #716254",
"l c #716759",
"z c #726A5C",
"x c #746E62",
"c c #786F61",
"v c #767165",
"b c #797366",
"n c #777368",
"m c #7A7669",
"M c #7D796D",
"N c #7F7C70",
"B c #807B6E",
"V c #817E72",
"C c #7F8226",
"Z c #858275",
"A c #898477",
"S c #868479",
"D c #89867A",
"F c #8C897C",
"G c #8E8C81",
"H c #918E83",
"J c #939186",
"K c #959388",
"L c #9A978D",
"P c #9A988E",
"I c #9C9990",
/* pixels */
"----------------------------------------------------------------",
"----------------------------------------------------------------",
"----------------------------------------------------------------",
"----------------------------------------------------------------",
"----------------------------------------------------------------",
"----------------------------------------------------------------",
"----------------------------------------------------------------",
"----------------------------------------C-----------------------",
"----------------------------------------------------------------",
"------------------------------------CCC-=C----------------------",
"--------------------------4433=q442211-C==-CC-------------------",
"-------------------------1FDDDAADSAAAM1--=-CC-------------------",
"-------------------------1GDAAAiiiAAAD1C-C66--------------------",
"----------------------%%%1FDFAFfssAFDD1 ;$-=--------------------",
"--------------------<<MZV1GDAAFiKKFFDA2kMB%%--------------------",
"-----------------4VSSB%%;2FFFFFFKKAFDD2<;%ZZSS<-----------------",
"--------------633VVVV*FFA2AFFFAFDFDFFF2SSS#<ZZ<-----------------",
"-------------1GVVK%BBVVVA:FFAFFFFFFDDD;SSSSSD<KMmB<%------------",
"------------%GVVV*VBBVVAZF2AAFAAFFFFDJZZZSSDDF*$BmBB------------",
"----------%GGVG%VDVVVAAAA2@LPflzlhzPPPVVZZSSDSDDXXBBNZ----------",
"----------@DGG;VVZVSAAAAF8OsfffzjzxxxxKKNZSSSNSDAZZZSZ----------",
"--------<HVK0VVVZZZSAFHiaaOus  O$&#uxxnmnnJVVVNNSZZ.HJGG--------",
"-------<GVVV@VVVZASSGttsua . 555rru;*&nnnvxJSNVVBZMZZZSZO-------",
"-------FVVVSGVGDAAS88t7 eezzzvzzcvnvvq8t;;xxhKNNBVVVN.ZZF#------",
"------#BBB%VSSGVDDH88  5zzhzzzzzvvvmvqqVMM*xhhFDVVVVVVVVVZ------",
"-----XSBM%VGSSGHK,7. lzljzzzzzvvbvbvVvvxvxvM&hhHSGVVAF1VZVX-----",
"---:;;;11*107KHHJ,7qezllzxzzzvvvbbb0vvvvvvcvN$suGSVD3311<<11<<--",
"-1HFGVVVNMMNNVK98 qzzzzzM,,,,78etttyqtqqVvvmnn.uJGFGVVVVZZAZAA1-",
"-1GZZVSVVVVVVVNK7qqjxzzj8eeeuuesiissiiifivxxbbB JGVVVVAAVAAAAA<-",
"-1JVZZVVVVVVVVNa.qjxuvxx,xvxzvvvvvvnnMmnftvnmnnBaJVVVVAVAAZZAV<-",
"-1HSZVksVVVVVNNa.qzzmuxvuvvvvvvvbbbbbvvvsyxnnnnBaLVVVDSVpkZAAA1-",
"-1JSStSSaVGVSGG.qvvxzvN,uvvvvvvvbbbbbbbvsscxnnnx LVVDSDDpArpAF1-",
"-<JSSqSZ8SSZZGF.qvvvvvZuabvbbbbmbmbbbbbbffvnvnnx.JZSVFVGwFH4FF<-",
"-1KDSFGGDSDDSSF.8vvvvvvsibbmMMMbmbMMbbbbfnvvvvvv.KSSGVGVHHFFFF<-",
"-1KFDDDFFSDDDDD.8vnnnnnZammmMMmmmmMmmnbbfmnnvvvvXKSZDDVGVFFVFF<-",
"-;PFDFFDFDDDSDS.evnnMMnnfmbmMMmMMMMmMMMMlmbvvvjxXJSDDFGSHFHBFH<-",
"-*PFFFFFFDDDS:&OXmmMMNMmfmmmMmMMMMNMMMMMlmmvvzxz3>0VGGGGFFBBFG1-",
"-Xxvvgghg3KFGZVVVnNMNMmmzmmmmMmMMMMMMMMMhmmmnnj;MMMGGwwxsaagkaX-",
"-Xngddgfg1;SZZZVZ:MMNNmmlVmmMMmMMMMmMMMZzmmmmm*BMVBVMHMaaaaahsX-",
"-.xa.ZZMcxOKZZZZZSFMMMVmfzffiiiiiiiieeuzhmmmm;xxVVBMGanVGVGKga -",
"-.ja.SNMMcOKSZZSZSS,MNNmZklllzzzzzzzzzlzVmmM,fFFVVVVHacBVGGGaa.6",
"----.GVVVmM8tDSZSSFFS2MNMbbMMMMMMMAAlMmmmm;ZVSSSGGVG7XVVVVHa----",
"-----9GVNVM&tHSDSSSSZZ:MZBcBMMMmMMmMVmMmm:ZSVSSSVSG7 bBVGV0X66--",
"-----oaVZVV3#jjuJFSFFZAZA%%BmMMMMMMmMMOZDDDSDDFSSG07XcBGVJX66=--",
"-----.aGVZ8q,zzeuDSFFZZZZBB222442224mmVBDDFFDDFFHt7@l0VVG7 66=--",
"------Ch,HZZFFOzxKKFFZAZZZ5FFFFAAAZZZFAZDDDDDDKtt9lmmmBJa -==---",
"------6a,GZSFVN#zzzFFAAZAA5AAFAAAZZZZFDZZDDDKK99O&VBBmV7u ------",
"------6=.jhSSVSSF#zzfzPFA5LAAAAFAAAZZZ5ZKKuu9u@$mBBBVS77--------",
"------66=hhHGSSGDH+hhfiiK5FFFFFcAzZAZZ5Kirytt*bmnBBBV07O--------",
"------=66=.hjGGGFrFZZXXii5FFFFF5KiFFDZ32ri.XFAkSBBV7776---------",
"-------=6== jjgJJDZZZVm.X5KFFFFK5KAFAA3X..NMSFDlGV9t  ----------",
"--------6----.hg,JJZZVVMM4PFFFFKFJFFFD3fZZZSSGG7s9  ------------",
"--------------.g,fgJLFVbb2PFFFFFFFDDDD2fVZFJH777a --------------",
"----------------- ggfaaa5XvnjjhhllfvvxO:eee5q7  ----------------",
"------------------ daaaaeXvhhhggffddax :5e8e0 ------------------",
"----------------------  X xhhddadddaaa    ----------------------",
"------------------------- xh99uaaaaaau -------------------------",
"--------------------------            C-------------------------",
"--------------------------------------CC6---666-----------------",
"-------------------------------------==C6--6C6------------------",
"---------------------------------------==-666-------------------",
"------------------------------------------66=-------------------",
"------------------------------------------==--------------------",
"----------------------------------------------------------------"
};
