/* XPM */
static char *middle_bottom1734639234[] = {
/* columns rows colors chars-per-pixel */
"64 64 98 2 ",
"   c #161C2E",
".  c #191F2F",
"X  c #161E30",
"o  c #1B2131",
"O  c #1C2C3B",
"+  c #1F313E",
"@  c #2C2F37",
"#  c #2E3236",
"$  c #2E3339",
"%  c #323736",
"&  c #353A37",
"*  c #313439",
"=  c #33393A",
"-  c #3D3C3F",
";  c #42443E",
":  c #474A3D",
">  c #4B4E3E",
",  c #1F3947",
"<  c #203B49",
"1  c #303F45",
"2  c #3A5251",
"3  c #464541",
"4  c #454841",
"5  c #494B44",
"6  c #4A594B",
"7  c #575447",
"8  c #5C5C46",
"9  c #A18D6B",
"0  c #AF9B6F",
"q  c #A89071",
"w  c #B29678",
"e  c #B69B79",
"r  c #BA9E79",
"t  c #B3A36C",
"y  c #B9AB6E",
"u  c #AEAB75",
"i  c #BBA177",
"p  c #BDAD70",
"a  c #BDA279",
"s  c #C4BD67",
"d  c #C2B36F",
"f  c #C1AA77",
"g  c #C1A67A",
"h  c #C4AB7A",
"j  c #C3B172",
"k  c #C8B575",
"l  c #D5BE7C",
"z  c #C6C264",
"x  c #CAC665",
"c  c #C8C168",
"v  c #DCD66B",
"b  c #DFDA6B",
"n  c #CCC87E",
"m  c #D5C576",
"M  c #D6C27A",
"N  c #DBC57D",
"B  c #DEC87E",
"V  c #CBD373",
"C  c #E1CB7E",
"Z  c #E6DA75",
"A  c #E8DE74",
"S  c #E4D17C",
"D  c #EFDC7F",
"F  c #F0DD7F",
"G  c #EFE574",
"H  c #E3E97A",
"J  c #F0E675",
"K  c #F5ED75",
"L  c #F2E47C",
"P  c #F5EA78",
"I  c #F7F173",
"U  c #F8F273",
"Y  c #F7F079",
"T  c #F9F379",
"R  c #3C8A8D",
"E  c #3D8D90",
"W  c #429B9B",
"Q  c #54A097",
"!  c #6DBA9D",
"~  c #46A8A7",
"^  c #47ABA9",
"/  c #49ACA8",
"(  c #5BB2A2",
")  c #E4CD80",
"_  c #E7D082",
"`  c #EBD582",
"'  c #EED883",
"]  c #E1DD89",
"[  c #F1DB84",
"{  c #E4E08B",
"}  c #F3E082",
"|  c #F3E189",
" . c #FBF78F",
".. c #F7EF91",
"X. c #FBF494",
"o. c #FCF894",
"O. c #FCF69A",
"+. c #FDF998",
/* pixels */
"B B C ` ' ' ' [ [ ' ' ' ' [ [ S C C S [ [ [ ` ' ' [ [ [ [ [ [ ' ' ' ` [ ' ` ' ' S C C C N C C S K U U U U U U U U U U U U U I C ",
"C C B C C C ` ' ` ) C S S K I J S C C S ` ) C ) ) _ ' ' ' ' _ ) N ) B C C C C C C C N C C C K K I U U U U U U U U U U U U U K S ",
"K J S C B B C C B C S J K U U I K K P F [ [ ` ) N N ) ) N ) C C C C C C C C C C S S S P K K I I U U U U U U I I U U U U U U I K ",
"U I I J S C C C S J I I U U U K K K K [ [ [ [ ` ` ) ) N C C C C ` [ ' P I K K K K K K I I I I I U U U U U U U I U U U U U T T U ",
"o.T T T K K K K K U U U U U K F [ [ [ [ ' ' ' ' [ ' ` [ ` [ [ [ F K I U I U U U U U U U U U U U U U I I I I U I U U T T X.O.O.+.",
"O.o.O.o.T U U U U U U U U I L [ [ [ [ ' ) N ) N ` [ [ [ [ [ F K U U U U I I U U U U U U U U U U U I I I K I U U Y X.o.O.o.O.O.O.",
"| | X.O.o.T T Y T U U U U U U P ' [ [ [ ` ) ) ) ) ` [ [ [ [ K U U U U U U U U U U U I I I I T I I F F F F [ [ F [ [ [ | [ [ | | ",
"[ [ [ O.O.o.o.o.o.o.T T T K K K [ [ [ [ [ ' ' ' [ [ [ [ [ P K U U U U U U U U U U I I I I F F F I I I I K F [ [ [ [ [ [ [ [ [ [ ",
"[ [ [ [ | [ [ [ | X.O.O.X.[ [ [ [ [ [ [ [ [ ' ` ` [ ` [ [ K K U U U U U U U I I U U K [ F [ K K U U U K K [ [ [ [ [ [ [ [ [ [ ` ",
"[ [ [ [ [ [ [ [ [ [ [ [ [ [ [ [ ' ` ' ' ` ` ) N ) ) ` [ [ [ [ K K U U K U U I K U K [ [ [ [ K I U U K L [ [ [ [ [ [ [ [ [ [ [ [ ",
"` [ ` ` [ [ [ ' [ [ [ [ [ [ [ [ ) N ) N ) N ) ) C C S [ [ [ [ ' [ [ F F K U K [ [ [ [ [ [ [ K P K P ' ' ' ' ' [ [ [ [ ' ' ' ` [ ",
") ) ) ) [ [ [ [ [ [ [ [ [ [ [ [ ) C N ) ) N N N C _ ' ' C ' [ [ [ [ [ [ [ [ [ [ [ [ [ [ [ ' F D D C B ) B ) ' ' [ [ ` ) ) ) ) ) ",
"L S B C S F [ ' ' [ ` [ [ [ [ ` [ ` ) ) C N C C C ) ) ) N ) ` [ [ [ [ [ ` [ [ [ [ [ [ ' ' ' D C C C C C C C S S ' [ S C C C J K ",
"K K K I K K K S C C C ` [ [ [ [ [ [ ` ` _ C N N l l r r g _ _ ` [ [ [ [ [ [ [ [ [ [ ' _ C C C C S J K I K I K K I I K I P K I U ",
"U U I U U U I K P S C C _ ` _ _ _ _ ) ) ) l C l g e w e a l g g C ` ' [ [ [ ` ` [ ' ' C C C C P K I I U U U U T T T U U U U U U ",
"U U U U U U U U U K P ) h g r r r r e e e r M r w r g l N l r e g g C ` [ ` ) ) C C C C C S J I I U U U T T o.+.O.o.o.U U U U U ",
"I I U U U U U U U I I K J A a i i i i i i f A p f A J J S C N N l ) ) ) ` ) ) ) C C C S K K U U I K U K O.O.O.O.O.O.o.X.U T U K ",
"L K K K U U U U U U I U I U P P J P L J G G K P J U U U K K F F ` ' ` ` [ ' _ ` ` ` F P K U K K L [ [ [ [ [ [ [ | [ | | L K I L ",
"[ F [ L K U K U U U U U T o.o.O.O.+.+.o.T T T T U U U U U U I K [ [ [ [ [ [ [ [ [ [ [ F K K [ [ [ [ [ [ [ [ [ [ [ [ P K K U I I ",
"P [ [ [ [ [ L K U U U T X.O.O.O.+.+.O.O.X.X.X.X.Y K U U U U U K [ [ [ [ [ [ [ [ [ [ [ [ [ [ [ [ [ [ [ [ [ ` [ [ [ [ [ [ K U K U ",
"[ [ [ [ [ [ [ K U K U U T [ [ [ | [ [ [ | | [ | [ [ F K U U K [ [ [ [ [ [ [ [ [ ' [ ` [ [ ` [ [ [ [ [ [ [ [ [ [ [ [ [ [ [ [ [ [ ",
"[ [ [ [ [ [ [ [ P [ [ [ [ [ [ [ [ [ [ [ ' [ [ [ [ [ [ [ [ [ [ [ [ ' [ ` ' [ ' ` C C N ) C C ` [ [ [ [ [ ' ` ' ' ' ' ' [ [ [ [ [ ",
"[ [ [ [ [ [ [ [ [ [ [ [ [ [ [ [ [ [ [ [ [ [ [ ' [ [ [ [ [ [ [ [ ` ) ) ) ) N ) N N ) N ) C C C [ [ ` [ ` ) ) N C C C C C C ' ' ' ",
"[ [ [ [ [ [ [ [ [ [ [ [ [ [ [ [ [ [ [ [ [ [ [ [ ' ' ' ` [ [ [ [ ' ) ) ) C N N ) C N C N C ` ` ` ` ) C C ) N N C C C C C C C S S ",
"[ [ [ ' [ [ [ [ [ [ [ ` F ' ' [ [ [ [ [ [ [ [ ' ) C C C D ` ` ' [ [ ' ` ) C _ [ S C C _ ` ` C C B S S C S B S K K K K K K K K K ",
"L J C C C _ ` [ ` ` ) ) C C S K P Y U U K K S S B C B B C B C C ` ` ' ' _ C C ` D B C C ) C C C S G K K K K K U I K U U U U U U ",
"S S C C C C C C C C C C S P K I U U U U U U K Y I J S C C S B B ) ) N ) C N N C C B B B N C K K K I U U I I U U U U U U U U U U ",
"K K J S C C C C ' ' D F K I U U U U U U U T T T U T K K K J S C C C N N N ) N C N B B S C S K U U I U U U U U T T U T T U U U U ",
"U U I K L F ' ' ' [ [ [ [ I U U U U U T T o.O.+.O.o.T T U I K K I G S C C C C C B S S G K K I U U U U U U Y T +.+.+.+.O.o.o.T T ",
"I I K K F [ [ [ ' ' ` ` [ K I U U Y X.o.o.O.O.O.O.O.o.T U U U U U I K I P K I I K I K I U U U U U U U U T O.O.+.O.O.O.O.O.O.o.o.",
"K F F [ [ ' ' ' C C C ) [ F K I Y [ [ [ [ [ | [ | | X.I I I I U U U U U U U U U U U U U U U U U U U U U o.O.O.O.| | | [ [ [ [ [ ",
"F [ [ [ [ [ C C C C l C C ' [ [ [ [ [ [ [ [ [ [ [ [ [ [ L P K U I U U U U U U U U U U U U U U U U I I K | | [ [ [ [ [ [ [ [ [ [ ",
"` C C ' [ ` ` S C ) C ) ) ` [ [ [ ' [ [ [ [ [ [ [ [ [ [ [ [ [ L K I U U U I U U I I I U U U I U U U F [ ' [ [ [ [ [ [ [ [ [ [ [ ",
"[ ) C ) ` ' C C C l ) ` ` [ [ [ [ [ [ [ [ [ ` [ ` [ [ [ [ [ [ [ F K I U I I I I I I I I I I U [ [ [ [ [ [ [ [ [ [ [ [ [ [ [ [ [ ",
"[ ` _ ' ) C N C l ) ` [ [ ` ` [ [ [ [ [ [ [ [ [ [ [ [ [ [ [ [ [ F L I I U F [ F K K K P K F L K U K [ [ [ ' [ [ [ [ ` [ ' [ [ [ ",
"[ ` _ ) C C C N C C ` ` ) ) C _ [ [ [ [ [ [ [ [ [ [ [ [ [ [ [ K K K U I F [ [ [ [ [ [ [ [ [ P U K F [ [ [ [ [ [ [ [ [ [ [ [ [ ' ",
") C C C S C N C C C ` ` C C C ) ` [ [ [ [ [ [ ` [ ` [ [ [ [ [ [ K U K K U K [ [ [ [ [ [ [ [ [ [ [ [ [ ' ' ' D ' [ [ [ [ [ [ [ ' ",
"C C C J G S S C l C ) ` ' C C C [ [ [ [ [ [ [ [ [ [ [ ` ' ' ' [ [ [ [ [ [ [ [ [ [ [ [ [ [ [ [ [ ' [ ' C ) C C C C S [ [ [ [ [ _ ",
"K I K K I K K J S C C ) ' ' ' ' [ [ ` [ _ ' ` ` ` _ ` ) B ) ' ' [ ' [ [ [ [ [ [ [ [ [ [ [ ' ' S C N ) C N C C C C J K U U K P P ",
"I U U U U U U I J C C C C S F [ ` ` [ ` ) ) ) ) ) ) ) ) B B B C C C ' _ ` _ _ _ ` _ _ _ _ B l a e r l C C J K K K I I U U I K K ",
"U U U U U U U U I K K K K K I K _ ) C C C C N C C S C C C S C B C C N h g g r r r r r r r r e w w f J K K K U U I I U U U U U U ",
"T U U U U U U U U I U U U U U I F ) C C C S C S J I K K K K J S C C C _ _ ) g w w w w w w w r r f A K U U U U U U I I I U T T T ",
"o.X.T T T U U U I I U U U U U U U P K K K K G K U U U U I U I I K K K [ [ [ ) g r r r r r g A F J K U U U U U U U I U T T o.o.o.",
"O.O.o.o.o.U U U I U U U U U U U U U T I U U U U U U T T U U U U I I K F [ [ [ _ ` _ _ _ _ D F P I U U K U K T T I T X.o.O.O.O.O.",
"[ [ [ O.o.Y U K U U U U U U U U U U U U U U U U  . .o.o.O.o.T T I I U P [ [ [ [ [ [ [ [ [ [ [ [ F U K [ [ [ [ [ [ [ [ O.O.O.| [ ",
"[ [ [ [ [ [ [ } P U U U U U U U U U U U U U T X.O.O.O.O.O.O.O.X.U K F [ [ [ [ [ [ [ ` [ ` [ ` _ [ F [ [ [ [ [ [ [ [ [ [ | [ [ [ ",
"[ [ [ [ [ [ [ [ [ L F U K I K T U U U U T o.o.O.O.O.| | [ [ [ [ [ [ [ [ [ [ [ ` ` ` ) B ) ) B ) ' [ [ [ [ [ [ [ [ [ [ [ [ [ [ [ ",
"[ [ [ [ [ [ [ L P U U K L F } L K K U Y X.O.O.o.| [ [ [ [ [ [ [ [ [ [ ' _ C C C ) B B B N B B ) C [ [ [ [ [ [ [ [ [ [ [ [ [ [ [ ",
"[ [ [ [ [ [ [ P P U K [ [ K K K K [ [ [ [ [ [ [ [ [ [ [ [ [ [ [ [ [ ) ) ) N C N N B C C B B C ` ' [ [ ' S [ [ [ [ [ [ [ [ [ [ [ ",
"[ [ [ | [ [ [ [ [ [ [ [ [ F K K [ [ [ [ [ [ [ [ [ [ [ [ [ [ [ [ [ [ _ ) N C C C ) ` ' ` C C ` [ [ ' _ C C S _ _ _ _ _ [ [ [ [ [ ",
"[ [ [ [ ` [ [ [ [ [ [ [ ' [ [ [ [ [ [ [ [ [ [ [ [ [ [ ` _ _ ` S _ _ [ ` [ ' [ C ` [ [ ` C B ` ' _ ) C l g r r r a r g ) _ _ [ [ ",
"[ [ [ [ [ [ [ [ [ [ [ [ ) ) [ [ [ [ [ [ [ [ [ [ _ _ ) g r r r r r g _ [ [ [ ` C ` ' ` ) C N C B C k k k r g i i r w w r r g _ [ ",
"` [ [ [ [ [ [ [ [ ' ' _ ' [ ' ' ' [ [ ` [ [ [ _ g r r w w w w w e g _ [ [ ` C N C ) N B B B N k 0 ; % 8 v J G G A f g a r r B ` ",
") ` ' ' [ [ ` [ ' ' C C C _ ) C ) ' [ [ [ ` _ ) r w e r r e r i l ) [ ` C C N C N C B B N k t ; # % : x K I U U I G G A C B C C ",
") C _ ' [ ` ` ) C C C C C C C ' [ [ [ ' _ g i i r r l l N N N N C C ) ) C N B B B B B B t ; # # : s b I I I U U I U I I K K F F ",
"L L [ ` ) C C N C C S S L C _ [ [ [ ' _ l q q i l ) ) C L K K K P C ` ` D C C C C C C s ; . : z b K I T I T T T U U I I K F [ F ",
"K F D C B N B S D D K K K [ [ [ [ [ C 9 - - 0 A K K K K I I I I F ' [ [ F K K K ' D v : . ; x K U K L ..{ ] ] .. .U K U K [ [ [ ",
"[ D N B B Z G I K K I U I F [ [ ' D k - . : v I U U U U I I K ' [ [ [ F K I I K } ' c # # d K U K } [ N 5 = 5 k [ [ F [ [ [ [ [ ",
"` k 8 b I I I U K I I U I K F [ H s : X ; x K U U U U U T G m ` [ [ K I I U I I K n 4 . * m K I } [ ` f $ X . ; f N D [ [ [ [ [ ",
"N ; & v I I U U I I I I I K b v z : X % z I U U U U T X.] y 7 j _ S K U U U U U b 5 X   * M [ [ [ [ N 3 . X   . % ; f D [ [ [ [ ",
"y # % b I I U U U U I I b s > % # O O & b U U U U I I n 5 # o - y G I I U I I K b : .   # d ` [ [ D y * X O O O . . ; f ' [ D M ",
"# . # z I U U U U I K z > # .   , R R 2 V H U U U I z 4 o O O o ; z v v b b v m M u 1 O . ; f M M f ; o < R W R < . . ; f l f ; ",
"    . ; z b I I b v z : X o @ , E ^ ^ W ( ! ] H H V 6 + , R R , O % % % * # % & 2 Q W R , o # * * $ O < E ^ ~ ~ R < O . # % % . ",
"      . # > v b > % # X X O E E ^ ^ ^ ^ ^ ^ ( ( ( ( W E W ~ ~ W R O           @ R ~ ^ ~ R O       O R W ^ ~ / ~ ~ W R O         "
};
