/* XPM */
static char *middle_top1734639234[] = {
/* columns rows colors chars-per-pixel */
"64 64 90 1 ",
"  c #161C2E",
". c #191F2F",
"X c #161E30",
"o c #1A2131",
"O c #1C2C3C",
"+ c #2B2E36",
"@ c #2E3335",
"# c #323736",
"$ c #33353A",
"% c #3C3B3E",
"& c #43473C",
"* c #474A3D",
"= c #4B4E3E",
"- c #1F3947",
"; c #213C49",
": c #344345",
"> c #395350",
", c #464541",
"< c #4A4B40",
"1 c #4D5D4C",
"2 c #5E5A4A",
"3 c #625B4F",
"4 c #606244",
"5 c #A08D69",
"6 c #A19068",
"7 c #A48C71",
"8 c #B79E76",
"9 c #B39778",
"0 c #B69B78",
"q c #BA9E79",
"w c #ADA167",
"e c #B7AA6A",
"r c #BAA177",
"t c #BFAF70",
"y c #BCA279",
"u c #C1AA77",
"i c #C0A57A",
"p c #C2AA78",
"a c #C2B172",
"s c #C9B179",
"d c #D5BE7C",
"f c #C6C364",
"g c #CAC466",
"h c #DCD76B",
"j c #DFDA6B",
"k c #DACA77",
"l c #D6C17B",
"z c #DBC57D",
"x c #DEC87E",
"c c #CCD573",
"v c #E3DE6C",
"b c #E1CB7E",
"n c #E6DB74",
"m c #E8DE74",
"M c #E4D17C",
"N c #EFDC7F",
"B c #F0DD7F",
"V c #EEE574",
"C c #E3E97A",
"Z c #F0E774",
"A c #F5ED75",
"S c #F3E27E",
"D c #F5EC79",
"F c #F7F173",
"G c #F8F273",
"H c #F7F079",
"J c #F9F379",
"K c #3C8B8E",
"L c #3D8D90",
"P c #408F8F",
"I c #429A9A",
"U c #69B49E",
"Y c #6DBA9D",
"T c #46A8A7",
"R c #47ABA9",
"E c #49ACA8",
"W c #5BB2A2",
"Q c #E3CC81",
"! c #E7D082",
"~ c #ECD582",
"^ c #EED883",
"/ c #F1DB84",
"( c #F0DD88",
") c #F3E083",
"_ c #F3E189",
"` c #FBF78F",
"' c #FBF495",
"] c #FCF894",
"[ c #FCF69A",
"{ c #FDF998",
/* pixels */
"#@.  OKTTKOX          OKTRRRRRRIIIWWWWWIITTETTIIIKOX OKTEEYCGv=#",
"hf*@.X-KK-X.@######@. X@KTRRRIK;:1cCCCc1>PIIIK-OOO##@.-KIUQFGCjj",
"FFjf&. OO.@*fhhhhhva=@. -LTTL-O&fjFGGGFjf:O+OO .@*fhf&.O:s)HJ`JG",
"FGGAf@ .@*fjFGGGGGGFjf&.X-KK-o@fAGFFGGGFh*   .@*fjFGAg*@#a^)]{]J",
"GGGAf#@*fjAGGGGGFFFFFAa&XXOOo+=jGGGGGGGGVw+.+<fvFFGJJFvf<,tz([[]",
"]GGv4=fjFGFGGGGGFFDBBBBa@X.+,akAGGGGGGGGv*.%ehAJGJ]{]HANa,#,t(((",
")AGAjjAGGGGGGFFAB/B/B/^i%+,tz^FGGGGGFFGFg#$6VH{{{[[['))(^a,$2k^^",
"/BFGFFAF]]JJGFAS//////d355d~^FFFGGGFFFVh3;5nH'{{['_((^^^^^klz^(^",
"//AGAB//_''''//////^!Qq7qQ///AAFGGGGGmp859bBH''[////////^(//////",
"/////////(((///////Qiq9qd^^^//BAFFFAmp9qiQ//AHJ/(/////^/////////",
"/~/~//////^/////^!Qi90qdQ///////BAZMziiQ~/BAFB/////!!!~////~/^^^",
"Mbbb~//////////~Qiqqqdzxb~//b~///NMkb!~^BAA/////~~Qiqqib!/~bbbbQ",
"ZMbbM//^^//M!!Qiq9ydzzzbzQ~~bQ/^~bxb~//DAA//^!MbiqqyrryusNMbbbAA",
"GAAAAFAMb!QiqqqqqiQ~~zbzbzbb!!~bbbbb~/////~Qdiqq9qpmVVZVVAAAAAFG",
"GGGGGGFAZsiqqqyQQQ~bbxzbbbbzbbbbxb!//!!~~Qiqq9qrpmZFGGGJGJGGFGGG",
"GGGGGGGGFZVxzzzbQbbxxxbbbbbbbbdbxxb~!iqqqq9qqpmZZFGFJJ{{{{{GFGGG",
"FFGGGGGGGGFFAAAbbbMbbbMAAAAZMbbbQQQQ!iqqqqixVZGGFGDG''[[[[['GGDG",
"BAGGGGGGGGGGGGGDDGDDHDAFGGGFAAB/~^^^/!!!~!MZFFFAB///((/((/))SGFS",
"B//BAFFGGGGGJ'{{{{{{]]JJGGGGGGAA/^/////////BAAB//////^////DDGGGF",
"A/////BFGGGJ`[[[{[[[[[']GGGGGGGA///^/////////////////^/////BADGD",
"///////AGAAGJ///((((((()//BDFGD////^////^^^^^^(///^//////////B//",
"///////BD///////////^(////////B^^^^^^^~~QbbQxQ~/////^^^^~/~N^///",
"////////////////////////////////^QQQQzbbbdzbxxQ^/~^!QQbbbbbbb^/^",
"////////////////////////^^^^////^~bbzQzQbQzbQ~~~!bdQdQdbbbbbbbMM",
"/B//^/////^^///////////NbbbbNN~~^^^~Qb~~^bxQ!!Qdy08ruzMDAAAAAFAA",
"BZbbb~^^^~QxbbMZAAGGDAMMbbxxbbxb^^^~!bb~QzzQly009rruVAAGGGGGGGFF",
"MMbbxbbbbbQbMZAFGGGGGGAAAAbbbbxbQbbbQzxdy08q09rrunVZAFGGGFFGGGGG",
"AAZMbxbbN/BBAFGGGGGGGJGJGGAAAAbbbbbzzbdq999ryumVDFGGGFGGJJJGJGGG",
"FFFAZ/~/~/^//FFGGGJJJ{{{{{JGGGAAAZMbbbprrruvZZFGFGGGGGJ{{{{{{]JJ",
"FFADB///^~^^BDFFGG''''[[[']JGGGGGFAFDZZZZZZFFGGGFGGGJ{{{[[{{'[''",
"AB/B//~/QbQb/BDFA///_/_(()'JAGGGGGGGGGFFGGGGGGGGGGGG'{[[_((//(/_",
"B/////bbbxzxb/B/////////(///SADFGGGGGGGGGGGGGGGGGFFA/(/(/(//////",
"~Qb///~MbdbbQ^^//////////////B/BFFGGGFGGGGGGGGGGAGB////^^///^///",
"/bbQ~^bbbbQ~^^//////////////////BFFGGFFFGGGGFFAS////////////^//^",
"^~/!bbbzbb~/^^~////^//^//^//////BBGFAB/BFADDDBBAGA//////////////",
"^^!bbbzbQz^~QQb~^//^///////^///AFFFFB/////B/B/AAAB////////^/////",
"QbbbMbbzdb!^bbbQ~//^///^^///////DFAAAA////////////^/~/~^///////~",
"bbMZZMbbbbQ^~bbb///////////^^^////B////////////^//~bbbbbbM/////!",
"AAAFFAAZbbbb~//~///^~~^!^~~Qbb~^/N////////////~~bbbzzbbbMZAAAFSA",
"FGGGGGGFZbbbbbB/^^^~QbQQQzQQxxbbbb~/////^~~/~bbbbbbbbAAAZFGGGGGG",
"FFGGGGGGGAZFAAFA!QbbbbzzbbbbbbbkxbbxbbM/~bQbbbMMbMAAAGGGGGGGGGGG",
"JGGGGGGGGGGGGGGGBQMbbbbMDAAAAAZMbbbbbbbbbbbQbAZFAAAGGGGGGGGGGJJJ",
"']JJGGGGGGGGGGGGFAAAFFZFGGGGGGGFZFZZMbQ^^^~~BAAGGGGGGGGGGGHJJ{'{",
"[['{{GGGGGGGGGGGGGGGFFFFGGJJGGGGGGGGB/^^//^^///AFGGGAGAGGG''{{{'",
"(((''JGDGGGGGGGGGGGFFGGGJ{{{['JDGGFAB/////^///^/BAAB//////('[[_/",
"////)//SAGGGGGGGGGGFFGJ'{{[[[[['AFB////^/^~~^^^^/////^/////((///",
"/////////SBGFFGFGGGFJ'{{[[_(/(/(//////~^^~QbQQbb~/////////(/////",
"///////BDAGGBBBSGFDJ'[[[_/////^/////~bbbQQzQzQdQb///////////////",
"///////AAAAB/AAAA///////(////////^QQxxxxxbbbxxQ~/^/^^^//////^/^/",
"///////B/////BAA////////(////////^~QQbbxQ~^~bx~//~~QbN^^/~////^/",
"//////////////////^////////////^//^^^^~b~//~bb~^!bzdbb/Mbb~^^^//",
"/^^^//~N//~/////^////////////^^^/////^^b~~!QzzzzdyqiZAAAbbbbQ^^^",
"~QbMAAMbbbbbbb~~//////////^^~Qbb~///^^bxbQxldq00q9quZGGGZMbbQbb~",
"QQMZDGAbbbbbbzbQ~///////^^bbbbzbQ!^~bbxxxxdr00qrqpmZFGGGFAFZbbbb",
"bMZGGGGFAAAZMbbbb~^////~~QbzbMbMbbQxxxxxxzr99rzVZZGGGGGGGGGFAAZM",
"ZZGGGGGGGFFFAZbbxxQ~^^/MQbbMZZZFZMbbxMbbxxirumAGGHJJGJJGGGGGGGGA",
"GGGGGGGGGGGGGFFZMbbMMMAAAAFDGGGAGAFAAAAAFAZZZJJJ{{{{{[[[`GGGAGGG",
"GGGGGGGGGGGFGGGGHAAAAAGGGGGGGGHJJGJGGJGJJJGJ{[{{'[[[[[[//////GGA",
"AGGGFAGGGFGFGJJ'{{JJGGGGGFJGJJ''''''''{{[[[[[[[[_/((/(//////////",
"//B//BBGFFFFG'''[[''JGGGFFJ'['[[___(/_[[[[['_(//(//////^////////",
"/////AGGJB////_/((/[]JGGGG`[[(((//////((((((///////^^^^^^///////",
"/////AGGGA////////(_''JGGD)/(^///////////^/////~/~~bbbQ~//~///^/",
"/////BAGAB/////////////////////^////////////~^~QbbbbbMMbbbM///^^",
"///////B////(///////////////^//////////////~QQbxxxxbZFZFAFAAZbQQ"
};
