/* XPM */
static char *_54efaede04b4e73a3f36557401a8157[] = {
/* columns rows colors chars-per-pixel */
"64 64 14 1 ",
"  c #DEC87E",
". c #F1DA84",
"X c #F8F273",
"o c #FEFA9D",
"O c #3B324A",
"+ c #377172",
"@ c #292333",
"# c #4FA4A5",
"$ c #A2A29A",
"% c #9E907F",
"& c #ECECE0",
"* c #E6D1B8",
"= c #A5965B",
"- c #988956",
/* pixels */
"   ............   .......................       XXXXXXXXXXXXXXX ",
"      ...    XXX    .    ......               XXXXXXXXXXXXXXXXX ",
"XX         XXXXXXXX....                    XXXXXXXXXXXXXXXXXXXXX",
"XXXX     XXXXXXXXXX......       ...XXXXXXXXXXXXXXXXXXXXXXXXXXXXX",
"oXXXXXXXXXXXXXX..................XXXXXXXXXXXXXXXXXXXXXXXXXXXoooo",
"ooooXXXXXXXXXX......    .......XXXXXXXXXXXXXXXXXXXXXXXXXXooooooo",
"..oooXXXXXXXXXXX.....    .....XXXXXXXXXXXXXXXXXXX...............",
"...oooooooXXXXXX.............XXXXXXXXXXXXXXXX...XXXXX...........",
".........oooo................XXXXXXXXXXXXXX...XXXXXXX...........",
"......................    .....XXXXXXXXXXX....XXXXX.............",
"................           .........XXX.......XXXX..............",
"    ............         ... ....................     .....     ",
"X    .............        ..  O................         ..    XX",
"XXXXXXX    ..........       ..O.............     XXXXXXXXXXXXXXX",
"XXXXXXXXX      ....           OO...........    XXXXXXXXXXXXXXXXX",
"XXXXXXXXXXX                   OO   ...        XXXXXXXXoooooXXXXX",
"XXXXXXXXXXXXXXX     XXXXXXXX OOO    .       XXXXXXXXooooooooXXXX",
".XXXXXXXXXXXXXXXXXXXXXXXXXXXXOOOO..........XXXXX.............XX.",
"....XXXXXXXXXoooooooooXXXXXXXOOOO...........XX............XXXXXX",
"X......XXXXXooooooooooooXXXXOOOOO...........................XXXX",
".......XXXXXX..............XOOOOOO..............................",
"........X..................+OOOOOO+@@@..      ..................",
".........................@@@++OOO#@@@@@@       .....         ...",
".......................@@@@@@@###@@@@@OOO    ....               ",
"......................@@@@@@@@@@@@OOOOOOO  ...         XXXXXXXXX",
"XX   .....     XXXXXXOO@@@@OOOOOOOOOOOOO.        XXXXXXXXXXXXXXX",
"             XXXXXXXXXOOOOOOOOOOOOOOOO        XXXXXXXXXXXXXXXXXX",
"XXX     ...XXXXXXXXXXXXOOOOOOOOOO++++         XXXXXXXXXXXXXXXXXX",
"XXXXX........XXXXXXXXooooo++++$@%$O##      XXXXXXXXXXXXoooooooXX",
"XXXX.........XXXXXoooooooo####&O*&O##XXXXXXXXXXXXXXXXooooooooooo",
"X.......    ..XXX.........####*****##XXXXXXXXXXXXXXXoooo........",
"......       ..............####@@@##XXXXXXXXXXXXXXXX............",
".  .....     ..............OOOOO@@@@XXXXXXXXXXXXXX..............",
".   ..     ...............OOOOOO@@@@XXXXXXXXXXX.................",
"....      ................OOOOOO@@@@@...XXXXX..XXX..............",
"...       ..   ..........OOOOOOO@@@@@.........XXX...............",
"          ..    .........OOOOOOOO@@@@X..........................",
"   XX      ..   .........OOOOOOOO@@@@..............       ..... ",
"XXXXXXXX    .............OOOOOOOO@@@@...........         XXXXXXX",
"XXXXXXXXX     ......     OOOOOOOO@@@@........        XXXXXXXXXXX",
"XXXXXXXXXXXXXXXX         OOOOOOOO@@@@ ...         XXXXXXXXXXXXXX",
"XXXXXXXXXXXXXXXXX       XOOOOOOO@@@@@        XXXXXXXXXXXXXXXXXXX",
"ooXXXXXXXXXXXXXXXXXXXXXXXOOOOOOO@@@@@  ......XXXXXXXXXXXXXXXXooo",
"oooooXXXXXXXXXXXXXXXXXXXXXOOOOOO@@@@@..........XXXXXXXXXXXoooooo",
"...ooXXXXXXXXXXXXXXXXXXXXooOOOO@@@@@.............XX........ooo..",
"........XXXXXXXXXXXXXXXoooo####o++++............................",
"...........XXXXXXXXXXooooo.=OO===@@=......      ................",
"........XXXX....XXXXoooo..==OO===@@==            ...............",
".......XXXX..XXXX.........========---          .................",
"..............XX...........========-     ...  .....  ...........",
"....................................... ....  ...     .   ......",
"....................................... ...         XXXX     ...",
".   XX        ...............   ......             XXXXXX      .",
"   XXXX         ..........       ...             XXXXXXXXXXX    ",
"  XXXXXXXXXX     ........                      XXXXXXXXXXXXXXXX ",
"XXXXXXXXXXXXXX     ....     XXXXX          XXXXXXXXXXXXXXXXXXXXX",
"XXXXXXXXXXXXXXXX      XXXXXXXXXXXXXXXXXXXXXXXXXXoooooooooXXXXXXX",
"XXXXXXXXXXXXXXXXXXXXXXXXXXXXXXXXXXXXXXXXXXXXooooooooooo......XXX",
"XXXXXXXXXXXXXXXoooXXXXXXXXXXXXoooooooooooooooooo................",
".......XXXXXXoooooooXXXXXXXooooo......oooooo....................",
".....XXXX..........ooXXXXXooo...................................",
".....XXXXX..........ooXXXX.........................    .........",
"......XXX......................................            .....",
"............................................        XXXXXXXXX   "
};
