/* XPM */
static char * player_floor_xpm[] = {
"64 64 5 1",
" 	c #DEC87E",
".	c #F1DA84",
"+	c #F8F273",
"@	c #FEFA9D",
"#	c #FFFFFF",
"   ............   .......................       +++++++++++++++ ",
"      ...    +++    .    ......               +++++++++++++++++ ",
"++         ++++++++....                    +++++++++++++++++++++",
"++++     ++++++++++......       ...+++++++++++++++++++++++++++++",
"@++++++++++++++..................+++++++++++++++++++++++++++@@@@",
"@@@@++++++++++......    .......++++++++++++++++++++++++++@@@@@@@",
"..@@@+++++++++++.....    .....+++++++++++++++++++...............",
"...@@@@@@@++++++.............++++++++++++++++...+++++...........",
".........@@@@................++++++++++++++...+++++++...........",
"......................    .....+++++++++++....+++++.............",
"................           .........+++.......++++..............",
"    ............         ... ....................     .....     ",
"+    .............        ..   ................         ..    ++",
"+++++++    ..........       .. .............     +++++++++++++++",
"+++++++++      ....             ...........    +++++++++++++++++",
"+++++++++++                        ...        ++++++++@@@@@+++++",
"+++++++++++++++     ++++++++        .       ++++++++@@@@@@@@++++",
".++++++++++++++++++++++++++++    ..........+++++.............++.",
"....+++++++++@@@@@@@@@+++++++    ...........++............++++++",
"+......+++++@@@@@@@@@@@@++++     ...........................++++",
".......++++++..............+      ..............................",
"........+..................           ..      ..................",
".........................                      .....         ...",
".......................                      ....               ",
"......................                     ...         +++++++++",
"++   .....     ++++++                   .        +++++++++++++++",
"             +++++++++                        ++++++++++++++++++",
"+++     ...++++++++++++                       ++++++++++++++++++",
"+++++........++++++++@@@@@                 ++++++++++++@@@@@@@++",
"++++.........+++++@@@@@@@@    # .#   ++++++++++++++++@@@@@@@@@@@",
"+.......    ..+++.........    .....  +++++++++++++++@@@@........",
"......       ..............         ++++++++++++++++............",
".  .....     ..............         ++++++++++++++..............",
".   ..     ...............          +++++++++++.................",
"....      ................           ...+++++..+++..............",
"...       ..   ..........            .........+++...............",
"          ..    .........            +..........................",
"   ++      ..   .........            ..............       ..... ",
"++++++++    .............            ...........         +++++++",
"+++++++++     ......                 ........        +++++++++++",
"++++++++++++++++                      ...         ++++++++++++++",
"+++++++++++++++++       +                    +++++++++++++++++++",
"@@+++++++++++++++++++++++              ......++++++++++++++++@@@",
"@@@@@+++++++++++++++++++++           ..........+++++++++++@@@@@@",
"...@@++++++++++++++++++++@@         .............++........@@@..",
"........+++++++++++++++@@@@    @    ............................",
"...........++++++++++@@@@@.         ......      ................",
"........++++....++++@@@@..                       ...............",
".......++++..++++.........                     .................",
"..............++...........              ...  .....  ...........",
"....................................... ....  ...     .   ......",
"....................................... ...         ++++     ...",
".   ++        ...............   ......             ++++++      .",
"   ++++         ..........       ...             +++++++++++    ",
"  ++++++++++     ........                      ++++++++++++++++ ",
"++++++++++++++     ....     +++++          +++++++++++++++++++++",
"++++++++++++++++      ++++++++++++++++++++++++++@@@@@@@@@+++++++",
"++++++++++++++++++++++++++++++++++++++++++++@@@@@@@@@@@......+++",
"+++++++++++++++@@@++++++++++++@@@@@@@@@@@@@@@@@@................",
".......++++++@@@@@@@+++++++@@@@@......@@@@@@....................",
".....++++..........@@+++++@@@...................................",
".....+++++..........@@++++.........................    .........",
"......+++......................................            .....",
"............................................        +++++++++   "};
