/* XPM */
static char *f6cabf3b87b4494cf2c282b10e413e8cqPGgPo3BAf0PAUTA[] = {
/* columns rows colors chars-per-pixel */
"64 64 26 1 ",
"  c #72751B",
". c #1C1F1C",
"X c #6E2749",
"o c #913C51",
"O c #787B21",
"+ c #310D35",
"@ c #7F8226",
"# c #571748",
"$ c #8C4B63",
"% c #1C1859",
"& c #C16A7D",
"* c #9C8C9C",
"= c #F2E9F2",
"- c #5078A1",
"; c #E5959F",
": c #230726",
"> c #2A6957",
", c gray56",
"< c #43153B",
"1 c #3B804D",
"2 c #676767",
"3 c #656C17",
"4 c #222028",
"5 c #343336",
"6 c gray45",
"7 c #AEAEAE",
/* pixels */
"                                                                ",
"                                                                ",
"                            ...........                         ",
"                            ...........                         ",
"                          ..XXooooooXXX..                       ",
"                          ..XXooooooXXX..                       ",
"                          ..XXooooooXXX..                       ",
"                          ...............                       ",
"                          ...............O                      ",
"                          ...............O                      ",
"                      ....++XX++++XX+++XX...@O                  ",
"                      ....++XX++++XX+++XX...@                   ",
"                    ..++++XX##++++XX###XXooo..                  ",
"                    ..++++XX##++++XX###XXooo..                  ",
"                    ..####++######+++++##XXX..                  ",
"                    ..####++######+++++##XXX..                  ",
"                    ..####++######+++++##XXX..                  ",
"                    ..####++######+++++##XXX..                  ",
"                    ..++++##oooooo##ooo++###..                  ",
"                    ..++++##oooooo##ooo++###..                  ",
"                  ....##############XXX##ooo..                  ",
"                  ....##############XXX##ooo..                  ",
"                  ....##############XXX##ooo..                  ",
"                  ..XXXXXX##++++++$$XXX++XXX....                ",
"                  ..XXXXXX##++++++$$XXX++XXX....                ",
"                  ..XXXXXX##++++++$$XXX++XXX....                ",
"                    ..++++++%%&&&&&&%%%**###XX..                ",
"                    ..++++++%%&&&&&&%%%**###XX..                ",
"                    ..XXXX==--;;;;;;---==+++..                  ",
"                    ..XXXX==--;;;;;;---==+++..                  ",
"                    ..XXXX&&;;;;;;;;;;;&&XXX..                  ",
"                    ..XXXX&&;;;;;;;;;;;&&XXX..                  ",
"                    ..XXXX&&;;;;;;;;;;;&&XXX..                  ",
"                      ......::>>>>>>>>>.....                    ",
"                      ......::>>>>>>>>>.....                    ",
"                    ..,,,,>><<111111111<<,,,..                  ",
"                    ..,,,,>><<111111111<<,,,..                  ",
"                    ..,,,,>><<111111111<<,,,..                  ",
"                  ..,,,,,,;;;;111111111;;;;;,,..                ",
"                  ..,,,,,,;;;;111111111;;;;;,,..                ",
"                  ..,,,,,,;;;;111111111;;;;;,,..         @      ",
"                  ..222222&&&&111111111&&&&&22..    @@O  OO     ",
"                  ..222222&&&&111111111&&&&&22..     @OO 3O  @  ",
"                  ..222222&&&&111111111&&&&&22..     3OOO3 OO3  ",
"           @        ......>>11111111111>>.....      @O3OO  OO3  ",
"      @@O  OO       ......>>11111111111>>.....      3OO3O  33   ",
"       @OO 3O  @      ....444455555555544...         3O33       ",
"       3OOO3 OO3      ....444455555555544...                    ",
"      @O3OO  OO3      ....444455555555544...                    ",
"      3OO3O  33       ....4455......44455...                    ",
"       3O33           ....4455......44455...                    ",
"                      ....4455......44455...                    ",
"                      ....4455......44455...                    ",
"                    ..&&&&;;..    ..444;;...                    ",
"                    ..&&&&;;..    ..444;;...                    ",
"                    ..444455......44555..                       ",
"                    ..444455......44555..                       ",
"                  ..666666..  ....44555..                       ",
"                  ..666666..  ....44555..   @@                  ",
"                  ..666666..  ....44555..  O@                   ",
"                  ..777777..  ....6666677...O                   ",
"                  ..777777..  ....6666677...3                   ",
"                                          33                    ",
"                                                                "
};
