/* XPM */
static char *e7ad3b585fca4a86ae93dc4aa6e4cdecPvA4qp8FW9mwAuGx[] = {
/* columns rows colors chars-per-pixel */
"64 64 75 1 ",
"  c #DEC87E",
". c #F1DA84",
"X c #F8F273",
"o c #FEFA9D",
"O c #3B324A",
"+ c #377172",
"@ c #292333",
"# c #4FA4A5",
"$ c #E3CD7D",
"% c #B09E64",
"& c #C8B471",
"* c #A5955E",
"= c #B2A065",
"- c #D8C37B",
"; c #83764B",
": c #BCAA6B",
"> c #9D9949",
", c #555327",
"< c #AAA64F",
"1 c #C5C05B",
"2 c #BFAD69",
"3 c #DDC879",
"4 c #7C794C",
"5 c #3A391B",
"6 c #9A9647",
"7 c #C5B26C",
"8 c #B3A262",
"9 c #C1AF6A",
"0 c #EBD481",
"q c #D8D586",
"w c #48472D",
"e c #3C3A25",
"r c #5D5433",
"t c #827547",
"y c #5E5534",
"u c #766B41",
"i c #CFBC72",
"p c #696741",
"a c #38331F",
"s c #524A2D",
"d c #837747",
"f c #D5C175",
"g c #D7C376",
"h c #AB9B5E",
"j c #D4CE62",
"k c #E6E06A",
"l c #998A53",
"z c #C9B572",
"x c #C5B170",
"c c #B5A367",
"v c #D3BF78",
"b c #797638",
"n c #635A36",
"m c #CDBA70",
"M c #BCAA67",
"N c #4C442B",
"B c #6D623D",
"V c #CEB975",
"C c #BDAA6C",
"Z c #AB9A5E",
"A c #877A4A",
"S c #E0CA7B",
"D c #8C7F50",
"F c #5C5334",
"G c #9D8D59",
"H c #AD9C62",
"J c #8B8840",
"K c #666430",
"L c #C1BD5A",
"P c #575536",
"I c #7C7A4D",
"U c #B4B16F",
"Y c #ECE892",
"T c #C6C37B",
"R c #A19E64",
/* pixels */
"   ............   .......................       XXXXXXXXXXXXXXX ",
"      ...    XXX    .    ......               XXXXXXXXXXXXXXXXX ",
"XX         XXXXXXXX....                    XXXXXXXXXXXXXXXXXXXXX",
"XXXX     XXXXXXXXXX......       ...XXXXXXXXXXXXXXXXXXXXXXXXXXXXX",
"oXXXXXXXXXXXXXX..................XXXXXXXXXXXXXXXXXXXXXXXXXXXoooo",
"ooooXXXXXXXXXX......    .......XXXXXXXXXXXXXXXXXXXXXXXXXXooooooo",
"..oooXXXXXXXXXXX.....    .....XXXXXXXXXXXXXXXXXXX...............",
"...oooooooXXXXXX.............XXXXXXXXXXXXXXXX...XXXXX...........",
".........oooo................XXXXXXXXXXXXXX...XXXXXXX...........",
"......................    .....XXXXXXXXXXX....XXXXX.............",
"................           ..O......XXX.......XXXX..............",
"    ............         ... OO..................     .....     ",
"X    .............        .. OOO...............         ..    XX",
"XXXXXXX    ..........       ..OO............     XXXXXXXXXXXXXXX",
"XXXXXXXXX      ....           OOO..........    XXXXXXXXXXXXXXXXX",
"XXXXXXXXXXX                   OOO  ...        XXXXXXXXoooooXXXXX",
"XXXXXXXXXXXXXXX     XXXXXXXX OOOO   .       XXXXXXXXooooooooXXXX",
".XXXXXXXXXXXXXXXXXXXXXXXXXXXOOOOOO.........XXXXX.............XX.",
"....XXXXXXXXXoooooooooXXXXX+OOOOOO+@@.......XX............XXXXXX",
"X......XXXXXooooooooooooXX@@++OOO#@@@@@@O...................XXXX",
".......XXXXXX...........@@@@@@###@@@@@OOOO......................",
"........X.............@@@@@@@@@@@@OOOOOOOO    ..................",
".....................OO@@@@@@OOOOOOOOOOOO      .....         ...",
"......................OOO@@OOOOOOOOOOOOO     ....               ",
".......................OOOOOOOOOO++++ ...  ...         XXXXXXXXX",
"XX   .....     XXXXXXX    ++++++++###  ..        XXXXXXXXXXXXXXX",
"             XXXXXXXXXXXXX###########         XXXXXXXXXXXXXXXXXX",
"XXX     ...XXXXXXXXXXXXXXXX#########          XXXXXXXXXXXXXXXXXX",
"XXXXX........XXXXXXXXoooooX####@@@##       XXXXXXXXXXXXoooooooXX",
"XXXX.........XXXXXoooooooooXOOOO@@@XXXXXXXXXXXXXXXXXXooooooooooo",
"X.......    ..XXX.........oOOOOO@@@@XXXXXXXXXXXXXXXXoooo........",
"......       .............OOOOOO@@@@XXXXXXXXXXXXXXXX............",
".  .....     .............OOOOOO@@@@@XXXXXXXXXXXXX..............",
".   ..     ..............OOOOOOOO@@@@XXXXXXXXXX.................",
"....      ...............OOOOOOOO@@@@...XXXXX..XXX..............",
"...       ..   ..........OOOOOOOO@@@@.........XXX...............",
"          ..    .........OOOOOOOO@@@@X..........................",
"   XX      ..   .........OOOOOOO@@@@@..............       ..... ",
"XXXXXXXX    ..............OOOOOO@@@@@...........         XXXXXXX",
"XXXXXXXXX     ......      OOOOOO@@@@$........        XXXXXXXXXXX",
"XXXXXXXXXXXXXXXX          OOOOOO@@@@%&...         XXXXXXXXXXXXXX",
"XXXXXXXXXXXXXXXXX       XXXOOOO@@@@@*=-      XXXXXXXXXXXXXXXXXXX",
"ooXXXXXXXXXXXXXXXXXXXXXXXXXOOOO@@@@@;%:......XXXXXXXXXXXXXXXXooo",
"oooooXXXXXXXXXXXXXXXXXXXXXXX##>,,++<1223.......XXXXXXXXXXXoooooo",
"...ooXXXXXXXXXXXXXXXXXXXXoo4##555++672890........XX........ooo..",
"........XXXXXXXXXXXXXXXooqwe##ee5++rtyu2i.......................",
"...........XXXXXXXXXXoooopaaaaaaaaaaasd2f.      ................",
"........XXXX..ghjkXXoooolssaaaaaaaaaszxcv        ...............",
".......XXXX..Xb,,nm..mmMnsssssssssNNBV         .................",
"..............,,ssnMnnsssssssssssssNC    ...  .....  ...........",
"..............ZssssssssssssssssssssZ... ....  ...     .   ......",
"...............nssssssssssssssssssZ.... ...         XXXX     ...",
".   XX        .AsssssssssssssNNNsuS...             XXXXXX      .",
"   XXXX        DssssssssssNFFNBNG...             XXXXXXXXXXX    ",
"  XXXXXXXXXX    FssssssssNNCVC V               XXXXXXXXXXXXXXXX ",
"XXXXXXXXXXXXXX CNNNssssNNNH XXXXX          XXXXXXXXXXXXXXXXXXXXX",
"XXXXXXXXXXXXXXkJNNNNNN,,,KjXXXXXXXXXXXXXXXXXXXXXoooooooooXXXXXXX",
"XXXXXXXXXXXXXXb,,,,,,,,,,jXXXXXXXXXXXXXXXXXXooooooooooo......XXX",
"XXXXXXXXXXXXXLKPIP,,,,,,,bXXXXoooooooooooooooooo................",
".......XXXXXXIPUoYTRJb,,,Kjooooo......oooooo....................",
".....XXXX...Ssn....ookbK,Kooo...................................",
".....XXXXX..MuS.....ooXLb>.........................    .........",
"......XXX................S.....................            .....",
"............................................        XXXXXXXXX   "
};
