/* XPM */
static char *d156d4c8867a4913e5109b014a4af2f7mEhREuKTQeiUlnxd[] = {
/* columns rows colors chars-per-pixel */
"64 64 165 2 ",
"   c #292333",
".  c #2E2936",
"X  c #2D2638",
"o  c #2E293B",
"O  c #312A3D",
"+  c #2B303E",
"@  c #3C3639",
"#  c #352D43",
"$  c #2E3643",
"%  c #2E3946",
"&  c #383046",
"*  c #373D45",
"=  c #3B324A",
"-  c #3A3E52",
";  c #41374C",
":  c #463C4D",
">  c #493F4E",
",  c #3A4556",
"<  c #3E4358",
"1  c #394B59",
"2  c #315158",
"3  c #34595F",
"4  c #3A5762",
"5  c #395A64",
"6  c #376B6E",
"7  c #39646A",
"8  c #376F71",
"9  c #3E6B73",
"0  c #377172",
"q  c #3F7370",
"w  c #4B404E",
"e  c #584E46",
"r  c #534A49",
"t  c #5B5148",
"y  c #535A4F",
"u  c #464452",
"i  c #4C4351",
"p  c #504651",
"a  c #594E54",
"s  c #5C5155",
"d  c #54585E",
"f  c #695E4D",
"g  c #635A4A",
"h  c #6A5D59",
"j  c #625859",
"k  c #6C634B",
"l  c #7D774D",
"z  c #6F6659",
"x  c #76695D",
"c  c #786C58",
"v  c #7C705C",
"b  c #445261",
"n  c #4C5460",
"m  c #586E63",
"M  c #4B766C",
"N  c #4F7A6F",
"B  c #52786B",
"V  c #407077",
"C  c #41737A",
"Z  c #537D70",
"A  c #6F6760",
"S  c #626962",
"D  c #7F7160",
"F  c #857759",
"G  c #837B5A",
"H  c #847561",
"J  c #877862",
"K  c #8B7C64",
"L  c #5B8474",
"P  c #6E8A74",
"I  c #7F8F70",
"U  c #709F7E",
"Y  c #8F875B",
"T  c #988956",
"R  c #92875B",
"E  c #978D5C",
"W  c #969D55",
"Q  c #9BA65D",
"!  c #AAA64F",
"~  c #A8A651",
"^  c #BFBA58",
"/  c #8E8D62",
"(  c #988961",
")  c #918266",
"_  c #80986D",
"`  c #839262",
"'  c #A59465",
"]  c #A39A63",
"[  c #AD9D63",
"{  c #A2916B",
"}  c #A9976D",
"|  c #AA986C",
" . c #A19F6D",
".. c #B19F64",
"X. c #98A661",
"o. c #AFA863",
"O. c #AEAC6C",
"+. c #ACA663",
"@. c #BDAB6D",
"#. c #B4A867",
"$. c #BBB466",
"%. c #A5A171",
"&. c #B6A471",
"*. c #BBA973",
"=. c #C2BD5A",
"-. c #C3BD64",
";. c #C3BD68",
":. c #C1AE75",
">. c #C4B076",
",. c #CAB675",
"<. c #CCB874",
"1. c #CBB778",
"2. c #CEBA79",
"3. c #D2BD7A",
"4. c #CDC768",
"5. c #D0CA67",
"6. c #DED867",
"7. c #D9D367",
"8. c #DCC67D",
"9. c #DEC87E",
"0. c #D4C27D",
"q. c #CCD574",
"w. c #E1DB6E",
"e. c #DAE47C",
"r. c #ECE873",
"t. c #F2ED72",
"y. c #F6F072",
"u. c #F8F273",
"i. c #467D83",
"p. c #497E87",
"a. c #3F8182",
"s. c #4A8A90",
"d. c #469192",
"f. c #4F9896",
"g. c #4D9498",
"h. c #47888C",
"j. c #629D90",
"k. c #5CA29A",
"l. c #57A49D",
"z. c #6DA489",
"x. c #77A28B",
"c. c #64AA9E",
"v. c #66A493",
"b. c #7DB098",
"n. c #73A998",
"m. c #4FA4A5",
"M. c #52A5A4",
"N. c #80B098",
"B. c #81BDA3",
"V. c #C2BD82",
"C. c #9BC78E",
"Z. c #B4C690",
"A. c #B7D486",
"S. c #97C7A2",
"D. c #B1D4A1",
"F. c #D8CC84",
"G. c #C0D883",
"H. c #DFDC8A",
"J. c #E4CE80",
"K. c #EBD482",
"L. c #E6D686",
"P. c #F1DA84",
"I. c #DCE99F",
"U. c #F9F59B",
"Y. c #FEFA9D",
/* pixels */
"9.9.9.P.P.P.P.P.P.P.P.P.P.P.P.9.9.9.P.P.P.P.P.P.P.P.P.P.P.P.P.P.P.P.P.P.P.P.P.P.P.9.9.9.9.9.9.9.u.u.u.u.u.u.u.u.u.u.u.u.u.u.u.9.",
"9.9.9.9.9.9.P.P.P.9.9.9.9.u.u.u.9.9.9.9.P.9.9.9.9.P.P.P.P.P.P.9.9.9.9.9.9.9.9.9.9.9.9.9.9.9.u.u.u.u.u.u.u.u.u.u.u.u.u.u.u.u.u.9.",
"u.u.9.9.9.9.9.9.9.9.9.u.u.u.u.u.u.u.u.P.P.P.P.9.9.9.9.9.9.9.9.9.9.9.9.9.9.9.9.9.9.9.9.u.u.u.u.u.u.u.u.u.u.u.u.u.u.u.u.u.u.u.u.u.",
"u.u.u.u.9.9.9.9.9.u.u.u.u.u.u.u.u.u.u.P.P.P.P.P.P.9.9.9.9.9.9.9.P.P.P.u.u.u.u.u.u.u.u.u.u.u.u.u.u.u.u.u.u.u.u.u.u.u.u.u.u.u.u.u.",
"Y.u.u.u.u.u.u.u.u.u.u.u.u.u.u.P.P.P.P.P.P.P.P.P.P.P.P.P.P.K.J.P.P.u.u.u.u.u.u.u.u.u.u.u.u.u.u.u.u.u.u.u.u.u.u.u.u.u.u.u.Y.Y.Y.Y.",
"Y.Y.Y.Y.u.u.u.u.u.u.u.u.u.u.P.P.P.P.P.P.9.9.9.9.P.P.P.P.P.{ J t.u.u.u.u.u.u.u.u.u.u.u.u.u.u.u.u.u.u.u.u.u.u.u.u.u.Y.Y.Y.Y.Y.Y.Y.",
"P.P.Y.Y.Y.u.u.u.u.u.u.u.u.u.u.u.P.P.P.P.P.9.9.9.9.P.P.P.P.K r E 7.u.u.u.u.u.u.u.u.u.u.u.u.u.u.u.u.P.P.P.P.P.P.P.P.P.P.P.P.P.P.P.",
"P.P.P.Y.Y.Y.Y.Y.Y.Y.u.u.u.u.u.u.P.P.P.P.P.P.P.P.P.P.P.P.P.Y = = ] w.u.u.u.u.u.u.u.u.u.u.u.P.P.P.u.u.u.u.u.P.P.P.P.P.P.P.P.P.P.P.",
"P.P.P.P.P.P.P.P.P.Y.Y.Y.Y.P.P.P.P.P.P.P.P.P.P.P.P.P.P.P.P.Y = = : Y u.u.u.u.u.u.u.u.u.P.P.P.u.u.u.u.u.u.u.P.P.P.P.P.P.P.P.P.P.P.",
"P.P.P.P.P.P.P.P.P.P.P.P.P.P.P.P.P.P.P.P.P.P.9.9.9.9.P.P.P.1.K = = G u.u.u.u.u.u.u.u.P.P.P.P.u.u.u.u.u.P.P.P.P.P.P.P.P.P.P.P.P.P.",
"P.P.P.P.P.P.P.P.P.P.P.P.P.P.P.P.9.9.9.9.9.9.9.9.9.9.9.P.P.P.:.; = h *.J.u.u.u.P.P.P.P.P.P.P.u.u.u.u.P.P.P.P.P.P.P.P.P.P.P.P.P.P.",
"9.9.9.9.P.P.P.P.P.P.P.P.P.P.P.P.9.9.9.9.9.9.9.9.9.P.P.P.9.P.:.; = = w 1.P.P.P.P.P.P.P.P.P.P.P.P.P.9.9.9.9.9.P.P.P.P.P.9.9.9.9.9.",
"u.9.9.9.9.P.P.P.P.P.P.P.P.P.P.P.P.P.9.9.9.9.9.9.9.9.P.P.9.9.:.; = = w 1.P.P.P.P.P.P.P.P.P.P.P.9.9.9.9.9.9.9.9.9.P.P.9.9.9.9.u.u.",
"u.u.u.u.u.u.u.9.9.9.9.P.P.P.P.P.P.P.P.P.P.9.9.9.9.9.9.9.P.>.J = = = w 1.P.P.P.P.P.P.P.P.9.9.9.9.9.u.u.u.u.u.u.u.u.u.u.u.u.u.u.u.",
"u.u.u.u.u.u.u.u.u.9.9.9.9.9.9.P.P.P.P.9.9.9.9.9.9.9.9.8.1.x = = = = > &.J.P.P.P.P.P.P.9.9.9.9.u.u.u.u.u.u.u.u.u.u.u.u.u.u.u.u.u.",
"u.u.u.u.u.u.u.u.u.u.u.9.9.9.9.9.9.9.9.9.9.9.9.9.9.9.9.1.h : = = = = = p { P.9.9.9.9.9.9.9.9.u.u.u.u.u.u.u.u.Y.Y.Y.Y.Y.u.u.u.u.u.",
"u.u.u.u.u.u.u.u.u.u.u.u.u.u.u.9.9.9.9.9.u.u.u.u.u.u.q._ u = = = = = = = S I v c ( 9.9.9.u.u.u.u.u.u.u.u.Y.Y.Y.Y.Y.Y.Y.Y.u.u.u.u.",
"P.u.u.u.u.u.u.u.u.u.u.u.u.u.u.u.u.u.u.u.u.u.u.u.y.5.` 3 , , - = = = = 1 4 2 X   e @.@.-.-.;.w.u.P.P.P.P.P.P.P.P.P.P.P.P.P.u.u.P.",
"P.P.P.P.u.u.u.u.u.u.u.u.u.Y.Y.Y.Y.Y.Y.Y.Y.Y.u.u.t.g . + 7 8 5 = = = - s.7         . . . O = { P.P.P.P.P.P.P.P.P.P.P.u.u.u.u.u.u.",
"u.P.P.P.P.P.P.u.u.u.u.u.Y.Y.Y.Y.Y.Y.Y.Y.Y.Y.%.z k @     % % 2 p.p.p.i.4 %           O # # = s x P.P.P.P.P.P.P.P.P.P.P.P.u.u.u.u.",
"P.P.P.P.P.P.P.u.u.u.u.u.u.P.P.P.P.P.P.1.' ' e               % V C C 9 $ . O O O O O & = = = = = P.P.P.P.P.P.P.P.P.P.P.P.P.P.P.P.",
"P.P.P.P.P.P.P.P.u.P.P.P.P.P.P.P.P.P.J.F                                 O = = = = = = = = = : w P.P.P.P.P.P.P.P.P.P.P.P.P.P.P.P.",
"P.P.P.P.P.P.P.P.P.P.P.P.P.P.P.P.P.J.v w #                 O # # # # # # = = = = = = = = = = H 1.P.P.P.P.9.9.9.9.9.9.9.9.9.P.P.P.",
"P.P.P.P.P.P.P.P.P.P.P.P.P.P.P.P.P.K.} h = O O o     X O O # = = = = = = = = = = = = = = : J 1.P.P.9.9.9.9.9.9.9.9.9.9.9.9.9.9.9.",
"P.P.P.P.P.P.P.P.P.P.P.P.P.P.P.P.P.P.P.} a = = # X X # = = = = = = = = - - - - - u s s j x 8.9.9.9.9.9.9.9.9.9.u.u.u.u.u.u.u.u.u.",
"u.u.9.9.9.P.P.P.P.P.9.9.9.9.9.u.u.u.u.t.;.w = = = = = = = = = = = = = 5 6 6 6 6 P 2.2.2.3.8.9.9.9.u.u.u.u.u.u.u.u.u.u.u.u.u.u.u.",
"9.9.9.9.9.9.9.9.9.9.9.9.9.u.u.u.u.u.u.u.r.$.o.o.+.m 5 5 5 5 5 5 5 5 5 6 a.d.d.d.x.9.9.9.9.9.u.u.u.u.u.u.u.u.u.u.u.u.u.u.u.u.u.u.",
"u.u.u.9.9.9.9.9.P.P.P.u.u.u.u.u.u.u.u.u.u.u.u.u.t.U a.a.a.a.a.a.a.a.a.a.d.m.m.m.b.9.9.9.9.9.u.u.u.u.u.u.u.u.u.u.u.u.u.u.u.u.u.u.",
"u.u.u.u.u.P.P.P.P.P.P.P.P.u.u.u.u.u.u.u.u.Y.Y.Y.U.B.M.m.m.m.m.m.m.m.m.m.m.m.m.M.N.9.9.u.u.u.u.u.u.u.u.u.u.u.u.Y.Y.Y.Y.Y.Y.Y.u.u.",
"u.u.u.u.P.P.P.P.P.P.P.P.P.u.u.u.u.u.Y.Y.Y.Y.Y.Y.Y.I.S.m.m.m.m.m.m.m.m.m.m.m.m.C.e.u.u.u.u.u.u.u.u.u.u.u.u.Y.Y.Y.Y.Y.Y.Y.Y.Y.Y.Y.",
"u.P.P.P.P.P.P.P.9.9.9.9.P.P.u.u.u.P.P.P.P.P.P.P.P.P.D.m.m.m.m.m.i.9 9 9 h.m.m.A.u.u.u.u.u.u.u.u.u.u.u.u.Y.Y.Y.Y.P.P.P.P.P.P.P.P.",
"P.P.P.P.P.P.9.9.9.9.9.9.9.P.P.P.P.P.P.P.P.P.P.P.P.P.Z.c.f.g.g.g.1       5 f.c.G.u.u.u.u.u.u.u.u.u.u.u.u.P.P.P.P.P.P.P.P.P.P.P.P.",
"P.9.9.P.P.P.P.P.9.9.9.9.9.P.P.P.P.P.P.P.P.P.P.P.P.P.L.V.d < < < = O     o y q.t.u.u.u.u.u.u.u.u.u.u.P.P.P.P.P.P.P.P.P.P.P.P.P.P.",
"P.9.9.9.P.P.9.9.9.9.9.P.P.P.P.P.P.P.P.P.P.P.P.P.P.P.>.H : = = = = #       @ l 4.u.u.u.u.u.u.u.P.P.P.P.P.P.P.P.P.P.P.P.P.P.P.P.P.",
"P.P.P.P.9.9.9.9.9.9.P.P.P.P.P.P.P.P.P.P.P.P.P.P.P.2.J = = = = = = #           ' u.u.u.u.u.P.P.u.u.u.P.P.P.P.P.P.P.P.P.P.P.P.P.P.",
"P.P.P.9.9.9.9.9.9.9.P.P.9.9.9.P.P.P.P.P.P.P.P.P.K.z = = = = = = = #           ' P.P.P.P.P.P.u.u.u.P.P.P.P.P.P.P.P.P.P.P.P.P.P.P.",
"9.9.9.9.9.9.9.9.9.9.P.P.9.9.9.9.P.P.P.P.P.P.P.P.K.h = = = = = = = #           r R P.P.P.P.P.P.P.P.P.P.P.P.P.P.P.P.P.P.P.P.P.P.P.",
"9.9.9.u.u.9.9.9.9.9.9.P.P.9.9.9.P.P.P.P.P.P.P.8.} a = = = = = = = # o           f P.P.P.P.P.P.P.P.P.P.9.9.9.9.9.9.9.P.P.P.P.P.9.",
"u.u.u.u.u.u.u.u.9.9.9.9.P.P.P.P.P.P.P.P.P.P.P.&.= = = = = = = = = = = X         f P.P.P.P.P.P.P.9.9.9.9.9.9.9.9.9.u.u.u.u.u.u.u.",
"u.u.u.u.u.u.u.u.u.9.9.9.9.9.P.P.P.P.P.P.9.9.9.| = = = = = = = = = = = X         f P.P.P.P.9.9.9.9.9.9.9.9.u.u.u.u.u.u.u.u.u.u.u.",
"u.u.u.u.u.u.u.u.u.u.u.u.u.u.u.u.9.9.9.9.9.9.9.| = = = = = = = = = = = X         f 9.9.9.9.9.9.9.9.9.u.u.u.u.u.u.u.u.u.u.u.u.u.u.",
"u.u.u.u.u.u.u.u.u.u.u.u.u.u.u.u.u.9.9.9.9.9.9.| = = = = = = = = = = = X         g 9.9.9.9.u.u.u.u.u.u.u.u.u.u.u.u.u.u.u.u.u.u.u.",
"Y.Y.u.u.u.u.u.u.u.u.u.u.u.u.u.u.u.u.u.u.u.u.u.$.= = = = = = = = = = = X         f P.P.P.P.u.u.u.u.u.u.u.u.u.u.u.u.u.u.u.u.Y.Y.Y.",
"Y.Y.Y.Y.Y.u.u.u.u.u.u.u.u.u.u.u.u.u.u.u.u.u.u.$.= = = = = = = = = # o           f P.P.P.P.P.P.u.u.u.u.u.u.u.u.u.u.u.Y.Y.Y.Y.Y.Y.",
"P.P.P.Y.Y.u.u.u.u.u.u.u.u.u.u.u.u.u.u.u.u.u.u.4.c i = = = = = = = #             f P.P.P.P.P.P.P.P.u.u.P.P.P.P.P.P.P.P.Y.Y.Y.P.P.",
"P.P.P.P.P.P.P.P.u.u.u.u.u.u.u.u.u.u.u.u.u.u.u.Y.U.A = = = = = = = #           . k P.P.P.P.P.P.P.P.P.P.P.P.P.P.P.P.P.P.P.P.P.P.P.",
"P.P.P.P.P.P.P.P.P.P.P.u.u.u.u.u.u.u.u.u.u.Y.Y.Y.U.A = = = = = = = #           F <.P.9.9.9.9.9.9.P.P.P.P.P.P.P.P.P.P.P.P.P.P.P.P.",
"P.P.P.P.P.P.P.P.u.u.u.u.P.P.P.P.u.u.u.u.Y.Y.Y.Y.K.h = = = = = = = #           ( 9.9.9.9.9.9.9.9.9.P.P.P.P.P.P.P.P.P.P.P.P.P.P.P.",
"P.P.P.P.P.P.P.u.u.u.u.P.P.u.u.u.u.P.P.P.P.P.P.P.K.D w = = = = = = O           ( 9.9.9.9.9.9.9.P.P.P.P.P.P.P.P.P.P.P.P.P.P.P.P.P.",
"P.P.P.P.P.P.P.P.P.P.P.P.P.P.u.u.P.P.P.P.P.P.P.P.P.9.) = = = = = O             ( 9.P.P.P.9.9.P.P.P.P.P.9.9.P.P.P.P.P.P.P.P.P.P.P.",
"P.P.P.P.P.P.P.P.P.P.P.P.P.P.P.P.P.P.P.P.P.P.P.P.P.P.{ = = = = = o             ( P.P.P.P.9.9.P.P.P.9.9.9.9.9.P.9.9.9.P.P.P.P.P.P.",
"P.P.P.P.P.P.P.P.P.P.P.P.P.P.P.P.P.P.P.P.P.P.P.P.P.P.&.j b b n h g t t * $ * t | P.P.P.9.9.9.9.9.9.9.9.9.u.u.u.u.9.9.9.9.9.P.P.P.",
"P.9.9.9.u.u.9.9.9.9.9.9.9.9.P.P.P.P.P.P.P.P.P.P.P.P.K.F.c.m.n.0.K.K.F.L 8 L 2.8.9.9.9.9.9.9.9.9.9.9.9.u.u.u.u.u.u.9.9.9.9.9.9.P.",
"9.9.9.u.u.u.u.9.9.9.9.9.9.9.9.9.P.P.P.P.P.P.P.P.P.P.<. .k.m.v.[ [ @.#.Z 0 N ] <.9.9.9.9.9.9.9.9.9.u.u.u.u.u.u.u.u.u.u.u.9.9.9.9.",
"9.9.u.u.u.u.u.u.u.u.u.u.9.9.9.9.9.P.P.P.P.P.P.P.P.<.../ k.m.j.E T T R M 0 M Y #.<.9.9.9.9.9.9.u.u.u.u.u.u.u.u.u.u.u.u.u.u.u.u.9.",
"u.u.u.u.u.u.u.u.u.u.u.u.u.u.9.9.9.9.9.P.P.P.P.9.8.[ T / v.l.z.~ ! T R B q B R T [ 9.9.u.u.u.u.u.u.u.u.u.u.u.u.u.u.u.u.u.u.u.u.u.",
"u.u.u.u.u.u.u.u.u.u.u.u.u.u.u.u.9.9.9.9.9.9.u.u.y.^ ! ~ Q X.Q ! ! ! ~ W W W ~ ! =.u.u.u.u.u.u.u.Y.Y.Y.Y.Y.Y.Y.Y.Y.u.u.u.u.u.u.u.",
"u.u.u.u.u.u.u.u.u.u.u.u.u.u.u.u.u.u.u.u.u.u.u.u.y.7.=.! ! ! ! ! ! ! ! ! ! ! ! =.6.u.u.u.Y.Y.Y.Y.Y.Y.Y.Y.Y.Y.Y.P.P.P.P.P.P.u.u.u.",
"u.u.u.u.u.u.u.u.u.u.u.u.u.u.u.Y.Y.Y.u.u.u.u.u.u.u.u.7.! ! ! O.O.O.O.O.O.O.O.O.H.Y.Y.Y.Y.Y.Y.Y.Y.P.P.P.P.P.P.P.P.P.P.P.P.P.P.P.P.",
"P.P.P.P.P.P.P.u.u.u.u.u.u.Y.Y.Y.Y.Y.Y.Y.u.u.u.u.u.u.u.Y.Y.Y.Y.Y.P.P.P.P.P.P.Y.Y.Y.Y.Y.Y.P.P.P.P.P.P.P.P.P.P.P.P.P.P.P.P.P.P.P.P.",
"P.P.P.P.P.u.u.u.u.P.P.P.P.P.P.P.P.P.P.Y.Y.u.u.u.u.u.Y.Y.Y.P.P.P.P.P.P.P.P.P.P.P.P.P.P.P.P.P.P.P.P.P.P.P.P.P.P.P.P.P.P.P.P.P.P.P.",
"P.P.P.P.P.u.u.u.u.u.P.P.P.P.P.P.P.P.P.P.Y.Y.u.u.u.u.P.P.P.P.P.P.P.P.P.P.P.P.P.P.P.P.P.P.P.P.P.P.P.P.P.9.9.9.9.P.P.P.P.P.P.P.P.P.",
"P.P.P.P.P.P.u.u.u.P.P.P.P.P.P.P.P.P.P.P.P.P.P.P.P.P.P.P.P.P.P.P.P.P.P.P.P.P.P.P.P.P.P.P.P.P.P.9.9.9.9.9.9.9.9.9.9.9.9.P.P.P.P.P.",
"P.P.P.P.P.P.P.P.P.P.P.P.P.P.P.P.P.P.P.P.P.P.P.P.P.P.P.P.P.P.P.P.P.P.P.P.P.P.P.P.P.P.P.P.9.9.9.9.9.9.9.9.u.u.u.u.u.u.u.u.u.9.9.9."
};
