/* XPM */
static char *_b255f3ce4ce4338c4cc6c29bfe3c808xCiq1V5jnbDJhgSP[] = {
/* columns rows colors chars-per-pixel */
"48 64 26 1 ",
"  c None",
". c black",
"X c #6E2749",
"o c #913C51",
"O c #120317",
"+ c #310D35",
"@ c #571748",
"# c #8C4B63",
"$ c #1C1859",
"% c #C16A7D",
"& c #9C8C9C",
"* c #F2E9F2",
"= c #5078A1",
"- c #E5959F",
"; c #230726",
": c #2A6957",
"> c #676767",
", c #43153B",
"< c #3B804D",
"1 c gray56",
"2 c #222028",
"3 c #343336",
"4 c gray45",
"5 c #515151",
"6 c #AEAEAE",
"7 c white",
/* pixels */
"                                                ",
"                                                ",
"                                                ",
"                                                ",
"                                                ",
"                                                ",
"                                                ",
"                                                ",
"                                                ",
"                                                ",
"                                                ",
"                                                ",
"                                                ",
"                                                ",
"                                                ",
"                                                ",
"                                                ",
"                                                ",
"                                                ",
"                                                ",
"                      ....                      ",
"                     .XooX.                     ",
"                     .OOOO.                     ",
"                    .+X+X+X.                    ",
"                   .+X@+X@Xo.                   ",
"                   .@+@@++@X.                   ",
"                   .+@oo@o+@.                   ",
"                  ..@@@@@X@o.                   ",
"                  .XX@++#X+X..                  ",
"                   .++$%%$&@X.                  ",
"                   .X*=--=*+.                   ",
"                   .X%----%X.                   ",
"                    ..;::;..                    ",
"                   .>:,<<,:1.                   ",
"                  .>1:,<<,:>1.                  ",
"                  .%-,:<<:,>1.                  ",
"                  .%-:<<<<:%-.                  ",
"                   ..233333..                   ",
"                    .%-..2-.                    ",
"                     .45.23.                    ",
"                     .66.66.                    ",
"                        .44.                    ",
"                         ..                     ",
"                                                ",
"                                                ",
"                                                ",
"                                                ",
"                                                ",
"                                                ",
"                                                ",
"                                                ",
"                                                ",
"                                                ",
"                                                ",
"                                                ",
"                                                ",
"                                                ",
"                                                ",
"                                                ",
"                                                ",
"                                                ",
"                                                ",
"                                                ",
"                                                "
};
