/* XPM */
static char *_3a0441892d64d4b93b1b45f1a2929b1UW2yrtfz703JtHat[] = {
/* columns rows colors chars-per-pixel */
"64 64 35 1 ",
"  c black",
". c #583724",
"X c #94928B",
"o c #868579",
"O c #56341F",
"+ c #37190F",
"@ c #79766B",
"# c #918F87",
"$ c #8F8E85",
"% c #6B6256",
"& c #654935",
"* c #573723",
"= c #908E85",
"- c #908E86",
"; c #908F86",
": c #918F86",
"> c #56341E",
", c #573521",
"< c None",
"1 c #583824",
"2 c #56351F",
"3 c #573722",
"4 c #583622",
"5 c #55321C",
"6 c #55341E",
"7 c #6F6050",
"8 c #6C5847",
"9 c #6D5A4B",
"0 c #736E63",
"q c #747064",
"w c #746F63",
"e c #736E62",
"r c #746F64",
"t c #8F8D85",
"y c #8F8D84",
/* pixels */
"                                                .XoooooO++      ",
"                                                .XoooooO++      ",
"                                                .XoooooO++      ",
"                                                .XoooooO++      ",
"                                                .XoooooO++      ",
"                                                .XoooooO++      ",
"                                                .XoooooO++      ",
"                                                .XoooooO++      ",
"                                                .@#ooooO++      ",
"                                                .@@$$ooO++      ",
"                                                .@%%%$$O++      ",
"                                                .%%OO&&O++      ",
"                                                *OOooooO++      ",
"                                                .XoooooO++      ",
"                                                .XoooooO++      ",
"                                                .XoooooO++      ",
"                                                .XoooooO++      ",
"                                                .XoooooO++      ",
"                                                .XoooooO++      ",
"                                                .XoooooO++      ",
"                                                .XoooooO++      ",
"                                                .XoooooO++      ",
"                                                .XoooooO++      ",
"                                                .XoooooO++      ",
"                                                .XoooooO++      ",
"                                                .XoooooO++      ",
"                                                .X=-;:->++      ",
"                                                .,&&&&><++      ",
"                                                1Xooooo2++      ",
"                                                1Xooooo3++      ",
"                                                4Xooooo5++      ",
"                                                OXooooo6++      ",
"                                                .XoooooO++      ",
"                                                .XoooooO++      ",
"                                                .XoooooO++      ",
"                                                .XoooooO++      ",
"                                                .XoooooO++      ",
"                                                .XoooooO++      ",
"                                                .XoooooO++      ",
"                                                .XoooooO++      ",
"                                                .XooooXO++      ",
"                                                .XooXX7O++      ",
"                                                .XXX890O++      ",
"                                                .,&&qweO++      ",
"                                                .XooOr%O++      ",
"                                                .XoooO%O++      ",
"                                                .XoooO%O++      ",
"                                                .XooooOO++      ",
"                                                .XoooooO++      ",
"                                                .XoooooO++      ",
"                                                .XoooooO++      ",
"                                                .XoooooO++      ",
"                                                .XoooooO++      ",
"                                                .XoooooO++      ",
"                                                .XoooooO++      ",
"                                                .XoooooO++      ",
"                                                .XoooooO++      ",
"                                                .XoooooO++      ",
"                                                .X=tyyt>++      ",
"                                                .,&&&&><++      ",
"                                                1Xooooo2++      ",
"                                                1Xooooo3++      ",
"                                                4Xooooo5++      ",
"                                                OXooooo6++      "
};
