/* XPM */
static char *result[] = {
/* columns rows colors chars-per-pixel */
"64 64 54 1 ",
"  c #4C2711",
". c #4E2812",
"X c #4F2D1A",
"o c #512C16",
"O c #502E1A",
"+ c #52311D",
"@ c #5A371E",
"# c #5B381F",
"$ c #533421",
"% c #593622",
"& c #5C3C26",
"* c #573E2E",
"= c #5D3D29",
"- c #656C17",
"; c #72751B",
": c #5F402D",
"> c #61422E",
", c #614533",
"< c #634836",
"1 c #644B39",
"2 c #787B21",
"3 c #5A4E42",
"4 c #5E5246",
"5 c #5F5449",
"6 c #62574C",
"7 c #645A4F",
"8 c #645C51",
"9 c #676056",
"0 c #696156",
"q c #676158",
"w c #6B655B",
"e c #6E685E",
"r c #706256",
"t c #6F6A60",
"y c #726D63",
"u c #777066",
"i c #7A7267",
"p c #767269",
"a c #7A766B",
"s c #7E796E",
"d c #7E7A71",
"f c #80796F",
"g c #807D74",
"h c #7F8226",
"j c #848277",
"k c #868478",
"l c #89867A",
"z c #8A887A",
"x c #8D8B82",
"c c #918F86",
"v c #96938B",
"b c #99968E",
"n c #9D9991",
"m c #A09C94",
/* pixels */
";;;;;;;;;;;;;;;;;;;;;;;;;;;;;;;;;;;;;;;;;;;;;;;;;;;;;;;;;;;;;;;;",
";;;;;;;;;;;;;;;;;;;;;;;;;;;;;;;;;;;;;;;;;;;;;;;;;;;;;;;;;;;;;;;;",
";;;;;;;;;;;;;;;;;;;;;;;;;;;;;;;;;;;;;;;;;;;;;;;;;;;;;;;;;;;;;;;;",
";;;;;;;;;;;;;;;;;;;;;;;;;;;;;;;;;;;;;;;;;;;;;;;;;;;;;;;;;;;;;;;;",
";;;;;;;;;;;;;;;;;;;;;;;;;;;;;;;;;;;;;;;;;;;;;;;;;;;;;;;;;;;;;;;;",
";;;;;;;;;;;;;;;;;;;;;;;;;;;;;;;;;;;;;;;;;;;;;;;;;;;;;;;;;;;;;;;;",
";;;;;;;;;;;;;;;;;:,,,,,,,,<<<1<11111<<<<<<<<>,>;;;;;;;;;;;;;;;;;",
";;;;;;;;;;;;;;;;*xxxxxxxjjjjjjjjjjjjjjjjjjjjdxx%;;;;;;;;;;;;;;;;",
";;;;;;;;;;;;;;;&xxxxxxxdjjjkjjjjjjjjkgkgkkkkjjjx=;;;;;;;;;;;;;;;",
";;;;;;;;;;;;;;;&xxxxxxxjjjjkgjjjjjjjkgkkkgkgkkjx=;;;;;;;;;;;;;;;",
";;;;;;;;;;;;;=&xjjjjjjjjjjjgkjjjjjjggxxxxjkkkgkkx=;;;;;;;;;;;;;;",
";;;;;;;;;;;;>xxkjjjjjjjjjjjjjjjjjjjxxxxcxkkgkgkgdx*;;;;;;;;;;;;;",
";;;;;;;;;;;;>xxjjjjjjk778899wwwwqtwwww8w8qjjjjkkjx*;;;;;;;;;;;;;",
";;;;;;;;;;;;>xxjjjjj56&&%:=:::::=*:&==&:&=7jgjkgjx=;;;;;;;;;;;;;",
";;;;;;;;;;;;,xxjjkk5%#rruuuuuuuuypuuurrrrr@5kgkkgx=;;;;;;;;;;;;;",
";;;;;;;;;;;;,xxjkkj5@@rwuuuuuuuupyuuu8rrrr@6kkkkkx=;;;;;;;;;;;;;",
";;;;;;;;;;;;>zxkkkj@rrriuuuuuuuuuuuiuuuifrr@jjklkc&;;;;;;;;;;;;;",
";;;;;;;;;;;;>vckjjj@rruuuuuuuuuuaaaiuuuieef@kjkgkv=;;;;;;;;;;;;;",
";;;;;;;;;;;;>cckjjl@00iuuuuuaaaaaaaauiiiffe@kkkkkv=;;;;;;;;;;;;;",
";;;;;;;;;;;;>cclkkk@saaaauuuaaasaaaaaiiifef@kkkkkv=;;;;;;;;;;;;;",
";;;;;;;;;;;;>cckkkk#aiassaaaaasasssaaiiifii@kkkkkv=;;;;;;;;;;;;;",
";;;;;;;;;;;;>vvkkkk#sassadssfssssasssaiafri@llkkkv=;;;;;;;;;;;;;",
";;;;;;;;;;;;>vvkkkk#asssaassssssaasaaiifiii@lgglkv&;;;;;;;;;;;;;",
";;;;;;;;;;;;>vvlkkk#sssssssssffsjajsffiiiii@llzlkb&;;;;;;;;;;;;;",
";;;;;;;;;;;;>vvlkkl#ffsssffffffffsssafssiia%ckgllb&;;;;;;;;;;;;;",
";;;;;;;;;;;;>vvzzzl#assff0w0fgsfijsjfsssfia%xllzln:;;;;;;;;;;;;;",
";;;;;;;;;;;;>vbxzlll@@sfwrwwrwwrjafffsssfs@xxllzln>;;;;;;;;;;;;;",
";;;;;;;;;;;;>nncxllllz@@@####%%#@@#######@czclgzlb:;;;;;;;;;;;;;",
";;;;;;;;;;;;&nnxxzllll@@@#@@@@############cczlllln:;;;;;;;;;;;;;",
";;;;;;;;;;;;&mmxxlzzllllzzlzzzlzzlzzzzzzlcckzlllln=;;;;;;;;;;;;;",
";;;;;;;;;;;;:gfmzzzzzzzzzlzlzlzllzzlzzzzzzlzzlllb0o;;;;;;;;;;;;;",
";;;;;;;;;;;;&ssamzzzzlllzzllzlllzlzzzzzzlzzzlllnr0+;;;;;;;;;;;;;",
";;;;;;;;;;;;*pdpdnnnnnnbbnvvvvvvvvvvbvvbvvbvbnnqqrO;;;;;;;;;;;;;",
";;;;;;;;;;;;$pppvtppppppeeeeeeeeeasssatteetetttg77X;;;;;;;;;;;;;",
";;;;;;;;;;;;%apxeeppweteeeeeeeeeeeeeeetweeeeewttgro;;;;;;;;;;;;;",
";;;;;;;;;;;;.jgtewewewwteeeeeeeeeeeeeeeeeeeewtwwwg.;;;;;;;;;;;;;",
";;;;;;;;;;;; gjtwwtwwwtweeeeeeeetttteyeeeeeuuweewg.;;;;;;;;;;;;;",
";;;;;;;;;;;;Xddwwwwwww$$+++++o++OOO+OOOo++tttewwwg.;;;;;;;;;;;;;",
";;;;;;;;;;;; ddqqqwt$$14789770077788888878$turwwwpX;;;;;;;;;;;;;",
";;;;;;;;;;;; ddtttww$$34877778708788r8888q$tywwwwp.;;;;;;;;;;;;;",
";;;;;;;;;;;;.sptqwwO33388888787787888r8888r$twwwwp.;;;;;;h;;;;;;",
";;;;;;;;;;;;.ppwqwwO337887877707r8r88888888$wwwwwp.;hh2;;22;;;;;",
";;;;;;;;;;;;.ppwqwwO438788877070888876r7888$wwwqwu.;;h22;-2;;h;;",
";;;;;;;;;;;;.ppwwqw$66777777777787776667876$wqwqqu.;;-222-;22-;;",
";;;;;;;;;;;h ppqqqq$66466887888877666666776$rqwrqp ;h2-22;;22-;;",
";;;;;;hh2;;2 up9qqq$63448667885867666766776+qqw8qp ;-22-2;;--;;;",
";;;;;;;h22;-.uu90qq+54468858858576676666676%qwqwqp ;;-2--;;;;;;;",
";;;;;;;-222- te900qO55444888888866666667666Oq8qqqp.;;;;;;;;;;;;;",
";;;;;;h2-22;.tt9998+44445555885558555555555X8qqq8t ;;;;;;;;;;;;;",
";;;;;;-22-2;.ttq989+44444558585875555555555$8q88qp ;;;;;;;;;;;;;",
";;;;;;;-2--;.ttq898t$$43485555855455555455*qq8qq8t ;;;;;;;;;;;;;",
";;;;;;;;;;;;.ttq888t$$44455858554555545555*qq88qqp.;;;;;;;;;;;;;",
";;;;;;;;;;;;.teq8888py$++++OOO$XOoOOXXXXXXw8q8887t ;;;;;;;;;;;;;",
";;;;;;;;;;;; teww88888tttey0yettyyyyyyyytt8888887t ;;;;;;;;;;;;;",
";;;;;;;;;;;; ttwtw98888888889qqqww0www8888888888qtX;;;;;;;;;;;;;",
";;;;;;;;;;;;;  q999888588888h888888wwq8888888888q ;;;;;;;;;;;;;;",
";;;;;;;;;;;;;;; 0w88888888588877888888888888888t ;;;;;;;;;;;;;;;",
";;;;;;;;;;;;;;; 0988888888888888888888588888888q ;;;;;;;;;;;;;;;",
";;;;;;;;;;;;;;;; 9748858858858488885888888888wwX;;;;;;;;;;;;;;;;",
";;;;;;;;;;;;;;;;h                              ;;;;;;;;;;;;;;;;;",
";;;;;;;;;;;;;;;;;;;;;-h-h--h;;;;;;;;h-h--;222;;;;;;;;;;;;;;;;;;;",
";;;;;;;;;;;;;;;;;;;;;h--hhh-;;;;;;;;-h--;;22-;;;;;;;;;;;;;;;;;;;",
";;;;;;;;;;;;;;;;;;;;;;-hh---;;;;;;;;;-h-;;--;;;;;;;;;;;;;;;;;;;;",
";;;;;;;;;;;;;;;;;;;;;;h--h-h;;;;;;;;;h-h;;;;;;;;;;;;;;;;;;;;;;;;"
};
