/* XPM */
static char *_b9b550ee333433babbcd0409e8125e45hqDwgVxoQ34sGs1[] = {
/* columns rows colors chars-per-pixel */
"64 64 230 2 ",
"   c #161C2E",
".  c #191F2F",
"X  c #181F31",
"o  c #1D2434",
"O  c #1F2938",
"+  c #1F232F",
"@  c #252B35",
"#  c #222D3B",
"$  c #272B32",
"%  c #25313E",
"&  c #2D353C",
"*  c #343A3C",
"=  c #36413F",
"-  c #4A4737",
";  c #5C5539",
":  c #5B5438",
">  c #534D36",
",  c #615737",
"<  c #615837",
"1  c #645B3B",
"2  c #695F3A",
"3  c #6D6A32",
"4  c #6D633C",
"5  c #646235",
"6  c #706D34",
"7  c #73683F",
"8  c #757236",
"9  c #7A7738",
"0  c #7D7A3A",
"q  c #2D3A45",
"w  c #2D3D4A",
"e  c #293642",
"r  c #353F43",
"t  c #364044",
"y  c #32424D",
"u  c #3C4A4C",
"i  c #3A4547",
"p  c #324551",
"a  c #344954",
"s  c #3B4C53",
"d  c #384D59",
"f  c #3B535E",
"g  c #3D5157",
"h  c #2E404C",
"j  c #3D5862",
"k  c #424B48",
"l  c #4A554B",
"z  c #585B49",
"x  c #425254",
"c  c #445A5D",
"v  c #495D5B",
"b  c #485957",
"n  c #535E51",
"m  c #635F42",
"M  c #4D615E",
"N  c #576459",
"B  c #5E654C",
"V  c #6F6E45",
"C  c #686447",
"Z  c #736D43",
"A  c #776C43",
"S  c #737147",
"D  c #757449",
"F  c #7A754B",
"G  c #7D7B4D",
"H  c #7D7346",
"J  c #686B53",
"K  c #787557",
"L  c #62725F",
"P  c #445D62",
"I  c #495B60",
"U  c #4C6364",
"Y  c #46646C",
"T  c #49656C",
"R  c #4D6A6C",
"E  c #4E6866",
"W  c #526A66",
"Q  c #516C6B",
"!  c #566966",
"~  c #53706F",
"^  c #59726C",
"/  c #4C6D74",
"(  c #476970",
")  c #4D7276",
"_  c #557474",
"`  c #54757B",
"'  c #567A7A",
"]  c #5A7D7C",
"[  c #597876",
"{  c #536F71",
"}  c #677768",
"|  c #747B65",
" . c #687970",
".. c #847A4C",
"X. c #86794A",
"o. c #5C807E",
"O. c #75856D",
"+. c #698277",
"@. c #85823E",
"#. c #8E814E",
"$. c #8A8842",
"%. c #92894A",
"&. c #949145",
"*. c #878658",
"=. c #998B56",
"-. c #9B9659",
";. c #8D9258",
":. c #AB9B5E",
">. c #A4955B",
",. c #A39F4C",
"<. c #ABA854",
"1. c #B7B355",
"2. c #A8A44F",
"3. c #958C61",
"4. c #9C9864",
"5. c #979B75",
"6. c #878D6C",
"7. c #A99B63",
"8. c #B09F61",
"9. c #9CA265",
"0. c #B5A363",
"q. c #B8A765",
"w. c #BAAA68",
"e. c #A9A776",
"r. c #BAAD73",
"t. c #BDB376",
"y. c #AAAD6C",
"u. c #9DA25F",
"i. c #C4B16C",
"p. c #C8B46D",
"a. c #C3B273",
"s. c #CDB973",
"d. c #C7B97B",
"f. c #D4BF78",
"g. c #D0BC73",
"h. c #C0AE69",
"j. c #C1BC5A",
"k. c #BEC36F",
"l. c #C7C25C",
"z. c #CAC869",
"x. c #DCD766",
"c. c #DAD66B",
"v. c #D5C175",
"b. c #D5C37D",
"n. c #DBC67A",
"m. c #DEC87E",
"M. c #D9C477",
"N. c #D6D771",
"B. c #CDCB6F",
"V. c #E3CD7D",
"C. c #E6D07E",
"Z. c #E8D27F",
"A. c #E2DC69",
"S. c #EBE56D",
"D. c #E8E26C",
"F. c #E8E572",
"G. c #F3EE71",
"H. c #F7F172",
"J. c #F8F273",
"K. c #F0EA6F",
"L. c #557B81",
"P. c #5C7D82",
"I. c #5B8383",
"U. c #5B8589",
"Y. c #5E8B8B",
"T. c #588485",
"R. c #5D8F91",
"E. c #628D8E",
"W. c #628786",
"Q. c #648C92",
"!. c #639494",
"~. c #6A9595",
"^. c #659799",
"/. c #669D9D",
"(. c #6A9D9D",
"). c #699699",
"_. c #729D9D",
"`. c #6B938E",
"'. c #6CA19F",
"]. c #76A39D",
"[. c #6E9EA0",
"{. c #719EA2",
"}. c #6DA3A3",
"|. c #72A5A5",
" X c #7AA9A2",
".X c #75ABAB",
"XX c #7AACAD",
"oX c #75A7A6",
"OX c #7CAFB0",
"+X c #7CB3B4",
"@X c #7DB0AA",
"#X c #89A798",
"$X c #88B3A7",
"%X c #97BAA8",
"&X c #82B5B5",
"*X c #83B7B8",
"=X c #85BBBC",
"-X c #89BEBD",
";X c #89B9B2",
":X c #94BFB3",
">X c #82AFA5",
",X c #A1BFA9",
"<X c #9AC6BC",
"1X c #92C0B8",
"2X c #ADC9AE",
"3X c #A4C3AC",
"4X c #B2CBAD",
"5X c #A5CCBD",
"6X c #AACEBC",
"7X c #A9CAB6",
"8X c #ADD1BD",
"9X c #B2D1BB",
"0X c #BCD5B7",
"qX c #ECD581",
"wX c #EED883",
"eX c #E5D181",
"rX c #F1DA84",
"tX c #FEFA9D",
"yX c #F9F59A",
"uX c #E8E591",
"iX c #CBDCB5",
"pX c #C1D8B8",
"aX c #C4D7B4",
"sX c #D0DEB5",
"dX c #CECE87",
"fX c #88BFC0",
"gX c #8CC3C4",
"hX c #93C6C2",
"jX c #9CC9C1",
"kX c #A0CBC0",
/* pixels */
"m.m.m.rXrXrXrXrXrXrXrXrXrXrXrXm.m.m.rXrXrXrXrXrXrXrXrXrXrXrXrXrXrXrXrXrXrXrXrXrXrXm.m.m.m.m.m.m.J.J.J.J.J.J.J.J.J.J.J.J.J.J.J.m.",
"m.m.m.m.m.m.rXrXrXm.m.m.m.J.J.J.m.m.m.m.wXb.b.b.f.n.t.e.e.e.e.O.O.O.6.d.d.n.m.m.m.m.m.m.m.m.H.H.J.J.J.J.J.J.J.J.J.J.J.J.J.J.J.m.",
"J.J.m.m.m.m.m.m.m.m.m.H.J.J.J.J.J.J.J.rXb.e.5.6.J K  .[ ] ] ] ] [ [ ^  . .5.t.n.m.m.m.J.H.H.J.J.J.J.J.J.J.J.J.J.J.J.J.J.J.J.J.J.",
"J.J.J.J.m.m.m.m.m.J.H.J.J.J.J.J.K.F.F.b.5.} P q O Y |.XXOXOXOXOX[.^.] Q Q Q O.k.B.z.B.c.F.G.J.J.J.J.J.J.J.J.J.J.J.J.J.J.J.J.J.J.",
"tXJ.J.J.J.J.J.J.H.H.H.H.H.G.G.eXe.5.5.| M c q o P XXgXgXgXgXgXgXgX+X(.I.[ _ _ } L n N 6.9.z.N.N.J.J.J.J.J.J.J.J.J.J.J.J.tXtXtXtX",
"tXtXtXtXJ.J.J.J.J.H.H.K.c.z.a.6.^ U s % o o X   ).gXgXgXgXgXgXgXgXgX=X*X+XOXoX~.P.f p w p b N N 4.c.G.J.J.J.J.J.J.tXtXtXtXtXtXtX",
"rXrXtXtXtXJ.J.J.J.G.c.u.N l v Q Q E R E.y       {.gXgXgXgXgXgXgXgXgXgXgXgXgXgX=XXXE.R p w w y y s J e.qXrXrXrXrXrXrXrXrXrXrXrXrX",
"rXrXrXtXtXtXtXtXtXuX*.n u u E Q Q U.oXgX{.Q.` o Q.=XgXgXgXgXgXgXgXgXgXgXgXgXgXgXgX*XXXT w f / ( d y J c.J.rXrXrXrXrXrXrXrXrXrXrX",
"rXrXrXrXrXrXrXrXeXe.x N ! W Q _ (.*XgXgXgXgX+X/ Y )..X=XgXgXgXgXgXgXgXgXgXgXgXgXjXpXsX%XU.Y././.Y.c y w.H.rXrXrXrXrXrXrXrXrXrXrX",
"rXrXrXrXrXrXrXrXb.| x ! _ ' Q _.gXgXgXgXgXgXfXfX+X}./.}.OX+X(.{.&XfXfXfX5XaXsXsXsXsXiXjX+X}././.!.` y | b.rXrXrXrXrXrXrXrXrXrXrX",
"rXrXrXrXrXrXrXwXa.N N [ Y.^.U.gXgXgXgXgXgXgXgXgXgX*X.X^.) j d a p a s s s g I U U W o.|.}.}.}.}./.Y.P } d.rXrXrXrXrXrXrXrXrXrXrX",
"m.m.m.m.rXrXrXqXr.N ! I.^././.gXgXgXgXgXgXgXgXgXgXgXgXU.d d L.L.Y Y ( ( ( T j f f j / [.+X*X*XOX}.^.T.} t.m.rXrXrXrXrXm.m.m.m.m.",
"J.m.m.m.m.rXrXqXa.} Q !./././.*XkXhXgXgXgXgXgXgXgXgX*XY a ` gXgX.X}./.(..XOX[.).).).oX*XgXgXgXgX}./.Y. .t.n.m.m.rXrXm.m.m.m.J.J.",
"J.J.J.J.J.J.J.b.r.| ' /./.Y.!.}.iX8XjXhXgXgXgXgXgXgX|.d ( (.gXgXgX*X}.}.*XgXgXgXgXgXgXgXgXgXgXgX.X/.Y.O.B.H.H.J.J.J.J.J.J.J.J.J.",
"J.J.J.J.J.J.J.S.<.| ' /.!.' Y./.0XaXpX9XkXjXjXhX*X+X).j T.}.gXgXgXgX+X}.=XgXgXgXgXgXgXgXgXgXgXgX+X}.Y.O.B.G.H.J.J.J.J.J.J.J.J.J.",
"J.J.J.J.J.J.J.z.J n Q _ Y T R./.%XsXsXiXpXpXpX;X.X}.).T.).XXgXgXgXgX=X|.+XgXgXgXgXgXgXgXgXgXgXgX=X}.!.+.y.c.tXtXtXtXtXJ.J.J.J.J.",
"J.J.J.J.J.J.J.z.l w p y p / /./.|.%X4XsXsX3X$X/././././.+XgXgXgXgXgXgX=X=XgXgXgXgXgXgXgXgXgXgXgX=X}./.' O.dXyXtXtXtXtXtXJ.J.J.J.",
"rXJ.J.J.J.J.J.x.J a w p ) !..X+X/.(. X$X:X-XgX/././.}.fXgXgXgXgXgXgXgXgXgXgXgXgXgXgXgXgXgXgXgXgX.X/.^.T L r.qXrXrXrXrXrXrXJ.J.rX",
"rXrXrXrXJ.J.J.c.B y w L.}.+XgXgX+X.X}./..X=XgX*X+X}.}.fXgXgXgXgXgXgXgXgXgXgXgXgXgXgXgXgXgXgXgXgX+X(.I.c M 6.qXrXrXrXJ.J.J.J.J.J.",
"J.rXrXrXrXrXrXz.l w p U..X=XgXgXgXgX+X.X.X+XfXfX=X.X.XgXgXgXgXgXgXgXgXgXgXgXgXgXgXgXhXhXhXgXgX=X=X|.[ s u N eXrXrXrXrXrXJ.J.J.J.",
"rXrXrXrXrXrXrXz.k w d R.+XgXgXgXgXgXgXfX.X.X.X.X.X.X+XgXgXgXgXgXgXgXgXgXgXgXhXhX5X5X8X9X6X<X=X.X.X!.R & o k V.rXrXrXrXrXrXrXrXrX",
"rXrXrXrXrXrXrXt.u w j ^.+XgXgXgXgXgXgXgXfX+X.X/.^.U.U.+XgXgXgXgXgXgXgXgXgXhX9X0XiXiXiX4X%X X}./.Y.T q @ o & *.rXrXrXrXrXrXrXrXrX",
"rXrXrXrXrXrXrXt.u w j ^.+XgXgXgXgXgXgXgXgXgXfX.X(.( f U.+XgXgXgXgXgXgXgXgXgX<X9X7X3X%X>X'./.Y.Y.I./ Y / c & z m.m.m.m.m.m.rXrXrX",
"rXrXrXrXrXrXrXa.k y P !.+XgXgXgXgXgXgXgXgXgXgX=X+XU.f f L..XgXgXgXgXfXfX+XXXOX;X@X|.'.^.Y.Y.[ [ I.U.I.Y.I.U | m.m.m.m.m.m.m.m.m.",
"rXrXrXrXrXrXrXa.* w ' ^.+XgXgXgXgXgXgXgXgXgXgXgX=X.XR.f p T +X+X.X|.|.}.(.^./././.^.Y._ [ [ [ _ E.!.(.).Y.Q 6.J.J.J.J.J.J.J.J.J.",
"J.J.m.m.m.rXwX4.r q L.^.+X=X-X-XfXfXgXgXgXgXgXgX=X+X|.L.a p /././.^.!.!.!.!.^./.E._ [ [ ' I.!.!.).oXXXoXU.U 9.J.J.J.J.J.J.J.J.J.",
"m.m.m.m.m.m.n.*.o % Y R.|.+X*X*X=X=X=X=X=X=X=X=X=X=X+X(.Y p p a ` U.Q { ` ] W.W.E.~.Y.I.I.E.'.}.XX.XoX^./ x 9.J.J.J.J.J.J.J.J.J.",
"J.J.J.m.m.m.b.K o . e ' !..X*X*X*X&X*X=X=X=X=X=X+X+X(.!.Y./ j f _ I._ Q.XX*X-XgX=X+X}.!.(.XX=X-X+X|.}.Y.f y u.K.H.J.J.J.J.J.J.J.",
"J.J.J.J.J.rXZ.=.% . % R U.).XXXXXXOX*X*X*X*X*X*X.X.X}.}..X|.E.Y.)._.~.Q.Q.|.<X<XhXhXgX*XXXXX=XgXOX).Y./ p q ;.uXyXtXtXtXtXtXJ.J.",
"J.J.J.J.rXrXV.4.i o p ' U.U.Y.).[.|.+X+X+X+X+X+X+X+X+X+X*XXX(._.~.U.P.` ` W.7X8X5X5X5XhX1X-X*X&X(.] ~ U e # *.b.uXyXtXtXtXtXtXtX",
"J.rXrXrXrXrXV.4.x y / !.!.!.!.(..X.X+X+X+X+XOX+XOXOX+X+X|.E.P.P.` / ` ` / T ].<X5X9X9X<X;XXX~.I._ Q Q c # O K y.g.Z.rXrXrXrXrXrX",
"rXrXrXrXrXrXf.3.M Y Y.!.^.}.}..X+X+X.X.X.XXX.X.X.X.X.XOX).L./ Y / U.U.] T f Q.&X;X:X:X>X}.(.I.[ _ Q R c O o C =.i.V.rXrXrXrXrXrX",
"rXm.m.rXrXrXC.7.U R Y.!.^./.|.&X1X=X*X*X*X*X+X.X.X.X*X=XOX|.{.(.(.).!.] P f ^.}.}.|.|.(./.^.!.!.Y.Q Q c o X C #.w.m.rXrXrXrXrXrX",
"rXm.m.m.rXrXf.3.b x _ W.^.(.%X7X6XjXhXgXgXgXgXgXgXgXgXgXgXgXhXhX7X%X#X] s f }.(././././././././.!.~ Q c O   m #.0.n.wXrXrXrXrXrX",
"rXrXrXrXm.m.f.3.k s ! [ E.~.3XaXaX0X6X<XgXhXhXhXhXhXhXhXjX5X9X0XiXaX#X[ g j /./././././././././.!.~ Q E %   1 X.0.n.wXrXrXrXrXrX",
"rXrXrXm.m.m.f.3.t s ! ~ [ o.#X%X3X3X%X;X:X<X5X6X6X6X6X9X0XpXiXiXaX4X`.^ P R /./././././././././.!.~ Q Q e   1 X.8.M.qXrXrXrXrXrX",
"m.m.m.m.m.m.f.=.r s W W W Q _ ] ~.(.'.'. X$X%X3X2X2X2X2X2X2X2X%X$X X!.[ Q ' /./././././././././.!.~ E c #   1 ..:.M.qXrXrXrXrXrX",
"m.m.m.J.J.m.f.-.* s W W W W Q [ !.^././.(.'.|. X X X X X X].].'.'.(.^.I.Q ' /./././././././././.E.Q c q o   ; F >.a.qXrXrXrXrXm.",
"J.J.J.J.J.J.S.<.* a E W W Q Q ] !./././././././././././.!.Y.I.!././.^.I.Q ' /./././././././././.Y.Q s #     : F -.x.G.J.J.J.J.J.",
"J.J.J.J.J.J.S.<.* t M W W W Q o.^./././././././././././.Y.] ] ~.(./.^.I.Q ' /./././././././././.!.' a p o   5 $.<.x.G.J.J.J.J.J.",
"J.J.J.J.J.J.S.<.* q v W Q ~ Q [ E.^././././././././././.(..XXX.X/./.!.' Q [ ^./././././././././.}./.Y.) #   5 $.<.x.G.J.J.J.J.J.",
"J.J.J.J.J.J.D.-.* q v W ~ U.' _ ] !././././././././././.}..X.X}./.^.Y.] [ _ !./././././././.}.}..X.X!./ O   5 $.<.x.G.J.J.J.J.J.",
"tXtXJ.J.J.H.D.-.* & v W _ ^.!.Y.[ [ Y.!././././././././././././.!.o.Y.!.!.[ I.!./././././.|.*X=X=X~.' P o   5 $.2.x.G.J.J.tXtXtX",
"tXtXtXtXtXH.D.;.r & v W ~ Y.^./.~.~._..X}././././././././.^.!.!.~._.}.!.Y.~ _ I.^././././.}..X.X(.[ Q c o   5 $.2.x.yXtXtXtXtXtX",
"rXrXrXtXtXH.D.*.i & v W Q _ E.}.+X=X=X=X.X}.}././.}.}.}.}.(.!.{.+X=X.XW.[ Q _ ] !./././././.^.E.] Q Q c o   1 F >.v.qXtXtXtXrXrX",
"rXrXrXrXrXrXm.K u & v W Q Q _ ] _.=XgXgXgXfX*X.X/.}..X*XfX=X=XgXgX*X(.I.Q Q Y.^.^././././././.^.E.Q Q c o   1 Z >.v.qXrXrXrXrXrX",
"rXrXrXrXrXrXn.J i & s U Q Q Q Q _ o.~..X+X+X*XOX}./.}.}..X.X.X.X.X}.!.] Q Q U.!.] ] Y./././././.!.' U q $ $ z V :.v.qXrXrXrXrXrX",
"rXrXrXrXrXwXn.C i = r c Q Q Q Q Q Q U./././.}.(./././././././././.^.I.U c E I.Y._ Q [ !./././././.Y.P % - ; N V :.v.qXrXrXrXrXrX",
"rXrXrXrXrXwXn.F = l @ % Q Q Q Q ' U.!./././././././././././././.^.U.U q # g Q [ _ Q Q Y./././././.T.q o - C J ..:.v.qXrXrXrXrXrX",
"rXrXrXrXrXwXn.F q ! k @ g P Q [ E.^././././././././././././././.' P a # o y Q Q Q Q [ ^././././.^.) o . - 4 7 X.:.v.qXrXrXrXrXrX",
"rXrXrXrXrXwXn.0.X.7 ; - e y s f ) L.Y.^.^./././././././.^.^.L.j h # @ $ $ & c E Q Q I././.^.^.Y.` a # @ > 1 7 H -.i.qXrXrXrXrXrX",
"rXrXrXrXrXwXn.0.#.A 4 1 > : n x y w y a ) U.!.!.!.!.!.Y.Y a w @ o + & - : - q y v M E I.Y.' f y w q * - 3 6 8 $.-.a.n.m.n.rXrXrX",
"rXm.m.m.J.H.s.7...4 1 < < , 2 C m z k u u i i u x x u u b b l > ; ; < < 1 < - r t t r r t i t i i - : 3 3 3 9 $.1.a.n.m.m.m.m.rX",
"m.m.m.J.J.H.D.8.X.Z 1 < < < , , 2 2 2 2 2 2 2 2 2 2 , , , , , , , 2 1 1 ; , , , , , , , , , , , , 3 3 3 3 6 0 &.1.A.G.J.m.m.m.m.",
"m.m.J.J.J.J.S.z.,.@.8 6 < < , , ; 1 1 2 2 2 2 2 2 , , , , , , ; ; ; , , < < , , , , , , , , , 3 3 3 3 3 6 8 @.,.l.D.H.J.J.J.J.m.",
"J.J.J.J.J.J.G.x.1.&.0 8 3 3 < < ; ; ; 1 1 1 2 , , , , , 3 3 3 3 3 , , , , , , , , , , 3 3 3 3 3 3 3 3 3 8 0 &.1.x.G.J.J.J.J.J.J.",
"J.J.J.J.J.J.H.S.z.2.$.9 6 3 3 3 < < , , , , 3 3 3 3 3 3 3 3 3 3 3 3 3 3 3 3 3 3 3 3 3 3 3 3 3 3 V V Z S F *.y.dXuXG.J.J.J.J.J.J.",
"J.J.J.J.J.J.J.G.D.l.,.$.9 8 6 3 3 3 3 3 3 3 3 3 3 3 3 3 3 3 3 3 3 3 3 3 3 6 3 3 3 3 3 3 V V V V V V Z S G -.t.v.qXrXrXrXrXJ.J.J.",
"J.J.J.J.J.J.J.J.G.x.j.,.$.0 8 D S S 3 3 3 3 3 3 3 3 3 3 3 3 Z S S S S D F F D S S Z Z Z Z Z Z Z 4 4 4 7 ..=.i.V.rXrXrXrXrXrXrXrX",
"rXrXrXrXrXrXrXJ.J.K.x.l.2.4.;.*.G G F D 6 6 6 6 6 6 6 S S S D F 7 A A H X.X.*.G D S S S 4 4 4 4 4 7 A ..=.0.v.qXrXrXrXrXrXrXrXrX",
"rXrXrXrXrXJ.J.J.J.rXqXm.s.q.:.=.#.X.X.*...0 9 9 9 9 G G G A H X.X.X.#.=.>.:.=.#...A A A A A A A A ..X.=.0.g.V.wXrXrXrXrXrXrXrXrX",
"rXrXrXrXrXJ.J.J.J.J.rXqXC.n.g.i.w.8.>.=.4.-.&.&.&.&.#.#.#.#.=.>.:.0.w.i.s.g.i.8.-.=.#.#.#.#.#.#.=.-.:.0.i.f.n.rXrXrXrXrXrXrXrXrX",
"rXrXrXrXrXrXJ.J.J.rXrXrXrXqXqXV.m.M.g.p.h.w.q.0.0.0.0.0.q.w.i.s.v.n.m.V.qXqXV.v.p.w.w.q.q.q.q.8.8.q.i.s.b.n.m.m.m.m.m.rXrXrXrXrX",
"rXrXrXrXrXrXrXrXrXrXrXrXrXrXrXrXrXqXqXC.V.m.m.n.n.n.n.n.m.V.V.Z.qXqXwXrXrXrXwXqXC.V.m.m.s.s.s.s.g.f.b.n.J.J.J.J.J.J.J.J.J.m.m.m."
};
