/* XPM */
static char *result[] = {
/* columns rows colors chars-per-pixel */
"64 64 48 1 ",
"  c #4B2511",
". c #4F2913",
"X c #502B16",
"o c #522E1A",
"O c #4F311E",
"+ c #55321C",
"@ c #4F3625",
"# c #553522",
"$ c #563926",
"% c #5A3B27",
"& c #573C2D",
"* c #593D2A",
"= c #573F30",
"- c #583F30",
"; c #5A402E",
": c #5A4333",
"> c #5A4739",
", c #5B4A3D",
"< c #624937",
"1 c #644E3C",
"2 c #5D4D42",
"3 c #5C5247",
"4 c #5E544A",
"5 c #655444",
"6 c #695645",
"7 c #655F56",
"8 c #665F58",
"9 c #666057",
"0 c #676159",
"q c #6A655D",
"w c #6D695E",
"e c #6E6A60",
"r c #716D62",
"t c #747166",
"y c #767469",
"u c #79776C",
"i c #7F7C74",
"p c #807E76",
"a c #838177",
"s c #868579",
"d c #89877D",
"f c #8D8B83",
"g c #908E86",
"h c #918F88",
"j c #94928A",
"k c #99978F",
"l c #9B9992",
"z c None",
/* pixels */
"zzz+hsssss+++%%%$%%%%%%%z%%%%%%%%%%%%%%%$;$$;%%%%%%z;%%;+;%%%%%%",
"zzz+lssssssssssassssssss1ssssssssssssssssssssssssss:ssasssssssss",
"zzz+lsssssssssssssssssss1ssssssssssssssssssssssssds<ssssssssssss",
"zzz+lsssssssssssdssdssss6ssssssssssssssssssssssssdd1ssssssssssss",
"zzz.sllllljjjjjgjjjhjjkk6lkkjggggggjdggjgggghhhjkkk5jkkkjjjjdjjj",
"zzz.seeeeeeerrwrrrrrrree;rrrerreeeewrrwweeeewwwwwwr;wwwwwwwqtwww",
"zzz.seeeeweeeewweeeeeeee:rwwrrereewwwwwwwqewwwwwwww;wwwwwwwwwwww",
"zzz.peeqwewwwewweeeeeeee:rrrwwweewwwwwwwewwwwwwwwww;wwwwwwwwqwww",
"zzz.pqqqqqqqwqeqwwweeeee:eeeewwwewwewqwwwqwwqwwqqww;qwwwwqqwwwww",
"zzz.pqqqqqqqqweqwwwweqeq;qeeewwwqwqqwwwqwwwqwwqwqww;qqqqqqqqqqqq",
"zzzXp0qqqqqqqqqqqqqqqeqe;qeeeeqwwweqqqqqqqqqqqqqqwq;wqwqqqqqqqqq",
"zzz.p90000qqqqqq0qqqqqqq@qqeqqqqqqqqqqqqqqqqqqqqqqq;qqqwqqqqqqqq",
"zzzXy000q00q00qqqq0qq0q0O0qqqqqqqqqqqqqqqqqqq0qqq0qOw0q00ww00q0q",
"zzz y770000q0qq00qq00qqqOq0q0qqq0qq00qqqqqq00qq0qqq+0q0qq00qq00q",
"zzz y77900000000q0000q0qO0000qq0q0qqq0q00qqqqqqqq0qOq00000q000q0",
"zzz y7777900000000000000.00q000000000000000000000q0+00q0q000qq00",
"zzzXy77799999999w9q9qq99 00000000087080000000000000O000000000000",
"zzzz.7779999999999999999 70000000007000000000000000.000000000000",
"zzzzz           .. .  ..4O  XX XXXXXXX X...........3...X....X...",
"zzzzz.uqww9www.33433443333@3333333333333333333333333333333O33333",
"zzzzzXuqwwwwwwX44444444444@3333333333333333333333333333333O33333",
"zzzzzXuw9wwwwwX47444444443@3333333333333433333333333333333@33333",
"zzzzz.uwww9www.54444444444@3333333333333333333333333333333@33333",
"zzzzz.uwwwwwww.64444444444@3333333333333333333333333333333@33333",
"zzzzzXuqqwwwww.64444333343@3333333333333333333333333333333@33333",
"zzzzzXpqwwwwww.rq999777900,0000007000000000000008888800000:09000",
"zzzzzopwwwwwww.r7799777777,900000809000089080q88008ee88807@00000",
"zzzzzXywwwwwwww.OO>,:>>,>>>>33333333333322233334444333==;;@$;444",
"zzzzzouwwwwwww.rwwrwwwww0qwwwwwwqeeeeeeqe2qeeeeeeeeeeeeeeeeeweqe",
"zzzzzouwwwwwwr.r000000000700000008800000828988808888007778809098",
"zzzzzouwwwwwwr.r000000000000000000000000830088000088000088000000",
"zzzzzopwwrrwrwXt000000000000000000000000830008000888000000000000",
"zzzzzourwwwrwwXr0000888q8qq8888800000000020000000000000000000000",
"zzzzz+uwrwrwre.r0000qq8888888q8q00000000020000000000000000000000",
"zzzzz+uwwrerwe.e08008888q88qq888000000000-8800000000008800008q00",
"zzzzz+urrweeerXr0088q088q88q8888000000000-0800000000000800008800",
"zzzzz+utrwwwrrrooOO222222:-&&&222>>>,>&&@@#-44444444444>>,2,2233",
"zzzzz+uuuptauuXweeeq8eeeqwe#qqqqeqqqqqqqqq0qq8qqqq0eeqqeqq2qeqqq",
"zzzzz+1<<%%%++ow88888888888#888877888888888888888888888888288888",
"zzzzz+swttrtrr.r888888888882888877888888888888888888888888288888",
"zzzzz#strrrrrr.e888888888884888888888888888888888888888888288888",
"zzzzz#arrrrytrXr888888888885888888888888888888888888888888288888",
"zzzzz#arrrtrrr.r888888888884888888888888888888888888888888288888",
"zzzzz+attrtrtt.r888888888884888888888888888888888888888888#88888",
"zzzzz%atttttyr.r888888888884888888888888888888888888888888#88888",
"zzzzz#atttttttt Oo==:4444444444533334422-22422222222222@#####222",
"zzzzz+atttttyy.ee00eeeeqe8eqqewweeqeqqeqe20qe0eeeqeeeqeqqeqeeqqe",
"zzzzz#styyytyt.r887778888888888888888888828888888888888888888888",
"zzzzz#syyyytyy.r888888888888888888888888818888888888888888888888",
"zzzzz#syyyuyyy r888888888888888888888888828888888888888888888888",
"zzzzz#dtuyyyuyXr888888888888888888888888848888888888888888888888",
"zzzzz#suyuuyyy r8888888888888888888888888-8888888888888888888888",
"zzzzz#duyyuyuyXr8888888888888888888888888&8888888888888888888888",
"zzzzz#duuuuuuy.78888888888888888888888888-8888888888888888888888",
"zzzzz#fuuuuuuuuo++++++++8+++++++++++++++++o+++++O++8++++++++++++",
"zzzzz#duuuuuuuuuuyyyyyyyXyyyyyyyyyyyyyyyyyyyyyyyyyy%yyyyrpyyyyyy",
"zzzzz#fuuuuuuuuuuyyyyyyy5yyyyyyyyyyyyyyyyyyyyyyyyyy5yyyyttyyyyyy",
"zzzzz#guuuuuuuuuuuyuuyyy5yyyyyyyyyyyyyyyyyyyyyyyyyy5yyyyrpyyyyyy",
"zzzzz#guuuuuuyuuuyyuyyyy5yyyyyyyyyyyyyyyyyyyyyyyyty5yyyyttyyyyyy",
"zzzzz#gfggfdfsssssssssss5ssssssdsssspddpsssdsssssss6sssdadadadda",
"zzzzz.e099997787999999075778999999998888999999978885999988888888",
"zzzzz.e099978787999999775777999999998q88999999907875999988888888",
"zzzzz.e99990999999999977X70799999999770799999977770X898888888888",
"zzzzzz....................XX...........X........X..............."
};
