/* XPM */
static char *_b1031a4bc3d418bd4679a82e528538eFbrsdCKuUauZ1j19[] = {
/* columns rows colors chars-per-pixel */
"64 64 181 2 ",
"   c #5A3B27",
".  c None",
"X  c #4F2913",
"o  c #868579",
"O  c #94928B",
"+  c #5B3C29",
"@  c #88877B",
"#  c #5E4532",
"$  c #8B8A7F",
"%  c #604734",
"&  c #624937",
"*  c #634D3C",
"=  c #99978F",
"-  c #675544",
";  c #675545",
":  c #918F88",
">  c #929088",
",  c #665444",
"<  c #86837B",
"1  c #6D685F",
"2  c #6D695F",
"3  c #5B4231",
"4  c #6C685E",
"5  c #6C675E",
"6  c #6C665E",
"7  c #6B665D",
"8  c #6A665C",
"9  c #6A655C",
"0  c #6B675D",
"q  c #6B655D",
"w  c #6B665C",
"e  c #6A655B",
"r  c #6A645B",
"t  c #7E7B73",
"y  c #6B645C",
"u  c #69645A",
"i  c #69635B",
"p  c #68635A",
"a  c #686359",
"s  c #7A776F",
"d  c #593D2A",
"f  c #6A645C",
"g  c #69645B",
"h  c #6A635B",
"j  c #69635A",
"k  c #686259",
"l  c #53321E",
"z  c #68625A",
"x  c #686159",
"c  c #686158",
"v  c #79766E",
"b  c #69625A",
"n  c #676158",
"m  c #676157",
"M  c #76736B",
"N  c #666057",
"B  c #676259",
"V  c #676258",
"C  c #676058",
"Z  c #676057",
"A  c #665F56",
"S  c #726F67",
"D  c #676159",
"F  c #666058",
"G  c #665F57",
"H  c #655F55",
"J  c #655E55",
"K  c #5C5247",
"L  c #5D5348",
"P  c #4F311E",
"I  c #5C5147",
"U  c #5D5247",
"Y  c #5D5248",
"T  c #5E5348",
"R  c #5E5449",
"E  c #5E544A",
"W  c #61574A",
"Q  c #61574B",
"!  c #61584B",
"~  c #62584B",
"^  c #5E554A",
"/  c #62574B",
"(  c #62584C",
")  c #4F3625",
"_  c #63584C",
"`  c #63594D",
"'  c #5F544A",
"]  c #5E5349",
"[  c #5D5449",
"{  c #5F554A",
"}  c #655C50",
"|  c #584132",
" . c #543624",
".. c #5E5146",
"X. c #5F5349",
"o. c #563D2C",
"O. c #563B2A",
"+. c #553726",
"@. c #553827",
"#. c #583F30",
"$. c #543725",
"%. c #553725",
"&. c #4E2812",
"*. c #63594C",
"=. c #6C675F",
"-. c #563B2B",
";. c #706C63",
":. c #645A4D",
">. c #573C2D",
",. c #5A4739",
"<. c #5B483B",
"1. c #5B493C",
"2. c #5D4D42",
"3. c #5B473A",
"4. c #655C51",
"5. c #69645C",
"6. c #6C685F",
"7. c #5C4B40",
"8. c #655C4F",
"9. c #6A6257",
"0. c #6B6358",
"q. c #6D665A",
"w. c #6D665B",
"e. c #6E675B",
"r. c #6E685B",
"t. c #665F58",
"y. c #5C4B3F",
"u. c #512D18",
"i. c #573B29",
"p. c #573B28",
"a. c #573A27",
"s. c #583F2D",
"d. c #502C16",
"f. c #5C493D",
"g. c #655D51",
"h. c #665D51",
"j. c #665E51",
"k. c #5E4F45",
"l. c #655C55",
"z. c #665D52",
"x. c #675E51",
"c. c #848278",
"v. c #655D56",
"b. c #675E52",
"n. c #665E52",
"m. c #675E53",
"M. c #5E4F44",
"N. c #675F52",
"B. c #675F53",
"V. c #767469",
"C. c #543523",
"Z. c #828077",
"A. c #685F54",
"S. c #686054",
"D. c #5D5044",
"F. c #5D4F43",
"G. c #5D4E43",
"H. c #5D4E42",
"J. c #5C4D41",
"K. c #543623",
"L. c #563C2C",
"P. c #553826",
"I. c #686155",
"U. c #828076",
"Y. c #573D2D",
"T. c #696155",
"R. c #696156",
"E. c #696256",
"W. c #696357",
"Q. c #696257",
"!. c #6A6358",
"~. c #696358",
"^. c #6B6359",
"/. c #56321C",
"(. c #8C8A81",
"). c #5E3B25",
"_. c #655444",
"`. c #908E86",
"'. c #86847B",
"]. c #6F6A61",
"[. c #706B63",
/* pixels */
"                .                                                   .                       X X X o o o o o O + . . . . . . . . ",
"o o o o o o @ o # o o o o o o o o o o o o o o o o o o o o o o o o $ % $ o o o o o o o o o o o o o o o o o o O + . . . . . . . . ",
"o o o o o o o o & o o o o o o o o o o o o o o o o o o o o o o o o $ * $ o o o o o o o o o o o o o o o o o o = + . . . . . . . . ",
"o o o o o o o o - o o o o o o o o o o o o o o o o o o o o o o o o $ ; $ o o o o o o o o o o o o o o o o o o = + . . . . . . . . ",
": : : > O = = = , O = = = O O O O O O O O O O O O O O O O O O = = = - = = = O O O O O O O O O O O O = = = = < X . . . . . . . . ",
"1 1 2 2 2 2 2 1 3 1 1 1 4 1 1 1 1 1 5 4 4 4 4 4 4 4 4 4 4 1 1 1 1 1 3 1 1 1 5 4 4 4 4 5 5 6 6 6 7 7 7 8 9 9 < X . . . . . . . . ",
"1 1 1 1 1 2 1 1 3 1 1 4 4 4 1 1 1 4 5 5 5 5 5 5 4 4 4 4 4 4 4 4 4 4 3 5 5 5 5 5 5 5 0 0 7 7 7 7 7 7 q 9 9 9 < X . . . . . . . . ",
"4 4 4 4 4 4 5 5 3 1 4 4 5 5 4 4 4 5 5 5 5 5 5 5 5 5 5 5 5 5 5 5 0 0 3 5 5 5 5 6 6 7 7 7 7 7 7 7 w w w e r r t X . . . . . . . . ",
"4 4 4 5 5 5 5 5 3 5 5 5 5 5 0 0 5 5 5 5 5 6 7 7 7 7 7 7 7 7 7 7 7 7 3 7 7 7 7 7 7 7 7 7 7 q q q y r r r r r t X . . . . . . . . ",
"5 5 5 0 0 0 0 0 3 7 7 7 7 7 7 7 7 7 7 7 7 7 7 7 7 7 7 7 7 7 7 7 7 7 3 7 q q q q q 9 9 9 9 e e r u i i i i p t X . . . . . . . . ",
"7 7 7 7 7 7 7 7 3 7 7 7 7 7 q q 9 9 9 9 8 8 8 8 8 9 9 q q q q q q q 3 9 9 9 9 9 9 9 9 9 9 e r i i i p a a a s X . . . . . . . . ",
"9 9 9 9 q q q q d q q 9 f f f f f f f f 9 9 9 9 9 g g g g g g g 9 9 3 9 9 9 9 9 9 9 9 9 e h i i i j a a k k s X . . . . . . . . ",
"9 9 9 9 9 9 f 9 l g g g g g g g g g g g g g g g g g g g g g g g 9 g l 9 9 9 9 g g g g u j j z z k x x x c c v X . . . . . . . . ",
"g g g g g g g g l i i i i i i g g g g g g g g g g g g i g g g g g i l g g g i i i i i b b z z k x x c c n m M X . . . . . . . . ",
"i i i i i i p p l p p p p p p p p p p p p p i i i i i i i i i i i i l i i i i i i i j b z z k k x c m m N N M X . . . . . . . . ",
"B z z z p p p z l z z z z z z z z z p p z p p p p p p p p p p i i i l i i i i i i i a k B B V C Z Z N A A A S X . . . . . . . . ",
"D D D D D D D D l D D D D D D D D D D D D D D D D D B B B B B B z B l z z z z z z z k x D D n C Z N N A A A S X . . . . . . . . ",
"D D D D D D D D X D D D D D D D D D D D D D D D D D D D D D D D D D l D D D D D D D n C F F N G A A H H J J X . . . . . . . . . ",
"X X X X X X X X K X X X X X X X X X X X X X X X X X X X X X X X X X L X X X X X X X X X X X X X X X X X X X . . . . . . . . . . ",
"K K K K K K K K K K K K K K K P I I K U U U U Y Y Y Y Y Y Y L L L L L L T R R E E E E E X W Q ! ! ~ ! ~ ~ X . . . . . . . . . . ",
"K K K K K K K K K K K K K K K P K K U U U U U Y Y Y Y L Y Y L L L L L L T R R E E E E ^ X / ~ ~ ( ( ~ ~ ~ X . . . . . . . . . . ",
"K K K K K K K K K K K K K K K ) K K U U U U U Y Y Y Y L L Y L L L L L L T R R E E E E E X ~ _ _ _ ` ` ~ ~ X . . . . . . . . . . ",
"K K K K K K K K K K K K K K K ) K K K U U U U Y Y Y Y L L L L L L L L L T R R E E E E E X _ ( ` ( ( ~ ~ ~ X . . . . . . . . . . ",
"K K K K K K K K K K K K K K K ) K K K U U U U Y Y Y Y L L L L L L L L L T R R E E E E ' X ` ( ` ( ` ~ ~ ~ X . . . . . . . . . . ",
"K K K K K K K K K K K K K K K ) I I K U U U U U Y Y Y Y L L L L L L L L ] R [ E E E E { X W Q ! ! ~ ~ ~ } X . . . . . . . . . . ",
"D D D D D D D D D D D D D D D | D D D D D D D D D D D D D D D D D D D D D D D D D D D D X / ~ ~ ( ~ ~ ~ } X . . . . . . . . . . ",
"D D D D D D D D D D D D D D D  .D D D D D D D D D D D D D D D D D D D D D D D D D D D D X ~ _ _ _ ` ` } } X . . . . . . . . . . ",
"......X.X.X.X.X.X.X.X.| | o.O.+.@.#.X.X.X.X.X.X.X.X.X.| | $.%.| | | | X.X.X.X.| | | &.&.*._ ( ` ( ( *.} } X . . . . . . . . . . ",
"=.=.=.=.=.=.=.=.=.=.=.=.=.=.=.=.=.=.=.=.=.=.=.=.=.=.=.=.=.=. .=.=.=.=.=.=.=.=.=.=.=.=.=.X ` ( ` ( ` } } } X . . . . . . . . . . ",
"D D D D D D D D D D D D D D D D D D D D D D D D D D D D D D -.D D D D D D D D D D D D ;.X ` ( *.*.*.} } } X . . . . . . . . . . ",
"D D D D D D D D D D D D D D D D D D D D D D D D D D D D D D | D D D D D D D D D D D D ;.X :.*.*.*.} } } } X . . . . . . . . . . ",
"D D D D D D D D D D D D D D D D D D D D D D D D D D D D D D X.D D D D D D D D D D D D ;.X *.*.*.*.} } } } X . . . . . . . . . . ",
"D D D D D D D D D D D D D D D D D D D D D D D D D D D D D D X.D D D D D D D D D D D D ;.X *.*.*.} } } } } X . . . . . . . . . . ",
"D D D D D D D D D D D D D D D D D D D D D D D D D D D D D D X.D D D D D D D D D D D D ;.X *.*.*.} } } } } X . . . . . . . . . . ",
"D D D D D D D D D D D D D D D D D D D D D D D D D D D D D D X.D D D D D D D D D D D D ;.X *.*.} } } } } } X . . . . . . . . . . ",
"D D D D D D D D D D D D D D D D D D D D D D D D D D D D D D X.D D D D D D D D D D D D ;.X *.*.} } } } } } X . . . . . . . . . . ",
">.X.X.X.X.X.X.X.X.X.X.X.,.<.1.2.1.1.3.X.X.X.X.X.X.X.X.X.X.X.X.X.X.X.X.X.X.X.X.| | | &.&.4.*.} } } } } } } X . . . . . . . . . . ",
"5.5.5.5.5.5.5.5.6.6.6.6.6.=.5 7.=.=.=.=.=.=.=.=.=.=.=.=.=.=.=.=.=.=.=.=.=.=.=.=.=.=.=.;.X 8.9.9.0.q.w.e.r.X . . . . . . . . . . ",
"t.t.t.t.t.t.t.t.t.t.t.t.t.t.t.y.t.t.t.t.t.t.t.t.t.t.t.t.t.t.t.t.t.t.t.t.t.t.t.t.t.t.t.;.u.i.p.a.a.a.a.i.s.d.. . . . . . . . . . ",
"t.t.t.t.t.t.t.t.t.t.t.t.t.t.t.f.t.t.t.t.t.t.t.t.t.t.t.t.t.t.t.t.t.t.t.t.t.t.t.t.t.t.t.;.X g.g.h.h.j.j.g.g.X . . . . . . . . . . ",
"t.t.t.t.t.t.t.t.t.t.t.t.t.t.t.k.l.t.t.t.t.t.t.t.t.t.t.t.t.t.t.t.t.t.t.t.t.t.t.t.t.t.t.;.X h.g.g.h.h.z.x.c.X . . . . . . . . . . ",
"t.t.t.t.t.t.t.t.t.t.t.t.t.t.t.k.v.t.t.t.t.t.t.t.t.t.t.t.t.t.t.t.t.t.t.t.t.t.t.t.t.t.t.;.X b.n.n.n.n.b.m.c.X . . . . . . . . . . ",
"t.t.t.t.t.t.t.t.t.t.t.t.t.t.t.M.t.t.t.t.t.t.t.t.t.t.t.t.t.t.t.t.t.t.t.t.t.t.t.t.t.t.t.;.X m.N.B.B.B.B.V.c.X . . . . . . . . . . ",
"t.t.t.t.t.t.t.t.t.t.t.t.t.t.t.C.t.t.t.t.t.t.t.t.t.t.t.t.t.t.t.t.t.t.t.t.t.t.t.t.t.t.t.;.X B.B.B.B.B.B.V.Z.X . . . . . . . . . . ",
"t.t.t.t.t.t.t.t.t.t.t.t.t.t.t.C.t.t.t.t.t.t.t.t.t.t.t.t.t.t.t.t.t.t.t.t.t.t.t.t.t.t.t.;.X B.A.S.S.B.V.V.Z.X . . . . . . . . . . ",
"D.D.D.D.F.G.H.H.H.H.H.2.C.C.C.C.C.C.J.J.J.J.J.J.J.J.2.X.| | K.L.| X.X.X.X.X.X.X.| | &.&.S.S.S.S.S.S.V.V.Z.X . . . . . . . . . . ",
"=.=.=.=.=.=.=.=.=.=.=.=.=.=.=.=.=.=.=.=.=.=.=.=.=.=.=.=.=.=.P.=.=.=.=.=.=.=.=.=.=.=.=.;.X I.S.S.S.V.V.V.U.X . . . . . . . . . . ",
"t.t.t.t.t.t.t.t.t.t.t.t.t.t.t.t.t.t.t.t.t.t.t.t.t.t.t.t.t.t.Y.t.t.t.t.t.t.t.t.t.t.t.t.;.X T.T.R.R.V.V.V.U.X . . . . . . . . . . ",
"t.t.t.t.t.t.t.t.t.t.t.t.t.t.t.t.t.t.t.t.t.t.t.t.t.t.t.t.t.t.X.t.t.t.t.t.t.t.t.t.t.t.t.;.X E.R.R.V.V.V.V.U.X . . . . . . . . . . ",
"t.t.t.t.t.t.t.t.t.t.t.t.t.t.t.t.t.t.t.t.t.t.t.t.t.t.t.t.t.t.X.t.t.t.t.t.t.t.t.t.t.t.t.;.X W.Q.E.V.V.V.V.U.X . . . . . . . . . . ",
"t.t.t.t.t.t.t.t.t.t.t.t.t.t.t.t.t.t.t.t.t.t.t.t.t.t.t.t.t.t.X.t.t.t.t.t.t.t.t.t.t.t.t.;.X !.~.V.V.V.V.V.U.X . . . . . . . . . . ",
"t.t.t.t.t.t.t.t.t.t.t.t.t.t.t.t.t.t.t.t.t.t.t.t.t.t.t.t.t.t.X.t.t.t.t.t.t.t.t.t.t.t.t.;.X !.!.V.V.V.V.V.U.X . . . . . . . . . . ",
"t.t.t.t.t.t.t.t.t.t.t.t.t.t.t.t.t.t.t.t.t.t.t.t.t.t.t.t.t.t.| t.t.t.t.t.t.t.t.t.t.t.t.;.X !.V.V.V.V.V.V.U.X . . . . . . . . . . ",
"t.t.t.t.t.t.t.t.t.t.t.t.t.t.t.t.t.t.t.t.t.t.t.t.t.t.t.t.t.t.O.t.t.t.t.t.t.t.t.t.t.t.t.;.X ^.V.V.V.V.V.V.U.X . . . . . . . . . . ",
"/./././././././.t./././././././././././././././././././././././././.t./././././././././.V.V.V.V.V.V.V.V.(.X . . . . . . . . . . ",
"V.V.V.V.V.V.V.V.).V.V.V.V.V.V.V.V.V.V.V.V.V.V.V.V.V.V.V.V.V.V.V.V.V./.V.V.V.V.V.V.V.V.V.V.V.V.V.V.V.V.V.(.X . . . . . . . . . . ",
"V.V.V.V.V.V.V.V._.V.V.V.V.V.V.V.V.V.V.V.V.V.V.V.V.V.V.V.V.V.V.V.V.V._.V.V.V.V.V.V.V.V.V.V.V.V.V.V.V.V.V.(.X . . . . . . . . . . ",
"V.V.V.V.V.V.V.V._.V.V.V.V.V.V.V.V.V.V.V.V.V.V.V.V.V.V.V.V.V.V.V.V.V._.V.V.V.V.V.V.V.V.V.V.V.V.V.V.V.V.V.`.X . . . . . . . . . . ",
"V.V.V.V.V.V.V.V._.V.V.V.V.V.V.V.V.V.V.V.V.V.V.V.V.V.V.V.V.V.V.V.V.V._.V.V.V.V.V.V.V.V.V.V.V.V.V.V.V.V.V.`.X . . . . . . . . . . ",
"'.'.'.'.'.'.'.'._.'.'.'.'.'.'.'.'.'.'.'.'.'.'.'.'.'.'.'.'.'.'.'.'.'._.'.'.'.'.'.'.'.'.'.'.'.'.(.(.`.`.`.`.X . . . . . . . . . . ",
"N N N N N N N N _.N N N N N N N N N N N N N N N N N N N N N N N N N _.N N N N N N N N N N N N N N N N N ].X . . . . . . . . . . ",
"N N N N N N N N _.N N N N N N N N N N N N N N N N N N N N N N N N N _.N N N N N N N N N N N N N N N N N ].X . . . . . . . . . . ",
"N N N N N N N N X N N N N N N N N N N N N N N N N N N N N N N N N N X N N N N N N N N N N N N N N N N N [.X . . . . . . . . . . ",
"X X X X X X X X X X X X X X X X X X X X X X X X X X X X X X X X X X X X X X X X X X X X X X X X X X X X X . . . . . . . . . . . "
};
