/* XPM */
static char *e931203218c34a23c5978e18861b6a15bfZQSEjklc4YQPGj[] = {
/* columns rows colors chars-per-pixel */
"64 64 100 2 ",
"   c #665444",
".  c #5A3B27",
"X  c black",
"o  c #563621",
"O  c #868579",
"+  c #8B8A7F",
"@  c #5A3C28",
"#  c #583824",
"$  c #5C402D",
"%  c None",
"&  c #94928B",
"*  c #99978F",
"=  c #5B4231",
"-  c #6D685F",
";  c #6C685E",
":  c #6C675E",
">  c #6D695F",
",  c #5A412E",
"<  c #5B4330",
"1  c #6B675D",
"2  c #6C665E",
"3  c #6B665D",
"4  c #5A4230",
"5  c #5B3C29",
"6  c #6B655D",
"7  c #6A655C",
"8  c #5A422F",
"9  c #8E8C83",
"0  c #8F8D84",
"q  c #8F8D85",
"w  c #8F8E85",
"e  c #6A665C",
"r  c #573A27",
"t  c #4F2913",
"y  c #655444",
"u  c #593D2A",
"i  c #6A645C",
"p  c #69645B",
"a  c #53321E",
"s  c #553723",
"d  c #69635B",
"f  c #553622",
"g  c #68635A",
"h  c #553621",
"j  c #68625A",
"k  c #676259",
"l  c #53311C",
"z  c #676159",
"x  c #5C5247",
"c  c #5D5348",
"v  c #4F311E",
"b  c #5C5147",
"n  c #5D5248",
"m  c #503D30",
"M  c #4F3625",
"N  c #5D5449",
"B  c #584132",
"V  c #655F57",
"C  c #8E8D84",
"Z  c #584031",
"A  c #5F5349",
"S  c #594335",
"D  c #594233",
"F  c #584234",
"G  c #594334",
"H  c #543725",
"J  c #553725",
"K  c #6C675F",
"L  c #543624",
"P  c #563B2B",
"I  c #5A4739",
"U  c #5B483B",
"Y  c #5B493C",
"T  c #5D4D42",
"R  c #5B473A",
"E  c #4E2812",
"W  c #6C685F",
"Q  c #5C4B40",
"!  c #665F58",
"~  c #5C4B3F",
"^  c #5C493D",
"/  c #5E4F45",
"(  c #655C55",
")  c #655D56",
"_  c #5E4F44",
"`  c #908E86",
"'  c #908F86",
"]  c #543523",
"[  c #5D4E42",
"{  c #5C4D41",
"}  c #543623",
"|  c #563C2C",
" . c #553826",
".. c #573D2D",
"X. c #563B2A",
"o. c #61564B",
"O. c #767469",
"+. c #86847B",
"@. c #666057",
"#. c #63584D",
/* pixels */
"  . . . . . . . . . . . . . . . . . . . . . . . . . . . . . . .   . . . . . . . . . . . . . . . . . . . . . X X X X X X X X X X ",
"o O O O O O O O O O O O O O O O O O O O O O O O O O O O O O O + @ + O O O O O O O O O O O O O O O O O O O O . X X X X X X X X X ",
"# O O O O O O O O O O O O O O O O O O O O O O O O O O O O O O + $ + O O O O O O O O O O O O O O O O O O O O O . X X X X X X X X ",
"  O O O O O O O O O O O O O O O O O O O O O O O O O O O O O O +   + O O O O O O O O O O O O O O O O O O O O O . % X X X X X X X ",
"  & * * * & & & & & & & & & & & & & & & & & & & & & & & & * * *   * * * & & & & & & & & & & & & & O O O O O O . % % X X X X X X ",
"= - - - ; - - - - - : ; ; ; ; > > > > > - - - - ; ; ; - - - - - = - - - : ; ; ; > > - - - - - > , & O O O O O . % % X X X X X X ",
"= - - ; ; ; - - - ; : : : : : - - - - - - - - - ; ; ; ; ; ; ; ; = : : : : : : : - - - - - - - - < & O O O O O . % % X X X X X X ",
"= - ; ; : : ; ; ; : : : : : : - - - - - - - - - : : : : : : 1 1 = : : : : 2 2 3 - - - - - - ; ; 4 & O O O O O 5 % % X X X X X X ",
"= : : : : : 1 1 : : : : : 2 3 - - ; ; ; ; ; ; ; 3 3 3 3 3 3 3 3 = 3 3 3 3 3 3 3 ; ; ; ; ; ; ; ; 4 & O O O O O 5 % % X X X X X X ",
"= 3 3 3 3 3 3 3 3 3 3 3 3 3 3 : : : : : : : : : 3 3 3 3 3 3 3 3 = 3 6 6 6 6 6 7 : : : : : : : : 8 & 9 0 q q w 5 % % X X X X X X ",
"= 3 3 3 3 3 6 6 7 7 7 7 e e e 1 1 3 3 3 3 3 3 3 7 6 6 6 6 6 6 6 = 7 7 7 7 7 7 7 3 3 3 3 3 3 3 3 r t y y y y t 5 % % X X X X X X ",
"u 6 6 7 i i i i i i i i 7 7 7 7 7 7 7 7 7 7 7 7 p p p p p p 7 7 = 7 7 7 7 7 7 7 7 7 7 7 7 7 7 7 r & O O O O O 5 % % X X X X X X ",
"a p p p p p p p p p p p p p p 7 7 7 7 7 7 7 7 7 p p p p p p 7 p a 7 7 7 7 p p p 7 7 7 7 7 7 7 7 s & O O O O O 5 % % X X X X X X ",
"a d d d d d d p p p p p p p p p p p p i p p p p p d p p p p p d a p p p d d d d p i p p p p p p f & O O O O O 5 % % X X X X X X ",
"a g g g g g g g g g g g g g d d d d d d d d d d d d d d d d d d a d d d d d d d d d d d d d d d h & O O O O O 5 % % X X X X X X ",
"a j j j j j j j j j g g j g g k k k k k k k k k g g g g g d d d a d d d d d d d k k k k k j k j l & O O O O O 5 % % X X X X X X ",
"a z z z z z z z z z z z z z z z z z z z z z z z k k k k k k j k a j j j j j j j z z z z z z z z t & O O O O O 5 % % X X X X X X ",
"t z z z z z z z z z z z z z z z z z z z z z z z z z z z z z z z a z z z z z z z z z z z z z z z t & O O O O O 5 % % X X X X X X ",
"x t t t t t t t t t t t t t t t t t t t t t t t t t t t t t t t c t t t t t t t t t t t t t t t t & O O O O O 5 % % X X X X X X ",
"x x x x x x x v b b x n n n n n n n n n n n n n n n n n n n n n n n n n n n n m x x x x x x x x t & O O O O O 5 % % X X X X X X ",
"x x x x x x x v x x n n n n n n n n n n n n n n n n n n n n n n n n n n n n n M x x x x x x x x t & O O O O O 5 % % X X X X X X ",
"x x x x x x x v x x n n n n n n n n n n n n n n n n n n n n n n n n n n n n n M x x x x x x x x t & O O O O O 5 % % X X X X X X ",
"x x x x x x x v x x x n n n n n n n n n n n n n n n n n n n n n n n n n n n n M x x x x x x x x t & O O O O O 5 % % X X X X X X ",
"x x x x x x x v x x x n n n n n n n n n n n n n n n n n n n n n n n n n n n n M x x x x x x x x t & O O O O O 5 % % X X X X X X ",
"x x x x x x x v b b x n n n n n n n n n n n n n n n n n n n N n n n n n n n n M x x x x x x x x t & O O O O O 5 % % X X X X X X ",
"z z z z z z z B z z z z z z z z z z z z z z z z z z z z z z z z z V V V V V V B z z z z z z z z t & 9 C C 0 0 5 % % X X X X X X ",
"z z z z z z z Z z z z z z z z z z z z z z z z z z z z z z z z z z V V V V V V B z z z z z z z z t t y y y y t 5 % % X X X X X X ",
"A A A A A S S D F G A A A A A A A A A B B H J B B B B A A A A A A A A A A A B B B B A A A A A A t & O O O O O 5 % % X X X X X X ",
"K K K K K K K K K K K K K K K K K K K K K K L K K K K K K K K K K K K K K K K K K K K K K K K K t & O O O O O 5 % % X X X X X X ",
"z z z z z z z z z z z z z z z z z z z z z z P z z z z z z z z z z z z z z z z z z z z z z z z z t & O O O O O 5 % % X X X X X X ",
"z z z z z z z z z z z z z z z z z z z z z z B z z z z z z z z z z z z z z z z z z z z z z z z z t & O O O O O 5 % % X X X X X X ",
"z z z z z z z z z z z z z z z z z z z z z z A z z z z z z z z z z z z z z z z z z z z z z z z z t & O O O O O 5 % % X X X X X X ",
"z z z z z z z z z z z z z z z z z z z z z z A z z z z z z z z z z z z z z z z z z z z z z z z z t & O O O O O 5 % % X X X X X X ",
"z z z z z z z z z z z z z z z z z z z z z z A z z z z z z z z z z z z z z z z z z z z z z z z z t & O O O O O 5 % % X X X X X X ",
"z z z z z z z z z z z z z z z z z z z z z z A z z z z z z z z z z z z z z z z z z z z z z z z z t & O O O O O 5 % % X X X X X X ",
"z z z z z z z z z z z z z z z z z z z z z z A z z z z z z z z z z z z z z z z z z z z z z z z z t & O O O O O 5 % % X X X X X X ",
"A A A A I U Y T Y Y R A A A A A A A A A A A A A A A A A A A A A A A A A A B B E B B A A A A A A t & O O O O O 5 % % X X X X X X ",
"W W W W W K : Q K K K K K K K K K K K K K K K K K K K K K K K K K K K K K K K E K K K K K K K K t & O O O O O 5 % % X X X X X X ",
"! ! ! ! ! ! ! ~ ! ! ! ! ! ! ! ! ! ! ! ! ! ! ! ! ! ! ! ! ! ! ! ! ! ! ! ! ! ! ! E ! ! ! ! ! ! ! ! t & O O O O O 5 % % X X X X X X ",
"! ! ! ! ! ! ! ^ ! ! ! ! ! ! ! ! ! ! ! ! ! ! ! ! ! ! ! ! ! ! ! ! ! ! ! ! ! ! ! B ! ! ! ! ! ! ! ! t & O O O O O 5 % % X X X X X X ",
"! ! ! ! ! ! ! / ( ! ! ! ! ! ! ! ! ! ! ! ! ! ! ! ! ! ! ! ! ! ! ! ! ! ! ! ! ! ! B ! ! ! ! ! ! ! ! t & O O O O O 5 % % X X X X X X ",
"! ! ! ! ! ! ! / ) ! ! ! ! ! ! ! ! ! ! ! ! ! ! ! ! ! ! ! ! ! ! ! ! ! ! ! ! ! ! A ! ! ! ! ! ! ! ! t & O O O O O 5 % % X X X X X X ",
"! ! ! ! ! ! ! _ ! ! ! ! ! ! ! ! ! ! ! ! ! ! ! ! ! ! ! ! ! ! ! ! ! ! ! ! ! ! ! A ! ! ! ! ! ! ! ! t & ` ' ' ' ' 5 % % X X X X X X ",
"! ! ! ! ! ! ! ] ! ! ! ! ! ! ! ! ! ! ! ! ! ! ! ! ! ! ! ! ! ! ! ! ! ! ! ! ! ! ! B ! ! ! ! ! ! ! ! t t y y y y t 5 % % X X X X X X ",
"! ! ! ! ! ! ! ] ! ! ! ! ! ! ! ! ! ! ! ! ! ! ! ! ! ! ! ! ! ! ! ! ! ! ! ! ! ! ! B ! ! ! ! ! ! ! ! t & O O O O O 5 % % X X X X X X ",
"[ [ [ T ] ] ] ] ] ] { { { { { { { { T A B B } | B A A A A A A A A A A A A B B B B B B B B B B B t & O O O O O 5 % % X X X X X X ",
"K K K K K K K K K K K K K K K K K K K K K K  .K K K K K K K K K K K K K K K K K K K K K K K K K t & O O O O O 5 % % X X X X X X ",
"! ! ! ! ! ! ! ! ! ! ! ! ! ! ! ! ! ! ! ! ! ! ..! ! ! ! ! ! ! ! ! ! ! ! ! ! ! ! ! ! ! ! ! ! ! ! ! t & O O O O O 5 % % X X X X X X ",
"! ! ! ! ! ! ! ! ! ! ! ! ! ! ! ! ! ! ! ! ! ! A ! ! ! ! ! ! ! ! ! ! ! ! ! ! ! ! ! ! ! ! ! ! ! ! ! t & O O O O O 5 % % X X X X X X ",
"! ! ! ! ! ! ! ! ! ! ! ! ! ! ! ! ! ! ! ! ! ! A ! ! ! ! ! ! ! ! ! ! ! ! ! ! ! ! ! ! ! ! ! ! ! ! ! t & O O O O O 5 % % X X X X X X ",
"! ! ! ! ! ! ! ! ! ! ! ! ! ! ! ! ! ! ! ! ! ! A ! ! ! ! ! ! ! ! ! ! ! ! ! ! ! ! ! ! ! ! ! ! ! ! ! t & O O O O O 5 % % X X X X X X ",
"! ! ! ! ! ! ! ! ! ! ! ! ! ! ! ! ! ! ! ! ! ! A ! ! ! ! ! ! ! ! ! ! ! ! ! ! ! ! ! ! ! ! ! ! ! ! ! t & O O O O O 5 % % X X X X X X ",
"! ! ! ! ! ! ! ! ! ! ! ! ! ! ! ! ! ! ! ! ! ! B ! ! ! ! ! ! ! ! ! ! ! ! ! ! ! ! ! ! ! ! ! ! ! ! ! t & O O O O O 5 % % X X X X X X ",
"! ! ! ! ! ! ! ! ! ! ! ! ! ! ! ! ! ! ! ! ! ! X.! ! ! ! ! ! ! ! ! ! ! ! ! ! ! ! ! ! ! ! ! ! ! ! ! t & O O O O O 5 % % X X X X X X ",
"o.t t t t t t t t t t t t t t t t t t t t t t t t t t t t t t t o.t t t t t t t t t t t t t t t t & O O O O O 5 % % X X X X X X ",
"t O.O.O.O.O.O.O.O.O.O.O.O.O.O.O.O.O.O.O.O.O.O.O.O.O.O.O.O.O.O.O.t O.O.O.O.O.O.O.O.O.O.O.O.O.O.O.t & O O O O O 5 % % X X X X X X ",
"y O.O.O.O.O.O.O.O.O.O.O.O.O.O.O.O.O.O.O.O.O.O.O.O.O.O.O.O.O.O.O.y O.O.O.O.O.O.O.O.O.O.O.O.O.O.O.t & O O O O O 5 % % X X X X X X ",
"y O.O.O.O.O.O.O.O.O.O.O.O.O.O.O.O.O.O.O.O.O.O.O.O.O.O.O.O.O.O.O.y O.O.O.O.O.O.O.O.O.O.O.O.O.O.O.t & ` ' ' ' ' 5 % % X X X X X X ",
"y O.O.O.O.O.O.O.O.O.O.O.O.O.O.O.O.O.O.O.O.O.O.O.O.O.O.O.O.O.O.O.y O.O.O.O.O.O.O.O.O.O.O.O.O.O.O.t t y y y y t 5 % % X X X X X X ",
"y +.+.+.+.+.+.+.+.+.+.+.+.+.+.+.+.+.+.+.+.+.+.+.+.+.+.+.+.+.+.+.y +.+.+.+.+.+.+.+.+.+.+.+.+.+.+.t & O O O O O 5 % % X X X X X X ",
"y @.@.@.@.@.@.@.@.@.@.@.@.@.@.@.@.@.@.@.@.@.@.@.@.@.@.@.@.@.@.@.y @.@.@.@.@.@.@.@.@.@.@.@.@.#.#.t & O O O O O 5 % % X X X X X X ",
"y @.@.@.@.@.@.@.@.@.@.@.@.@.@.@.@.@.@.@.@.@.@.@.@.@.@.@.@.@.@.@.y @.@.@.@.@.@.@.@.@.@.@.@.@.#.#.t & O O O O O 5 % % X X X X X X ",
"t @.@.@.@.@.@.@.@.@.@.@.@.@.@.@.@.@.@.@.@.@.@.@.@.@.@.@.@.@.@.@.t @.@.@.@.@.@.@.@.@.@.@.@.@.#.#.t & O O O O O 5 % % X X X X X X ",
"t t t t t t t t t t t t t t t t t t t t t t t t t t t t t t t t t t t t t t t t t t t t t t t t t & O O O O O 5 % % X X X X X X "
};
