/* XPM */
static char *result[] = {
/* columns rows colors chars-per-pixel */
"64 64 51 1 ",
"  c #4E2913",
". c #522B14",
"X c #522F1A",
"o c #55311A",
"O c #59351E",
"+ c #563621",
"@ c #583722",
"# c #573824",
"$ c #593924",
"% c #5C3D29",
"& c #656C17",
"* c #72751B",
"= c #5E402B",
"- c #62432E",
"; c #634632",
": c #654934",
"> c #674C38",
", c #684D3A",
"< c #787B21",
"1 c #5F4F43",
"2 c #5F5043",
"3 c #5F554B",
"4 c #615347",
"5 c #6D5543",
"6 c #60564C",
"7 c #645B51",
"8 c #676158",
"9 c #6C655B",
"0 c #6E695D",
"q c #736454",
"w c #736857",
"e c #716A5E",
"r c #6F6960",
"t c #736C62",
"y c #777267",
"u c #777368",
"i c #7A756B",
"p c #7E796F",
"a c #7F7B70",
"s c #817C71",
"d c #7F8226",
"f c #838076",
"g c #868479",
"h c #89867B",
"j c #8C897D",
"k c #8E8B80",
"l c #918E83",
"z c #949186",
"x c #96938B",
"c c #9A968E",
"v c #9D9992",
/* pixels */
"****************************************************************",
"****************************************************************",
"****************************************************************",
"****************************************************************",
"****************************************************************",
"****************************:;:>;:::****************************",
"***************************-jzjjjjzj;***************************",
"***************************-zjjjjjzj:***d***********************",
"***************************-zjjjjjjj:***<<**********************",
"***************************-ccvcccvv:d<*&<**********************",
"***************************Ossstsess.d<<&&*dd<******************",
"***************************Osstttqss.&<<*&<<d*******************",
"***************************Osiysttsi.*&<*<<<********************",
"***************************Ossytttys.<*&&<<&********************",
"*****************:,,,,,::::Ossetetsy$;-;;:;;;-;*****************",
"*****************:,,,,,::::Ossttttss$--:;;;;-;;*****************",
"****************5kkkkjjjkjsjsstttttsqqhhhggggff;****************",
"****************5kjjkkjjlsksssttr9ssqhhshgggggf;****************",
"****************%vvvvvvvvcllsirtrrstzlzxxxxxcxx;****************",
"****************%vvvvvvvvczlsitrrtssllxxxxxcxxx;****************",
"****************$t999rr0errrerr0reret9r9998998s ****************",
"****************Xt9999000eeererrerer9r99988888y ****************",
"****************Xy99999rer9eee009rq99999988979s.****************",
"****************Xt9799909rer00err9rr9998998897t ****************",
"*****************..........oyy099999X..........*****************",
"***************************.ii99qert.***************************",
"***************************.iy9999tt.***************************",
"***************************.ii9999tt.***************************",
"***************************.ty0998rt.***************************",
"***************************.ttr777rr.***************************",
"***************************.tt77779t ***************************",
"***************************.tt8777tr ***************************",
"*************************** rt7777t9 ***************************",
"*************************** tr77779t.***************************",
"*************************** rr777799 ***************************",
"**********************++++# rr767799 XX   **********************",
"**********************+++++ 9r77779r XX   **********************",
"*********************#i0900#r9337799 44449 *********************",
"*********************%ipp0r r03346r9 449w9 *********************",
"*********************%ppppp 00663799 qe900 *********************",
"*********************%ipisi qr663799 q0eew **************d******",
"*********************%apsis r96663r9 ee9e9 *********dd<***<*****",
"********************<%passs 00111199 wewe0 **********d<<*&***d**",
"*********************%aassss;;O+####eeeee0 **********&<<d&*<<&**",
"***********d*********%ssssss;:@$#+##rreee0 *********d<&<<**<<&**",
"******dd<**<<********%ssssscsssssgggxrtree *********&<<&<**&&***",
"*******d<<*&<**<*****;ssssxkkhhshhggsxrree.**********&<&&*******",
"*******&<<<&*<<&*****;ssszkkklkhhhhgkskreeo*********************",
"******d<&<<**<<&*****-ssscjjkkjhkfkfggkrteo*********************",
"******&<<&<**&&******-sccjzjklkhkkfkkggkke *********************",
"*******&<&&**********-vvvvxzxzxzlllzllkxxc *********************",
"*********************.sttwser7q9r88r7rrr0y *********************",
"*********************.sttttte99977r78rrrry *********************",
"*********************.stttt99999rr8rr89r9t *********************",
"*********************.ittw09e909r8r798888t *********************",
"*********************.itte0999997r7r98888r *********************",
"*********************.itt9000099r78987978r *********************",
"*********************..o.......XXX. .  X . *********************",
"**************************************d<<***dd******************",
"**************************************&<<**<d*******************",
"***************************************&&*<<<*******************",
"******************************************<<&*******************",
"******************************************&&********************",
"****************************************************************"
};
