/* XPM */
static char *result[] = {
/* columns rows colors chars-per-pixel */
"64 64 66 1 ",
"  c #4E2913",
". c #532C15",
"X c #522E19",
"o c #573016",
"O c #55321C",
"+ c #59361F",
"@ c #573621",
"# c #593723",
"$ c #593A25",
"% c #553D2E",
"& c #5C3E29",
"* c #553F30",
"= c #656C17",
"- c #72751B",
"; c #57402F",
": c #5E422E",
"> c #564232",
", c #5D4332",
"< c #56463A",
"1 c #57483B",
"2 c #5B493C",
"3 c #61422D",
"4 c #624531",
"5 c #664934",
"6 c #684A36",
"7 c #634B3A",
"8 c #684C38",
"9 c #6B503D",
"0 c #787B21",
"q c #5F594F",
"w c #5F5950",
"e c #655747",
"r c #6E5441",
"t c #61574C",
"y c #63594C",
"u c #645C54",
"i c #676057",
"p c #6B6256",
"a c #676159",
"s c #6B645B",
"d c #6E685E",
"f c #70675C",
"g c #706A5E",
"h c #6F6960",
"j c #736C62",
"k c #777165",
"l c #787466",
"z c #777168",
"x c #7B766C",
"c c #7E796E",
"v c #807B6F",
"b c #817D72",
"n c #7F8226",
"m c #838176",
"M c #868479",
"N c #89867A",
"B c #8A887D",
"V c #8D8B81",
"C c #918E84",
"Z c #939187",
"A c #95938A",
"S c #99958D",
"D c #9B988F",
"F c #999790",
"G c #9E9B94",
"H c #A19E96",
/* pixels */
"----------------------------------------------------------------",
"---------------------------666663&3&&---------------------------",
"---------------------------666663&3+&0--------------------------",
"------------------------669BSBSBNNNNN++o------------------------",
"----------------------99DDDABDDSBBNNNvvvo-----------------------",
"----------------------99DDHBBABSBBNNNvvvo-----------------------",
"---------------------9DDDDDADSBBNNNBNvvvf++---------------------",
"-------------------69BDDDDDASBDSNBNNNvvvfff33-------------------",
"-------------------66BDDDDSZZCZZNBBBNvvvfff33-------------------",
"---------------566669BDDDDDHHHHDDBHBAvvvfff34333#---------------",
"-------------33CNNNNNBHDHHHjjvvjffvvgCCCfffMNNbNC34-------------",
"-------------33CNNBNNBDDHHHfvfjjfvfrgCCCfffMNNBNV44-------------",
"-------------66CNNBNBBHHvfjvkkkvfvkggkggvffNNNNNC34-------------",
"-------------86CNNNBBDjzfvjfjjjgffggkgjggvvNNMBbC43-------------",
"-------------88CNNNNBDgjvjvfjgjjfffkgggjgvvNNNNNV44-------------",
"-------------85CNBNBbvvjgzffjgjjgvgggkjjkjjMNMMNC43-------------",
"-------------&$HHHHGGjzjzjjgjjjfjjjjfjjhzjzZAAAAA430------------",
"-------------&$HHDGHHjkzzjjjjgjjgjjjjjhjjzjSZAAAA&&-------------",
"-------------o.bpfshdgjjjjjhjjjjjjjhjhjhzjzjjjssb. 0------------",
"-------------.obfffhfhffhhh7687777777jjhfzjzjsasb  -------------",
"-------------..bhsddhgjdhhh777777877rshjjzzjjsssbX.-------------",
"-------------..vssdddd77,r777NNNNBNee4*,3uffssusb  -------------",
"-------------o.vsfddhf77bBb33jjzzjj&,xxvouuhssusj .-------------",
"-------------..csddddd,7Vbb33zjzjjz4&xvvohsfssssj..-------------",
"-------------o.xssdfhdttooooojjjjzjoooo.tdassppuh  -------------",
"-------------..zsdsdsdddtttttoooXXotttttsssaapash..-------------",
"-------------..jssddddddttttt.ooooouttttssssaaauf .-------------",
"---------------.jhjssdsdfddjdttttttuhssssasuagjg.---------------",
"----------------...kjfsddddpssspssssuhuhpsujj.. ----------------",
"----------------...kjdddsddsfussssshfusssusjj. .----------------",
"------------------.kzdddddasapssushufuuuasuhh.------------------",
"------------------.kjd*>*%%aas%%%*&uu<*&>auhj ------------------",
"------------------Xzzs,*%%%aaa%%%%%us>**;uuhh ------------------",
"------------------ hza,*vvv**ajj*hjpu,jjd;;hh ------------------",
"------------------ zza27*22uuaau<uuuu<<<<kkhh ------------------",
"------------------ zha27227auuuu<upuu><<<kkhhX------------------",
"----------------##+jja<<zza22u2<1<<iu<jjkuuhd. .----------------",
"----------------#$Xjja<<zza<2u<<1<<ui<jjkquhdo o----------------",
"----------$33:::jj+fjafvaaavxujjkdduuduuiiqdd$eeXXXo  ----------",
"--------$$BMMmN$vvOhfauaaauuuuutuuuuuuuuqqqdd$eeOpppNN;$--------",
"--------+&BNNMN$jjOhhaauuaauuuuuuuuuuuuuqwwdd+eeopppNN$;-n------",
"--------33BNNMN$jvOfhauuuuuuuuuuuuutuuqqqqwdd+dd.ppvBN$@=n------",
"--------33BNMMM$vv.ffauuuuuuutuuuwwwwqqqqqqdd:pp.ppmBB$@-=---n--",
"--------35BNMNM$jzOfhauuwuuuuuuuuuuwwqqqqqqdd:fd.ppmNB+;n=-nn=--",
"--------44BNMMN&zzOhfuuuuuwuwuuuwwuqqqtqqqqds:ppXppMBB;@---n-=--",
"------nn44ZNNNN&zzz##&33:::::::,,,::::::&$$&:sppXppmBB+$n--==---",
"-------n44BMMNN&kzz##&::::,,::,,:3,3::::&$$&&pppoppMNN+$==------",
"-------=44CNNNN&lzNNbBbbmmmmmmbbmmmmmmmmmmmmmmppXfpmNN;$--------",
"------n065ZBBNN3GFFSSAASVVVVVVVVVCCCCCZZZAAAFFFFOpdmBB@@n=------",
"------=045BNNNN3GGFSSSSSVVVBVCVVVCCCCCCZZFAAZFFFOddmBB;@=n------",
"-------=54ZNNNN5jjhsashhhhahhshhhhhhhshaaaaauhhhogdmBB$$--------",
"--------46ANNNN5zzssssahaaahhsshhaahahhshahwhuhhOggmBB@@--------",
"--------66BNNBN5zhfsfssfsssshsssahahshssaaaaaahhOggMBB@;--------",
"--------56GNNBN5zzsfsssssssssssfhaaassaaaaaaaahh,ggmBB$@--------",
"--------55DNNNNN54544444,,,:,:::,:<**3&&,,**::>>mmmmBB$$--------",
"--------56DBNBNN45444446,,44,,:,::,,:,,33,*4::;<mmmmBB$$--------",
"--------55SNNNNNbNNbbVbbmmmmmbmbbmbmmmmmmmmmmmmmmmmmNN$@--------",
"--------::GGHGGGASSSSSZAAAAAAAAAZZZZZZZCCZZCZZAAFFFFFF@$--------",
"--------&:DGGGGGSSSSAAAZACAAACAAZZZZCZZCZCZZZZAAFFFFFF;@--------",
"--------o.kjlpppiiaapuupauuuuuuuuuuuuuuuuuuuwawuwdhhhh  --------",
"-------- oziipapaaauaaauuuauuuuuuuuuuuuuuuuuuuwuuuwhdd  --------",
"--------o zpipaaaauaauuuuuuuuuuauuuuuuuuuwuuuuuuuuuhdp  --------",
"--------  o  o   X   XX                                 --------",
"----------------------------------------------------------------"
};
