/* XPM */
static char *result[] = {
/* columns rows colors chars-per-pixel */
"64 64 55 1 ",
"  c #482413",
". c #4F2913",
"X c #4C2E1E",
"o c #502C16",
"O c #502E19",
"+ c #4F311E",
"@ c #54311C",
"# c #4D2F20",
"$ c #4E3325",
"% c #4F372B",
"& c #4F382C",
"* c #543623",
"= c #563926",
"- c #5A3B27",
"; c #503729",
": c #553B2C",
"> c #5B3D2A",
", c #533E33",
"< c #72751B",
"1 c #5C412F",
"2 c #534037",
"3 c #5B4434",
"4 c #54443B",
"5 c #5A4739",
"6 c #57483F",
"7 c #5C4A3D",
"8 c #604939",
"9 c #5D4E42",
"0 c #5A4E48",
"q c #5C5247",
"w c #5D534B",
"e c #655444",
"r c #60564E",
"t c #60584F",
"y c #605650",
"u c #655E55",
"i c #695F57",
"p c #665F58",
"a c #666057",
"s c #676159",
"d c #6A655D",
"f c #6D685F",
"g c #6E6A60",
"h c #716A63",
"j c #767469",
"k c #827F74",
"l c #848276",
"z c #868579",
"x c #89877C",
"c c #8B8780",
"v c #8D8A83",
"b c #918E87",
"n c #918F88",
"m c #94928B",
"M c #99978F",
/* pixels */
"<<<<<---------------------81------------1=----=------------e----",
"<<<<-zzzzzzzzzzzzzzzzzzzzz.xzzzzzzzzzzzzzzzzzzzzzzzzzzzzzzz=zzzz",
"<<<-zzzzzzzzzzzzzzzzzzzzxx.xzzzzzzzzzzzzzzzzzzzzzzzzzzzzzzz-zzzz",
"<<<-zzzzzzzzzzzzzzzzzzzzzx8zzzzzzzzzzzzzzzzzzzzzzzzzzzzzzzzezzzz",
"<<<>zzzzzzmmmmmmmmmmmmmmMx8MMmmmmmmMxxMMMmmmmmMxxMxMmxmmMMM8MMMM",
"<<<>zzzzzm8rgghgggfffffffj1ggggjggggjjggggfffffffgffggffggg1ffff",
"<<<>zzzzzm8rhhgggfffffffff1ggggggggggggffffffffffgffgfffgff1ffff",
"<<<>zzzzzm8tfggggfffffffff1fggggggfgggfgffffffffffffgffffff1ffff",
"<<<-zzzzzm8rrgggffffdfdfff1gffffggggffffffffdffffdfdffdffff1dfff",
"<<<-mmMMmm1ttfffffdfdfffdf:ghhffgggfffffffdfffdffffffdfddfd1dddd",
"<<<1.77e8o1refffffddddffdd>fffffffffffdffffadddddddfddddddf1fddd",
"<<<1xxzzxM1wwfdfddddddsddd>ffffdddddfdddaddfddddaddfadddddd1dddd",
"<<<1zzzzzm1wwwffdddddddddd1sddddddfdddddfafsfsfdfdddddddddf@ddad",
"<<<-zzzzzm@wwwsdsdsdsddddd1ssdsdadaddaddsffasfsfadddsdddsdd@sdds",
"<<<-zzzlzm@wwwssssdssddsss1asdsdddddddddddsddsdsdaadsddsdaa+dssd",
"<<<-zzzzzm@wwwwsaaaaaassss1assssaaaaaaaaasssssssadaadsadadd+adsa",
"<<<1lzzzzn@qwwqaauauaaaass.sssssssssssssssssssssdadadaaadaa+dada",
"<<<1lzzlzn@wqqquuuaauaaass.sssssssssssssssssssssaaaaaadadaa.aaaa",
"<<<@zzzzlv+X$$$$$$**@+X.X.........................o....O...q..O.",
"<<<1zzlzlv=9099qqqqqqqqqqqqqqqqwqq+qqqqwqqqqqqqqqqqqqqqqqqqqqqqq",
"<<<-zzzllc=q090qqqqqqqqqqqqqqqqqqq+wqqwqqqqqqwqqqqqqqqqqqqqqqqqq",
"<<<1zzzllc=09q0qqqqqqqqqqqqqqqqqwq;qqqqqqqqqqqqqqqqqqqqqqqqqqqqq",
"<<<-zzzlkx=q0qqqqqwqqqqqqqqqqqqqqq;qqqqqqqqqqqqqqqqqqqqqqqqqqqqq",
"<<<-zzzlkx=0q00qqqqqqqqqqqqqqqqqwq;qqqqqqqqqqqqqqqqqqqqqqqqqqqqq",
"<<<-xxxxzx170qq0qqqqqqqqqqqqe0wqqw;qqqqqqqqqqqqqqqqqqq00qqqqqqqq",
"<<<-xxxxxb-q0q0qqutuuaaasssssssssd5sasssssssssssssssssssadaadaad",
"<<<1oe88eO*q000q0uaauaasssssissssa5aaasssssssssssssssssssaaaadad",
"<<<-xxxzzb@,,2,,;1;45qqqqqwqqqq35553qqqqqqqqqeqq999qqqwwqtqtqqqq",
"<<<-zzzzzb*wwwwww$gddggdffffffffffffggfffffffffff7ffggdgggdgfffg",
"<<<1zzzzzn*qw0wwqXssssssssssssssssssaadasssssssss9ssssaaasssssss",
"<<<-zzzzzn@q0wqwq&ssssssssssssssssssssssssssssssaqssssssaassssss",
"<<<-zzzzzm@qwwwww4ssssssssssssssssssssssssssssssa9ssssssssssssss",
"<<<>zzzzxm*0wwwwy4ysssspsspsssppssssssssssssssssp9ssssssssssssss",
"<<<-zzzzzmOw00www4wsssspssssssspssssssssssssdssss0ssssssssssssss",
"<<<-zzzzzmO0ww0yw4ypsspdssssssppsssssssssspppssss3ssssspssssssss",
"<<<-zzzzzm*0w0yyy4wyssipsssppdppssssssssppdipssss:ssssspssssssss",
"<<<-zzzzzm@,,,,,222299990999999995::::77655556::***:we0qewwwwww5",
"<<<>zzzzzmOryyyyyyyydfdfffdfdgggdgg*ffffgdddddddddddgsgssdsgggdg",
"<<<>zzxzxm@0w00ywyyyppppppppppppppp*ppaappppuipppppppppppppppppp",
"<<<>zzzzxm@00000yytwrpppppppppppppp7ppsapppppppppppppppppppppppp",
"<<<>xzzzzn@0w0wywyyyyppppppppppppppwpppppppppppppppppppppppppppp",
"<<<>zzzzxm@00w0rwyyyyppppppppppppppwpppppppppppppppppppppppppppp",
"<<<-mmmmmm@0000ywyyyyypppppppppppppwpppppppppppppppppppppppppppp",
"<<<>oeeee.@00rr0wywyyyppppppppppppiqpppppppppppppppppppppppppppp",
"<<<>zzzzzn*00000wwwywepppppppppppppwppppppppppuipsppuppppppppppp",
"<<<-zzzzxmO;,,4$$$$%&,0099999r00eww0qwewwwewww66577009099999099*",
"<<<-zzzzxn#wywwyw$yywywgdggdfggggdggffffdffdgdggg7ffdggggddggdff",
"<<<-zzzzxn$000000$wwwwwpppppppppppppppppppppppppp7pppppppppppppp",
"<<<>zzzzzmO000000,0wy0ypppppppppppppppppppppppppp7ippppppppppppp",
"<<<>zzzzzm@000000,0w0y0ypppppppppppppppppppppppppqpppppppppppppp",
"<<<>zzzzzm@00000090wy0y0pppppppppppppppppppppppppwpppppppppppppp",
"<<<>zzzzzm@e00000&wy0y0yppppppppppppppppppppppppp3pppppppppppppp",
"<<<>zzzzzm@000009%00www0ppppppppppppppppppppppppp:pppppppppppppp",
"<<<-zzzzzm@090000;0w00we0ppppppppppppppppppppppps:pppppppppppppp",
"<<<>zzzzzm@               .y................... o..........r....",
"<<<>zzzzzm@weuuuuuppppuipjj.jjjjjjjjjjjjjjjjjjjjjjjjjjjjjjj.jjjj",
"<<<-zzzzzm@reppuuuuuuuuupjjejjjjjjjjjjjjjjjjjjjjjjjjjjjjjjjejjjj",
"<<<-mmmmmmOrwpuuuuuuuuuupjjejjjjjjjjjjjjjjjjjjjjjjjjjjjjjjjejjjj",
"<<<-.eeee.@reuuupuppuiuiujjejjjjjjjjjjjjjjjjjjjjjjjjjjjjjjjejjjj",
"<<<1zzzzzm@iihhhhhhhhhhhhzzezzzzzzzczzckzzzzzzzczczzzzzzzzzezzzz",
"<<<-zzzzzm@690wwwtttttttyppeaaaaaaaappppaaaaaaaappppaaaaaaaepppp",
"<<<1zzzzzm@690wyttttttttyppeaaaaaaaappppaaaaaaaappppaaaaaaaepppp",
"<<<-zzzzzm@69wwtwttttttttaa.aaaaaaaaaapaaaaaaaaaaapaaaaaaaa.aapa",
"<<<-zzzzzm@. ..................................................."
};
