/* XPM */
static char *result[] = {
/* columns rows colors chars-per-pixel */
"64 64 68 1 ",
"  c #4C2712",
". c #4E2913",
"X c #522C15",
"o c #522D18",
"O c #573017",
"+ c #55321D",
"@ c #5A351E",
"# c #573621",
"$ c #583722",
"% c #5A3A25",
"& c #5C3E2B",
"* c #656C17",
"= c #72751B",
"- c #5E412E",
"; c #574131",
": c #5E4331",
"> c #594739",
", c #54493F",
"< c #5C4B3E",
"1 c #61422E",
"2 c #614532",
"3 c #644936",
"4 c #69513E",
"5 c #787B21",
"6 c #574E43",
"7 c #5D4E42",
"8 c #5E5346",
"9 c #5F5850",
"0 c #615346",
"q c #685040",
"w c #615649",
"e c #655A4D",
"r c #695B4F",
"t c #645E55",
"y c #6A5E52",
"u c #705F51",
"i c #666057",
"p c #6B6156",
"a c #676158",
"s c #6A635A",
"d c #6E685F",
"f c #706052",
"g c #73675D",
"h c #726A5E",
"j c #6F6961",
"k c #736C64",
"l c #736E6A",
"z c #786F68",
"x c #767169",
"c c #7A756C",
"v c #7D796E",
"b c #7B7771",
"n c #7E7A72",
"m c #837C6E",
"M c #817D73",
"N c #7F8226",
"B c #858376",
"V c #868479",
"C c #89867B",
"Z c #8B897E",
"A c #8D8C82",
"S c #918E85",
"D c #929186",
"F c #93928A",
"G c #98978F",
"H c #99988F",
"J c #989790",
"K c #9B9A92",
/* pixels */
"================================================================",
"================================================================",
"================================================================",
"=====================$&&11111232222212111-%=====================",
"====================3MCFDDDSSASAASAAAAAAZgs$====================",
"====================3cmDDDSSASSAAAAAAAAAAyy$====================",
"====================3mcDDqreerwrreewwwwAAey$====================",
"====================3zmDD1&32222:111&&&AAye$====================",
"====================1vcSD&rryyuuuyyuyy&AVyt#====================",
"====================1vmSS&egggg11kllkk&VVyy$====================",
"====================2mcAS&rggg4ZZ1zkkk&VVee$N5==================",
"====================2mmAS%ygqq4ZZ11&bb&VBrr$N===================",
"====================2vmSS%u$ZZCZCCCC%c&VVer@====================",
"====================2MmDS%u%SFDZCDSS&c&VCeeX====================",
"==================%&1MMDF&uXyppCCfuy%c&VCeeXX.==================",
"=================1mF2BMFF&ff@@@BmO#@cc&VVwwXew.=================",
"================%MMF2BMFF%fxhh$MBOddcx-VVewXwww.================",
"================&MMF1MMFF%fcxm+Mvobccx-VVwwXew8.================",
"================&MMF2MMFS$yzcz+mvOMccc-BV8w+e88.================",
"================-MMD2BMDS$uMMMObvXnncc-VVw8oew8.================",
"================-MnF2MMDZ$uMnMXAZXnMnn;VVww+e8w.================",
"================1MMS1BBZA#uMnMoewOnnMn;VVw8or8w.================",
"================-MMS2MMAA#uMMngXojMMnn:VBwwOe88.================",
"================1vMS2MMZA#ubMnMjdnMMMv-VBw8Xy88X================",
"================2nMD-BBZZ@pnMnbnnnMnnn>VV88Xe88X================",
"================2MnS-BvZZ$fnbMMMMMnnnn;VVwwOp88.================",
"================2MMA:mMZZ$fvMbbMnnnnnn-VV88.y89.================",
"================2nnD:nvZZ@fnbbMbnMnnnn-VCwwoy8w.================",
"================2nvD-nvCZ@fnnbbnbnnnnn;VVwwoyww.================",
"================2nnS2vvCV@rnnbbbbbnnnn&VCwwOywwX================",
"================2nnA-vvVV+pxznbbnbbnnb&VVwwoy8w.================",
"================2nvD2vvCC+rzxzxmbbnnnv&VVwwoi8w.================",
"================2nnA:cvCCXezxzzbbbnnnb&VV8woi8wX================",
"================2nnS:vcZZ.yk><wetee,bx&VCweoiww.================",
"================:nnA:vcZZXyjVVCCVVMnbb&VC98Oyww.================",
"================2vnA:vvAZ.egkllzxxxxlx&CZ8e.p8w.================",
"================2nvA:ncZZXry77w000,&ll&AA8yoyww.================",
"================:vMA:ccZZXesxbbbMnMbll&AZet.pww.================",
"================:vvA&bcAA eyystjjjjlll;AAeeXswwX================",
"================:nnA&ccAA %&&:;&:&22:::AAeyXdww ================",
"================:nnA-ccZAAAAAAAAAAAAAAAAAet.dww.=========N======",
"================:vbA&ccKKKJJJJJJJJJJJJJJJyy.pwwX====NN5=========",
"================-vcA#xFFFFFFSFFFFFSFFFFFAKe sww.=====N55=*===N==",
"================:bcA#FFFFJFFFFFFFFFFFFFFFSK sww.=====*55N*=NN*==",
"===========N====-bcA+liaaassasaittttttttttk sw8.====N5*55==N=*==",
"======NN5==55===-bcA+laaysaaaiiittttstyytsk.pww.====*55*5==**===",
"=======N55=*5==N-ccA+o..X...X....   o   .  pyww =====*5**=======",
"=======*555*=55*-ccFZ+8877077<<<777>777777 ps88.================",
"======N5*55==55*-xcFZ%6888<867<<<<<<<<<,<<.ps88.================",
"======*55*5==**=;ccZZ$ddsiiiiiitttt99ttttd.ii88 ================",
"=======*5**=====;ccGZ+dddiiiitiit9ttt9t9ts.sh88.================",
"================#ccFZ%ddiiiitit9tt9t9t9t9s.hh88.================",
"================#xxFZ$diiiiit99i9999,,,99s+hj88.================",
"================#xxFZ+dtiiiiiiett9,,6,699s+hk88.================",
"================%xxGZ%%-$$$@$%%%%%%%%##++++hZ68 ================",
"================+xxHDZVVVBBBBmBvmmmmmmmmMMBBA88 ================",
"================+xxiisiiiiiiiiiiiitttttiitttt88 ================",
"================Xxiiiiiiiiiitiitiittttiti9tttt8 ================",
"================.iiisiiiiiiiii9itiiiittititittt ================",
"================... XXX..X                      ================",
"========================N*==========N*=**=555===================",
"========================*N==========*N====55*===================",
"==========================================**====================",
"================================================================"
};
