/* XPM */
static char *_354767a73484faced728aaaf3e059ed8jUtFvHVQPSvftfX[] = {
/* columns rows colors chars-per-pixel */
"64 64 148 2 ",
"   c #5A3B27",
".  c #94928B",
"X  c #868579",
"o  c #644E3C",
"O  c #88877B",
"+  c #5E4532",
"@  c #8B8A7F",
"#  c #604734",
"$  c #675341",
"%  c #624937",
"&  c #634D3C",
"*  c #695645",
"=  c #675544",
"-  c #675545",
";  c #939189",
":  c #94928A",
">  c #99978F",
",  c #675443",
"<  c #929088",
"1  c #908E86",
"2  c #918F87",
"3  c #918F88",
"4  c #665444",
"5  c #706D62",
"6  c #716C63",
"7  c #706C62",
"8  c #5B4230",
"9  c #706B62",
"0  c #6F6B61",
"q  c #6F6A61",
"w  c #6E6A60",
"e  c #6D695F",
"r  c #6D685F",
"t  c #5B4231",
"y  c #6C685E",
"u  c #6C675E",
"i  c #6F6C61",
"p  c #6F6C62",
"a  c #5C4332",
"s  c #6E6960",
"d  c #6E6A61",
"f  c #6B675D",
"g  c #6C665E",
"h  c #6B665D",
"j  c #5B4130",
"k  c #6D6960",
"l  c #6E6860",
"z  c #6C685F",
"x  c #6B655D",
"c  c #6B665E",
"v  c #5A402E",
"b  c #6D675F",
"n  c #6A655C",
"m  c #6A665C",
"M  c #6A645C",
"N  c #543421",
"B  c #593D2A",
"V  c #69645B",
"C  c #53321E",
"Z  c #69635B",
"A  c #68625A",
"S  c #68635A",
"D  c #512E1A",
"F  c #676159",
"G  c #4F2B17",
"H  c #676259",
"J  c #4D2713",
"K  c #4F2913",
"L  c #4B2511",
"P  c #4C2611",
"I  c #4D2712",
"U  c #5D5349",
"Y  c #5C5247",
"T  c #5D5348",
"R  c #5E544A",
"E  c #5E5349",
"W  c #5E5449",
"Q  c #4F311E",
"!  c #5C5147",
"~  c #5D5247",
"^  c #5D5248",
"/  c #5E5348",
"(  c #5D544A",
")  c #4F3625",
"_  c #4F3626",
"`  c #5D5449",
"'  c #655F57",
"]  c #5A4537",
"[  c #584132",
"{  c #5A4739",
"}  c #543624",
"|  c #594435",
" . c #5A4436",
".. c #5A4536",
"X. c #5E5146",
"o. c #5D4D41",
"O. c #5F5349",
"+. c #563D2C",
"@. c #563B2A",
"#. c #553726",
"$. c #553827",
"%. c #583F30",
"&. c #543725",
"*. c #553725",
"=. c #6C675F",
"-. c #563B2B",
";. c #573F30",
":. c #5D4D42",
">. c #5D4E42",
",. c #594537",
"<. c #573D2E",
"1. c #5C4C40",
"2. c #5B4A3D",
"3. c #5B493C",
"4. c #5B483B",
"5. c #573C2D",
"6. c #543523",
"7. c #5B473A",
"8. c #543625",
"9. c #69645C",
"0. c #5C4B40",
"q. c #665F58",
"w. c #5C4B3F",
"e. c #5C4A3E",
"r. c #5C493D",
"t. c #5E4F45",
"y. c #655C55",
"u. c #655D56",
"i. c #5E4F44",
"p. c #594436",
"a. c #5C4B3E",
"s. c #5D5044",
"d. c #5D4F43",
"f. c #5D4E43",
"g. c #5C4D41",
"h. c #543623",
"j. c #563C2C",
"k. c #553826",
"l. c #573D2D",
"z. c #573E2E",
"x. c #56321C",
"c. c #77756A",
"v. c #767469",
"b. c #5E3B25",
"n. c #655444",
"m. c #86847B",
"M. c #666057",
"N. c #655F56",
/* pixels */
"        .                                                                                                                       ",
"X X X X o X X X X X X X X X X X X X X X X X X X X X X X X O X + X X X X X X X X X X X X X X X X X X X X X X X X @ # @ X X X X X ",
"X X X X $ X X X X X X X X X X X X X X X X X X X X X X X X X X % X X X X X X X X X X X X X X X X X X X X X X X X @ & @ X X X X X ",
"X X X X * X X X X X X X X X X X X X X X X X X X X X X X X X X = X X X X X X X X X X X X X X X X X X X X X X X X @ - @ X X X X X ",
"; : > > , > > > . < 1 1 1 2 3 3 3 3 3 3 3 3 3 3 3 3 < . > > > 4 . > > > . . . . . . . . . . . . . . . . . . > > > = > > > . . . ",
"5 6 6 7 8 9 9 9 9 9 9 0 q w w e e e r r r r r r r e e e e e r t r r r y r r r r r u y y y y y y y y y y r r r r r t r r r u y y ",
"q 0 i p a 0 0 0 0 0 q q w s e r r r r r r r r r r r r r e r r t r r y y y r r r y u u u u u u y y y y y y y y y y t u u u u u u ",
"d q q q a q q q w w s s s e e r r r r r r r r y y y y y y u u t r y y u u y y y u u u u u u u u u u u u u u u f f t u u u u g g ",
"s d q w t s w s s s s s s e r r y y y y y y y y y y u u u u u t u u u u u f f u u u u u g h h h h h h h h h h h h t h h h h h h ",
"r r r r j e s s s k l z y y u u u u u u u u u u u u f f f f f t h h h h h h h h h h h h h h h h h h h h h h h h h t h x x x x x ",
"c c g g v u r r b u u y y u u f h h h h h h h h h h h h h h h t h h h h h x x n n n n m m m m m n n x x x x x x x t n n n n n n ",
"M x x x N h g g g g h h h h n n n n n n n n n n n n n x x x x B x x n M M M M M M M M n n n n n V V V V V V V n n t n n n n n n ",
"V V V V C V M M n n n n n n n n n n n n n n n n n n n n n M n C V V V V V V V V V V V V V V V V V V V V V V V n V C n n n n V V ",
"Z V V V C V V V V V V V V V V V V M V V V V V V V V V V V V V C Z Z Z Z Z Z V V V V V V V V V V V V Z V V V V V Z C V V V Z Z Z ",
"A A A S D A A A A S Z Z Z Z Z Z Z Z Z Z Z Z Z Z Z Z Z Z Z S S C S S S S S S S S S S S S S Z Z Z Z Z Z Z Z Z Z Z Z C Z Z Z Z Z Z ",
"F F F F G F F H F H H H H H F H H H H H H H A H A A A S S S A C A A A A A A A A A S S A S S S S S S S S S S Z Z Z C Z Z Z Z Z Z ",
"F F F F J F F F F F F F F F F F F F F F F F F F F F F F F F F C F F F F F F F F F F F F F F F F F H H H H H H A H C A A A A A A ",
"F F F F K F F F F F F F F F F F F F F F F F F F F F F F F F F K F F F F F F F F F F F F F F F F F F F F F F F F F C F F F F F F ",
"L L P I U K K K K K K K K K K K K K K K K K K K K K K K K K K Y K K K K K K K K K K K K K K K K K K K K K K K K K T K K K K K K ",
"R E R W U U Q Y Y Y Y Y Y Y Y Y Y Y Y Y Y Y Y Y Y Y Y Y Y Y Y Y Y Y Y Y Y Y Q ! ! Y ~ ~ ~ ~ ^ ^ ^ ^ ^ ^ ^ T T T T T T / W W R R ",
"R R R R U U Q U Y Y Y Y Y Y Y Y Y Y Y Y Y Y Y Y Y Y Y Y Y Y Y Y Y Y Y Y Y Y Q Y Y ~ ~ ~ ~ ~ ^ ^ ^ ^ T ^ ^ T T T T T T / W W R R ",
"R R R R ( U ) U Y Y Y Y Y Y Y Y Y Y Y Y Y Y Y Y Y Y Y Y Y Y Y Y Y Y Y Y Y Y ) Y Y ~ ~ ~ ~ ~ ^ ^ ^ ^ T T ^ T T T T T T / W W R R ",
"R R R R ( U ) Y Y Y Y Y Y Y Y Y Y Y Y Y Y Y Y Y Y Y Y Y Y Y Y Y Y Y Y Y Y Y ) Y Y Y ~ ~ ~ ~ ^ ^ ^ ^ T T T T T T T T T / W W R R ",
"R R R R ( ( _ U Y Y Y Y Y Y Y Y Y Y Y Y Y Y Y Y Y Y Y Y Y Y Y Y Y Y Y Y Y Y ) Y Y Y ~ ~ ~ ~ ^ ^ ^ ^ T T T T T T T T T / W W R R ",
"R R R R ( ( _ U Y Y Y Y Y Y Y Y Y Y Y Y Y Y Y Y Y Y Y Y Y Y Y Y Y Y Y Y Y Y ) ! ! Y ~ ~ ~ ~ ~ ^ ^ ^ ^ T T T T T T T T E W ` R R ",
"' ' ' ' ' ' ] F F F F F F F F F F F F F F F F F F F F F F F F F F F F F F F [ F F F F F F F F F F F F F F F F F F F F F F F F F ",
"' ' ' ' ' ' { F F F F F F F F F F F F F F F F F F F F F F F F F F F F F F F } F F F F F F F F F F F F F F F F F F F F F F F F F ",
"| | |  .........X.X.X.X.X.X.X.X.X.X.X.X.o.o.o.X.X.X.O.O.O.O.O.O.O.O.[ [ +.@.#.$.%.O.O.O.O.O.O.O.O.O.[ [ &.*.[ [ [ [ O.O.O.O.[ [ ",
"r r r r r r r r r r r r r r r r r r r r r o.=.=.=.=.=.=.=.=.=.=.=.=.=.=.=.=.=.=.=.=.=.=.=.=.=.=.=.=.=.=.=.} =.=.=.=.=.=.=.=.=.=.",
"F F F F F F F F F F F F F F F F F F F F F o.F F F F F F F F F F F F F F F F F F F F F F F F F F F F F F F -.F F F F F F F F F F ",
"F F F F F F F F F F F F F F F F F F F F F o.F F F F F F F F F F F F F F F F F F F F F F F F F F F F F F F [ F F F F F F F F F F ",
"F F F F F F F F F F F F F F F F F F F F F o.F F F F F F F F F F F F F F F F F F F F F F F F F F F F F F F O.F F F F F F F F F F ",
"F F F F F F F F F F F F F F F F F F F F F o.F F F F F F F F F F F F F F F F F F F F F F F F F F F F F F F O.F F F F F F F F F F ",
"F F F F F F F F F F F F F F F F F F F F F o.F F F F F F F F F F F F F F F F F F F F F F F F F F F F F F F O.F F F F F F F F F F ",
"F F F F F F F F F F F F F F F F F F F F F [ F F F F F F F F F F F F F F F F F F F F F F F F F F F F F F F O.F F F F F F F F F F ",
"F F F F F F F F F F F F F F F F F F F F F ;.F F F F F F F F F F F F F F F F F F F F F F F F F F F F F F F O.F F F F F F F F F F ",
":.:.>.>.>.,.<.-.-.-.1.2.3.3.4.4.4.4.5.5.} 6.#.5.O.O.O.O.O.O.O.O.O.O.O.{ 4.3.:.3.3.7.O.O.O.O.O.O.O.O.O.O.O.O.O.O.O.O.O.O.O.O.[ [ ",
"u =.=.=.=.=.=.8.=.=.=.=.=.9.9.9.9.9.9.9.9.9.9.9.9.9.9.9.9.9.9.z z z z z =.u 0.=.=.=.=.=.=.=.=.=.=.=.=.=.=.=.=.=.=.=.=.=.=.=.=.=.",
"q.q.q.q.q.q.q.8.q.q.q.q.q.q.q.q.q.q.q.q.q.q.q.q.q.q.q.q.q.q.q.q.q.q.q.q.q.q.w.q.q.q.q.q.q.q.q.q.q.q.q.q.q.q.q.q.q.q.q.q.q.q.q.q.",
"q.q.q.q.q.q.q.e.q.q.q.q.q.q.q.q.q.q.q.q.q.q.q.q.q.q.q.q.q.q.q.q.q.q.q.q.q.q.r.q.q.q.q.q.q.q.q.q.q.q.q.q.q.q.q.q.q.q.q.q.q.q.q.q.",
"q.q.q.q.q.q.q.O.q.q.q.q.q.q.q.q.q.q.q.q.q.q.q.q.q.q.q.q.q.q.q.q.q.q.q.q.q.q.t.y.q.q.q.q.q.q.q.q.q.q.q.q.q.q.q.q.q.q.q.q.q.q.q.q.",
"q.q.q.q.q.q.q.O.q.q.q.q.q.q.q.q.q.q.q.q.q.q.q.q.q.q.q.q.q.q.q.q.q.q.q.q.q.q.t.u.q.q.q.q.q.q.q.q.q.q.q.q.q.q.q.q.q.q.q.q.q.q.q.q.",
"q.q.q.q.q.q.q.O.q.q.q.q.q.q.q.q.q.q.q.q.q.q.q.q.q.q.q.q.q.q.q.q.q.q.q.q.q.q.i.q.q.q.q.q.q.q.q.q.q.q.q.q.q.q.q.q.q.q.q.q.q.q.q.q.",
"q.q.q.q.q.q.q.O.q.q.q.q.q.q.q.q.q.q.q.q.q.q.q.q.q.q.q.q.q.q.q.q.q.q.q.q.q.q.6.q.q.q.q.q.q.q.q.q.q.q.q.q.q.q.q.q.q.q.q.q.q.q.q.q.",
"q.q.q.q.q.q.q.O.q.q.q.q.q.q.q.q.q.q.u.q.q.q.q.q.q.q.q.q.q.q.q.q.q.q.q.q.q.q.6.q.q.q.q.q.q.q.q.q.q.q.q.q.q.q.q.q.q.q.q.q.q.q.q.q.",
"p.O.O.O.O.O.O.O.O.O.O.O.O.O.O.O.O.O.a.a.3.a.a.s.s.s.s.d.f.>.>.>.>.>.:.6.6.6.6.6.6.g.g.g.g.g.g.g.g.:.O.[ [ h.j.[ O.O.O.O.O.O.O.[ ",
"=.=.=.=.=.=.=.=.=.=.=.=.=.=.=.=.=.=.=.=.=.a.=.=.=.=.=.=.=.=.=.=.=.=.=.=.=.=.=.=.=.=.=.=.=.=.=.=.=.=.=.=.=.k.=.=.=.=.=.=.=.=.=.=.",
"q.q.q.q.q.q.q.q.q.q.q.q.q.q.q.q.q.q.q.q.q.a.q.q.q.q.q.q.q.q.q.q.q.q.q.q.q.q.q.q.q.q.q.q.q.q.q.q.q.q.q.q.q.l.q.q.q.q.q.q.q.q.q.q.",
"q.q.q.q.q.q.q.q.q.q.q.q.q.q.q.q.q.q.q.q.q.a.q.q.q.q.q.q.q.q.q.q.q.q.q.q.q.q.q.q.q.q.q.q.q.q.q.q.q.q.q.q.q.O.q.q.q.q.q.q.q.q.q.q.",
"q.q.q.q.q.q.q.q.q.q.q.q.q.q.q.q.q.q.q.q.q.X.q.q.q.q.q.q.q.q.q.q.q.q.q.q.q.q.q.q.q.q.q.q.q.q.q.q.q.q.q.q.q.O.q.q.q.q.q.q.q.q.q.q.",
"q.q.q.q.q.q.q.q.q.q.q.q.q.q.q.q.q.q.q.q.q.O.q.q.q.q.q.q.q.q.q.q.q.q.q.q.q.q.q.q.q.q.q.q.q.q.q.q.q.q.q.q.q.O.q.q.q.q.q.q.q.q.q.q.",
"q.q.q.q.q.q.q.q.q.q.q.q.q.q.q.q.q.q.q.q.q.[ q.q.q.q.q.q.q.q.q.q.q.q.q.q.q.q.q.q.q.q.q.q.q.q.q.q.q.q.q.q.q.O.q.q.q.q.q.q.q.q.q.q.",
"q.q.q.q.q.q.q.q.q.q.q.q.q.q.q.q.q.q.q.q.q.l.q.q.q.q.q.q.q.q.q.q.q.q.q.q.q.q.q.q.q.q.q.q.q.q.q.q.q.q.q.q.q.[ q.q.q.q.q.q.q.q.q.q.",
"q.q.q.q.q.q.q.q.q.q.q.q.q.q.q.q.q.q.q.q.q.z.q.q.q.q.q.q.q.q.q.q.q.q.q.q.q.q.q.q.q.q.q.q.q.q.q.q.q.q.q.q.q.@.q.q.q.q.q.q.q.q.q.q.",
"x.x.x.x.q.x.x.x.x.x.x.x.x.x.x.x.x.x.x.x.x.x.x.x.x.x.x.x.x.x.x.q.x.x.x.x.x.x.x.x.x.x.x.x.x.x.x.x.x.x.x.x.x.x.x.x.x.q.x.x.x.x.x.x.",
"c.v.v.v.K v.v.v.v.v.v.v.v.v.v.v.v.v.v.v.v.v.v.v.v.v.v.v.v.v.v.b.v.v.v.v.v.v.v.v.v.v.v.v.v.v.v.v.v.v.v.v.v.v.v.v.v.x.v.v.v.v.v.v.",
"c.v.v.v.n.v.v.v.v.v.v.v.v.v.v.v.v.v.v.v.v.v.v.v.v.v.v.v.v.v.v.n.v.v.v.v.v.v.v.v.v.v.v.v.v.v.v.v.v.v.v.v.v.v.v.v.v.n.v.v.v.v.v.v.",
"c.v.v.v.n.v.v.v.v.v.v.v.v.v.v.v.v.v.v.v.v.v.v.v.v.v.v.v.v.v.v.n.v.v.v.v.v.v.v.v.v.v.v.v.v.v.v.v.v.v.v.v.v.v.v.v.v.n.v.v.v.v.v.v.",
"c.v.v.v.n.v.v.v.v.v.v.v.v.v.v.v.v.v.v.v.v.v.v.v.v.v.v.v.v.v.v.n.v.v.v.v.v.v.v.v.v.v.v.v.v.v.v.v.v.v.v.v.v.v.v.v.v.n.v.v.v.v.v.v.",
"m.m.m.m.n.m.m.m.m.m.m.m.m.m.m.m.m.m.m.m.m.m.m.m.m.m.m.m.m.m.m.n.m.m.m.m.m.m.m.m.m.m.m.m.m.m.m.m.m.m.m.m.m.m.m.m.m.n.m.m.m.m.m.m.",
"M.M.M.M.n.M.M.M.M.M.M.M.M.M.M.M.M.M.M.M.M.M.M.M.M.M.M.M.M.M.M.n.M.M.M.M.M.M.M.M.M.M.M.M.M.M.M.M.M.M.M.M.M.M.M.M.M.n.M.M.M.M.M.M.",
"M.M.M.M.n.M.M.M.M.M.M.M.M.M.M.M.M.M.M.M.M.M.M.M.M.M.M.M.M.M.M.n.M.M.M.M.M.M.M.M.M.M.M.M.M.M.M.M.M.M.M.M.M.M.M.M.M.n.M.M.M.M.M.M.",
"M.M.N.M.K M.M.M.M.M.M.M.M.M.M.M.M.M.M.M.M.M.M.M.M.M.M.M.M.M.M.K M.M.M.M.M.M.M.M.M.M.M.M.M.M.M.M.M.M.M.M.M.M.M.M.M.K M.M.M.M.M.M.",
"K K K K K K K K K K K K K K K K K K K K K K K K K K K K K K K K K K K K K K K K K K K K K K K K K K K K K K K K K K K K K K K K "
};
